<?xml version="1.0" encoding="utf-8"?>
<!-- Generator: Adobe Illustrator 23.0.6, SVG Export Plug-In . SVG Version: 6.00 Build 0)  -->
<svg version="1.1" id="Ebene_1" xmlns="http://www.w3.org/2000/svg" xmlns:xlink="http://www.w3.org/1999/xlink" x="0px" y="0px"
	 viewBox="0 0 130.6 65.3" style="enable-background:new 0 0 130.6 65.3;" xml:space="preserve">
<style type="text/css">
	.st0{display:none;}
	.st1{display:inline;}
	.st2{fill:#FFFFFF;}
	.st3{fill:#1D1D1B;}
	.st4{display:inline;fill:none;}
	.st5{font-family:'LomoWebPixelLTStd-4';}
	.st6{font-size:60px;}
	.st7{display:inline;fill:#FF4DFF;}
</style>
<g class="st0">
	<g class="st1">
		<path d="M-91.5,358.4c-0.8-0.1-1.6-0.2-2.4-0.3c-2.8-0.3-4.6-1.3-4.7-2.6c0-1.2,0.1-2.4,0.1-3.6c0-0.3-0.2-0.5-0.2-0.8
			c0-0.4-0.3-0.8,0.1-1.2c1.5-1.2,0.7-2.3-0.1-3.5c-0.3-0.5-0.1-1-0.1-1.5c0.4-0.1,0.8-0.1,1.1-0.2c1.6-0.2,1.7-0.3,1.1-0.9
			c-0.4-0.4-0.9-0.9-0.9-1.3c-0.1-0.6-0.5-1.3,2.3-1.4c-3.3-1.1-2.7-2.3-1.9-3.6c0.5,0,0.9,0,1.2,0c-0.5-1.2-1-2.4-1.5-3.5
			c-0.7,0-1.2,0-1.7,0c0.6-0.7,1.2-1.4,1.8-2.1c0.4,0.1,0.8,0.1,1.3,0.2c0.1-0.1,0.3-0.2,0.3-0.3c-0.3-0.5-0.5-1.1-0.9-1.6
			c-0.6-0.7-0.4-1.3,0.4-1.9c1.2-0.8,0.8-1.6-0.1-2.4c-0.2-0.2-0.5-0.4-0.5-0.6c-0.1-2.9-0.1-5.8-0.1-8.8c0.7,0,1-0.1,1.4-0.1
			c0-0.1,0.1-0.2,0-0.2c-0.8-0.4-1.3-0.7-0.5-1.2c0.3-0.2,0.3-0.6,0.2-0.9c-0.6-1.2-1.2-2.5-2-3.7c-0.6-0.8-0.1-1.6,0.8-2.2
			c1.3-0.9,0.9-1.8,0.2-2.7c-0.4-0.5-0.4-0.8,0.3-1.2c1.2-0.7-0.3-1.4-0.1-2.1c-2.2-0.9-1.2-2.1-1.1-3.1c0.1-0.9-0.1-1.8-0.4-2.7
			c-0.1-0.3-0.4-0.6-0.2-0.8c1.3-1.4,0.3-2.8,0.7-4.3c0.3-1.2,0.1-2.4,0.1-3.6c0-0.2-0.1-0.3,0-0.5c0.8-0.9,0.6-1.8,0.4-2.7
			c-0.3-1.5,0.1-3,0-4.5c0-1.2-0.4-2.5-0.4-3.7c0-0.8,0.4-1.5,0.8-2.3c0.3-0.7,0.8-1.3-0.5-2c-0.7-0.3-0.5-1.1-0.2-1.7
			c0.5-0.8,0.9-1.7,0.4-2.5c-0.3-0.5,0.4-1.2,0.3-1.7c-0.1-0.5,0.8-1.1-0.6-1.6c-0.5-0.2,0.1-0.9,0.4-1.3c0.8-1.2,0.7-2.5-0.5-3.6
			c-0.1-0.1-0.3-0.2-0.2-0.3c1.4-1.5-1.3-2.7-0.6-4.2c0.2,0,0.6,0,1.2,0c0.4-1.1,0.6-2.2-0.4-3.3c-0.3-0.3-0.4-0.8-0.1-1.1
			c1.3-1.3,0.2-2.7,0.8-4c0.1-0.2-0.6-0.5-0.9-0.8c1.7-0.8,2.5-2.5,0.5-3.1c1.6-0.8,1-1.5,0-2.3c1.3-0.4,1.6-0.8,0.6-1.4
			c-0.1,0-0.2-0.2-0.1-0.2c0.6-0.9,0.1-1.8,0.1-2.8c0,0,0-0.1,0-0.1c0.7,0,1-0.1,0.8-0.4c-0.1-0.2-0.2-0.3-0.3-0.5
			c-0.7-0.9-1.2-1.8,0.4-2.6c0.3-0.1,0.1-0.5,0.1-0.7c0-1.2,0.3-2.5-0.2-3.7c-0.7-1.6,0.3-3.1,0.6-4.6c0.1-0.5,0.1-1-0.2-1.5
			c-0.4-0.7-0.3-1.4,0.5-1.9c0.8-0.5,0.6-0.9,0.3-1.3c-0.8-1.2-1.1-2.3,0.1-3.5c0.4-0.4,0.1-1-0.3-1.4c-0.6-0.5-0.5-1-0.2-1.6
			c0.3-0.5,0.4-1.1,0.4-1.6c0.2-1.1,0.3-2.2,0.5-3.4c0.1-0.4,0.3-0.8,0.3-1.2c0-2-0.5-4,0.1-6c0.5-2-0.1-4.1,1-6.1
			c0.4-0.9-0.2-1.8-0.2-2.8c0-0.8,0.3-1.7,0.3-2.5c0.1-1.4,0.2-2.7,0.2-4c0-0.4,0.2-0.8,0.2-1.2c0-0.9,0-1.8,0-2.7
			c0-0.4-0.3-0.9,0-1.3c1.2-1.4,0.5-2.8,0.7-4.2c0.3-1.6,0.1-3.2,0.1-4.8c0.1-2.4,0.2-4.8,0.3-7.1c0,0-0.1-0.1,0-0.1
			c1.3-1.7,0.3-3.3,0.1-5c-0.1-1.1-0.3-2.2-0.3-3.3c0.1-3.2-0.3-6.4-0.1-9.5c0-0.4-0.2-0.9-0.2-1.3c0-0.5,0.1-1,0.2-1.5
			c0-0.1,0.2-0.2,0.1-0.3c-1.1-2,0.4-4.1-0.5-6.1c-0.3-0.7,0.2-1.5,0.3-2.3c0-0.6-0.1-1.2-0.2-1.8c-0.4-2.2-0.8-4.3-1.1-6.5
			c-0.2-1.5-0.2-3-0.3-4.4c0-0.6-0.1-1.2-0.3-1.8c-0.2-0.7-0.5-1.3,0.3-1.9c0.3-0.2,0.3-0.5,0.1-0.8c-0.9-1.2-0.8-2.5-0.6-3.7
			c0-0.2,0.1-0.3,0.1-0.5c-0.1-1.9-0.1-3.9-0.2-5.8c0,0,0-0.1,0-0.1c1.2-1.5-0.1-3,0.1-4.5c0.2-1.5-0.5-2.9-0.3-4.4
			c0.2-2.1-1-4.2,0.2-6.3c0.1-0.2-0.2-0.5-0.2-0.7c-0.7-1.8-1.2-3.5-0.4-5.3c0.5-1.2-0.3-2.4,0.1-3.7c0.7-2.1-0.8-4.2,0.6-6.4
			c0.2-0.3,0.1-0.6,0-0.9c-0.9-1.6-0.3-3.3-0.4-5c0-1.8,0.6-3.5,0.7-5.3c0.1-0.9-0.3-1.8-0.3-2.7c0.1-1.5,0.4-3.1,0.5-4.6
			c0.1-0.7,0.2-1.4,0.2-2.1c0-1.8-0.2-3.6-0.2-5.4c0.1-1.8,0.5-3.6,0.5-5.4c0.1-2.2-0.1-4.3-0.1-6.5c0-1.5,0.2-3.1,0.2-4.7
			c0-0.5-0.1-1.1-0.2-1.6c-0.1-2.4-0.2-4.7-0.4-7.1c-0.2-2.5-0.6-5-1-7.6c-0.2-1.2-0.7-2.5-0.3-3.7c0.3-1.3-0.1-2.6-0.1-3.9
			c0.1-2.7,0-5.4-0.1-8.1c0-0.7-0.3-1.4-0.2-2.1c0.4-3.1,0.3-6.2-0.3-9.3c-0.3-1.7-0.1-3.4,0-5c0-0.3-0.2-0.6,0.8-0.8
			c0.2,0,0.4-0.3,0.4-0.4c0.3-1.3,1.4-2.5,1.3-3.9c-0.2-1.6,1.3-3,2-4.5c0.2-0.3,1-0.6,1.6-0.9c2.1-1,2.5-2.2,2.7-3.4
			c0.1-0.6,0.1-1.2,1.3-1.7c0.8-0.4,1.6-0.9,1.3-1.5c-0.1-0.3,0.4-0.7,0.7-1.1c3.2,0.5,2.3,1.9,3.8,2.7c3.6-0.2,7.1-0.4,10.7-0.6
			c3.2-0.2,6.3-0.4,9.5-0.5c9.7-0.2,19.4-0.7,29.1-1.3c9.6-0.5,19.1-1.1,28.8-1.4c7.9-0.2,15.8-0.4,23.7,0c2.9,0.1,5.8-0.1,8.7-0.1
			c7.5,0.1,14.9,0.2,22.4,0.2c3.1,0,6.2,0,9.2,0c5.7,0,11.4,0,17.1,0c6.1,0,12.1,0,18.2,0.1c3.1,0.1,6.1,0.1,9.2,0.1
			c1.7,0,3.5,0.2,5.2,0.2c1.6,0,2.9,0.5,4.8,0.1c1.5-0.3,3.6-0.1,5.5,0c1.8,0,3.5,0.2,5.3,0.2c1.8,0,3.5,0.1,5.3,0.1
			c3,0,5.9,0,8.9,0c0.3,0,0.8,0,1,0.1c0.9,0.4,1.9,0.3,2.9,0.1c1.3-0.2,2.4-0.2,3.9-0.1c1.7,0.1,3.6,0.5,5.5,0
			c0.8-0.2,1.8-0.1,2.8-0.1c3,0,5.9,0.1,8.9,0.1c4.4,0,8.8,0.3,13.3,0c1.6-0.1,3.3,0.2,4.9,0.2c1.5,0,3.1,0,4.7,0
			c5.2-0.1,10.4-0.3,15.7-0.4c3.4-0.1,6.9-0.1,10.3,0c2,0,3.3,0.6,4.4,1.4c1.5,1.1,1.5,2.1,1.2,3.2c-0.1,0.4-0.5,0.7-1,1
			c-1.1,0.7-1.8,1.5-1.7,2.3c0.4,3.1,0.8,6.1,1.2,9.2c0.5,3.3,0.9,6.5,0.3,9.8c-0.4,2.2-0.1,4.4-0.2,6.6c-0.1,1.3-0.3,2.6-0.4,4
			c-0.1,0.7,0,1.4-0.1,2.1c-0.1,0.3-0.2,0.7-0.7,1c-1,0.5-0.7,1-0.1,1.5c0.4,0.4,0.7,0.8,0.7,1.2c0,1.1,0,2.3-0.3,3.4
			c-0.3,0.9-0.1,1.8-1,2.6c-0.4,0.4-0.1,0.9,0,1.5c0.4-0.1,0.6-0.2,1-0.4c0.1,0.3,0.4,0.6,0.2,0.7c-2,0.8-1.3,1.7-1.3,2.6
			c0,3.7,0.2,7.4,0.2,11.1c0,2.5-0.2,4.9-0.2,7.4c0,1.9-0.1,3.8-0.1,5.7c0,2.4,0,4.8,0,7.2c0,1.5-0.3,3-0.3,4.4
			c-0.1,2.6-0.1,5.1-0.1,7.7c0,2,0,3.9,0.1,5.8c0,0.9,0.5,1.7,0.7,2.5c0.1,0.4,0.2,0.8,0.2,1.1c0,0.8-0.2,1.5-0.1,2.3
			c0.5,4.8,1.1,9.6,1.5,14.4c0.2,2.1,0,4.2,0,6.3c0,0.7,0.2,1.4,0.3,2.1c0.1,1.4,0.2,2.7,0.3,4.1c0,0.7-0.3,1.5-0.3,2.2
			c0.1,2.7,0.3,5.5,0.4,8.2c0.1,2.1,0,4.1,0.1,6.2c0,1,0.5,1.9,0.5,2.9c0,2.6,0,5.2,0,7.8c0,0.1,0,0.2,0,0.2
			c1.3,3.6,0.1,7.2,1.1,10.9c0.1,0.6-0.1,1.2-0.1,1.8c0,0.4-0.1,0.7-0.1,1c0.8,3.6,0.6,7.3,0.6,11c0,2.5,0.4,4.9,0.5,7.4
			c0,1-0.2,2-0.1,3c0.1,2.1,0.3,4.2,0.6,6.3c0.3,2.2,0.7,4.3,1,6.5c0.1,0.5-0.2,1.1-0.2,1.6c0.3,3.2,0.2,6.5,1.3,9.7
			c0.4,1.2,0.7,2.4,0.8,3.6c0.1,0.9-0.2,1.9-0.1,2.8c0.2,1.8,0.6,3.6,0.9,5.4c0.2,1.1,0.4,2.2,0.5,3.4c0.1,2.4,0.1,4.8,0.2,7.2
			c0.2,4.7,0.6,9.4,0.7,14.2c0,4.4-0.3,8.8-0.5,13.2c0,1.4,0,2.9,0,4.3c0,1.2,0,2.5,0,3.8c0.3-0.1,0.5-0.1,1.2-0.3
			c-0.2,0.4-0.2,0.8-0.6,0.9c-1.4,0.5-1.2,1-1.2,1.6c-0.1,2,0,4.1-0.1,6.1c-0.1,3-0.4,5.9-0.4,8.9c0,3.5,0.2,7,0.3,10.5
			c0.1,3.1,0.3,6.2,0.5,9.3c0.1,1.9,0.4,3.8,0.6,5.7c0.1,0.7,0,1.3,0.1,2c0.3,2.2,0.7,4.3,1,6.5c0.1,1,0,1.9-0.1,2.9
			c-0.1,1.9,0,3.8-0.2,5.6c-0.1,0.7,1.2,1.3,0.4,2.2c-0.6,0.7-0.1,1.5-0.1,2.3c-0.1,1.8-0.3,3.5-0.2,5.2c0.1,4.6,0.4,9.1,0.4,13.7
			c0,2.7-0.4,5.4-0.6,8.1c-0.2,2.6-0.6,5.2-0.5,7.8c0.1,1.2,0.1,2.5-0.3,3.7c0,0.1-0.1,0.2,0,0.2c2.3,0.7,0.6,1.8,1.6,2.7
			c1,0.9,1.2,1.9,2,2.8c1,1.2-0.9,2-2.1,3c-2-0.1-2.9,0.7-4.5,1c-1.3,0.2-2.5,0.7-3.5,1.1c-1.7,0.7-3.1,1.5-4.9,2.1
			c-1.7,0.6-3.8,1-5.7,1.4c-0.2,0.1-0.5,0.1-0.8,0.1c-3.4-0.1-6.9-0.2-10.3-0.2c-0.6,0-1.3-0.1-1.9,0c-4.6,0.6-9.1,0.3-13.6,0.1
			c-2.5-0.1-5,0-7.6,0c-1.4,0-2.8,0.1-4.2,0.1c-0.5,0-1.3,0-1.6-0.1c-2.5-0.9-5.7-0.6-8.6-0.7c-4.1-0.2-8.2-0.2-12.3-0.3
			c-1.5,0-3.1-0.3-4.6-0.4c-0.3,0-0.5-0.1-0.8-0.1c-3.7,0.1-7.5,0.1-11.2,0.2c-1.7,0.1-3.3-0.3-5.1,0c-1.6,0.2-3.5,0.1-5.3,0.2
			c-1.8,0-3.5,0-5.3,0.1c-4.9,0.1-9.7,0.2-14.5,0.3c-0.9,0-1.9-0.1-2.8-0.1c-2,0-4.1-0.1-6.1-0.1c-3.3,0-6.5,0-9.8,0
			c-1.5,0-2.9,0.2-4.4,0.2c-6.9,0-13.8,0.1-20.7,0.1c-3.7,0-7.5-0.1-11.2-0.2c-1.6,0-3.1,0-4.7,0c-4.4-0.1-8.9-0.3-13.3-0.5
			c-1.1,0-2.2,0-3.3,0c-5.4-0.1-10.8-0.2-16.2-0.3c-5.5-0.1-11-0.2-16.4-0.5c-3.1-0.1-6.2-0.5-9.3-0.6c-4.4-0.2-8.9-0.4-13.3-0.5
			c-7.7-0.2-15.4-0.3-23.2-0.4c-4.4-0.1-8.9-0.1-13.3-0.1c-1.2,0-1.9,0.2-2.8,0.6c-0.9,0.4-2.5,0.7-3.8,0.9c-3.7,0.4-7.4,0.1-11-0.2
			c-1.9-0.2-3.8-0.3-5.8-0.5c-3.3-0.3-3.7-0.5-4-1.9C-91.4,358.7-91.5,358.6-91.5,358.4z M204.4,355c0.7-0.4,0.8-0.6,1.1-0.6
			c1.8-0.4,1.8-1,1.8-1.7c-0.1-1.2,0.3-2.3,0.6-3.5c0.3-1.6,0.3-3.2,0.3-4.7c0-0.4,0.1-0.8,0.1-1.3c0.1-1.3,0.1-2.5,0.2-3.8
			c0-0.1-0.1-0.2-0.1-0.2c0-0.3,0.1-0.6,0.2-0.9c0.1-0.3,0.4-0.5,0.4-0.8c0-1.2-0.1-2.5-0.2-3.7c-0.1-1.3-0.3-2.6-0.3-3.9
			c-0.1-1.1,0.1-2.2,0-3.4c-0.2-1.7-1.1-3.5-0.5-5.2c0.6-1.6-0.2-3.2,0.6-4.8c0.6-1.2,0.1-2.5,0.1-3.7c0-1.8-0.1-3.7-0.1-5.5
			c0-1.3,0-2.6,0-4c0-0.3,0.1-0.6-0.1-0.9c-0.7-1.4-1.8-2.8-0.6-4.2c0.2-0.2,0.1-0.5,0-0.7c-0.8-2.1-0.7-4.2-0.9-6.3
			c-0.2-2.7-0.3-5.5-0.4-8.2c-0.1-3-0.1-6.1-0.2-9.1c-0.1-3.2-0.2-6.5-0.1-9.7c0.1-2.8,0.5-5.7,0.5-8.5c0-1.9,0.5-3.7,0.8-5.6
			c0.1-0.5,0.9-1.1,0.5-1.5c-0.8-0.8,0.1-1.5,0.1-2.3c0-0.2,0.4-0.4,0.2-0.6c-1.2-1-0.6-2-0.7-3c-0.1-0.9-0.3-1.9,0-2.8
			c0.5-1.2,0.6-2.5,0.2-3.7c-0.3-0.9-0.1-1.9-0.1-2.8c0-1,0-2.1,0-3.2c0-0.3-0.2-0.6,0.1-0.8c0.7-0.4,0.5-0.9,0.5-1.3
			c0-1-0.3-2.1-0.7-3.1c-0.5-1.4-0.4-2.8-0.5-4.2c0-0.9,0.2-1.9,0.3-2.8c0-0.5-0.2-1.1-0.1-1.6c0.9-2.5-1.1-4.9,0-7.4
			c0-0.1,0-0.2-0.1-0.2c-0.9-0.5-0.5-1.1-0.6-1.7c-0.1-1.4-0.2-2.8-0.4-4.2c-0.3-1.8-0.8-3.5-1.1-5.3c-0.4-2.5-0.5-5-0.8-7.5
			c-0.3-2.2-1.1-4.5-1-6.7c0.2-2.1-0.7-4.1,0.1-6.1c0.1-0.1,0-0.3-0.1-0.5c-1-2.2-1.6-4.5-0.9-6.7c0.2-0.5,0.2-1.1-0.1-1.6
			c-0.8-1.4-0.4-2.9-0.3-4.3c0-0.4,0.1-0.8,0-1.2c-0.1-0.6-0.5-1.2-0.5-1.8c0.1-2.4,0.4-4.9,0-7.3c-0.4-2.1-0.3-4.3-0.4-6.4
			c0-0.7,0-1.4-0.1-2.1c-0.1-1.3-0.5-2.6-0.5-3.9c-0.1-1.8,0-3.6,0-5.5c-0.1-1.7-0.3-3.4-0.4-5.1c0-0.8,0.1-1.7,0.1-2.5
			c0-0.5-0.4-1.1-0.4-1.6c-0.1-1.6-0.1-3.2-0.2-4.8c0-0.9,0-1.7,0-2.6c0-1.6-0.1-3.2-0.1-4.8c0-0.7,0.1-1.5-0.1-2.2
			c-0.3-1.1-0.6-2.1,0.7-3.2c0.1-0.1,0.1-0.2,0-0.3c-1.2-0.8-0.9-1.7-0.8-2.6c0.1-0.3,0.1-0.7,0-1c-0.2-1.4-1.1-2.7-0.6-4.1
			c0.5-1.4-0.1-2.8-0.2-4.2c-0.2-1.9-0.2-3.9,0.3-5.8c0.1-0.3,0.2-0.6,0-0.8c-1.4-1.5-1.2-3-0.7-4.6c0.1-0.3,0.3-0.5,0.3-0.8
			c-0.4-1.7,0.1-3.4-1.2-5.1c-0.3-0.4-0.4-0.9-0.1-1.3c0.8-1,0.2-1.9,0.1-2.8c-0.3-2.2-1.3-4.4,0.2-6.6c0.1-0.2,0.1-0.5,0-0.7
			c0-0.8-0.2-1.5-0.2-2.3c0-0.7,0.2-1.4,0.2-2.1c0-1.8,0-3.5,0-5.2c0-0.2,0.1-0.5,0.2-0.7c0.3-1.1,0.3-2.1-0.4-3.2
			c-0.4-0.6,0.1-1.4,0.1-2c0.1-0.9,0.4-1.8,0-2.6c-0.6-1.2-0.6-2.3,0-3.4c0.5-0.9,0.8-1.8,0-2.8c-1-1.2-1.2-2.4-0.4-3.6
			c0.9-1.3-0.3-2.5,0.5-3.8c0.5-0.8,0-1.8,0.1-2.7c0.1-0.9-1-1.7,0.4-2.6c0.1,0,0-0.1,0-0.2c-0.2-0.8-0.4-1.5-0.6-2.3
			c-0.2-1-0.9-2-0.5-2.9c0.5-1.3,0.4-2.4-0.1-3.7c-0.1-0.2-0.1-0.4-0.1-0.6c0.1-1.7,0.2-3.3,0.3-5c0-0.6-0.3-1.2-0.3-1.7
			c0-1.6,0.1-3.1,0.2-4.7c0.1-0.8,0.7-1.6,0.5-2.4c-0.4-1.7-0.6-3.3,0.4-5c0.1-0.1,0.1-0.2,0-0.4c-0.7-1.6-0.3-3.1,0.5-4.7
			c0.3-0.5-0.1-1.1-0.1-1.6c0-0.8,0.1-1.5,0.1-2.3c0-0.5,0.3-0.9,0.2-1.4c-0.4-1.8-0.6-3.6-1.5-5.4c-0.3-0.6,0.3-1.1,0.1-1.7
			c-0.3-0.9-0.3-1.8-0.4-2.7c-0.2-1.2-0.4-2.5-0.8-3.7c-0.3-1.1-2-1.8-4.1-1.9c-3.3-0.1-6.7-0.1-10-0.1c-3.5,0-6.9-0.1-10.4-0.1
			c-3.8,0.1-7.6-0.1-11.4-0.2c-6.1-0.2-12.3-0.1-18.4-0.2c-8.3-0.1-16.6-0.2-24.9-0.3c-1,0-2.1,0-3.1,0c-4.7-0.1-9.3-0.3-14-0.4
			c-3.7-0.1-7.5,0-11.2,0c-4.3,0-8.6-0.2-12.9-0.2c-8.5,0-17,0-25.5-0.1c-1.2,0-2.4-0.1-3.6-0.2c-3.9-0.2-7.9-0.4-11.9-0.6
			C33.3-25,32-25,30.7-25c-3.8,0-7.7,0-11.5,0c-1.8,0-3.6,0-5.4,0c0-0.1,0-0.2,0-0.3c2.3,0,4.6,0,6.9-0.1c-0.3-0.2-0.6-0.2-1-0.2
			c-5.9,0-11.7,0-17.6,0c-0.6,0-1.2,0.1-1.7,0c-3.8-0.4-7.6,0-11.4,0c-5.2,0.1-10.4,0.4-15.5,0.5c-3.9,0.1-7.8,0.1-11.7,0.2
			c-6.2,0.2-12.5,0.7-18.7,0.1c-0.3,0-0.6,0-0.8,0c-3.2-0.1-6.3-0.1-9.5-0.2c-2.8-0.1-5.5-0.2-8.6-0.3c0,2.9-0.1,5.7,0.1,8.4
			c0.2,3.4,0.8,6.8,1,10.2c0.2,2.6,0.2,5.1,0.2,7.7c0.1,2.3,0.1,4.5,0.2,6.8c0.1,1.5,0.1,3,0.2,4.6c0.2,1.6,0.6,3.2,0.7,4.9
			c0.2,2.9,0.3,5.8,0.4,8.7c0.1,1.6,0,3.2,0.1,4.8c0.1,1.7,0.4,3.3,0.4,5c0,2.6-0.3,5.2-0.4,7.8c-0.1,2-0.1,4-0.2,6.1
			c-0.2,2.4-0.4,4.8-0.5,7.2c-0.2,3.1-0.3,6.2-0.5,9.2c-0.1,1.5-0.1,3-0.2,4.6c-0.1,1.6-0.3,3.3-0.2,4.9c0.1,4.1,0.3,8.1,0.5,12.2
			c0.2,3.4,0.5,6.8,0.6,10.2c0.1,3.8,0.1,7.6,0.2,11.4c0,2,0,4,0.2,6c0.2,2.6,0.7,5.3,1,7.9c0.2,2.3,0.4,4.7,0.5,7
			c0.1,2.1,0.3,4.3,0.3,6.4c0.1,3,0,5.9,0.1,8.9c0.1,4.3,0.5,8.6,0.6,12.9c0.1,2.8-0.1,5.7-0.4,8.5c-0.1,1,0.6,2.1-1,3
			c0.3,0.4,0.8,0.8,0.8,1.1c-0.1,1.6-0.2,3.2-0.4,4.8c-0.4,3.9-1,7.9-1.4,11.8c-0.3,3.3-0.5,6.5-0.8,9.8c-0.2,2.5-0.6,5-0.7,7.5
			c-0.1,1.6,0.2,3.1,0,4.7c-0.2,1.9,0.5,3.8-1.2,5.7c-0.2,0.2-0.1,0.4,0.1,0.6c0.9,0.7,0.5,1.4,0.4,2.1c-0.2,2.1-0.7,4.3-0.8,6.4
			c-0.1,2.1,0,4.2,0,6.3c0,0.8,0,1.6-0.1,2.3c-0.2,1.9-0.6,3.9-0.8,5.8c-0.1,1.2-0.1,2.5-0.2,3.8c-0.1,0.7,0.2,1.5-0.5,2
			c-0.9,0.8,0.3,1.3,0.2,2c-0.3,1.7,0,3.3-0.1,5c0,0.6-0.5,1.2-0.6,1.8c-0.1,0.4-0.2,0.9,0.3,1.2c0.8,0.7,0.6,1.3,0.1,1.9
			c-0.2,0.3-0.5,0.5-0.5,0.8c0,1.5,0.1,3.1,0,4.7c-0.1,0.9,1,1.7,1,2.5c0.1,1.9,0,3.8-0.1,5.7c0,0.4-0.5,0.9-0.8,1.4
			c1.4,0.7,1.2,1.6,0.2,2.4c-0.6,0.4-0.7,0.8-0.6,1.2c0.3,0.8,0.8,1.6,0.9,2.4c0.1,1.2,0,2.3-0.1,3.5c0,0.3-0.2,0.6-0.5,0.9
			c-0.7,0.5-0.5,0.9-0.2,1.3c0.4,0.8,0.6,1.6,0.7,2.4c0.1,0.9,0.1,1.9-0.1,2.8c-0.3,1.2,0.4,2.4-1,3.6c-0.1,0.1-0.1,0.3,0,0.5
			c1,0.9,1,0.9,0.7,1.5c-0.2,0.5-0.2,1-0.3,1.4c0.1,0,0.2,0,0.3,0c0.2-0.2,0.3-0.4,0.5-0.7c0.3,1.2,0.9,2.2-0.4,3.2
			c-0.3,0.2-0.1,0.7,0.3,1c0.6,0.4,0.7,0.6,0.4,1.1c-0.3,0.5-0.2,1-0.1,1.4c0,0.4,0.3,0.7,0.3,1.1c0,0.2-0.6,0.5-0.4,0.7
			c1.6,1.1,0.8,2.3,1,3.5c0.6,2.6,0.4,5.2,0.6,7.8c0,0.8-0.2,1.6-0.2,2.4c0,1.9,0.2,3.7,0.1,5.6c-0.1,0.9-0.4,1.8-0.1,2.8
			c0.3,1,1,2.2-0.6,3.3c-0.1,0.1-0.1,0.2,0,0.2c1.5,0.2,0.7,0.8,0.7,1.2c0,0.5-0.6,0.9-0.7,1.3c-0.1,0.8-0.6,1.7,0,2.3
			c0.8,0.8,0.7,1.5,0.2,2.3c-0.2,0.3-0.3,0.5-0.2,0.8c0.3,0.9,0.5,1.8,0.3,2.8c-0.3,1.8-0.2,3.6-0.3,5.4c-0.1,0.9-0.2,1.8-0.3,2.7
			c-0.1,1.1,0.5,1.3,3,1.4c4,0.1,8,0.2,12,0.3c2.4,0.1,4.7,0.2,7,0.4c-1.8,0.6-3.6,1-5.6,0.6c-1.2-0.2-1.8-0.1-2.8,0.4
			c4.4,0.3,8.3,0.4,11.9-0.9c0.6,0.5,0.5,1.4,2.7,1c-0.1-0.3-0.3-0.5-0.5-0.9c0.7-0.1,1.2-0.3,1.7-0.2c3.6,0,7.3,0,10.9,0.1
			c3.5,0.1,7.1,0.2,10.6,0.4c3.4,0.2,6.8,0.4,10.2,0.6c2.4,0.2,4.7,0.3,7.1,0.5c2.7,0.3,5.7,0.1,8.6,0.2c7.1,0.1,14.2,0.3,21.3,0.5
			c7.4,0.2,14.7,0.4,22.1,0.5c5.8,0.1,11.6,0.1,17.4,0.1c4.4,0,8.8-0.1,13.1-0.2c2,0,3.9-0.1,5.9-0.1c4.8,0,9.5,0.2,14.2-0.1
			c2.5-0.1,4.9,0,7.3-0.1c4.7-0.1,9.5-0.1,14.2-0.2c2.6,0,5.2-0.1,7.8-0.2c3.4,0,6.9-0.1,10.3-0.1c1.1,0,2.2-0.1,3.3-0.2
			c1,0,2-0.1,3.1-0.1c0.7,0,1.7-0.2,2,0.3c0,0,1,0.1,1.3,0c1.4-0.4,2.6-0.1,3.9,0.1c0.3,0,0.7,0.1,1,0.1c3.1,0,6.2,0,9.2,0
			c2.4,0,4.9-0.3,7.1,0.3c0.3,0.1,0.7,0,1.1,0c5.7,0.2,11.5,0.2,17.2,0.5c3.3,0.2,6.3,0.1,9.4-0.4c2.6-0.4,4.8-0.5,7.4,0.2
			C202,353.1,204,353.6,204.4,355z M-10,352.3c0,0.5,0.6,0.6,1.6,0.7c2.5,0.1,4.9,0.3,7.4,0.3c0.9,0,1.8-0.2,2.9-0.2
			c-1.9-1.5-2.3-1.5-5.4-0.8c-0.7,0.2-1.7,0.1-2.5,0.2c-0.4-0.3-0.7-0.5-1-0.7C-8.2,351.9-9.1,352.1-10,352.3z M26.4,352.7
			c-0.6,0.5-0.4,0.8,0.6,0.9c1.4,0.1,2.9,0.1,4.4,0.1c1.3,0,2.2-0.3,2.4-0.9c-1.3-0.2-2.5-0.2-3.5,0.1c-1,0.3-1.8,0.3-2.7-0.1
			C27.3,352.8,26.9,352.8,26.4,352.7z M-38.5,350.9c-0.9-0.1-1.6-0.3-2.2-0.3c-1.8,0.1-3.6,0.2-5.3,0.3c-0.1,0-0.2,0.1-0.5,0.4
			c2.6,0,4.9,0,7.2,0C-39.1,351.2-38.9,351-38.5,350.9z M92.5,353.7c0.2,0,0.4,0,0.6,0c-0.1-0.2,0-0.6-0.2-0.6
			c-1.1-0.2-2.3-0.6-3.9-0.1C91.9,353.2,91.9,353.2,92.5,353.7z M-91.1,274.9c1.9-0.5,1.9-0.5,0.4-1.1c-0.2,0.1-0.5,0.2-0.5,0.4
			C-91.3,274.4-91.2,274.6-91.1,274.9z M8.5,352.2c0.1,0.8,0.1,0.8,2.1,0.9C9.7,352.7,9.1,352.4,8.5,352.2z M-33.8,351.3
			c-1.1-0.3-2.2-0.5-3.7-0.1C-36.2,351.6-35,351.3-33.8,351.3z M226.3,205.7c0.1,0,0.2,0,0.4,0c0.1-0.6,0.2-1.2,0.3-1.8
			c-0.2,0-0.5,0-0.7,0C226.3,204.5,226.3,205.1,226.3,205.7z M2.7,352.2c0.4,0.4,0.7,0.6,1.1,1.1C4.4,352.7,4.3,352.4,2.7,352.2z
			 M228.5,302.4c0.1,0,0.1,0,0.2,0c0-0.5,0-1,0-1.6c-0.1,0-0.1,0-0.2,0C228.5,301.4,228.5,301.9,228.5,302.4z M-28.1,351.1
			c-0.4-0.1-0.7-0.3-0.8-0.3c-0.3,0-0.6,0.2-0.6,0.3c0,0.1,0.4,0.2,0.6,0.3C-28.8,351.3-28.5,351.2-28.1,351.1z M227.6,219.3
			c-0.1,0-0.3,0-0.5,0c-0.1,0.3-0.2,0.6-0.3,0.9c0.1,0,0.3,0,0.4,0C227.4,219.9,227.5,219.6,227.6,219.3z M224.2,188.1
			c-0.1,0-0.2,0-0.4,0c0.1,0.3,0.1,0.6,0.2,0.9c0.1,0,0.3,0,0.4,0C224.3,188.6,224.3,188.3,224.2,188.1z M218.8,9.1
			C218.8,9.1,218.8,9.1,218.8,9.1c0,0.3,0,0.5,0,0.8c0,0,0,0,0,0C218.8,9.6,218.8,9.4,218.8,9.1z M226.3,259.5c0.1,0,0.1,0,0.2,0
			c0-0.2,0-0.5,0-0.7c-0.1,0-0.1,0-0.2,0C226.3,259.1,226.3,259.3,226.3,259.5z M-96,325.2c0.1,0,0.2,0,0.3,0
			c0.1-0.1,0.2-0.3,0.2-0.4c0-0.1-0.1-0.3-0.1-0.4c-0.1,0-0.3,0-0.4,0C-96,324.7-96,324.9-96,325.2z M219.4,100.9
			c-0.2-0.1-0.3-0.2-0.5-0.2c-0.2,0.1-0.5,0.1-0.5,0.2c0.1,0.1,0.3,0.2,0.5,0.3C219.1,101.1,219.2,101,219.4,100.9z M-89.6,241.2
			c-0.2,0.2-0.3,0.2-0.3,0.3c0,0.1,0.1,0.1,0.2,0.2c0.2-0.1,0.4-0.1,0.4-0.2C-89.3,241.5-89.4,241.4-89.6,241.2z M-77.7,267.2
			c-0.1,0-0.1,0-0.2,0c0,0.2,0,0.4,0,0.7c0.1,0,0.1,0,0.2,0C-77.7,267.7-77.7,267.5-77.7,267.2z M227.1,249.5c0-0.1-0.1-0.2-0.1-0.2
			c-0.1,0-0.4,0.1-0.4,0.1c0,0.1,0.1,0.2,0.2,0.3C226.8,249.6,226.9,249.6,227.1,249.5z M228.6,298.1c-0.2,0-0.4,0-0.5,0.1
			c0.2,0.1,0.4,0.3,0.5,0.4C228.6,298.4,228.6,298.3,228.6,298.1z M-76.7,307.3c-0.1,0-0.2,0-0.3,0c0,0.2,0,0.3,0.1,0.5
			c0.1,0,0.2,0,0.2,0C-76.7,307.6-76.7,307.5-76.7,307.3z M-14,351.9c0,0.1,0,0.1,0,0.2c0.4,0,0.9,0,1.3,0c0-0.1,0-0.1,0-0.2
			C-13.1,351.9-13.5,351.9-14,351.9z M13,353.2c-0.1-0.1-0.2-0.2-0.3-0.2c-0.2,0-0.4,0.1-0.6,0.2c0.1,0.1,0.2,0.2,0.2,0.2
			C12.6,353.3,12.8,353.2,13,353.2z M133.6,353.3c0.1,0,0.3-0.1,0.4-0.1c-0.1,0-0.3-0.1-0.4-0.1c-0.1,0-0.2,0.1-0.4,0.1
			C133.3,353.2,133.5,353.3,133.6,353.3z"/>
		<path class="st2" d="M204.4,355c-0.4-1.5-2.4-1.9-4.6-2.5c-2.6-0.7-4.8-0.6-7.4-0.2c-3,0.5-6.1,0.5-9.4,0.4
			c-5.7-0.3-11.4-0.3-17.2-0.5c-0.4,0-0.8,0.1-1.1,0c-2.3-0.5-4.7-0.3-7.1-0.3c-3.1,0-6.2,0-9.2,0c-0.4,0-0.7-0.1-1-0.1
			c-1.3-0.2-2.5-0.4-3.9-0.1c-0.3,0.1-1.3,0-1.3,0c-0.3-0.5-1.3-0.3-2-0.3c-1,0-2,0-3.1,0.1c-1.1,0-2.2,0.1-3.3,0.2
			c-3.4,0.1-6.9,0.1-10.3,0.1c-2.6,0-5.2,0.1-7.8,0.2c-4.8,0.1-9.5,0.1-14.2,0.2c-2.4,0.1-4.8-0.1-7.3,0.1
			c-4.7,0.2-9.5,0.1-14.2,0.1c-2,0-3.9,0.1-5.9,0.1c-4.4,0.1-8.8,0.2-13.1,0.2c-5.8,0-11.6,0-17.4-0.1c-7.4-0.1-14.7-0.3-22.1-0.5
			c-7.1-0.2-14.2-0.3-21.3-0.5c-2.9-0.1-5.9,0.1-8.6-0.2c-2.4-0.2-4.7-0.3-7.1-0.5c-3.4-0.2-6.8-0.5-10.2-0.6
			c-3.5-0.2-7-0.3-10.6-0.4c-3.6-0.1-7.3-0.1-10.9-0.1c-0.5,0-1,0.2-1.7,0.2c0.2,0.3,0.3,0.6,0.5,0.9c-2.3,0.4-2.1-0.4-2.7-1
			c-3.6,1.2-7.5,1.2-11.9,0.9c1-0.5,1.6-0.6,2.8-0.4c2,0.4,3.8,0.1,5.6-0.6c-2.3-0.1-4.7-0.3-7-0.4c-4-0.1-8-0.2-12-0.3
			c-2.5-0.1-3-0.3-3-1.4c0-0.9,0.2-1.8,0.3-2.7c0.1-1.8,0-3.6,0.3-5.4c0.2-1,0-1.8-0.3-2.8c-0.1-0.3,0.1-0.5,0.2-0.8
			c0.5-0.8,0.6-1.5-0.2-2.3c-0.7-0.7-0.2-1.6,0-2.3c0.1-0.5,0.7-0.9,0.7-1.3c0-0.4,0.8-0.9-0.7-1.2c-0.1,0-0.1-0.2,0-0.2
			c1.5-1.1,0.9-2.3,0.6-3.3c-0.3-1,0-1.8,0.1-2.8c0.2-1.9-0.1-3.7-0.1-5.6c0-0.8,0.3-1.6,0.2-2.4c-0.1-2.6,0-5.2-0.6-7.8
			c-0.2-1.2,0.6-2.4-1-3.5c-0.2-0.1,0.4-0.4,0.4-0.7c0-0.4-0.2-0.7-0.3-1.1c0-0.5-0.2-1,0.1-1.4c0.3-0.4,0.2-0.7-0.4-1.1
			c-0.4-0.2-0.7-0.7-0.3-1c1.3-1,0.7-2,0.4-3.2c-0.2,0.3-0.4,0.5-0.5,0.7c-0.1,0-0.2,0-0.3,0c0.1-0.5,0.1-1,0.3-1.4
			c0.3-0.6,0.4-0.6-0.7-1.5c-0.1-0.1-0.2-0.3,0-0.5c1.3-1.2,0.7-2.4,1-3.6c0.2-0.9,0.2-1.9,0.1-2.8c-0.1-0.8-0.3-1.6-0.7-2.4
			c-0.2-0.5-0.4-0.9,0.2-1.3c0.4-0.2,0.5-0.6,0.5-0.9c0.1-1.2,0.3-2.3,0.1-3.5c-0.1-0.8-0.6-1.6-0.9-2.4c-0.2-0.4,0-0.8,0.6-1.2
			c1.1-0.8,1.2-1.7-0.2-2.4c0.3-0.5,0.8-0.9,0.8-1.4c0.1-1.9,0.2-3.8,0.1-5.7c-0.1-0.8-1.1-1.6-1-2.5c0.2-1.5,0-3.1,0-4.7
			c0-0.3,0.3-0.5,0.5-0.8c0.5-0.7,0.6-1.3-0.1-1.9c-0.4-0.3-0.3-0.8-0.3-1.2c0.1-0.6,0.6-1.2,0.6-1.8c0.1-1.7-0.2-3.4,0.1-5
			c0.1-0.7-1.1-1.2-0.2-2c0.7-0.6,0.4-1.4,0.5-2c0.1-1.2,0-2.5,0.2-3.8c0.2-1.9,0.6-3.9,0.8-5.8c0.1-0.8,0.1-1.6,0.1-2.3
			c0-2.1-0.1-4.2,0-6.3c0.1-2.1,0.6-4.3,0.8-6.4c0.1-0.7,0.6-1.4-0.4-2.1c-0.2-0.1-0.2-0.4-0.1-0.6c1.7-1.9,0.9-3.8,1.2-5.7
			c0.2-1.6-0.1-3.1,0-4.7c0.2-2.5,0.5-5,0.7-7.5c0.3-3.3,0.5-6.5,0.8-9.8c0.4-3.9,0.9-7.9,1.4-11.8c0.2-1.6,0.3-3.2,0.4-4.8
			c0-0.4-0.5-0.7-0.8-1.1c1.5-0.9,0.9-2,1-3c0.3-2.8,0.5-5.7,0.4-8.5c-0.1-4.3-0.4-8.6-0.6-12.9c-0.1-3,0-5.9-0.1-8.9
			c0-2.1-0.2-4.3-0.3-6.4c-0.1-2.3-0.3-4.7-0.5-7c-0.3-2.6-0.8-5.3-1-7.9c-0.2-2-0.2-4-0.2-6c-0.1-3.8-0.1-7.6-0.2-11.4
			c-0.1-3.4-0.4-6.8-0.6-10.2c-0.2-4.1-0.4-8.1-0.5-12.2c-0.1-1.6,0.2-3.3,0.2-4.9c0.1-1.5,0.1-3,0.2-4.6c0.2-3.1,0.3-6.2,0.5-9.2
			c0.2-2.4,0.4-4.8,0.5-7.2c0.1-2,0.2-4,0.2-6.1c0.1-2.6,0.4-5.2,0.4-7.8c0-1.7-0.3-3.3-0.4-5c-0.1-1.6,0-3.2-0.1-4.8
			c-0.1-2.9-0.2-5.8-0.4-8.7c-0.1-1.6-0.5-3.2-0.7-4.9c-0.2-1.5-0.2-3-0.2-4.6c-0.1-2.3-0.2-4.5-0.2-6.8c-0.1-2.6-0.1-5.1-0.2-7.7
			c-0.3-3.4-0.8-6.8-1-10.2c-0.2-2.8-0.1-5.5-0.1-8.4c3.1,0.1,5.9,0.2,8.6,0.3c3.2,0.1,6.3,0.1,9.5,0.2c0.3,0,0.6,0,0.8,0
			c6.2,0.6,12.5,0.1,18.7-0.1c3.9-0.1,7.8-0.1,11.7-0.2c5.2-0.1,10.4-0.4,15.5-0.5c3.8-0.1,7.6-0.5,11.4,0c0.5,0.1,1.1,0,1.7,0
			c5.9,0,11.7,0,17.6,0c0.3,0,0.7,0,1,0.2c-2.3,0-4.6,0-6.9,0.1c0,0.1,0,0.2,0,0.3c1.8,0,3.6,0,5.4,0c3.8,0,7.7,0,11.5,0
			c1.3,0,2.6,0,3.9,0.1c3.9,0.2,7.9,0.4,11.9,0.6c1.2,0.1,2.4,0.2,3.6,0.2c8.5,0,17,0,25.5,0.1c4.3,0,8.6,0.2,12.9,0.2
			c3.7,0,7.5,0,11.2,0c4.7,0.1,9.3,0.2,14,0.4c1,0,2.1,0,3.1,0c8.3,0.1,16.6,0.2,24.9,0.3c6.1,0.1,12.3,0,18.4,0.2
			c3.8,0.1,7.6,0.3,11.4,0.2c3.5,0,6.9,0,10.4,0.1c3.3,0,6.7,0.1,10,0.1c2.2,0.1,3.8,0.8,4.1,1.9c0.4,1.2,0.6,2.5,0.8,3.7
			c0.2,0.9,0.1,1.8,0.4,2.7c0.2,0.6-0.4,1.1-0.1,1.7c0.8,1.8,1.1,3.6,1.5,5.4c0.1,0.5-0.1,0.9-0.2,1.4c-0.1,0.8-0.1,1.5-0.1,2.3
			c0,0.5,0.3,1.1,0.1,1.6c-0.8,1.6-1.2,3.1-0.5,4.7c0,0.1,0,0.2,0,0.4c-1,1.6-0.8,3.3-0.4,5c0.2,0.8-0.4,1.6-0.5,2.4
			c-0.1,1.6-0.2,3.1-0.2,4.7c0,0.6,0.3,1.2,0.3,1.7c0,1.7-0.2,3.3-0.3,5c0,0.2,0,0.4,0.1,0.6c0.5,1.2,0.6,2.4,0.1,3.7
			c-0.4,0.9,0.3,1.9,0.5,2.9c0.2,0.8,0.4,1.5,0.6,2.3c0,0.1,0.1,0.2,0,0.2c-1.5,0.8-0.4,1.7-0.4,2.6c-0.1,0.9,0.5,1.8-0.1,2.7
			c-0.8,1.3,0.4,2.5-0.5,3.8c-0.8,1.1-0.7,2.4,0.4,3.6c0.8,0.9,0.5,1.8,0,2.8c-0.6,1.1-0.5,2.3,0,3.4c0.4,0.8,0,1.7,0,2.6
			c0,0.7-0.5,1.4-0.1,2c0.7,1.1,0.7,2.1,0.4,3.2c-0.1,0.2-0.2,0.5-0.2,0.7c0,1.8,0.1,3.5,0,5.2c0,0.7-0.2,1.4-0.2,2.1
			c0,0.8,0.1,1.5,0.2,2.3c0,0.2,0.1,0.5,0,0.7c-1.5,2.2-0.5,4.4-0.2,6.6c0.1,0.9,0.7,1.8-0.1,2.8c-0.3,0.4-0.2,0.9,0.1,1.3
			c1.3,1.6,0.8,3.4,1.2,5.1c0.1,0.3-0.2,0.5-0.3,0.8c-0.5,1.5-0.7,3.1,0.7,4.6c0.2,0.2,0.1,0.5,0,0.8c-0.5,1.9-0.5,3.9-0.3,5.8
			c0.1,1.4,0.7,2.8,0.2,4.2c-0.4,1.3,0.4,2.7,0.6,4.1c0.1,0.3,0,0.7,0,1c-0.1,0.9-0.4,1.8,0.8,2.6c0.1,0.1,0.1,0.2,0,0.3
			c-1.3,1-1,2.1-0.7,3.2c0.2,0.7,0.1,1.5,0.1,2.2c0,1.6,0.1,3.2,0.1,4.8c0,0.9,0,1.7,0,2.6c0,1.6,0.1,3.2,0.2,4.8
			c0,0.5,0.4,1.1,0.4,1.6c0,0.8-0.1,1.7-0.1,2.5c0.1,1.7,0.3,3.4,0.4,5.1c0.1,1.8,0,3.6,0,5.5c0.1,1.3,0.4,2.6,0.5,3.9
			c0.1,0.7,0.1,1.4,0.1,2.1c0.1,2.1,0,4.3,0.4,6.4c0.5,2.5,0.2,4.9,0,7.3c0,0.6,0.4,1.2,0.5,1.8c0.1,0.4,0,0.8,0,1.2
			c-0.1,1.4-0.5,2.9,0.3,4.3c0.3,0.5,0.2,1.1,0.1,1.6c-0.7,2.3,0,4.5,0.9,6.7c0.1,0.1,0.1,0.3,0.1,0.5c-0.8,2,0.1,4.1-0.1,6.1
			c-0.2,2.2,0.6,4.5,1,6.7c0.3,2.5,0.5,5,0.8,7.5c0.2,1.8,0.8,3.5,1.1,5.3c0.2,1.4,0.3,2.8,0.4,4.2c0,0.6-0.3,1.2,0.6,1.7
			c0.1,0.1,0.1,0.1,0.1,0.2c-1.1,2.5,0.9,4.9,0,7.4c-0.2,0.5,0.1,1.1,0.1,1.6c-0.1,0.9-0.3,1.9-0.3,2.8c0,1.4,0,2.8,0.5,4.2
			c0.4,1,0.6,2.1,0.7,3.1c0,0.5,0.3,0.9-0.5,1.3c-0.3,0.2-0.1,0.5-0.1,0.8c0,1,0,2.1,0,3.2c0,0.9-0.1,1.9,0.1,2.8
			c0.4,1.2,0.3,2.5-0.2,3.7c-0.3,0.9-0.1,1.9,0,2.8c0.1,1-0.4,2,0.7,3c0.2,0.1-0.2,0.4-0.2,0.6c0,0.8-1,1.5-0.1,2.3
			c0.4,0.4-0.4,1-0.5,1.5c-0.3,1.9-0.8,3.7-0.8,5.6c0,2.8-0.4,5.7-0.5,8.5c-0.1,3.2,0.1,6.5,0.1,9.7c0.1,3,0.1,6.1,0.2,9.1
			c0.1,2.7,0.1,5.5,0.4,8.2c0.2,2.1,0.1,4.2,0.9,6.3c0.1,0.2,0.2,0.5,0,0.7c-1.2,1.5-0.1,2.8,0.6,4.2c0.1,0.3,0.1,0.6,0.1,0.9
			c0,1.3,0,2.6,0,4c0,1.8,0.1,3.7,0.1,5.5c0,1.2,0.5,2.5-0.1,3.7c-0.8,1.6-0.1,3.2-0.6,4.8c-0.6,1.7,0.3,3.5,0.5,5.2
			c0.1,1.1,0,2.2,0,3.4c0.1,1.3,0.2,2.6,0.3,3.9c0.1,1.2,0.1,2.5,0.2,3.7c0,0.3-0.3,0.5-0.4,0.8c-0.1,0.3-0.1,0.6-0.2,0.9
			c0,0.1,0.1,0.2,0.1,0.2c0,1.3-0.1,2.5-0.2,3.8c0,0.4-0.1,0.8-0.1,1.3c0,1.6,0,3.2-0.3,4.7c-0.2,1.2-0.7,2.3-0.6,3.5
			c0.1,0.7,0,1.3-1.8,1.7C205.2,354.5,205,354.7,204.4,355z"/>
	</g>
</g>
<g id="Ebene_11">
	<g>
		<path d="M75.3,55.3c1.6,0,3.3,0,5.2,0c0-6.5,0-13-0.1-19.8c1.7,0,3.1,0,4.7,0c0-3.6,0-6.8,0-10.4c1.8,0,3.4,0,5.2,0
			c0.1-1.7,0.1-3.1,0.2-4.7c1.8-0.1,3.5-0.2,5.2-0.3c0,3.3,0,6.6,0,10.1c-2.1,0-3.7,0-5.5,0c0,3.4,0,6.5,0,9.8
			c-1.8,0.1-3.4,0.2-5,0.3c0,1.8,0,3.4,0,5c3.5,0,6.9,0,10.4,0c0-3.3,0-6.4,0-9.8c8.4,0,16.6,0,24.9-0.1c0-1.9,0-3.5,0-5.4
			c-1.8,0-3.4,0-5.1,0c0-1.8,0-3.4,0-5.2c-1.8,0-3.4,0-5.3,0c0-1.7,0-3.1,0-4.6c-1.6-0.1-3-0.1-4.6-0.2c0-1.8,0-3.4,0-4.9
			c-1.9,0-3.5,0-5.3,0c0,1.7,0,3.2,0,5c-1.6,0-3.1,0-4.6,0c0-5,0-9.9,0-15c3.3,0,6.4,0,9.8,0c0,1.6,0,3.3,0,5c1.7,0,3,0,4.7,0
			c0,1.6,0,3,0,4.7c1.9,0.1,3.5,0.1,5.3,0.2c0,1.7,0,3.2,0,5c1.8,0,3.4,0,5.2,0c0.1,1.6,0.1,3,0.2,4.7c1.4,0,2.8,0,4.5,0
			c0,1.9,0,3.5,0,5.3c1.8,0,3.4,0,5.1,0c0,1.8,0,3.4,0,5.2c-1.6,0-3.1,0-5,0c0,1.6,0,3,0,4.7c-8.5,0-16.6,0-25.1,0.1
			c0,3.5,0,6.9,0,10.5c-3.5,0-6.6,0-10,0c0,3.4,0,6.5,0,9.9c-1.8,0-3.4,0-5.2,0c-0.1,1.7-0.1,3.1-0.2,4.7
			c-21.8,0.1-43.4,0.1-65.2,0.2c0-1.5,0-2.9,0-4.5c-3.4,0-6.5,0-9.9,0c0-1.8,0-3.4,0-5.3c-3.5,0-6.6,0-9.9,0c0-5.1,0-10-0.1-15
			c1.5-0.1,2.9-0.1,4.5-0.2c0-5,0-9.9-0.1-15c-1.4,0-2.8,0-4.4,0C0.1,16.8,0,8.7,0,0.3c3.1,0,6.2,0,9.6,0c0,1.5,0,3.1,0,4.9
			c1.8,0,3.4,0,5.3,0c0,1.9,0,3.5,0,5.2c13.5,0,26.8-0.1,40.3-0.1c0-1.6,0-3.2,0-5c3.5,0,6.6,0,10,0c0-1.8,0-3.4,0-5.1
			c5.1,0,10,0,15.1,0c0,6.6,0,13.2,0.1,20.1c-1.6,0-3.2,0-5,0c0,1.6,0,3,0,4.7c-1.8,0-3.4,0-5.1,0c0,5.2,0,10.1,0,15.3
			c1.6,0,3.1,0,5.1,0C75.4,45.3,75.4,50.3,75.3,55.3c-3.2,0.1-6.5,0.1-9.8,0.1c0,1.9,0,3.5,0,5.1c3.4,0,6.5,0,9.8,0
			C75.4,58.6,75.3,56.9,75.3,55.3z M70,15.2c1.8-0.1,3.4-0.2,5.1-0.4c0-1.6,0-3,0-4.4c-5.1,0-10,0-15,0C60.1,12,60,13.4,59.9,15
			c-3.3,0-6.5,0-10,0c0,1.9,0,3.5,0,5c-1.8,0-3.4,0-5.1,0c0-1.7,0-3.3,0-4.9c-6.7,0-13.2,0-20,0.1c0,1.7,0,3.3,0,5c-1.8,0-3.4,0-5,0
			c-0.1-1.7-0.2-3.3-0.3-5.2c-3.4,0-6.5,0-9.9,0c0-1.7,0-3,0-4.4c-1.8,0-3.4,0-5.1,0c0,3.3,0,6.5,0,10c1.8,0,3.4,0,5,0
			c0.1,1.6,0.1,3,0.2,4.7c1.8,0,3.4,0,4.9,0c0,3.6,0,6.9,0,10.4c-1.8,0-3.4,0-4.9,0c0,1.7,0,3.2,0,4.8c1.7,0,3.3,0,5.1,0
			c0,5.1,0,10,0.1,15.2c3.5,0,6.6,0,10,0c0,1.8,0,3.4,0,4.9c3.4,0,6.6,0,10,0c0-1.8,0-3.4,0-4.9c1.8,0,3.4,0,5.2,0c0,1.8,0,3.4,0,5
			c5.1,0,10,0,15.1,0c0-1.7,0-3.3,0-5.2c1.7,0,3.1,0,4.8,0c0-5.1,0-10,0-15c1.8-0.1,3.4-0.2,5-0.3c0-1.6,0-3,0-4.8
			c-1.8,0-3.4,0-4.9,0c0-3.6,0-6.8,0-10.4c1.8,0,3.4,0,5,0c0.1-1.7,0.1-3,0.2-4.7c1.6,0,3,0,4.6,0C70,18.4,70,16.9,70,15.2z
			 M9.8,50.7c0-1.8,0-3.4,0-5c-1.8,0-3.4,0-4.9,0c0,1.8,0,3.4,0,5C6.5,50.7,8,50.7,9.8,50.7z M69.9,50.5c0-1.9,0-3.5,0-5
			c-1.6,0-3,0-4.4,0c0,1.8,0,3.4,0,5C67.2,50.5,68.5,50.5,69.9,50.5z"/>
		<path class="st2" d="M70,15.2c0,1.7,0,3.2,0,5c-1.5,0-3,0-4.6,0c-0.1,1.6-0.1,3-0.2,4.7c-1.6,0-3.2,0-5,0c0,3.6,0,6.8,0,10.4
			c1.5,0,3.1,0,4.9,0c0,1.7,0,3.1,0,4.8c-1.6,0.1-3.2,0.2-5,0.3c0,5,0,9.9,0,15c-1.6,0-3.1,0-4.8,0c0,1.9,0,3.5,0,5.2
			c-5.1,0-10,0-15.1,0c0-1.6,0-3.2,0-5c-1.8,0-3.4,0-5.2,0c0,1.5,0,3.1,0,4.9c-3.5,0-6.6,0-10,0c0-1.6,0-3.1,0-4.9
			c-3.4,0-6.5,0-10,0c0-5.2,0-10.1-0.1-15.2c-1.8,0-3.4,0-5.1,0c0-1.6,0-3,0-4.8c1.5,0,3.1,0,4.9,0c0-3.6,0-6.8,0-10.4
			c-1.6,0-3.2,0-4.9,0c-0.1-1.6-0.1-3-0.2-4.7c-1.6,0-3.2,0-5,0c0-3.5,0-6.6,0-10c1.6,0,3.2,0,5.1,0c0,1.4,0,2.8,0,4.4
			c3.4,0,6.5,0,9.9,0c0.1,1.9,0.2,3.5,0.3,5.2c1.7,0,3.2,0,5,0c0-1.7,0-3.3,0-5c6.8,0,13.3,0,20-0.1c0,1.7,0,3.2,0,4.9
			c1.7,0,3.2,0,5.1,0c0-1.5,0-3.1,0-5c3.5,0,6.6,0,10,0c0.1-1.6,0.1-3,0.2-4.6c4.9,0,9.9,0,15,0c0,1.4,0,2.8,0,4.4
			C73.5,15,71.8,15.1,70,15.2z M50,40c0-3.3,0-6.4,0-9.6c-3.3,0-6.4,0-9.5,0c0,3.3,0,6.4,0,9.6C43.7,40,46.8,40,50,40z M29.6,30.5
			c-3.3,0-6.4,0-9.6,0c0,3.3,0,6.4,0,9.5c3.3,0,6.5,0,9.6,0C29.6,36.8,29.6,33.7,29.6,30.5z M40.1,50.5c0-1.8,0-3.3,0-4.9
			c-1.7,0-3.3,0-4.9,0c0,1.7,0,3.2,0,4.9C36.9,50.6,38.4,50.6,40.1,50.5z"/>
		<path class="st2" d="M95.8,20.1c1.5,0,2.9,0,4.6,0c0-1.8,0-3.3,0-5c1.8,0,3.4,0,5.3,0c0,1.6,0,3.2,0,4.9c1.6,0.1,3,0.1,4.6,0.2
			c0,1.4,0,2.9,0,4.6c1.9,0,3.5,0,5.3,0c0,1.8,0,3.4,0,5.2c1.8,0,3.4,0,5.1,0c0,1.9,0,3.5,0,5.4c-8.3,0-16.5,0-24.9,0.1
			c0,3.4,0,6.5,0,9.8c-3.5,0-6.9,0-10.4,0c0-1.6,0-3.2,0-5c1.6-0.1,3.2-0.2,5-0.3c0-3.2,0-6.4,0-9.8c1.8,0,3.4,0,5.5,0
			C95.8,26.6,95.8,23.3,95.8,20.1C95.8,20,95.8,20.1,95.8,20.1z"/>
		<path class="st2" d="M75.3,55.3c0,1.6,0,3.3,0,5.1c-3.2,0-6.4,0-9.8,0c0-1.6,0-3.2,0-5.1C68.8,55.3,72.1,55.3,75.3,55.3
			C75.4,55.3,75.3,55.3,75.3,55.3z"/>
		<path class="st2" d="M9.8,50.7c-1.7,0-3.3,0-4.9,0c0-1.7,0-3.3,0-5c1.6,0,3.2,0,4.9,0C9.7,47.3,9.8,48.9,9.8,50.7z"/>
		<path class="st2" d="M69.9,50.5c-1.4,0-2.8,0-4.4,0c0-1.6,0-3.1,0-5c1.3,0,2.7,0,4.4,0C69.9,47,69.9,48.6,69.9,50.5z"/>
		<path d="M50,40c-3.2,0-6.3,0-9.5,0c0-3.2,0-6.3,0-9.6c3.2,0,6.3,0,9.5,0C50,33.6,50,36.7,50,40z"/>
		<path d="M29.6,30.5c0,3.2,0,6.3,0,9.5c-3.2,0-6.4,0-9.6,0c0-3.2,0-6.3,0-9.5C23.2,30.5,26.3,30.5,29.6,30.5z"/>
		<path d="M40.1,50.5c-1.7,0-3.2,0-4.9,0c0-1.6,0-3.1,0-4.9c1.6,0,3.1,0,4.9,0C40.1,47.2,40.1,48.7,40.1,50.5z"/>
	</g>
</g>
<g id="Ebene_8" class="st0">
	<rect x="-21.8" y="18.4" class="st4" width="290.3" height="72.1"/>
	<text transform="matrix(1 0 0 1 -21.8194 48.4018)" class="st1 st5 st6">HOME </text>
</g>
</svg>
