<?xml version="1.0" encoding="utf-8"?>
<!-- Generator: Adobe Illustrator 23.0.6, SVG Export Plug-In . SVG Version: 6.00 Build 0)  -->
<svg version="1.1" id="Ebene_1" xmlns="http://www.w3.org/2000/svg" xmlns:xlink="http://www.w3.org/1999/xlink" x="0px" y="0px"
	 viewBox="0 0 315.5 148.5" style="enable-background:new 0 0 315.5 148.5;" xml:space="preserve">
<style type="text/css">
	.st0{fill:#FFFFFF;}
	.st1{fill:#1D1D1B;}
	.st2{display:none;}
	.st3{display:inline;}
	.st4{fill:none;}
	.st5{display:inline;fill:#FF4DFF;}
	.st6{display:inline;fill:none;}
</style>
<g>
	<g>
		<g>
			<path d="M90.7,106.4c0.2-0.4,0.5-0.8,0.7-1.2c0.2-0.3,0.4-0.5,0.6-0.8c1.1-1.3,1.1-1.3,0.9-2.9c0-0.1,0-0.2-0.1-0.4
				c-0.4-0.8-0.5-1.6-0.6-2.5c0-0.3-0.1-0.6-0.2-0.9c-0.1-0.4-0.3-0.7-0.1-1.1c0.1-0.1,0-0.3,0-0.4c-0.4-1.2-0.4-2.5-0.4-3.8
				c-0.1-0.6-0.3-1.3-0.6-1.9c-0.2-0.6-0.5-1.1-0.3-1.7c0.1-0.2-0.1-0.5-0.1-0.8c-0.2-0.5-0.4-1-0.5-1.5c0,0-0.1,0-0.1,0
				c-0.2,0.2-0.4,0.4-0.7,0.6c0.1,0.2,0.2,0.4,0.4,0.6c-0.4,1-0.6,2.2-1.8,2.9c0.1,0.3,0.2,0.5-0.1,0.8c-0.3,0.3-0.8,0.7-0.8,1.2
				c0,0.8-0.3,1.3-0.8,1.9c-0.4,0.4-0.6,0.8-0.8,1.3c-0.1,0.4-0.3,0.8-0.6,1.2c-0.9,1.4-1.9,2.8-2.9,4.1c-1,1.3-2.2,2.3-3.6,3.1
				c-0.3,0.2-0.8,0.3-1.1,0.2c-1-0.3-2.1-0.6-2.9-1.3c-0.5-0.4-0.8-1.1-1.1-1.7c-1-1.8-1.5-3.9-2.1-5.8c-0.9-2.9-1.2-5.9-1.7-8.8
				c0-0.2,0-0.3-0.1-0.5c-0.2-0.5-0.5-0.6-0.9-0.3c-1.6,1.2-3.3,2-5.2,2.7c-1.6,0.6-3.2,1-4.8,1.4c-0.4,0.1-0.9,0.1-1.5,0.1
				c-0.1,0.6-0.2,1.2-0.1,1.8c0.2,0.8,0.3,1.7,0.3,2.6c0,1,0.2,2,0.4,2.9c-0.7,0.7-1,1.4-0.6,2.3c0,0.1,0.1,0.3,0,0.3
				c-0.6,0.4-0.4,1-0.3,1.5c-0.5,0.4-0.7,0.9-0.8,1.5c-0.1,0.4-0.2,0.8,0.2,1.2c0.2,0.2,0.1,0.6-0.2,0.6c-0.5,0.1-0.6,0.4-0.7,0.8
				c-0.8,1.9-1.4,3.8-2.6,5.5c-0.1,0.1-0.1,0.2-0.1,0.4c0.1,0.1,0.2,0.2,0.3,0.3c0,0.1-0.1,0.3-0.1,0.4c-0.6,1-1.3,1.9-2.2,2.7
				c-0.3,0.3-0.6,0.6-0.8,1c-0.5,1-1.7,1.2-2.5,0.4c-0.4-0.4-0.8-0.7-1.2-1c-1.3-0.9-2.4-2.1-2.7-3.8c-0.1-0.6-0.5-1.2-0.4-1.9
				c0-0.2-0.1-0.4-0.2-0.6c-0.8-1.7-1.6-3.5-2.4-5.2c-0.1-0.1-0.1-0.2-0.3-0.4c-0.3,0.7-0.6,1.3-0.9,1.9c-0.1,0.3-0.3,0.6-0.4,0.9
				c-0.9,1.9-1.9,3.9-2.8,5.8c-1.3,2.6-2.6,5.2-4.2,7.6c-0.4,0.6-0.7,1.3-1.2,1.9c-0.4,0.6-0.5,1.3-1.1,1.8
				c-0.3,0.2-0.5,0.6-0.7,0.9c-0.3,0.4-0.6,0.8-0.8,1.1c-0.4,0.5-0.6,0.5-1.2,0.1c-0.5-0.4-0.8-0.8-0.9-1.4
				c-0.2-0.6-0.4-1.2,0.1-1.8c0.2-1.2,1-2.1,1.3-3.2c0.1-0.4,0.4-0.8,0.6-1.1c0.2-0.3,0.3-0.6,0.5-0.9c0.2-0.2,0.3-0.6,0.5-0.7
				c0.5-0.3,0.7-0.8,0.9-1.2c0.5-1,1.1-2,1.7-3c0.3-0.5,0.5-0.9,0.4-1.4c-0.1-0.3,0-0.5,0.3-0.7c0.3-0.2,0.4-0.4,0.4-0.7
				c-0.1-1.1,0.4-2,1-2.9c0.3-0.5,0.6-1,0.8-1.5c0.7-1.5,1.2-3,1.9-4.5c0.4-0.9,0.9-1.8,1.1-2.7c0.1-0.3,0.2-0.7,0.1-1
				c-0.2-1.1-0.3-2.1-0.6-3.2c-0.6-1.9-1.1-3.8-1.7-5.7c0.1-1.3-0.3-2.6-0.3-3.9c0-1.1-0.1-2.2-0.1-3.4c0-0.8,0.1-1.6,0.1-2.3
				c0-0.3,0.1-0.7,0.3-1c0.2-0.6,0.4-1.2,0.6-1.8c0.6-1.6,1.2-3.2,1.9-4.8c0.4-0.8,0.6-1.6,1.1-2.3c0.7-1.4,1.5-2.7,2.7-3.8
				c0.4-0.3,0.9-0.4,1.3-0.4c0.5,0.1,1,0.2,1.5,0.2c0.4,0,0.7,0.2,0.8,0.6c0.2,0.8,0.6,1.5,0.6,2.4c0.1,1.1,0.4,2.2,0.6,3.3
				c0.1,0.7,0.2,1.4,0.3,2.1c0,1.8,0.3,3.6,0,5.4c-0.2,1.5-0.3,3.1-0.3,4.6c0,0.2,0,0.4-0.1,0.5c-0.5,1.2-0.6,2.5-0.9,3.8
				c-0.2,0.8-0.4,1.6-0.7,2.3c-0.2,0.5-0.3,1-0.3,1.5c0,0.4,0.1,0.9-0.3,1.2c0,0-0.1,0.1-0.1,0.1c0,0.9-0.4,1.7-0.7,2.6
				c-0.1,0.4-0.3,0.8-0.4,1.2c-0.5,1.1-0.5,2.1,0.3,3c0.3,0.3,0.5,1.2,0.5,1.7c0,0.2,0,0.4-0.1,0.7c0.7,0.6,1,1.4,1.1,2.4
				c0,0.2,0.1,0.4,0.2,0.6c0.2,0.3,0.4,0.6,0.5,1c0,0.1,0.3,0.3,0.5,0.5c0.4-0.5,0.9-0.8,0.9-1.5c0-0.4,0.2-0.8,0.4-1.2
				c0.8-1.7,1.2-3.4,1.6-5.2c0.2-1,0.1-2,0.2-3c0-0.4,0.1-0.8,0.1-1.1c0.1-0.9,0.3-1.9,0-2.8c-0.2-0.6-0.2-1.3-0.4-1.9
				c-0.2-1.2-0.5-2.3-0.7-3.6c0.3,0,0.5,0.1,0.6,0c0.2,0,0.4-0.1,0.7-0.1c0.2-0.6,0.5-1.1,0.8-1.8c0.4,0.1,0.9,0.2,1.3-0.1
				c0.1-0.1,0.3,0,0.5,0.1c0.2,0.1,0.3,0.2,0.4,0.3c0.5,0.3,1.1,0.6,1.6,0.9c0.6-0.3,1.2,0.1,1.8-0.1c1.6-0.4,3.1-0.8,4.6-1.4
				c0.3-0.1,0.6-0.2,0.8-0.4c1.2-0.5,2.3-1.3,3.1-2.4c-0.1-0.2-0.2-0.4-0.2-0.7c1.1-1.4,2.1-2.8,3.3-4.4c0.6-0.1,1.3-0.7,2.1,0
				c0.3-0.1,0.6-0.3,0.9-0.4c0.6,0.4,1.3,0.4,2,0.1c0.4,0.4,0.8,0.8,1.4,0.9c0.4,0,0.8,0.4,1.1,0.6c0.5,1,0.1,1.9-0.1,2.8
				c-0.3,1.2-0.4,2.5-0.2,3.7c0.1,1,0.3,2.1,0.4,3.1c0.1,1.1,0.2,2.3,0.4,3.4c0.1,0.9,0.1,1.9,0.7,2.7c0.2,0.3,0.2,0.7,0.3,1.1
				c0.1,0.2,0.2,0.4,0.3,0.6c1-0.8,1.2-2.1,2.2-2.9c-0.1-0.2-0.2-0.4-0.4-0.7c0.4-0.9,0.9-1.9,1.5-2.8c0.2-0.4,0.4-0.8,0.5-1.2
				c0.3-1.2,0.8-2.4,1.3-3.6c-0.4-0.3-0.3-0.7-0.1-1.1c0.2-0.3,0.4-0.2,0.7-0.2c0.5-0.8,0.9-1.6,1.4-2.4c0.4-0.7,0.8-1.3,1.2-2
				c0.3-0.4,0.5-0.9,0.4-1.4c-0.1-0.3,0-0.6,0.2-0.8c1-1.3,1.6-2.9,2.4-4.4c0.6-1,1.2-1.9,1.9-2.9c1.2-0.3,2.3,0,3.4,0.3
				c0.3,0.2,0.3,0.9,0.9,0.5c0.2-0.1,0.6,0.1,0.8,0.2c0.5,0.3,0.9,0.6,1.5,0.5c0.3,0.4,0.4,0.9,1,1.1c0.2,0,0.5,0.4,0.5,0.7
				c0,0.7,0.3,1.1,0.9,1.6c-0.1,0.2-0.2,0.5-0.3,0.7c-0.1,0.2-0.1,0.4-0.1,0.5c0.2,0.5,0.1,1,0,1.5c-0.1,0.9-0.2,1.9-0.4,2.8
				c-0.1,0.3-0.2,0.7-0.3,1c-0.1,0.3-0.6,0.4-0.5,0.7c0.1,0.6-0.3,1.2,0.1,1.8c0.1,0,0.2-0.1,0.3-0.1l0,0c0.1,0.1,0.3,0.1,0.3,0.2
				c0.1,1.1,0.2,2.2,0.3,3.4c0,0.2-0.1,0.4,0,0.6c0.5,1.3,0.5,2.7,0.5,4.1c0,0.2,0.1,0.4,0.1,0.6c0.1,0.9,0.5,1.7,0.4,2.7
				c-0.1,0.3,0,0.3,0.6,1.2c0.2-0.1,0.4-0.2,0.6-0.4c1.3-1,2.2-2.5,3.3-3.6c1.2-1.2,2.3-2.5,3.3-3.8c0.5-0.6,0.9-1.4,1.3-2.1
				c0.1-0.2,0.2-0.5,0.4-0.6c0.9-1,1.8-2,2.7-3c0.2-0.2,0.3-0.4,0.4-0.7c-0.2-0.3-0.5-0.5-0.7-0.7c0.3-0.5,0.6-0.9,0.9-1.4
				c0.2-0.1,0.5-0.2,0.8-0.2c1.1-0.3,1.5-0.2,2.1,0.9c0,0.1,0.1,0.1,0.1,0.1c0.4,0.2,0.8,0.3,1.1,0.4c0.2,0.1,0.4,0.3,0.4,0.4
				c0.1,0.6,0.5,0.9,1,1.2c0.4,0.2,0.6,0.4,0.9,0.7c0.1,0.1,0.3,0.3,0.3,0.4c-0.1,0.7,0.4,0.9,0.9,1.1c0.5,0.2,0.8,0.6,1.1,1.1
				c0.1,0.1,0.1,0.3,0.1,0.5c0,0.5,0,0.9,0,1.5c-1.6,1.1-2.3,2.8-3.4,4.3c-0.7,1-1.5,1.9-2.2,2.9c-0.3,0.4-0.6,0.4-1.1,0.3
				c-0.4,0.4-0.7,0.9-1.1,1.4c-0.1,0.2-0.4,0.2-0.5,0.4c-0.3,0.2-0.6,0.4-0.7,0.7c0,0.1-0.1,0.3-0.2,0.3c-1.1,0.5-1.5,1.7-2.4,2.4
				c-0.4,0.3-0.6,0.7-0.8,1.1c-0.2,0.4-0.4,0.8-0.8,1.2c-0.4,0.4-0.7,0.9-1.1,1.3c-0.8,1-1.7,2.1-2.5,3.1c-0.6,0.7-1.3,1.3-1.9,1.9
				c-0.9,1.1-1.4,2.4-0.9,3.8c0.1,0.4,0.1,0.7,0.1,1.1c-0.1,0.7-0.3,1.4-0.3,2.1c0,0.4,0.1,0.8,0.2,1.2c0.1,0.4,0.3,0.7,0.4,1.1
				c-0.2,0.1-0.4,0.2-0.5,0.3c-0.2,0.3-0.4,0.5-0.2,0.9c0.2,0.6,0.4,1.2,0.5,1.9c0,0.2,0,0.4-0.1,0.6c-0.2,0.9-0.2,0.9,0.2,1.7
				c0.1,0.2,0.2,0.4,0.3,0.6c-0.1,0.1-0.2,0.3-0.2,0.5c-0.1,0.2-0.1,0.3-0.1,0.5c0.3,0,0.6,0.1,0.8,0.4c0.1,0.3,0,0.6-0.2,0.8
				c-0.1,0.1-0.4,0.3-0.5,0.4c-0.1,0.1-0.3,0.3-0.3,0.4c0.1,0.5-0.3,0.9-0.4,1.4c0,0.3,0,0.7-0.2,0.8c-0.4,0.2-0.3,0.8-0.8,1
				c-0.6,0.3-0.7,1-0.9,1.6c-0.1,0.1,0,0.3-0.1,0.4c0,0.1-0.1,0.1-0.2,0.1c-0.1,0-0.2-0.1-0.3-0.2c-0.1-0.1-0.1-0.2-0.1-0.4
				c-0.2,0.2-0.3,0.4-0.3,0.8c0.1,0.1,0.3,0.1,0.4,0.2c0,0.5-0.5,0.3-0.6,0.6c0.2,0.1,0.4,0.2,0.6,0.3c-0.2,0.4-0.4,0.7-0.6,1.1l0,0
				c-0.1,0.1-0.4,0.3-0.4,0.4c-0.1,0.7-0.5,1.2-0.9,1.7c-0.1,0.2-0.1,0.4-0.1,0.6c0.1,0.6-0.2,0.9-0.8,0.8c-0.7-0.1-0.7-0.1-0.5,0.6
				c0,0,0,0.1,0,0.2c-0.6,0.5-1.3,0.9-2.1,1.3c-0.5,0.3-1,0.5-1.6,0.2c-0.3-0.1-0.4,0.1-0.4,0.5c-0.9,0.5-1.9,0.6-2.9,0.9
				c-0.2,0.1-0.3,0.1-0.5,0.2c0.1,0.2,0.2,0.3,0.3,0.5c-0.7,0.2-1.3,0.4-2,0.6c-0.1,0-0.3,0-0.4,0c-0.7-0.5-1.6-0.5-2.4-0.7
				c-0.3-0.1-0.5-0.3-0.7-0.5c-0.3-0.2-0.4-0.5-0.7-0.7c-1.4-0.8-2.5-1.9-3-3.5c0.2-1.5,0.1-3,0.1-4.6c0-0.4,0-0.8,0.1-1.1
				c0.3-1.1,0.6-2.2,1.2-3.2c0.4-0.7,0.6-1.4,1-2.1c0.2-0.4-0.2-1,0.4-1.3c0.3-0.9,0.6-1.8,0.9-2.7c0.2-0.7,0.4-1.3,0.6-2.1
				c-0.3-0.7-0.3-0.8,0.5-1.1c0.6-0.3,0.9-0.8,1.1-1.3c0.2-0.4,0.3-0.8,0.5-1.2c0.2-0.4,0.2-0.8,0.4-1.3c0.7-0.4,1.2-1.2,1.7-2
				c0.3-0.4,0.5-0.8,0.8-1.2c0.5-0.7,1-1.3,1.5-1.9c0.1-0.1,0.1-0.2,0.1-0.2c-0.2-0.7,0.3-1,0.7-1.4c-0.2-0.8-0.2-0.8,0.4-1.2
				c0,0.2,0,0.4-0.1,0.6c0.5-0.3,0.6-0.6,0.6-1C91,106.4,90.8,106.4,90.7,106.4z M41.1,72.3c-0.1,0.2-0.3,0.4-0.4,0.6
				c-0.4,1-0.8,1.9-1.1,2.9c-0.5,1.9-0.9,3.8-1,5.9c0,1.1,0.1,2.2,0.2,3.2c0.2,1.3,0.3,2.7,0.7,3.9c0.1,0.2,0.1,0.3,0.3,0.3
				c0.1,0,0.2-0.2,0.2-0.2c0-0.3,0.1-0.6,0.3-0.8c0.1-0.2,0.2-0.4,0.3-0.7c0.2-0.9,0.4-1.9,0.7-2.9c-0.5-0.6-0.7-1.2-0.1-2
				c0.6-0.8,0.7-1.8,0.4-2.8c-0.1-0.3-0.2-0.6-0.2-0.9c-0.1-1.1-0.1-2.2,0.1-3.3c0.2-0.9-0.2-1.9-0.3-2.8
				C41.3,72.5,41.2,72.5,41.1,72.3z M88.3,133.1c0.6,0.2,1,0,1.4-0.4c0.5-0.5,1-1,1.5-1.6c1.1-1.2,1.4-2.9,2.3-4.3
				c0.1-0.1,0.1-0.2,0.1-0.4c0.2-1.8,0.5-3.6,0.5-5.4c0-0.3,0.1-0.7-0.3-1c-0.2,0.6-0.3,1.1-0.5,1.6c-0.2,0.5-0.6,0.9-0.9,1.4
				c-0.5,0.8-1.1,1.6-1.6,2.4c-0.6,1-1.1,2.1-1.4,3.2c-0.2,0.8-0.2,1.5-0.7,2.2c-0.1,0.1-0.1,0.3-0.1,0.5
				C88.5,131.9,88.4,132.4,88.3,133.1z M94.4,137.2c-0.5,0.2-1,0.4-1.5,0.7c0.3,0.2,0.5,0.4,0.7,0.6c0.4-0.3,0.7-0.5,1-0.7
				C94.6,137.6,94.5,137.4,94.4,137.2z M90,139.5c-0.4,0.1-0.8,0.1-1.2,0.2c-0.1,0-0.1,0.2-0.1,0.3c0,0,0.1,0.1,0.2,0.1
				C89.4,140.2,89.7,140,90,139.5z M100.4,126.8c0,0-0.1,0.1,0,0.1c0,0,0.1,0.1,0.1,0.1C100.5,127,100.5,126.9,100.4,126.8
				C100.5,126.8,100.5,126.8,100.4,126.8z M92.5,138.8c0,0,0,0.1,0,0.1c0,0,0.1,0,0.1,0C92.6,138.9,92.6,138.8,92.5,138.8
				C92.6,138.8,92.5,138.8,92.5,138.8z"/>
			<path d="M144.1,43c0.1-1.1,0.2-2.1,0.3-3.1c-0.2,0-0.4,0-0.6,0c-0.2-0.8-0.3-1.6-0.5-2.4c0-0.1,0-0.3,0.1-0.4
				c0.5-0.5,0.2-1.4,0.8-1.9c0.1-0.5,0.1-1.1,0.2-1.6c0-0.2-0.1-0.4-0.1-0.6c0-0.2,0-0.3,0-0.6c0.1-0.1,0.3-0.3,0.5-0.4
				c0.4-0.3,0.4-0.3,0.1-1c-0.1-0.1-0.1-0.3,0-0.5c0.1-0.2,0.2-0.3,0.4-0.6c-0.1-0.3-0.3-0.6-0.3-0.9c0-0.2,0-0.6,0.1-0.6
				c0.6-0.2,0.4-0.5,0.4-0.9c0.1-0.9,0.2-1.7,0.2-2.6c0.1-1.2-0.2-2.3-1-3.3c-0.2,0.1-0.3,0.3-0.4,0.3c-1.9,0.1-3.7,0.5-5.5,0.7
				c-0.7,0.1-1.3-0.1-2,0.1c-0.6,0.2-1.3,0.2-1.9,0.2c-0.1,0-0.3,0.1-0.4,0c-0.5-0.3-1.1-0.1-1.6-0.2c-0.6-0.1-1.1,0.1-1.6,0.2
				c-0.3,0.1-0.7,0.1-1,0c-0.5-0.1-0.9-0.1-0.9,0.5c-0.4,0.2-0.9,0.6-1.3,0.7c-1.7,0.4-3.5,0.7-5.2,0.9c-0.6,0.1-1.2,0-1.8-0.1
				c-0.5-0.1-0.9-0.1-1.4,0c-0.7,0.1-1.4,0-2.1-0.2c-0.1-0.2-0.2-0.4-0.2-0.6c0-0.7-0.5-1.1-0.9-1c-0.8,0-1.2-0.4-1.5-0.8
				c-0.4-0.5-0.9-0.9-1.4-1.3c0.1-0.7-0.1-1.2-0.5-1.8c-0.4-0.5-0.3-1.1,0.1-1.7c0.2-0.2,0.4-0.4,0.5-0.6c0.4-0.8,1.1-0.9,1.9-0.7
				c0.2,0.1,0.5,0,0.8,0c1.9-0.1,3.8-0.6,5.7-1c1.4-0.3,2.9-0.4,4.4-0.7c0.9,0.3,1.8-0.1,2.6-0.3c2.4-0.6,4.9-0.5,7.3-0.8
				c0.9,0.2,1.7,0,2.6-0.1c1-0.2,2,0,2.9-0.1c1.4-0.1,2.8-0.2,4.1-0.4c0.8-0.1,1.6-0.1,2.5-0.1c0.7,0,1.4,0,2.1,0
				c1.2,0,2.3,0,3.5,0.1c0.2,0,0.6,0,0.8,0.2c0.5,0.3,0.9,0.4,1.4,0c0.2-0.2,0.7-0.1,1-0.1c0.2,0,0.5,0.1,0.8,0.2
				c1.1,0.1,2.1,0,3.1-0.2c0.3-0.1,0.6-0.1,0.9-0.1c0.8,0,1.5,0.1,2.3,0.1s1.5,0,2.3,0c0.2,0,0.4,0,0.6,0c0.7-0.2,1.4-0.1,2.2-0.1
				c0.8,0,1.6-0.1,2.4-0.2c0.9-0.1,1.7-0.3,2.6-0.4c0.5-0.1,1-0.1,1.5-0.2c0.8-0.2,1.6-0.3,2.4-0.4c0.8,0,1.5-0.2,2.3-0.5
				c0.9-0.3,1.5,0.1,2.1,0.6c0.2,0.1,0.2,0.4,0.4,0.5c0.3,0.3,0.6,0.7,1,0.8c0.9,0.3,1,1.2,1.5,1.7c0,0,0.1,0.2,0.1,0.2
				c-0.1,0.7,0.2,1.3,0.5,2c0.2,0.4,0.4,0.8,0.3,1.2c0,0.4-0.2,0.8-0.2,1.2c0,0.4-0.3,0.6-0.7,0.7c-1.2,0.2-2.4,0.3-3.6,0.5
				c-0.6,0.1-1.3,0.1-1.9,0.2c-1.3,0.1-2.7,0.2-4,0.3c-0.6,0.1-1.3,0.1-1.9,0.2c-0.2,0-0.4,0.1-0.5,0c-1-0.1-2-0.1-3,0.2
				c0,0-0.1,0-0.1,0c-1.8-0.2-3.6,0.2-5.4,0.1c-1.7-0.1-3.5-0.1-5.2,0c-2.2,0.1-4.3-0.1-6.5,0.3c-0.2,0-0.3,0.1-0.5,0.1
				c0.2,0.7,0.4,1.4,0.6,2c0.3,0.8,0.3,1.7,0.1,2.5c-0.3,1.3-0.3,2.7-0.4,4c-0.1,0.9,0,1.8-0.4,2.7c0.1,0.8-0.4,1.6,0,2.4
				c0.1,0.2,0.1,0.4,0,0.6c-0.1,0.7-0.2,1.4-0.1,2.2c0.1,0.4,0,1-0.2,1.4c-0.2,0.5-0.2,0.9-0.2,1.4c0,0.6-0.1,1.1-0.3,1.7
				c0.7,0.6,0.5,1.3,0.2,2c-0.1,0.4-0.3,0.7-0.4,1.1c-0.2,0.5-0.1,1.2-0.8,1.5c-0.3,0.5-0.5,1.1-1,1.5c-0.4,0.3-0.6,0.8-0.6,1.3
				c0.5,0.6,1.1,1.1,1,1.9c0.9,0.9,0.1,1.9,0.1,2.8c0,0.1-0.1,0.2-0.2,0.3c-0.6,0.7-0.6,0.7-0.2,1.5c0,0.1,0.1,0.2,0.1,0.3
				c-0.2,0.2-0.4,0.3-0.5,0.5c-0.1,0.2-0.1,0.4-0.1,0.6c0,0.6,0,1.1,0,1.7c0.1,0.1,0.2,0.2,0.4,0.3c0,0.2,0,0.5-0.1,0.6
				c-0.8,0.9-0.7,2.1-0.8,3.2c-0.1,0.8-0.1,1.7-0.1,2.6c-0.3-0.1-0.5-0.1-0.8-0.2c0,0.2-0.1,0.4,0,0.6c0.1,0.3,0.3,0.6,0.5,0.9
				c0.1,0.3,0.1,0.6-0.2,0.9c-0.2,0.2-0.4,0.5-0.4,0.7c-0.2,0.6-0.3,1.3-0.4,1.9c-0.2,0.9-0.1,1.7,0.4,2.5c0.3,0.5,0.2,1.1-0.2,1.4
				c-0.3,0.3-0.4,0.6-0.3,0.9c0.1,1.1,0,2.1-0.4,3.2c-0.1,0.3-0.1,0.8-0.1,1.1c0,0.4,0.1,0.8-0.3,1.1c-0.4-0.1-0.5-0.4-0.4-0.7
				c0.1-0.5,0.2-0.9-0.2-1.3c-0.3,0.1-0.1,0.4-0.2,0.6c0,0.2-0.1,0.4,0,0.5c0.2,0.6,0,1-0.6,1.3c-0.1,0-0.1,0.2-0.1,0.2
				c0.1,0.4,0.8,0.3,0.8,0.8c0.7,0.5,0.8,1.2,0.7,2c-0.2,1.2-0.4,2.5-0.5,3.7c0,0.5,0,1-0.5,1.4c0.6,0.8,0.8,1.7,0.6,2.7
				c-0.2,0.9-0.2,1.8-0.4,2.7c-0.2,1-0.4,2.1-1,3c-0.5-0.1-0.2-0.5-0.5-0.7c-0.3,0.1-0.2,0.7-0.7,0.7c-0.2-0.5,0.5-1,0-1.5
				c-0.2,0.2-0.5,0.4-0.5,0.6c0,0.9-0.6,1.3-1.2,1.8c-0.1-0.3-0.2-0.6-0.4-0.8c-0.6,0.1-0.1,1-0.8,0.9c0-0.2-0.1-0.5-0.1-0.7
				c-0.1,0-0.2-0.1-0.2-0.1c-0.3,0-0.7,0.1-1,0.1c-0.2,0-0.5-0.2-0.5-0.3c0.1-0.8-0.4-1.2-0.9-1.6c-0.1-0.1-0.1-0.2-0.2-0.3
				c0-0.4,0.2-0.9,0-1.4c-0.1-0.1,0-0.3,0.1-0.5c0.5-1.3,0.8-2.6,0.8-4c0-0.2,0.1-0.4,0.1-0.6c0-0.3,0.1-0.7,0.1-1
				c0.1-0.7-0.4-1.3-0.1-2c0.2-0.6,0.1-1.3,0.1-1.9c0.2-1.6,0-3.3,0.1-4.9c0.1-1.4,0-2.8,0.6-4.1c0.4-0.9,0.1-1.8,0.4-2.7
				c0.1-0.4-0.1-0.9-0.1-1.4c-0.1-1.2,0.3-2.4,0.4-3.6c0.1-0.6,0.1-1.1,0.1-1.7c0-0.4-0.1-0.8,0.1-1.1c0.4-1.2,0.5-2.6,0.6-3.8
				c0.1-1.2,0.1-2.3,0.3-3.5c0.2-1.4,0.1-2.8,0.4-4.2c0.4-2.3,0.3-4.7,0.6-7c0.1-0.4,0.1-0.9,0.3-1.2c0.3-0.5,0.5-1,0.6-1.6
				C143,43.4,143.2,42.8,144.1,43z M145.3,70c-0.1,0-0.2,0.1-0.3,0.1c0.6,0.7-0.4,1.1-0.1,1.8c0.3,0,0.6,0.1,0.8,0.1
				c0.2,0.2,0.1,0.7,0.6,0.6c0-0.6,0-1.2,0-1.7C146,70.5,145.6,70.2,145.3,70z M146,75.8c0-0.1,0.1-0.2,0.1-0.2
				c-0.1-0.5-0.7-0.7-0.6-1.3c0,0-0.1-0.1-0.1-0.1c-0.1,0-0.2-0.1-0.4,0c-0.1,0-0.2,0-0.3,0.1c-0.2,0.4-0.2,0.7,0,1
				c0.1,0.3,0.4,0.3,0.6,0.3C145.6,75.6,145.8,75.8,146,75.8z M144.5,80.5c0.5-0.1,0.5-0.4,0.5-0.7c-0.2-0.1-0.4-0.1-0.6-0.2
				C144.5,80,144.5,80.2,144.5,80.5z M145.9,64c-0.1,0-0.1-0.1-0.2-0.1c0,0.1-0.1,0.1-0.1,0.2c0,0,0.1,0.1,0.1,0.1
				C145.8,64.1,145.8,64,145.9,64z M144.8,82.7c-0.1,0.1-0.2,0.3-0.3,0.4c0.1,0,0.2,0.1,0.2,0.1C144.9,83.1,144.9,82.9,144.8,82.7z
				 M144.3,89.8c-0.1,0-0.1,0.1-0.2,0.1c0,0.1,0,0.1,0,0.2c0.1,0,0.2-0.1,0.2-0.1C144.4,89.9,144.3,89.9,144.3,89.8z M145.4,86.1
				c0-0.1-0.1-0.1-0.1-0.2c0,0-0.1,0.1-0.1,0.1c0,0.1,0,0.1,0,0.2C145.3,86.1,145.3,86.1,145.4,86.1z"/>
			<path d="M193.3,34.1c0.1-0.3,0.1-0.6,0.2-0.8c0-0.1,0.2-0.2,0.3-0.2c0.4,0.2,0.5-0.1,0.6-0.3c0.1-0.3,0.3-0.6,0.4-0.9
				c-0.1-0.1-0.2-0.2-0.3-0.4c0.1-0.5,0.3-1,0.8-1.3c0.8-0.4,1.3-1.1,1.9-1.8c0.4-0.4,0.8-0.8,1-1.3c0.1-0.2,0.2-0.4,0.4-0.5
				c0.5-0.4,0.7-0.9,1-1.5c0.3-0.5,0.6-1.2,1.4-0.9c0,0,0.1,0,0.1,0c0.5-0.7,0.7,0,1.1,0.3c0.7-0.4,1.3-0.3,1.8,0.3
				c0.2,0.2,0.4,0.3,0.7,0.3c0.6,0.1,1.1,0.5,1.5,0.9c0.4,0.4,0.8,0.8,1.2,1.2c0,0.2,0,0.4,0,0.6c-0.3,1.1-0.1,2.3-0.1,3.4
				c-0.1,1.4,0.5,2.8,0.4,4.2c0,0.3,0.2,0.7,0.3,1.1c0,0.2,0.1,0.6-0.1,0.7c-0.3,0.2-0.1,0.4-0.1,0.7c0,0.2-0.1,0.5-0.2,0.7
				c0.2,0.1,0.4,0.2,0.7,0.4c-0.1,0.2-0.2,0.4-0.3,0.7c0,0.1,0,0.2,0.1,0.2c0.4,0.1,0.7,0.3,0.8,0.8c0.1,0.5,0.3,1,0.2,1.6
				c-0.1,0.5,0.1,1.1,0.3,1.5c0.3,0.5,0,0.8-0.2,1.2c0.1,0.4,0.8,0.7,0.4,1.2c0,0,0.1,0.1,0.1,0.2c0.1,0.1,0.3,0.2,0.3,0.3
				c0,0.3,0,0.6,0.3,0.8c0.1,0.1,0.2,0.3,0.1,0.5c-0.2,0.6,0.2,1.1,0.4,1.6c-0.4,0.6-0.4,0.6-0.2,1.3c0.1,0.4,0.2,0.8,0.7,1
				c0.1,0,0.3,0.2,0.4,0.3c0.2,0.6,0.3,1.2,0.4,1.7c0,0.1-0.1,0.2-0.3,0.3c0.2,0.3,0.5,0.7,0.7,1.1c0.3,0.5,0.2,0.9-0.3,1.2
				c0-0.2,0.1-0.4,0.1-0.7c0,0-0.1,0-0.1,0c0,0.2,0,0.4,0,0.7c0.1,0.3,0.2,0.6,0.3,0.9c0.2,0,0.4,0.1,0.6,0.1c0,0.2-0.1,0.5-0.1,0.7
				c0.1,0,0.2,0.1,0.2,0.1c1-0.1,1.9-0.7,2.9-1c0.9-0.2,1.7-0.9,2.9-0.7c0.4,0.2,0.9,0.6,1.5,1c0.6,0.4,0.6,0.4,1.5,0.4
				c0,0.2,0,0.4,0.1,0.7c0.3,0.2,0.7,0.1,0.8,0.6c0.1,0.5,0.1,1-0.3,1.4c0.2,0.4,0.4,0.7,0.6,1.1c-0.2,0.4-0.8,0.5-0.5,1.1
				c0.1,0.3-0.3,0.8,0.3,1c-0.3,0.1-0.5,0.1-0.8,0.2c-0.3,0.1-0.5,0.3-0.8,0.5c-0.4,0.3-0.9,0.5-1.4,0.6c-0.2,0-0.5,0.1-0.7,0.2
				c-0.9,0.4-1.8,0.6-2.7,0.7c-0.3,0-0.7,0.1-1,0.1c0,0.9,0.5,1.6,0.5,2.4c0.7,0.6,0.1,1.5,0.7,2.1c0.2,0.1,0.3,0.1,0.6,0.2
				c0,0.4,0.1,0.8,0.4,1.2c0.3,0.5,0.4,1,0.4,1.6c0,0.8,0.1,1.6,0.9,2.1c0.1,0.4,0.4,0.9,0.4,1.3c0,1.4,0.4,2.7,1,4
				c0.4,0.8,0.5,1.7,0.8,2.6l0,0c0.3,0.3,0.8,0.5,0.4,1c0.3,0.7,0.2,1.5,0.7,2.2c0.4,0.6,0.6,1.4,0.4,2.1c-0.1,0.4-0.1,0.7,0,1.1
				c0.1,0.2,0,0.6,0,0.9c-0.3,0.1-0.5,0.1-0.7,0.1c-0.1,0.2-0.1,0.5-0.2,0.5c-0.4-0.1-0.6,0.5-1.1,0.2c0,0-0.1-0.1-0.1-0.1
				c-0.6-0.4-1.1-0.2-1.6,0.3c-0.4-0.4-0.9-0.8-1.2-1.3c-0.5-0.6-1-0.9-1.7-0.8c-0.3-0.4-0.6-0.7-0.8-1.1c-0.2-0.2-0.4-0.5-0.4-0.8
				c0-0.8-0.3-1.3-0.8-1.9c-0.3-0.3-0.4-0.6-0.1-0.9c0.1-0.1,0.1-0.2,0-0.4c-0.2-0.6-0.2-1.3-0.1-1.9c0-0.2-0.1-0.4-0.1-0.6
				c-0.4-1.4-0.7-2.8-1.1-4.1c-0.3-1.1-0.8-2.1-1.1-3.2c-0.4-1.2-0.6-2.5-0.6-3.8c0-0.8-0.2-1.5-0.5-2.2c-0.2,0-0.4,0-0.5,0.1
				c-0.3-0.5-0.6-1-0.9-1.5c-1.8-0.1-3.4,0.1-5.1,0.3c-0.3,0-0.5,0.1-0.8,0.1c-0.9,0-1.8,0.2-2.7,0.4c-1,0.2-2,0.3-3,0.2
				c-0.6-0.1-1.2,0.1-1.7,0.3c-0.8,0.3-1.5,0.3-2.3,0.4c-1.5,0.2-2.9,0.6-4.4,0.4c-0.4-0.1-0.8,0.2-1,0.6c-0.2,0.5-0.5,1-0.5,1.5
				c0,0.5-0.2,0.8-0.5,1.2c-0.1,0.1-0.3,0.2-0.3,0.2c-0.1,0.5-0.2,1-0.4,1.5c-0.1,0.4-0.4,0.8-0.6,1.2c-0.1,0.3-0.2,0.7-0.3,1
				c0,0.1-0.1,0.2-0.1,0.2c0.3,1.1-0.4,2-0.8,2.9c-0.6,1.3-1,2.6-1.5,3.9c-0.4,1.1-0.9,2.1-2.1,2.6c0.1,0.1,0.1,0.2,0.1,0.4
				c0.3,0.5,0.3,0.9,0,1.1c-0.7,0.5-0.9,1.1-0.8,1.9c0,0.2,0,0.4,0,0.5c-0.4,1-0.6,2.2-1.3,3.1c-0.2,0.2-0.3,0.4-0.6,0.6
				c-0.4,0.1-0.6,0.6-0.4,0.9c0.1,0.3,0.2,0.5,0.1,0.7c-0.3,0.7-0.7,1.3-1,2c-0.3,0.7-1,0.7-1.5,1.1c-0.5-0.4-0.8,0.2-1.2,0.2
				c-0.3,0-0.6,0.1-0.9,0c-0.6-0.1-1.2-0.4-1.8-0.6c-0.3-0.9-0.7-1.6-1.6-2c-0.1-0.1-0.3-0.4-0.3-0.5c-0.1-0.8-0.5-1.3-1.1-1.7
				c0-0.4,0.1-0.8,0.1-1.2c0.3-0.2,0.6-0.5,1-0.8c1-0.6,1.5-1.7,2.1-2.7c0.1-0.2-0.2-0.5,0.1-0.7c1.1-0.6,1.3-1.5,1.1-2.6
				c0-0.2,0-0.4,0.1-0.5c0.2-0.4-0.1-0.6-0.4-0.9c0.2-0.6,0.5-1.2,0.7-1.9c0,0,0.1,0,0.1,0c0.2,0.2,0,0.4,0,0.6
				c0,0.1,0.1,0.3,0.1,0.3c0.1,0,0.4-0.1,0.4-0.2c0.2-1,1.1-1.5,1.4-2.4c0.3,0,0.5,0,0.7-0.1c0,0,0-0.2,0.1-0.3l0,0
				c0.5-0.6,0.7-1.3,0.6-2c-0.1-1.5,0.6-2.6,1.4-3.8c0.1-0.1,0.1-0.2,0.3-0.3c-0.2-0.7-0.1-1.3,0.5-1.9c0.5-0.5,0.8-1.1,0.7-1.9
				c-0.1-0.3,0.1-0.7,0.4-0.9c0.5-0.4,0.7-0.8,0.6-1.4c0-0.6,0.3-1.2,0.5-1.8c0.3-0.2,0.6-0.3,1-0.5c-0.3-0.8,0.2-1.5,0.4-2.2
				c0.1-0.4,0.4-0.8,0.4-1.2c0-0.4,0.3-0.6,0.4-1c0.2-0.7,0.4-1.4,0.1-2.1c0.9-1.1,0.9-2.4,1.3-3.7c-0.2,0-0.3-0.1-0.5-0.1
				c0.1-0.3,0.2-0.6,0.5-0.8c0.4-0.4,0.5-0.9,0.7-1.4c0-0.1,0.1-0.3,0.1-0.4c-0.4-0.7,0.1-1.1,0.4-1.6c0.3-0.5,0.5-1,0.8-1.5
				c0.7-1.6,1.7-3,2-4.7c-0.2-0.4-0.4-0.8-0.5-1.1c0.3-0.5,0.5-1.1,0.8-1.5c0.1-0.2,0.4-0.3,0.6-0.4c0.1-0.3-0.4-0.6-0.1-0.9
				c0.1-0.1,0-0.3,0-0.3c-0.7-0.6-0.3-1.2,0-1.8c0.3-0.5,0.5-1,1.1-1.2c0.3-0.1,0.6-0.1,1-0.2c0.3-0.8,0.6-1.6,0.9-2.4
				c0.1-0.5-0.1-1,0.2-1.5C193.1,34.3,193.2,34.2,193.3,34.1c0,0,0,0.1,0,0.1c0,0,0,0.1,0,0.1c0,0-0.1-0.1-0.1-0.1
				C193.2,34.2,193.3,34.2,193.3,34.1z M212.9,77.7c0,0.1,0,0.2,0,0.2c0,0,0,0.1,0.1,0.1c0-0.1,0.1-0.2,0-0.2
				C213.1,77.8,213,77.8,212.9,77.7c-0.1,0-0.1-0.1-0.1-0.2C212.8,77.6,212.9,77.7,212.9,77.7z M201.7,36.4c-0.7,1.6-1.6,2.9-2,4.4
				c-0.1,0.3-0.2,0.5-0.5,0.7c-0.5,0.5-0.9,1.1-1,1.9c0,0.4-0.2,0.7-0.4,0.9c-0.6,0.6-0.9,1.4-1.2,2.3c0,0.2,0,0.4,0,0.6
				c0.1,0.3,0.1,0.5-0.1,0.7c-0.2,0.1-0.4,0.3-0.3,0.5c0.1,0.4-0.2,0.7-0.2,1c-0.2,1.2-1,2.1-1.1,3.3c0,0.3-0.3,0.5-0.6,0.6
				c-0.4,0.2-0.6,0.4-0.4,0.8c0.2,0.4,0.2,0.8-0.1,1.2c-0.2,0.3-0.4,0.6-0.4,1c0,0.5-0.3,0.9-0.9,1.6c-0.1,0.1-0.2,0.3-0.1,0.3
				c0.2,0.4-0.3,0.6-0.3,0.9c0,0.3,0.3,0.6,0.1,1c0,0.1,0,0.2,0,0.3c0,0.4-0.5,0.6-0.6,0.9s0.1,0.7-0.1,1.1
				c-0.2,0.3-0.4,0.5-0.7,0.8c0.9,0.1,1.7,0,2.2-0.2c0.3-0.1,0.5-0.3,0.8-0.4c0.3-0.1,0.7-0.2,1-0.2c0.3-0.1,0.6-0.2,0.9-0.2
				c0.4,0,0.4-0.4,0.7-0.5c0.4-0.2,0.8-0.2,1.2-0.2c0.5-0.1,1-0.2,1.5,0.3c0.1,0.1,0.4,0.2,0.6,0.2c0.6,0,1.3,0,1.9-0.1
				c1-0.2,2-0.6,2.9-0.9c0.5-0.2,0.9-0.4,1.5-0.4c0.7,0,1.2-0.3,1.7-0.8c0.1-0.1,0.2-0.2,0.2-0.3c0-0.3-0.1-0.6-0.1-0.9
				c-0.2-0.1-0.4-0.2-0.6-0.2c0-0.3,0.1-0.5,0-0.6c-0.5-0.3-0.5-0.9-0.8-1.4c-0.1-0.2,0-0.7-0.1-0.8c-0.5-0.3,0.1-0.6-0.1-0.9
				c-0.8-0.3-0.9-0.5-0.6-1.3c0-0.1,0.1-0.3,0.1-0.5c-0.6,0-0.6,0-0.6-0.3c0-0.4,0-0.8,0.1-1.1c0.2-0.6-0.4-0.7-0.6-1
				c-0.2-0.2-0.3-0.5-0.3-0.8c0-0.2-0.1-0.4,0.3-0.5c0.4-0.1,0.4-0.4,0.3-0.7c-0.3-0.5-0.6-1-0.3-1.7c0.1-0.1-0.1-0.4-0.1-0.6
				c-0.3-1.1-0.7-2.1-1-3.2c-0.5-2-0.9-3.9-1.4-5.9C201.9,36.7,201.8,36.6,201.7,36.4z M211.8,74.2c-0.1,1.1-0.1,1.1,0.5,1.1
				C212.1,74.9,212,74.6,211.8,74.2z M183.4,66.4c-0.4,0.2-0.5,0.4-0.3,0.8C183.2,66.9,183.3,66.6,183.4,66.4z M201.3,25.4
				c-0.1-0.1-0.2-0.2-0.3-0.3c-0.1,0-0.2,0.1-0.3,0.2c0.1,0.1,0.1,0.2,0.2,0.2C201,25.5,201.1,25.5,201.3,25.4z M187.1,70.5
				c-0.1-0.1-0.1-0.2-0.2-0.3c-0.1,0.1-0.2,0.1-0.2,0.2c0,0.1,0.1,0.2,0.1,0.3C186.9,70.6,187,70.6,187.1,70.5z M211.4,72.6
				c0,0,0-0.1,0-0.1c0,0-0.1,0.1-0.1,0.1S211.3,72.6,211.4,72.6C211.3,72.7,211.3,72.6,211.4,72.6z M189.8,47.6c0,0-0.1,0.1-0.1,0.1
				c0,0.1,0,0.2,0.1,0.2c0,0,0.1-0.1,0.1-0.1C189.8,47.7,189.8,47.6,189.8,47.6z M210,68.6C210,68.6,210,68.6,210,68.6
				c-0.1,0.1,0,0.2,0,0.3c0,0,0.1-0.1,0.1-0.1C210.1,68.7,210.1,68.6,210,68.6z M190.4,46.3C190.4,46.3,190.4,46.3,190.4,46.3
				c-0.1-0.1-0.2,0-0.2,0C190.3,46.4,190.3,46.4,190.4,46.3C190.4,46.4,190.4,46.4,190.4,46.3z"/>
			<path d="M231.1,33.1c-0.2-0.8-0.6-1.4-1.6-1.4c-0.1-0.5-0.2-1-0.3-1.5c0-0.2-0.1-0.4-0.2-0.6c-0.8-0.8-0.6-1.8-0.5-2.8
				c0.1-0.3,0.3-0.5,0.6-0.6c0.4-0.1,0.7-0.3,1.1-0.2c0.3,0.1,0.6-0.2,0.9-0.3c1.2-0.1,2.4,0,3.6-0.2s2.4-0.3,3.6-0.5
				c1.8-0.3,3.7-0.5,5.5-0.8c0.6-0.1,1.2-0.2,1.8-0.3c0.5-0.1,0.9-0.2,1.4-0.2c0.5,0,1,0,1.5-0.4c0.1-0.5,0.2-1.2,0.5-1.8
				c0.3-0.6,0.1-1.3,0.6-1.8c-0.2-0.3-0.5-0.6-0.6-0.9c-0.1-0.2,0-0.5,0.3-0.6c0.2,0,0.4,0,0.6,0c0.5,0,0.9-0.1,1.4-0.1
				c0.2-0.2,0.3-0.5,0.5-0.7c0.2-0.2,0.4-0.2,0.6,0c0.2,0.2,0,0.3-0.1,0.4c0,0,0,0.2-0.1,0.3c0.7,0.3,1.4,0.1,2.2,0.1
				c0,0.5-0.1,1.1-0.1,1.5c-0.2,0.3-0.6,0.2-0.5,0.7c0.4,0,0.7,0,1.1,0c0.2,0.2,0.5,0.4,0.8,0.6c0,0.3,0.1,0.7,0.1,1.1
				c0.7,0,1.4-0.1,2-0.3c0.9-0.3,1.8-0.5,2.7-0.7c0.9-0.2,1.6-0.5,2.2-1.2c0.6-0.8,1.6-0.8,2.5-1c0.1,0,0.3,0,0.4,0.1
				c0.5,0.4,1.1,0.4,1.7,0.3c0.8,0,1.4,0.2,1.5,1c0.4,0,0.7,0.1,1,0.1c0,0,0.1,0.1,0.1,0.1c0,0.2-0.1,0.5-0.1,0.9
				c0.3,0.1,0.5,0.1,0.8,0.2c0,0.3,0,0.6,0,0.9c0.2,0,0.5,0.1,0.7,0.1c0,0.1,0.1,0.2,0.1,0.2c-0.5,0.5-0.5,1.2-0.7,1.9
				c0.4,0.5,0.7,0.9,1,1.4c0,0.2,0,0.3-0.1,0.3c-0.2,0.2-0.4,0.4-0.6,0.5c-0.8,0.4-1.5,1-2.4,1.1c-1.3,0.1-2.6,0.3-3.9,0.6
				c-1.3,0.2-2.6,0.4-4,0.6c-1.6,0.2-3.1,0.5-4.8,0.7c0,0.2-0.1,0.4-0.1,0.6c-0.1,0.5-0.2,1-0.2,1.5c0,1,0,2.1,0,3.1
				c0,1.2-0.2,2.5-0.1,3.8c0.1,1.2,0.1,2.4,0,3.6c0,0.2,0,0.3,0,0.5c0,1,0,2-0.6,2.9c0.3,0.4,0.7,0.7,0.4,1.2c0,0.1,0,0.2,0,0.4
				c0,0.6,0.5,1,0.3,1.6c-0.2,0.5,0.1,1,0.1,1.5c0,1.2-0.1,2.4-0.1,3.6c0,0,0,0.1,0,0.1c-0.6,1.4-0.2,2.9-0.1,4.3
				c0,0.2,0.1,0.4,0.1,0.6c-0.2,1.1-0.1,2.2-0.2,3.3c-0.1,1-0.1,2-0.1,3c0,1-0.1,2-0.6,2.9c0.1,0.3,0.3,0.5,0.4,0.7
				c0.1,0.2,0.2,0.4,0.1,0.5c-0.3,0.6-0.1,1.2,0,1.8c0.1,0.4,0,0.9,0,1.4c0,0.5-0.1,0.9-0.2,1.4c-0.3,1.1-0.2,2.2-0.3,3.3
				c-0.1,0.6,0,1.2,0,1.8c0,0.1,0,0.3,0,0.4c-0.4,1.5-0.4,3-0.6,4.5c-0.2,1.1-0.3,2.2-0.4,3.4c0,0.6-0.4,1.2-0.5,1.8
				c0.1,0.3,0.3,0.5,0.3,0.7c0,1.3-0.1,2.6-0.5,3.9c-0.2,0.5-0.3,1.1-0.4,1.6c0,0.2,0,0.5,0.1,0.6c0.3,0.3,0.2,0.5,0.1,0.8
				c-0.2,0.5-0.3,1.1-0.4,1.6c0,0.1-0.1,0.2-0.2,0.3c-0.4,0.1-0.5,0.6-0.8,0.9c-0.3,0.2-0.6,0.4-1,0.6c-0.4,0-0.5-0.7-1-0.5
				c-0.5-0.3-1-0.5-1-1.2c0-0.2-0.3-0.4-0.5-0.6c-0.3,0.2-0.5,0.3-0.7,0.5c-0.1-0.1-0.2-0.2-0.3-0.4c-0.1-0.4-0.1-0.8-0.6-0.7
				c-0.4-0.4-0.8-0.7-0.9-1.3c0-0.2-0.1-0.5-0.2-0.6c-0.6-0.3-0.6-0.7-0.4-1.3c0.1-0.4,0-0.8,0.1-1.1c0.2-0.8,0.4-1.5,0.8-2.1
				c0.5-0.8,0.7-1.7,0.5-2.7c-0.1-0.9-0.1-1.7,0.4-2.5c0.2-0.3,0.3-0.6,0.2-1c0-0.1,0-0.3,0-0.4c0.4-0.9,0.1-1.9,0.4-2.8
				c0.2-0.5,0-1,0.1-1.5c0-0.4,0.1-0.9,0.2-1.3c0.1-0.5,0.4-0.8,0.9-0.7c0.1,0,0.2,0,0.4-0.1c0.1-0.1,0.2-0.2,0.2-0.3
				c0.1-0.4,0.1-0.7-0.4-0.8c-0.1,0-0.1-0.2-0.2-0.3c0.1-0.1,0.2-0.1,0.3-0.1c0.1-0.1,0.3-0.2,0.5-0.3c-0.3-0.4-0.6,0-0.9-0.1
				c-0.4-0.1-0.7-0.3-0.6-0.7c0.1-1.3,0.2-2.6,0.3-3.9c0-0.2,0.2-0.3,0.4-0.5c-0.4-1-0.4-2-0.4-3.1c-0.1-1.4,0.2-2.7,0.3-4.1
				c0.1-0.6,0-1.3,0-1.9c0-1.3,0-2.6,0.1-3.9c0-0.2,0.1-0.4,0.1-0.6c0.2-0.4,0.2-1,0.1-1.4c-0.1-0.6-0.2-1.3-0.2-1.9
				c0-0.7,0.2-1.4,0.2-2.1c0.6-0.2,0.7-0.8,0.9-1.2c0.1-0.2-0.1-0.4-0.3-0.5c-0.2,0-0.4-0.1-0.6-0.1c-0.1-0.1-0.2-0.2-0.2-0.4
				c-0.2-0.8-0.1-1.6,0.1-2.4c0.1-0.3,0.5-0.3,0.4-0.7c-0.1-0.3-0.2-0.6-0.3-0.8c-0.6-1.4-0.4-2.7,0.1-4c0-0.1,0.1-0.2,0.2-0.3
				c0.2-0.2,0.5-0.3,0.6-0.7c0.1-0.3,0.3-0.5,0.4-0.7c-0.1-0.4-0.1-0.8-0.2-1.2c-0.1-0.6-0.1-1.3-0.6-1.8c-0.2-0.3-0.2-0.7-0.2-1.1
				c0.1-1.5,0.1-3-0.4-4.4c-0.2-0.6-0.4-0.8-1-0.8c-0.8,0-1.5,0.1-2.3,0.2c-1.5,0.2-3.1,0.4-4.6,0.7c-1.3,0.2-2.6,0.4-4,0.6
				c-0.3,0-0.5,0.2-0.8,0.1c-1.1-0.4-2,0.1-3,0.3c-0.2,0.1-0.5,0.2-0.7,0.2C231.5,33,231.3,33,231.1,33.1z M236,26.1
				c0.6-0.2,1.4,0.6,1.9-0.3C237.2,25.6,236.6,25.7,236,26.1z M238.8,25.7C238.8,25.6,238.8,25.6,238.8,25.7c0-0.1-0.1-0.1-0.1-0.1
				c0,0,0,0.1,0,0.1C238.7,25.7,238.8,25.7,238.8,25.7z M248.6,70.8c0.1,0,0.1,0.1,0.2,0.1c0,0,0.1-0.1,0.1-0.1s0-0.1-0.1-0.1
				C248.7,70.7,248.6,70.8,248.6,70.8z"/>
			<path d="M286.9,30.2c-0.2,0.4-0.4,0.7-0.6,1c0.2,0.3,0.5,0.6,0.5,1c0.1,1.7-0.2,3.3-0.6,5c-0.2,1.1-0.3,2.1-0.5,3.2
				c-0.2,1.2-0.4,2.4-0.5,3.6c-0.1,0.7-0.1,1.4-0.2,2.2c0,0.3,0,0.7-0.2,1c-0.4,0.7-0.2,1.3-0.2,2c0,1.1,0.2,2.2-0.3,3.3
				c-0.2,0.5-0.2,1.1-0.3,1.6c0,0.1,0.1,0.2,0.2,0.3c0.1,0.1,0.1,0.2,0.1,0.3c0.1,0.4-0.4,0.8-0.1,1.2c0.2,0.4,0.1,0.8,0,1.1
				c-0.1,0.5-0.1,1.1-0.1,1.7c0,1-0.1,2-0.1,3c0,0.6,0,1.1-0.1,1.7c-0.1,0.6-0.3,1.3-0.2,1.9c0,0.6,0.2,1.3,0.1,1.9
				c-0.1,0.8-0.3,1.7-0.4,2.6c-0.2,1.2-0.3,2.5-0.2,3.7c0,0.6,0.1,1.3-0.2,1.9c-0.1,0.2,0,0.4,0,0.6c-0.2,0.1-0.4,0.2-0.6,0.3
				c0.1,0.2,0.2,0.4,0.3,0.7c0.1,0.3,0.3,0.6-0.2,0.7c-0.1,0.4-0.2,0.7-0.3,1.1c0.2,0.2,0.4,0.5,0.5,0.6c-0.1,1-0.1,2-0.2,2.9
				c-0.2,0.1-0.4,0.2-0.5,0.3c-0.4,1.1-0.8,2.1-1.1,3.1c-0.3,1-0.6,2-0.9,3.1c-0.2,0-0.6,0.2-0.8,0.1c-0.5-0.4-1.1,0.1-1.6-0.1
				c-0.1-0.1-0.4,0.2-0.6,0.2c-0.4,0.2-0.7-0.1-0.8-0.6c0-0.1,0-0.2,0-0.2c-0.1-0.3-0.4-0.4-0.7-0.2c-0.6,0.4-0.6,0.4-1.2,0.1
				c0-0.3,0-0.6-0.1-0.9c-0.2-0.1-0.5-0.3-0.7-0.5c-0.1-0.1,0-0.4,0.1-0.6c-0.7-0.4-0.7-0.4-0.9-1.8c0.1-0.2,0.3-0.5,0.5-0.7
				c0-0.1,0-0.2-0.1-0.2c-0.4-0.2-0.4-0.5-0.3-0.8c0.1-0.4,0.2-0.9,0.5-1.2c1.2-1.7,1.5-3.7,1.7-5.6c0.1-1.3,0.3-1.9,1.1-3
				c-0.4-0.5-0.6-1.1-0.4-1.8c0.1-0.2,0-0.4,0-0.6c0-0.6-0.1-1.2-0.1-1.8c0-0.6,0.2-1.2,0.8-1.4c0.2-0.8,0.4-1.6,0.5-2.3
				c0.4-0.2,0.7-0.4,0.9-0.5c-0.1-0.5-0.6-0.3-0.9-0.6c-0.1-0.8-0.2-1.6-0.7-2.3c-0.1-0.2-0.1-0.5-0.1-0.7c0.1-1.2,0.2-2.4,0.3-3.6
				c0-0.2,0-0.4,0.1-0.5c0.4-0.2,0.4-0.5,0.4-0.9c0-1.1,0.2-2.2,0.4-3.3c0.2-0.9,0-1.9,0-2.8c0-0.2-0.1-0.3,0-0.5
				c0.2-0.9,0.1-1.8,0.1-2.7c0-1.3-0.1-2.6,0.4-3.8c0.2-0.5,0.2-1.1,0.3-1.7c0.2-1.7,0.5-3.3,0.4-5c0-1.3,0.2-2.5,0.8-3.7
				c0.2-0.5,0.4-1,0.6-1.7c-0.1-0.5-0.2-1.1-0.3-1.8c0-0.3,0-0.6,0.1-0.9c0.1-0.4,0.5-0.6,1-0.3c0.1,0,0.2,0.1,0.2,0.1
				c0.5-0.2,1-0.5,1.5-0.8c0.1,0.5,0.3,0.8,0.8,0.7c0.5-0.1,0.9,0,1.4-0.1c0.3,0.2,0.2,0.4,0.1,0.7c-0.2,0.3-0.4,0.5-0.5,0.7
				c-0.2,0.3,0,0.8,0.4,0.8c0.2,0,0.4,0,0.6,0c0.5,0,0.9,0,1.3,0.4C286.4,30.2,286.6,30.2,286.9,30.2z"/>
			<path d="M290.9,3.3c-0.2,0.2-0.4,0.3-0.6,0.4c0,0.1,0,0.1,0,0.1c0.4,0.4,0.2,0.9,0,1.3c-0.1,0.5-0.4,0.9-0.5,1.3
				c-0.4,1-0.8,2-1.3,3c-0.1,0.3-0.3,0.6-0.5,0.9c-0.1,0.3-0.3,0.5-0.5,0.8c-0.9,0.2-1.9,0.3-2.8,0.5c-0.1-0.2-0.2-0.3-0.3-0.5
				c-0.2,0-0.4,0-0.6,0c-0.6,0.1-1,0-1.3-0.5c-0.2-0.3-0.5-0.5-0.6-0.8c-0.1-0.2-0.3-0.3-0.6-0.4c-0.6-0.2-1-0.6-1-1.3
				c0-0.7,0-1.4,0.3-2.1c0.2-0.4,0.2-0.9,0.2-1.4c0-0.9,0.5-1.7,0.6-2.6c0.5-0.6,0.8-1.4,1.7-1.6c0.3,0,0.5-0.3,0.9-0.5
				c0.9,0.3,1.9,0.5,2.9,0.2c0.4-0.1,0.8,0.1,0.9,0.5c0.1,0.3,0.1,0.7,0.5,0.7c0.3,0,0.7-0.1,0.8-0.5c0-0.1,0.2-0.2,0.4-0.2
				c0.2,0,0.4,0,0.3,0.3c0,0.1-0.2,0.1-0.4,0.2C290,1.8,290.8,2.3,290.9,3.3z"/>
		</g>
		<path class="st0" d="M90.7,106.4c0.1,0,0.2-0.1,0.4-0.1c0,0.4-0.1,0.7-0.6,1c0-0.3,0.1-0.5,0.1-0.6
			C90.6,106.6,90.7,106.5,90.7,106.4z"/>
		<path d="M172.2,88c0-0.2-0.1-0.4,0-0.6c0-0.1,0.2-0.2,0.3-0.2c0.1,0,0.2,0.2,0.2,0.3c0,0.2-0.1,0.4-0.2,0.6
			C172.3,88.1,172.3,88.1,172.2,88z"/>
		<path d="M216.4,66.6c0.2-0.1,0.5-0.2,0.8-0.2c0,0.1,0,0.1,0.1,0.1c-0.2,0.1-0.5,0.2-0.7,0.3C216.5,66.7,216.4,66.6,216.4,66.6z"/>
		<path d="M147.6,77.9c0,0.2,0,0.4,0,0.6c-0.1,0-0.1,0-0.1,0c0-0.2-0.1-0.4-0.1-0.6C147.4,78,147.5,78,147.6,77.9z"/>
		<path d="M152.6,44.6c-0.1,0-0.1,0.1-0.1,0.1c0,0-0.1-0.1,0-0.1c0-0.1,0.1-0.1,0.1-0.1C152.6,44.5,152.6,44.5,152.6,44.6z"/>
		<path d="M112,77.6C112.1,77.6,112.1,77.6,112,77.6c0,0.1,0,0.1-0.1,0.2c0,0-0.1-0.1-0.1-0.1C111.9,77.7,112,77.6,112,77.6z"/>
		<path d="M176.3,81.1c0-0.1,0.1-0.1,0.1-0.2c-0.1,0-0.1,0-0.2,0C176.3,81,176.3,81.1,176.3,81.1C176.4,81.1,176.3,81.1,176.3,81.1z
			"/>
		<path d="M97.8,81.5c-0.1-0.1-0.1-0.1-0.1-0.1c0.1,0,0.1,0,0.1-0.1C97.8,81.4,97.8,81.5,97.8,81.5C97.8,81.6,97.8,81.5,97.8,81.5z"
			/>
		<path d="M221.2,83.8C221.2,83.8,221.2,83.8,221.2,83.8c0.1-0.1,0.1-0.1,0.2-0.1C221.3,83.8,221.2,83.8,221.2,83.8
			C221.1,83.8,221.2,83.8,221.2,83.8z"/>
		<path d="M185.4,80.6c0.1,0.1,0.1,0.2,0.2,0.4c0,0-0.1,0-0.1,0C185.4,80.9,185.4,80.7,185.4,80.6L185.4,80.6z"/>
		<path class="st0" d="M41.1,72.3c0.1,0.1,0.2,0.2,0.3,0.3c0.1,0.9,0.5,1.8,0.3,2.8c-0.2,1.1-0.1,2.2-0.1,3.3c0,0.3,0.1,0.6,0.2,0.9
			c0.2,1,0.2,2-0.4,2.8c-0.6,0.8-0.4,1.4,0.1,2c-0.2,1-0.4,2-0.7,2.9c-0.1,0.2-0.1,0.5-0.3,0.7c-0.2,0.3-0.3,0.5-0.3,0.8
			c0,0.1-0.1,0.2-0.2,0.2c-0.2,0.1-0.3-0.1-0.3-0.3c-0.4-1.3-0.5-2.6-0.7-3.9c-0.1-1.1-0.3-2.1-0.2-3.2c0.1-2,0.5-3.9,1-5.9
			c0.3-1,0.7-1.9,1.1-2.9C40.8,72.7,41,72.5,41.1,72.3z"/>
		<path class="st0" d="M88.3,133.1c0.1-0.6,0.1-1.2,0.2-1.8c0-0.2,0-0.4,0.1-0.5c0.5-0.7,0.5-1.4,0.7-2.2c0.3-1.1,0.8-2.2,1.4-3.2
			c0.5-0.8,1-1.6,1.6-2.4c0.3-0.5,0.7-0.9,0.9-1.4c0.2-0.5,0.3-1,0.5-1.6c0.4,0.3,0.3,0.6,0.3,1c0.1,1.8-0.2,3.6-0.5,5.4
			c0,0.1,0,0.3-0.1,0.4c-0.9,1.4-1.2,3.1-2.3,4.3c-0.5,0.5-1,1.1-1.5,1.6C89.3,133.1,88.9,133.3,88.3,133.1z"/>
		<path class="st1" d="M94.4,137.2c0.1,0.2,0.1,0.4,0.2,0.6c-0.3,0.2-0.6,0.4-1,0.7c-0.2-0.2-0.4-0.3-0.7-0.6
			C93.5,137.6,93.9,137.4,94.4,137.2z"/>
		<path class="st1" d="M90,139.5c-0.3,0.4-0.7,0.7-1.1,0.6c-0.1,0-0.2-0.1-0.2-0.1c0-0.1,0.1-0.3,0.1-0.3
			C89.2,139.7,89.6,139.6,90,139.5z"/>
		<path class="st1" d="M100.4,126.8C100.5,126.8,100.5,126.8,100.4,126.8c0.1,0.1,0.1,0.1,0,0.2c0,0-0.1-0.1-0.1-0.1
			C100.4,126.9,100.4,126.9,100.4,126.8z"/>
		<path class="st1" d="M92.5,138.8c0,0,0.1,0,0.1,0c0,0.1,0,0.1,0,0.2c0,0-0.1,0-0.1,0C92.5,138.9,92.5,138.8,92.5,138.8z"/>
		<path class="st1" d="M145.3,70c0.3,0.3,0.6,0.6,1,0.9c0,0.6,0,1.1,0,1.7c-0.5,0-0.4-0.4-0.6-0.6c-0.3,0-0.6-0.1-0.8-0.1
			c-0.2-0.7,0.8-1.1,0.1-1.8C145.1,70,145.2,70,145.3,70z M145.7,70.9L145.7,70.9l0.1-0.1L145.7,70.9z"/>
		<path class="st1" d="M146,75.8c-0.2-0.1-0.4-0.2-0.6-0.3c-0.2-0.1-0.5-0.1-0.6-0.3c-0.2-0.3-0.2-0.6,0-1c0.1,0,0.2-0.1,0.3-0.1
			s0.2,0,0.4,0c0,0,0.1,0.1,0.1,0.1c-0.1,0.6,0.5,0.8,0.6,1.3C146.1,75.7,146,75.8,146,75.8z"/>
		<path class="st1" d="M144.5,80.5c0-0.3-0.1-0.6-0.1-0.9c0.3,0.1,0.4,0.1,0.6,0.2C145.1,80.1,145.1,80.4,144.5,80.5z"/>
		<path class="st1" d="M145.9,64c-0.1,0-0.1,0.1-0.1,0.1c0,0-0.1,0-0.1-0.1c0-0.1,0-0.1,0.1-0.2C145.7,63.9,145.8,63.9,145.9,64z"/>
		<path class="st1" d="M144.8,82.7c0.1,0.2,0.2,0.4,0,0.4c-0.1,0-0.1,0-0.2-0.1C144.6,82.9,144.7,82.8,144.8,82.7z"/>
		<path class="st1" d="M144.3,89.8c0,0.1,0.1,0.2,0.1,0.2s-0.1,0.1-0.2,0.1c0-0.1-0.1-0.2,0-0.2C144.1,89.8,144.2,89.8,144.3,89.8z"
			/>
		<path class="st1" d="M145.4,86.1c-0.1,0-0.1,0.1-0.2,0.1c0-0.1,0-0.1,0-0.2c0,0,0.1-0.1,0.1-0.1C145.3,85.9,145.3,86,145.4,86.1z"
			/>
		<path class="st0" d="M201.7,36.4c0.2,0.2,0.2,0.2,0.2,0.2c0.5,2,0.9,3.9,1.4,5.9c0.3,1.1,0.7,2.2,1,3.2c0.1,0.2,0.2,0.5,0.1,0.6
			c-0.3,0.7,0,1.2,0.3,1.7c0.2,0.3,0.1,0.6-0.3,0.7c-0.3,0.1-0.3,0.3-0.3,0.5c0,0.3,0.1,0.6,0.3,0.8c0.2,0.3,0.8,0.3,0.6,1
			c-0.1,0.3-0.1,0.7-0.1,1.1c0,0.3,0,0.3,0.6,0.3c0,0.2,0,0.3-0.1,0.5c-0.3,0.8-0.2,1,0.6,1.3c0.2,0.3-0.4,0.6,0.1,0.9
			c0.1,0.1,0,0.6,0.1,0.8c0.2,0.5,0.2,1.1,0.8,1.4c0.1,0.1,0,0.3,0,0.6c0.1,0.1,0.3,0.1,0.6,0.2c0,0.3,0.1,0.6,0.1,0.9
			c-0.1,0.1-0.1,0.2-0.2,0.3c-0.5,0.5-1,0.8-1.7,0.8c-0.5,0-1,0.3-1.5,0.4c-1,0.3-1.9,0.8-2.9,0.9c-0.6,0.1-1.3,0.1-1.9,0.1
			c-0.2,0-0.5-0.1-0.6-0.2c-0.4-0.5-1-0.3-1.5-0.3c-0.4,0-0.9,0.1-1.2,0.2c-0.2,0.1-0.3,0.5-0.7,0.5c-0.3,0-0.6,0.1-0.9,0.2
			c-0.3,0.1-0.7,0.1-1,0.2c-0.3,0.1-0.5,0.3-0.8,0.4c-0.5,0.2-1.3,0.3-2.2,0.2c0.2-0.3,0.5-0.5,0.7-0.8c0.2-0.3,0-0.8,0.1-1.1
			c0.1-0.3,0.6-0.5,0.6-0.9c0-0.1,0-0.2,0-0.3c0.2-0.4-0.1-0.7-0.1-1c0-0.3,0.5-0.5,0.3-0.9c0-0.1,0-0.2,0.1-0.3
			c0.5-0.6,0.8-1,0.9-1.6c0-0.4,0.3-0.7,0.4-1c0.2-0.4,0.3-0.7,0.1-1.2c-0.2-0.4-0.1-0.6,0.4-0.8c0.3-0.1,0.6-0.3,0.6-0.6
			c0.2-1.2,0.9-2.1,1.1-3.3c0.1-0.3,0.3-0.6,0.2-1c-0.1-0.2,0.1-0.4,0.3-0.5c0.3-0.2,0.3-0.4,0.1-0.7c-0.1-0.2-0.1-0.4,0-0.6
			c0.2-0.8,0.5-1.6,1.2-2.3c0.3-0.3,0.4-0.6,0.4-0.9c0.1-0.8,0.5-1.4,1-1.9c0.2-0.2,0.4-0.4,0.5-0.7C200.1,39.3,201,38,201.7,36.4z
			 M199.7,61.1c0,0,0.1-0.1,0.2-0.1c0,0-0.1-0.1-0.1-0.1C199.7,61,199.7,61,199.7,61.1C199.6,61.1,199.7,61.1,199.7,61.1z"/>
		<path class="st1" d="M211.8,74.2c0.2,0.4,0.4,0.8,0.5,1.1C211.6,75.3,211.6,75.3,211.8,74.2z"/>
		<path class="st1" d="M183.4,66.4c-0.1,0.2-0.2,0.5-0.3,0.8C182.8,66.8,183,66.5,183.4,66.4z"/>
		<path class="st1" d="M201.3,25.4c-0.1,0.1-0.2,0.1-0.3,0.1c-0.1,0-0.1-0.2-0.2-0.2c0.1-0.1,0.2-0.2,0.3-0.2
			C201.1,25.2,201.2,25.3,201.3,25.4z"/>
		<path class="st1" d="M187.1,70.5c-0.1,0.1-0.2,0.1-0.3,0.2c0-0.1-0.1-0.2-0.1-0.3c0-0.1,0.1-0.1,0.2-0.2
			C187,70.3,187,70.3,187.1,70.5z"/>
		<path class="st0" d="M212.2,56.6c0-0.2,0-0.4,0-0.7c0,0,0.1,0,0.1,0C212.3,56.2,212.3,56.4,212.2,56.6
			C212.2,56.6,212.2,56.6,212.2,56.6z"/>
		<path class="st0" d="M212.9,77.7c0-0.1-0.1-0.1-0.1-0.2C212.8,77.6,212.9,77.7,212.9,77.7L212.9,77.7z"/>
		<path class="st1" d="M212.9,77.8c0.1,0,0.2,0,0.2,0.1c0,0,0,0.1,0,0.2c0,0-0.1,0-0.1-0.1C212.9,77.9,212.9,77.8,212.9,77.8
			C212.9,77.7,212.9,77.8,212.9,77.8z"/>
		<path class="st1" d="M211.4,72.6C211.3,72.6,211.3,72.7,211.4,72.6c-0.1,0.1-0.1,0-0.1,0s0-0.1,0.1-0.1
			C211.3,72.5,211.3,72.6,211.4,72.6z"/>
		<path class="st1" d="M189.8,47.6c0,0.1,0,0.2,0.1,0.2c0,0-0.1,0.1-0.1,0.1c0-0.1-0.1-0.2-0.1-0.2
			C189.7,47.6,189.7,47.6,189.8,47.6z"/>
		<path class="st1" d="M210,68.6c0,0.1,0.1,0.1,0.1,0.2c0,0,0,0.1-0.1,0.1C210,68.8,210,68.7,210,68.6C210,68.6,210,68.6,210,68.6z"
			/>
		<path class="st1" d="M190.4,46.3C190.4,46.4,190.4,46.4,190.4,46.3c-0.1,0.1-0.2,0-0.2,0C190.3,46.3,190.3,46.3,190.4,46.3
			C190.4,46.2,190.4,46.3,190.4,46.3z"/>
		<path class="st0" d="M193.3,34.1c0,0.1,0,0.1,0,0.2c0,0,0,0.1,0.1,0.1c0,0,0-0.1,0-0.1C193.3,34.2,193.3,34.2,193.3,34.1
			C193.3,34.1,193.3,34.1,193.3,34.1z"/>
		<path class="st1" d="M236,26.1c0.6-0.4,1.2-0.5,1.9-0.3C237.3,26.7,236.6,25.9,236,26.1z"/>
		<path class="st1" d="M238.8,25.7c0,0-0.1,0-0.1,0c0,0,0-0.1,0-0.1C238.7,25.6,238.7,25.6,238.8,25.7
			C238.8,25.6,238.8,25.6,238.8,25.7z"/>
		<path class="st0" d="M248.6,70.8c0.1,0,0.1-0.1,0.2-0.1c0,0,0.1,0.1,0.1,0.1s-0.1,0.1-0.1,0.1C248.7,70.9,248.6,70.8,248.6,70.8z"
			/>
		<polygon points="145.7,70.9 145.7,70.8 145.8,71 		"/>
		<g>
			<path d="M200.1,114.8c0.7,0.9,1.8,0.6,2.7,0.6c0.5,0,1.1-0.1,1.6-0.4c0.5-0.3,1-0.4,1.5-0.3c0.3,0,0.6-0.1,0.9-0.1
				c0.6-0.1,1.1,0,1.3,0.6c0.9-0.2,1.6-0.5,2.5-0.7c0.2-0.1,0.6-0.1,0.8,0.1c0.5,0.3,1,0.2,1.5,0.2c1.1,0,2.2,0,3.3-0.1
				c1.1-0.1,2.2-0.2,3.4-0.4c0.8-0.1,1.6-0.1,2.3-0.2c0.6-0.1,1.2,0,1.7-0.6c0.1,0.1,0.3,0.3,0.4,0.4c1.3-0.1,2.6-0.1,3.9-0.2
				c1.4-0.1,2.8-0.3,4.2-0.4c0.5,0,0.9-0.1,1.4-0.1c0.9,0,1.8,0,2.7-0.2c0.7-0.1,1.5-0.1,2.3-0.2c1.7-0.2,3.5-0.4,5.2-0.5
				c0.4,0,0.9,0.1,1.3,0c2.3-0.3,4.5-0.4,6.8-0.4c1.5,0,3-0.3,4.4-0.5c0.6-0.1,1.1-0.1,1.7-0.1c0.5,0,1,0,1.4-0.1
				c1.8-0.4,3.6-0.4,5.3-0.7c1.4-0.2,2.7-0.5,4.1-0.7c0.4-0.1,0.8,0,1.2,0.1c1.2,0.2,2.5,0.3,3.7-0.3c0.3-0.1,0.7-0.2,1-0.2
				c1.3-0.1,2.6-0.3,3.8-0.8c0.4-0.1,0.8-0.2,1.2-0.2c0.9,0.1,1.7,0,2.6-0.2c0.5-0.2,1.1-0.1,1.6-0.1c1.4,0,2.8-0.1,4.1-0.1
				c0,0,0.1,0,0.1,0c1-1,2.3-0.4,3.5-0.6c0.2,0,0.4,0,0.6-0.1c0.8-0.3,1.7-0.6,2.5-0.9c0.7-0.2,1.3-0.5,2-0.7
				c0.9-0.2,1.9-0.4,2.9-0.5c0.2,0,0.5,0.1,0.7,0.2c0.3,0.4,0.7,0.3,1,0.2c1-0.1,2-0.4,3-0.5c0.8-0.1,1.5,0.1,2.3,0.1
				c0.8,0,1.7,0,2.5,0c0.5,0,0.9,0.1,1.3,0.1c0.5,0,0.8,0.4,1.1,0.5c1,0.4,1.5,1.3,2.3,2c0.4,0.4,0.7,1.1,0.9,1.6
				c0.3,0.8,0.4,1.5,0.6,2.3c0.3,1.2,0.1,2.3-0.4,3.4c0,0.1-0.1,0.2-0.1,0.2c-0.7,0.3-1.4,0.7-2.2,0.9c-0.5,0.2-1,0.1-1.4,0.3
				c-0.6,0.3-1.1,0.3-1.8,0c-0.3-0.1-0.6-0.1-0.9-0.1c-1.9,0.1-3.8,0.4-5.6,0.8c-1.3,0.3-2.6,0.4-3.9,0.6c-0.9,0.1-1.8,0.4-2.7,0.5
				c-0.7,0.1-1.4,0.2-2,0.3c-1.6,0.3-3.3,0.6-5,0.8c-1.2,0.2-2.4,0.3-3.6,0.4c-1.4,0.2-2.8,0.4-4.2,0.6c-1,0.1-1.9,0.3-2.9,0.5
				c-0.1,0-0.3,0-0.4,0c-0.4,0-0.9-0.1-1.3,0c-1.6,0.2-3.3,0.7-5,0.5c-0.1,0-0.2,0-0.3,0c-0.9,0.4-1.9,0.4-2.8,0.6
				c-0.8,0.1-1.6,0.2-2.4,0.3c-1.5,0.2-3.1,0.4-4.6,0.6c-0.6,0.1-1.3,0.1-1.9,0.5c-0.1,0-0.2,0.1-0.3,0c-0.7-0.4-1.3-0.1-1.9,0.1
				c-0.7,0.2-1.3,0.1-1.9-0.1c-0.5-0.2-1-0.2-1.4,0.2c-0.1,0.1-0.3,0.2-0.4,0.2c-0.6-0.3-1.3,0.1-1.9-0.2c-0.6-0.3-1.2-0.1-1.7,0.2
				c-0.5,0.4-1,0.4-1.7,0.2c-0.7-0.1-1.4-0.2-2.1-0.6c-0.6-0.4-1,0.1-0.8,1c-0.5,0-0.9,0.3-1.1-0.3c0-0.1-0.4-0.1-0.6-0.1
				c-0.4,0-0.8,0.3-1.3-0.1c-0.1-0.1-0.4,0.1-0.5,0.1c-0.5,0.1-1.1,0.3-1.7,0.4c-0.1,0-0.3,0-0.4,0.1c-0.5,0.6-1.2,0.7-2,0.6
				c-0.2,0-0.5,0.1-0.7,0.1c-0.5,0-1.1,0.3-1.7,0.1c-0.3-0.1-0.7,0.1-1.1,0.2c-0.3,0.1-0.6,0.2-0.8,0.2c-1.1-0.2-2.2,0.1-3.4,0.2
				c-0.7,0.1-1.4,0-2.1-0.1c-0.3,0-0.5-0.3-0.8-0.5c0,0.2,0,0.3,0,0.5c-0.9,0.2-1.8,0.4-2.7,0.5c-0.4,0.1-0.8-0.1-1.2-0.1
				c-0.8,0-1.7,0.1-2.5,0.1c-1.5,0.1-3,0.2-4.5,0.3c-0.6,0-1.2,0.1-1.8,0.2c-0.8,0.1-1.5,0.1-2.3,0.2c-0.1-0.4-0.2-0.6-0.3-0.9
				c-0.3,0.1-0.5,0.2-0.7,0.4c0,0,0-0.1,0-0.1c-0.7-0.1-1.5-0.3-2.1-0.1c-1,0.3-1.9,0.1-2.8,0.2c-1.2,0.1-2.3,0.3-3.4,0.6
				c-0.5,0.1-1,0.1-1.6,0.2c-1.4,0.2-2.9,0.1-4.3,0.2c-0.1,0-0.2-0.1-0.3,0c-1.1,0.6-2.4,0.1-3.5,0.5c-0.8,0.2-1.6,0.2-2.3,0.9
				c-0.7,0-1.3,0.6-2,0.3c0,0-0.1,0-0.2,0c-1.4,0.5-3,0.4-4.4,0.5c-0.2,0-0.5,0-0.6,0.4c-0.1,0.2-0.5,0.4-0.8,0.4
				c-1.1,0.1-2.3,0.1-3.4,0.1c-0.3,0-0.7,0.1-1,0.1c-0.7,0.1-1.1-0.1-1.3-0.5c-0.9,0-1.7,0-2.5,0.1c-1.3,0.1-2.6,0.2-3.8,0.8
				c-0.3,0.1-0.7,0.2-1,0.1c-0.5-0.1-1-0.2-1.5,0.1c-0.5,0.3-1,0.2-1.5,0.2c-0.6,0.1-1.3,0-1.9,0.1c-0.4,0.1-0.8,0-1.2,0
				c-0.5,0-1,0.2-1.5,0.4c-0.2,0-0.3,0.1-0.5,0.1c-1.1-0.2-2.1-0.2-3,0.3c-0.2,0.1-0.6,0.2-0.8,0.1c-1-0.2-1.7,0.3-2.5,0.8
				c-0.5,0.3-1.1,0.8-1.8,0.4c-0.3-0.1-0.5-0.1-0.8,0.1c-0.3,0.2-0.6,0.2-1,0.3c-1,0.1-2.1,0.2-3.1,0.3c-0.8,0.1-1.7,0.3-2.5,0.4
				c-0.3,0-0.6,0-0.8,0.4c-0.1,0.1-0.4,0.1-0.6,0.1c-1.2-0.1-2.3-0.2-3.4-0.6c-0.9-0.3-1.8-0.6-2.9-0.4c-1.2,0.2-2.5,0.2-3.7,0.3
				c-1.4,0.1-2.9,0.3-4.3,0.5c-0.8,0.1-1.6,0-2.3,0.3c-1.2,0.3-2.4,0.2-3.5,1.1c-0.2,0.2-0.8,0.1-1.2,0.1c-0.7,0-1.2-0.5-1.9-0.8
				c-0.3-0.1-0.7-0.2-1.1-0.3c-0.6-0.2-1-0.6-1.2-1.2c-0.4-1.1-0.9-2.1-0.7-3.3c0-0.2-0.1-0.4-0.1-0.6c-0.6-1.2-0.3-1.3,0.3-2.1
				c-0.4-1-0.4-1-0.1-1.4c-0.1-0.6-0.2-1.1-0.3-1.6c0-0.1,0-0.3,0.1-0.4c0.6-0.7,0.9-1.6,1.8-2c0.2-0.1,0.5-0.2,0.7-0.4
				c0.2-0.2,0.4-0.4,0.6-0.6c0.2-0.3,0.5-0.3,0.8-0.2c0.3,0,0.6,0,0.8-0.1c0-0.1-0.1-0.2-0.1-0.3c0.1,0,0.1,0,0.2,0
				c0.2,0.3,0.4,0.4,0.8,0.2s0.7-0.2,1.1,0.1c0.2,0.1,0.4,0.1,0.6,0.1c1,0,2,0,3-0.1c0.1,0,0.3,0,0.4,0c1.5-0.6,3.2-0.4,4.8-0.6
				c1.1-0.1,2.2-0.3,3.4-0.2c0.2,0,0.4-0.1,0.6-0.2c0.3,0,0.6,0,0.8,0c0.2,0,0.4,0.1,0.5,0.1c1.1-0.1,2.1-0.1,3.2-0.3
				c0.6-0.1,1.2-0.2,1.8-0.3c0.6-0.1,1.1-0.1,1.7-0.2c0.6-0.1,1.3-0.1,1.9-0.4c0.1-0.1,0.3-0.2,0.5-0.2c1-0.1,2-0.3,3-0.4
				c1-0.1,2.1-0.2,3.1-0.3c0.8-0.1,1.5-0.1,2.3-0.1c1-0.1,1.9-0.2,2.9-0.3c0.2,0,0.4,0,0.7,0c0.2,0,0.4,0.1,0.6,0
				c1.3-0.6,2.7-0.6,4-0.8c1.1-0.2,2.2-0.2,3.4-0.3c0.1,0,0.3,0,0.4,0c0.3,0.6,0.7-0.2,1.1,0.1c0.3,0.2,0.8,0,1.3-0.1
				c0-0.3,0-0.6,0-0.9c0.5,0,1,0,1.4,0.1c0.3,0.1,0.5,0.5,0.6,0.7c0.1,0.3,0.2,0.6,0.3,1c0.6,0.4,1.2,0,1.8-0.4
				c-0.5-0.2-1.2,0.1-1.7-0.4c0.8-0.4,1.5-0.6,2.4-0.5c0.8,0.1,1.6-0.1,2.4-0.3c0.4-0.1,0.8-0.2,1.3-0.3c0-0.1-0.1-0.3-0.1-0.6
				c0.7-0.3,0.4,0.4,0.6,0.6c0.6-0.1,0.6-0.1,0.5-0.9c2.3-0.3,4.5-0.6,6.8-0.9c0.4,0.6,0.8,0.7,1.7,0.5c0.7-0.1,1.4-0.3,2.1-0.4
				c1.3-0.1,2.6-0.3,3.8-0.7c0.2-0.1,0.5,0.1,0.8,0.1"/>
			<path d="M25.7,144.1c0.3,0,0.5,0,1,0c-0.6-0.6-1.1-0.2-1.5-0.2c-0.1,0.2,0.3,0.5-0.2,0.6c-0.4,0.1-0.9,0.1-1.3,0.2
				c-0.8,0.1-1.7,0.3-2.5,0.4c-0.6,0.1-1.1,0.1-1.8-0.1c-0.7-0.2-1.6-0.1-2.4,0c-0.7,0-1.3,0.2-1.9,0.1c0.2-0.9,1-0.3,1.4-0.7
				c-0.8-0.1-1.5,0-2.2,0.2c-0.5,0.1-1,0.1-1.4,0.1c-0.2,0-0.3,0.1-0.5,0.1c-0.3,0-0.8,0.2-1,0c-0.5-0.3-0.9-0.3-1.3,0.2
				c-0.1,0.1-0.2,0.1-0.5,0.1c0.3,0.1,0.5,0.1,0.6,0.1c0.1,0.1,0.1,0.4,0,0.4c-0.1,0.1-0.3,0.1-0.5,0.1c-1.3,0.2-2.5,0.5-3.8,0.7
				c-0.1,0.1-0.1,0.2-0.1,0.3c0.2,0,0.3,0.1,0.7,0.2c-0.4,0.2-0.7,0.3-0.9,0.4c-0.3,0.2-0.7,0.3-0.8,0.6c-0.2,0.5-0.6,0.5-1,0.5
				c-0.4-0.5-0.7-1.2-1.2-1.4c-0.5-0.2-0.7-0.6-1-0.9c-0.5-0.5-0.2-1.1-0.5-1.6c-0.1-0.2-0.1-0.6-0.1-0.8c-0.1-0.9-0.2-1.7-0.3-2.6
				c0-0.2,0-0.4-0.1-0.5c-0.6-0.8-0.3-1.6,0-2.4c0.1-0.2,0.2-0.5,0.2-0.8c0-0.4,0.1-0.6,0.3-0.9c0.2-0.2,0.3-0.6,0.4-0.9
				c0.1-0.7,0.4-1.1,1-1.4c0.4-0.2,0.7-0.4,1.1-0.6c0.3-0.2,0.5-0.7,1-0.4c0.3-0.4,0.7-0.2,1-0.1c0.3,0,0.6-0.1,0.9-0.2
				c-0.1,0.6-0.7,0.4-0.9,0.9c0.2,0,0.5,0,0.7,0c0.7,0,1.3-0.1,1.9-0.1c0.2,0,0.5,0,0.6-0.1c0.6-0.4,1.2-0.4,1.9-0.4
				c0.2,0,0.3,0,0.5,0c0.6-0.1,1.2-0.7,1.8,0.1c0.5,0,1,0,1.5-0.1c0.6-0.2,1.3-0.2,1.9-0.2c0.5,0,1-0.1,1.6-0.2
				c0.7-0.1,1.4-0.3,2.1-0.4c1.3-0.2,2.6-0.2,3.9-0.5c1.2-0.2,2.4-0.2,3.6-0.6c0.8-0.2,1.7-0.1,2.6-0.1c0.3,0,0.6,0,0.9-0.1
				c1-0.1,2-0.5,3,0c0.2,0.1,0.6-0.1,0.9-0.1c0.7,0,1.4,0.3,2-0.2c0.1-0.1,0.3,0.1,0.4,0.1c0.9,0.2,1.8,0.1,2.7-0.1
				c0.9-0.2,1.9-0.3,2.8-0.4c0.1,0,0.2,0,0.3,0c1,0.8,2.1,0.4,3.1,0.2c1.2-0.2,2.4-0.4,3.7-0.5c1-0.1,2-0.2,2.9-0.6
				c0.2-0.1,0.4-0.1,0.6-0.1c0.7-0.1,1.3-0.1,2-0.2c1.5-0.2,3.1-0.1,4.7-0.1c0.2,0,0.4-0.1,0.6-0.1c0.6,0.1,1.1,0.2,1.7,0.3
				c0.1,0,0.3,0.2,0.4,0.2c0.9,0.1,1.7,0.1,2.5,0.1c0.5,0,0.9,0.1,1.4,0.1c0.4,0,0.8-0.1,1.2,0.1c0.4,0.2,1,0,1.5,0
				c0.9,0,0.9,0,0.7,0.9c0,0.1,0,0.1,0,0.2c0.4,0.4,0.8,0.6,1.4,0.5c0.3-0.1,0.8-0.1,0.8,0.4c0,0.5-0.3,0.6-0.7,0.6
				c-0.1,0-0.3,0.1-0.5,0.1c0.8,1,1,2.1,1.1,3.2c0,0.5,0.1,1,0.2,1.5c0.2,0.8-0.1,1.4-0.4,2.1c-0.4,1-1.1,1.6-2,2
				c-0.6,0.3-1.2,0.6-1.9,0.2c-0.1-0.1-0.3-0.1-0.4-0.1c-0.4,0-0.8,0.1-1.2,0.1c-1-0.1-1.9-0.3-2.9-0.3c-0.5,0-1,0.1-1.5,0.1
				c-0.9,0.1-1.8,0-2.7,0.2c-0.9,0.2-1.9,0.1-2.8,0.3c-0.8,0.1-1.6,0.3-2.4,0.1c-0.4-0.1-0.9,0-1.3,0c-1.1,0.2-2.1,0.5-3.2,0.6
				c-1,0.1-1.9,0.1-2.9,0.1c-0.1,0-0.4-0.1-0.5,0c-0.9,0.6-2,0.4-3,0.7c-1.3,0.3-2.6,0.6-3.9,0.4c-0.2,0-0.3,0-0.5-0.1
				c-0.8-0.4-1.6-0.4-2.5-0.2c-0.1,0-0.1,0-0.2,0c-1.5,0.1-2.9,0.1-4.4,0.2c-1.1,0-2.1-0.2-3.2,0.2c-0.3,0.1-0.7,0.2-0.8-0.3
				c0-0.1-0.6-0.1-0.7,0C26.4,144.3,26.4,144.3,25.7,144.1z"/>
			<path d="M7.1,146.8c0.2-0.1,0.5-0.1,0.8-0.2C7.6,146.9,7.6,146.9,7.1,146.8z"/>
			<path d="M18.7,145.4c-0.2,0-0.5,0-0.7,0.1c0-0.1,0-0.1,0-0.1c0.2,0,0.4-0.1,0.7-0.1C18.7,145.2,18.7,145.3,18.7,145.4z"/>
		</g>
	</g>
</g>
</svg>
