<?xml version="1.0" encoding="utf-8"?>
<!-- Generator: Adobe Illustrator 23.0.6, SVG Export Plug-In . SVG Version: 6.00 Build 0)  -->
<svg version="1.1" id="Ebene_1" xmlns="http://www.w3.org/2000/svg" xmlns:xlink="http://www.w3.org/1999/xlink" x="0px" y="0px"
	 viewBox="0 0 121.2 69" style="enable-background:new 0 0 121.2 69;" xml:space="preserve">
<style type="text/css">
	.st0{display:none;}
	.st1{display:inline;}
	.st2{fill:#FFFFFF;}
	.st3{fill:#1D1D1B;}
	.st4{display:inline;fill:none;}
	.st5{font-family:'LomoWebPixelLTStd-4';}
	.st6{font-size:60px;}
	.st7{display:inline;fill:#FF4DFF;}
</style>
<g class="st0">
	<g class="st1">
		<path d="M-90.6,185.4c-0.8-0.1-1.6-0.2-2.4-0.3c-2.8-0.3-4.6-1.3-4.7-2.6c0-1.2,0.1-2.4,0.1-3.6c0-0.3-0.2-0.5-0.2-0.8
			c0-0.4-0.3-0.8,0.1-1.2c1.5-1.2,0.7-2.3-0.1-3.5c-0.3-0.5-0.1-1-0.1-1.5c0.4-0.1,0.8-0.1,1.1-0.2c1.6-0.2,1.7-0.3,1.1-0.9
			c-0.4-0.4-0.9-0.9-0.9-1.3c-0.1-0.6-0.5-1.3,2.3-1.4c-3.3-1.1-2.7-2.3-1.9-3.6c0.5,0,0.9,0,1.2,0c-0.5-1.2-1-2.4-1.5-3.5
			c-0.7,0-1.2,0-1.7,0c0.6-0.7,1.2-1.4,1.8-2.1c0.4,0.1,0.8,0.1,1.3,0.2c0.1-0.1,0.3-0.2,0.3-0.3c-0.3-0.5-0.5-1.1-0.9-1.6
			c-0.6-0.7-0.4-1.3,0.4-1.9c1.2-0.8,0.8-1.6-0.1-2.4c-0.2-0.2-0.5-0.4-0.5-0.6c-0.1-2.9-0.1-5.8-0.1-8.8c0.7,0,1-0.1,1.4-0.1
			c0-0.1,0.1-0.2,0-0.2c-0.8-0.4-1.3-0.7-0.5-1.2c0.3-0.2,0.3-0.6,0.2-0.9c-0.6-1.2-1.2-2.5-2-3.7c-0.6-0.8-0.1-1.6,0.8-2.2
			c1.3-0.9,0.9-1.8,0.2-2.7c-0.4-0.5-0.4-0.8,0.3-1.2c1.2-0.7-0.3-1.4-0.1-2.1c-2.2-0.9-1.2-2.1-1.1-3.1c0.1-0.9-0.1-1.8-0.4-2.7
			c-0.1-0.3-0.4-0.6-0.2-0.8c1.3-1.4,0.3-2.8,0.7-4.3c0.3-1.2,0.1-2.4,0.1-3.6c0-0.2-0.1-0.3,0-0.5c0.8-0.9,0.6-1.8,0.4-2.7
			c-0.3-1.5,0.1-3,0-4.5c0-1.2-0.4-2.5-0.4-3.7c0-0.8,0.4-1.5,0.8-2.3c0.3-0.7,0.8-1.3-0.5-2c-0.7-0.3-0.5-1.1-0.2-1.7
			c0.5-0.8,0.9-1.7,0.4-2.5c-0.3-0.5,0.4-1.2,0.3-1.7c-0.1-0.5,0.8-1.1-0.6-1.6c-0.5-0.2,0.1-0.9,0.4-1.3c0.8-1.2,0.7-2.5-0.5-3.6
			c-0.1-0.1-0.3-0.2-0.2-0.3c1.4-1.5-1.3-2.7-0.6-4.2c0.2,0,0.6,0,1.2,0c0.4-1.1,0.6-2.2-0.4-3.3c-0.3-0.3-0.4-0.8-0.1-1.1
			c1.3-1.3,0.2-2.7,0.8-4c0.1-0.2-0.6-0.5-0.9-0.8c1.7-0.8,2.5-2.5,0.5-3.1c1.6-0.8,1-1.5,0-2.3c1.3-0.4,1.6-0.8,0.6-1.4
			c-0.1,0-0.2-0.2-0.1-0.2c0.6-0.9,0.1-1.8,0.1-2.8c0,0,0-0.1,0-0.1c0.7,0,1-0.1,0.8-0.4c-0.1-0.2-0.2-0.3-0.3-0.5
			c-0.7-0.9-1.2-1.8,0.4-2.6c0.3-0.1,0.1-0.5,0.1-0.7c0-1.2,0.3-2.5-0.2-3.7c-0.7-1.6,0.3-3.1,0.6-4.6c0.1-0.5,0.1-1-0.2-1.5
			c-0.4-0.7-0.3-1.4,0.5-1.9c0.8-0.5,0.6-0.9,0.3-1.3c-0.8-1.2-1.1-2.3,0.1-3.5c0.4-0.4,0.1-1-0.3-1.4c-0.6-0.5-0.5-1-0.2-1.6
			c0.3-0.5,0.4-1.1,0.4-1.6c0.2-1.1,0.3-2.2,0.5-3.4c0.1-0.4,0.3-0.8,0.3-1.2c0-2-0.5-4,0.1-6c0.5-2-0.1-4.1,1-6.1
			c0.4-0.9-0.2-1.8-0.2-2.8c0-0.8,0.3-1.7,0.3-2.5c0.1-1.4,0.2-2.7,0.2-4c0-0.4,0.2-0.8,0.2-1.2c0-0.9,0-1.8,0-2.7
			c0-0.4-0.3-0.9,0-1.3c1.2-1.4,0.5-2.8,0.7-4.2c0.3-1.6,0.1-3.2,0.1-4.8c0.1-2.4,0.2-4.8,0.3-7.1c0,0-0.1-0.1,0-0.1
			c1.3-1.7,0.3-3.3,0.1-5c-0.1-1.1-0.3-2.2-0.3-3.3c0.1-3.2-0.3-6.4-0.1-9.5c0-0.4-0.2-0.9-0.2-1.3c0-0.5,0.1-1,0.2-1.5
			c0-0.1,0.2-0.2,0.1-0.3c-1.1-2,0.4-4.1-0.5-6.1c-0.3-0.7,0.2-1.5,0.3-2.3c0-0.6-0.1-1.2-0.2-1.8c-0.4-2.2-0.8-4.3-1.1-6.5
			c-0.2-1.5-0.2-3-0.3-4.4c0-0.6-0.1-1.2-0.3-1.8c-0.2-0.7-0.5-1.3,0.3-1.9c0.3-0.2,0.3-0.5,0.1-0.8c-0.9-1.2-0.8-2.5-0.6-3.7
			c0-0.2,0.1-0.3,0.1-0.5c-0.1-1.9-0.1-3.9-0.2-5.8c0,0,0-0.1,0-0.1c1.2-1.5-0.1-3,0.1-4.5c0.2-1.5-0.5-2.9-0.3-4.4
			c0.2-2.1-1-4.2,0.2-6.3c0.1-0.2-0.2-0.5-0.2-0.7c-0.7-1.8-1.2-3.5-0.4-5.3c0.5-1.2-0.3-2.4,0.1-3.7c0.7-2.1-0.8-4.2,0.6-6.4
			c0.2-0.3,0.1-0.6,0-0.9c-0.9-1.6-0.3-3.3-0.4-5c0-1.8,0.6-3.5,0.7-5.3c0.1-0.9-0.3-1.8-0.3-2.7c0.1-1.5,0.4-3.1,0.5-4.6
			c0.1-0.7,0.2-1.4,0.2-2.1c0-1.8-0.2-3.6-0.2-5.4c0.1-1.8,0.5-3.6,0.5-5.4c0.1-2.2-0.1-4.3-0.1-6.5c0-1.5,0.2-3.1,0.2-4.7
			c0-0.5-0.1-1.1-0.2-1.6c-0.1-2.4-0.2-4.7-0.4-7.1c-0.2-2.5-0.6-5-1-7.6c-0.2-1.2-0.7-2.5-0.3-3.7c0.3-1.3-0.1-2.6-0.1-3.9
			c0.1-2.7,0-5.4-0.1-8.1c0-0.7-0.3-1.4-0.2-2.1c0.4-3.1,0.3-6.2-0.3-9.3c-0.3-1.7-0.1-3.4,0-5c0-0.3-0.2-0.6,0.8-0.8
			c0.2,0,0.4-0.3,0.4-0.4c0.3-1.3,1.4-2.5,1.3-3.9c-0.2-1.6,1.3-3,2-4.5c0.2-0.3,1-0.6,1.6-0.9c2.1-1,2.5-2.2,2.7-3.4
			c0.1-0.6,0.1-1.2,1.3-1.7c0.8-0.4,1.6-0.9,1.3-1.5c-0.1-0.3,0.4-0.7,0.7-1.1c3.2,0.5,2.3,1.9,3.8,2.7c3.6-0.2,7.1-0.4,10.7-0.6
			c3.2-0.2,6.3-0.4,9.5-0.5c9.7-0.2,19.4-0.7,29.1-1.3c9.6-0.5,19.1-1.1,28.8-1.4c7.9-0.2,15.8-0.4,23.7,0c2.9,0.1,5.8-0.1,8.7-0.1
			c7.5,0.1,14.9,0.2,22.4,0.2c3.1,0,6.2,0,9.2,0c5.7,0,11.4,0,17.1,0c6.1,0,12.1,0,18.2,0.1c3.1,0.1,6.1,0.1,9.2,0.1
			c1.7,0,3.5,0.2,5.2,0.2c1.6,0,2.9,0.5,4.8,0.1c1.5-0.3,3.6-0.1,5.5,0c1.8,0,3.5,0.2,5.3,0.2c1.8,0,3.5,0.1,5.3,0.1
			c3,0,5.9,0,8.9,0c0.3,0,0.8,0,1,0.1c0.9,0.4,1.9,0.3,2.9,0.1c1.3-0.2,2.4-0.2,3.9-0.1c1.7,0.1,3.6,0.5,5.5,0
			c0.8-0.2,1.8-0.1,2.8-0.1c3,0,5.9,0.1,8.9,0.1c4.4,0,8.8,0.3,13.3,0c1.6-0.1,3.3,0.2,4.9,0.2c1.5,0,3.1,0,4.7,0
			c5.2-0.1,10.4-0.3,15.7-0.4c3.4-0.1,6.9-0.1,10.3,0c2,0,3.3,0.6,4.4,1.4c1.5,1.1,1.5,2.1,1.2,3.2c-0.1,0.4-0.5,0.7-1,1
			c-1.1,0.7-1.8,1.5-1.7,2.3c0.4,3.1,0.8,6.1,1.2,9.2c0.5,3.3,0.9,6.5,0.3,9.8c-0.4,2.2-0.1,4.4-0.2,6.6c-0.1,1.3-0.3,2.6-0.4,4
			c-0.1,0.7,0,1.4-0.1,2.1c-0.1,0.3-0.2,0.7-0.7,1c-1,0.5-0.7,1-0.1,1.5c0.4,0.4,0.7,0.8,0.7,1.2c0,1.1,0,2.3-0.3,3.4
			c-0.3,0.9-0.1,1.8-1,2.6c-0.4,0.4-0.1,0.9,0,1.5c0.4-0.1,0.6-0.2,1-0.4c0.1,0.3,0.4,0.6,0.2,0.7c-2,0.8-1.3,1.7-1.3,2.6
			c0,3.7,0.2,7.4,0.2,11.1c0,2.5-0.2,4.9-0.2,7.4c0,1.9-0.1,3.8-0.1,5.7c0,2.4,0,4.8,0,7.2c0,1.5-0.3,3-0.3,4.4
			c-0.1,2.6-0.1,5.1-0.1,7.7c0,2,0,3.9,0.1,5.8c0,0.9,0.5,1.7,0.7,2.5c0.1,0.4,0.2,0.8,0.2,1.1c0,0.8-0.2,1.5-0.1,2.3
			c0.5,4.8,1.1,9.6,1.5,14.4c0.2,2.1,0,4.2,0,6.3c0,0.7,0.2,1.4,0.3,2.1c0.1,1.4,0.2,2.7,0.3,4.1c0,0.7-0.3,1.5-0.3,2.2
			c0.1,2.7,0.3,5.5,0.4,8.2c0.1,2.1,0,4.1,0.1,6.2c0,1,0.5,1.9,0.5,2.9c0,2.6,0,5.2,0,7.8c0,0.1,0,0.2,0,0.2
			c1.3,3.6,0.1,7.2,1.1,10.9c0.1,0.6-0.1,1.2-0.1,1.8c0,0.4-0.1,0.7-0.1,1c0.8,3.6,0.6,7.3,0.6,11c0,2.5,0.4,4.9,0.5,7.4
			c0,1-0.2,2-0.1,3c0.1,2.1,0.3,4.2,0.6,6.3c0.3,2.2,0.7,4.3,1,6.5c0.1,0.5-0.2,1.1-0.2,1.6c0.3,3.2,0.2,6.5,1.3,9.7
			c0.4,1.2,0.7,2.4,0.8,3.6c0.1,0.9-0.2,1.9-0.1,2.8c0.2,1.8,0.6,3.6,0.9,5.4c0.2,1.1,0.4,2.2,0.5,3.4c0.1,2.4,0.1,4.8,0.2,7.2
			c0.2,4.7,0.6,9.4,0.7,14.2c0,4.4-0.3,8.8-0.5,13.2c0,1.4,0,2.9,0,4.3c0,1.2,0,2.5,0,3.8c0.3-0.1,0.5-0.1,1.2-0.3
			c-0.2,0.4-0.2,0.8-0.6,0.9c-1.4,0.5-1.2,1-1.2,1.6c-0.1,2,0,4.1-0.1,6.1c-0.1,3-0.4,5.9-0.4,8.9c0,3.5,0.2,7,0.3,10.5
			c0.1,3.1,0.3,6.2,0.5,9.3c0.1,1.9,0.4,3.8,0.6,5.7c0.1,0.7,0,1.3,0.1,2c0.3,2.2,0.7,4.3,1,6.5c0.1,1,0,1.9-0.1,2.9
			c-0.1,1.9,0,3.8-0.2,5.6c-0.1,0.7,1.2,1.3,0.4,2.2c-0.6,0.7-0.1,1.5-0.1,2.3c-0.1,1.8-0.3,3.5-0.2,5.2c0.1,4.6,0.4,9.1,0.4,13.7
			c0,2.7-0.4,5.4-0.6,8.1c-0.2,2.6-0.6,5.2-0.5,7.8c0.1,1.2,0.1,2.5-0.3,3.7c0,0.1-0.1,0.2,0,0.2c2.3,0.7,0.6,1.8,1.6,2.7
			c1,0.9,1.2,1.9,2,2.8c1,1.2-0.9,2-2.1,3c-2-0.1-2.9,0.7-4.5,1c-1.3,0.2-2.5,0.7-3.5,1.1c-1.7,0.7-3.1,1.5-4.9,2.1
			c-1.7,0.6-3.8,1-5.7,1.4c-0.2,0.1-0.5,0.1-0.8,0.1c-3.4-0.1-6.9-0.2-10.3-0.2c-0.6,0-1.3-0.1-1.9,0c-4.6,0.6-9.1,0.3-13.6,0.1
			c-2.5-0.1-5,0-7.6,0c-1.4,0-2.8,0.1-4.2,0.1c-0.5,0-1.3,0-1.6-0.1c-2.5-0.9-5.7-0.6-8.6-0.7c-4.1-0.2-8.2-0.2-12.3-0.3
			c-1.5,0-3.1-0.3-4.6-0.4c-0.3,0-0.5-0.1-0.8-0.1c-3.7,0.1-7.5,0.1-11.2,0.2c-1.7,0.1-3.3-0.3-5.1,0c-1.6,0.2-3.5,0.1-5.3,0.2
			c-1.8,0-3.5,0-5.3,0.1c-4.9,0.1-9.7,0.2-14.5,0.3c-0.9,0-1.9-0.1-2.8-0.1c-2,0-4.1-0.1-6.1-0.1c-3.3,0-6.5,0-9.8,0
			c-1.5,0-2.9,0.2-4.4,0.2c-6.9,0-13.8,0.1-20.7,0.1c-3.7,0-7.5-0.1-11.2-0.2c-1.6,0-3.1,0-4.7,0c-4.4-0.1-8.9-0.3-13.3-0.5
			c-1.1,0-2.2,0-3.3,0c-5.4-0.1-10.8-0.2-16.2-0.3c-5.5-0.1-11-0.2-16.4-0.5c-3.1-0.1-6.2-0.5-9.3-0.6c-4.4-0.2-8.9-0.4-13.3-0.5
			c-7.7-0.2-15.4-0.3-23.2-0.4c-4.4-0.1-8.9-0.1-13.3-0.1c-1.2,0-1.9,0.2-2.8,0.6c-0.9,0.4-2.5,0.7-3.8,0.9c-3.7,0.4-7.4,0.1-11-0.2
			c-1.9-0.2-3.8-0.3-5.8-0.5c-3.3-0.3-3.7-0.5-4-1.9C-90.4,185.8-90.5,185.6-90.6,185.4z M205.4,182.1c0.7-0.4,0.8-0.6,1.1-0.6
			c1.8-0.4,1.8-1,1.8-1.7c-0.1-1.2,0.3-2.3,0.6-3.5c0.3-1.6,0.3-3.2,0.3-4.7c0-0.4,0.1-0.8,0.1-1.3c0.1-1.3,0.1-2.5,0.2-3.8
			c0-0.1-0.1-0.2-0.1-0.2c0-0.3,0.1-0.6,0.2-0.9c0.1-0.3,0.4-0.5,0.4-0.8c0-1.2-0.1-2.5-0.2-3.7c-0.1-1.3-0.3-2.6-0.3-3.9
			c-0.1-1.1,0.1-2.2,0-3.4c-0.2-1.7-1.1-3.5-0.5-5.2c0.6-1.6-0.2-3.2,0.6-4.8c0.6-1.2,0.1-2.5,0.1-3.7c0-1.8-0.1-3.7-0.1-5.5
			c0-1.3,0-2.6,0-4c0-0.3,0.1-0.6-0.1-0.9c-0.7-1.4-1.8-2.8-0.6-4.2c0.2-0.2,0.1-0.5,0-0.7c-0.8-2.1-0.7-4.2-0.9-6.3
			c-0.2-2.7-0.3-5.5-0.4-8.2c-0.1-3-0.1-6.1-0.2-9.1c-0.1-3.2-0.2-6.5-0.1-9.7c0.1-2.8,0.5-5.7,0.5-8.5c0-1.9,0.5-3.7,0.8-5.6
			c0.1-0.5,0.9-1.1,0.5-1.5c-0.8-0.8,0.1-1.5,0.1-2.3c0-0.2,0.4-0.4,0.2-0.6c-1.2-1-0.6-2-0.7-3c-0.1-0.9-0.3-1.9,0-2.8
			c0.5-1.2,0.6-2.5,0.2-3.7c-0.3-0.9-0.1-1.9-0.1-2.8c0-1,0-2.1,0-3.2c0-0.3-0.2-0.6,0.1-0.8c0.7-0.4,0.5-0.9,0.5-1.3
			c0-1-0.3-2.1-0.7-3.1c-0.5-1.4-0.4-2.8-0.5-4.2c0-0.9,0.2-1.9,0.3-2.8c0-0.5-0.2-1.1-0.1-1.6c0.9-2.5-1.1-4.9,0-7.4
			c0-0.1,0-0.2-0.1-0.2c-0.9-0.5-0.5-1.1-0.6-1.7c-0.1-1.4-0.2-2.8-0.4-4.2c-0.3-1.8-0.8-3.5-1.1-5.3c-0.4-2.5-0.5-5-0.8-7.5
			c-0.3-2.2-1.1-4.5-1-6.7c0.2-2.1-0.7-4.1,0.1-6.1c0.1-0.1,0-0.3-0.1-0.5c-1-2.2-1.6-4.5-0.9-6.7c0.2-0.5,0.2-1.1-0.1-1.6
			c-0.8-1.4-0.4-2.9-0.3-4.3c0-0.4,0.1-0.8,0-1.2c-0.1-0.6-0.5-1.2-0.5-1.8c0.1-2.4,0.4-4.9,0-7.3c-0.4-2.1-0.3-4.3-0.4-6.4
			c0-0.7,0-1.4-0.1-2.1c-0.1-1.3-0.5-2.6-0.5-3.9c-0.1-1.8,0-3.6,0-5.5c-0.1-1.7-0.3-3.4-0.4-5.1c0-0.8,0.1-1.7,0.1-2.5
			c0-0.5-0.4-1.1-0.4-1.6c-0.1-1.6-0.1-3.2-0.2-4.8c0-0.9,0-1.7,0-2.6c0-1.6-0.1-3.2-0.1-4.8c0-0.7,0.1-1.5-0.1-2.2
			c-0.3-1.1-0.6-2.1,0.7-3.2c0.1-0.1,0.1-0.2,0-0.3c-1.2-0.8-0.9-1.7-0.8-2.6c0.1-0.3,0.1-0.7,0-1c-0.2-1.4-1.1-2.7-0.6-4.1
			c0.5-1.4-0.1-2.8-0.2-4.2c-0.2-1.9-0.2-3.9,0.3-5.8c0.1-0.3,0.2-0.6,0-0.8c-1.4-1.5-1.2-3-0.7-4.6c0.1-0.3,0.3-0.5,0.3-0.8
			c-0.4-1.7,0.1-3.4-1.2-5.1c-0.3-0.4-0.4-0.9-0.1-1.3c0.8-1,0.2-1.9,0.1-2.8c-0.3-2.2-1.3-4.4,0.2-6.6c0.1-0.2,0.1-0.5,0-0.7
			c0-0.8-0.2-1.5-0.2-2.3c0-0.7,0.2-1.4,0.2-2.1c0-1.8,0-3.5,0-5.2c0-0.2,0.1-0.5,0.2-0.7c0.3-1.1,0.3-2.1-0.4-3.2
			c-0.4-0.6,0.1-1.4,0.1-2c0.1-0.9,0.4-1.8,0-2.6c-0.6-1.2-0.6-2.3,0-3.4c0.5-0.9,0.8-1.8,0-2.8c-1-1.2-1.2-2.4-0.4-3.6
			c0.9-1.3-0.3-2.5,0.5-3.8c0.5-0.8,0-1.8,0.1-2.7c0.1-0.9-1-1.7,0.4-2.6c0.1,0,0-0.1,0-0.2c-0.2-0.8-0.4-1.5-0.6-2.3
			c-0.2-1-0.9-2-0.5-2.9c0.5-1.3,0.4-2.4-0.1-3.7c-0.1-0.2-0.1-0.4-0.1-0.6c0.1-1.7,0.2-3.3,0.3-5c0-0.6-0.3-1.2-0.3-1.7
			c0-1.6,0.1-3.1,0.2-4.7c0.1-0.8,0.7-1.6,0.5-2.4c-0.4-1.7-0.6-3.3,0.4-5c0.1-0.1,0.1-0.2,0-0.4c-0.7-1.6-0.3-3.1,0.5-4.7
			c0.3-0.5-0.1-1.1-0.1-1.6c0-0.8,0.1-1.5,0.1-2.3c0-0.5,0.3-0.9,0.2-1.4c-0.4-1.8-0.6-3.6-1.5-5.4c-0.3-0.6,0.3-1.1,0.1-1.7
			c-0.3-0.9-0.3-1.8-0.4-2.7c-0.2-1.2-0.4-2.5-0.8-3.7c-0.3-1.1-2-1.8-4.1-1.9c-3.3-0.1-6.7-0.1-10-0.1c-3.5,0-6.9-0.1-10.4-0.1
			c-3.8,0.1-7.6-0.1-11.4-0.2c-6.1-0.2-12.3-0.1-18.4-0.2c-8.3-0.1-16.6-0.2-24.9-0.3c-1,0-2.1,0-3.1,0c-4.7-0.1-9.3-0.3-14-0.4
			c-3.7-0.1-7.5,0-11.2,0c-4.3,0-8.6-0.2-12.9-0.2c-8.5,0-17,0-25.5-0.1c-1.2,0-2.4-0.1-3.6-0.2c-3.9-0.2-7.9-0.4-11.9-0.6
			c-1.3-0.1-2.6-0.1-3.9-0.1c-3.8,0-7.7,0-11.5,0c-1.8,0-3.6,0-5.4,0c0-0.1,0-0.2,0-0.3c2.3,0,4.6,0,6.9-0.1c-0.3-0.2-0.6-0.2-1-0.2
			c-5.9,0-11.7,0-17.6,0c-0.6,0-1.2,0.1-1.7,0c-3.8-0.4-7.6,0-11.4,0c-5.2,0.1-10.4,0.4-15.5,0.5c-3.9,0.1-7.8,0.1-11.7,0.2
			c-6.2,0.2-12.5,0.7-18.7,0.1c-0.3,0-0.6,0-0.8,0c-3.2-0.1-6.3-0.1-9.5-0.2c-2.8-0.1-5.5-0.2-8.6-0.3c0,2.9-0.1,5.7,0.1,8.4
			c0.2,3.4,0.8,6.8,1,10.2c0.2,2.6,0.2,5.1,0.2,7.7c0.1,2.3,0.1,4.5,0.2,6.8c0.1,1.5,0.1,3,0.2,4.6c0.2,1.6,0.6,3.2,0.7,4.9
			c0.2,2.9,0.3,5.8,0.4,8.7c0.1,1.6,0,3.2,0.1,4.8c0.1,1.7,0.4,3.3,0.4,5c0,2.6-0.3,5.2-0.4,7.8c-0.1,2-0.1,4-0.2,6.1
			c-0.2,2.4-0.4,4.8-0.5,7.2c-0.2,3.1-0.3,6.2-0.5,9.2c-0.1,1.5-0.1,3-0.2,4.6c-0.1,1.6-0.3,3.3-0.2,4.9c0.1,4.1,0.3,8.1,0.5,12.2
			c0.2,3.4,0.5,6.8,0.6,10.2c0.1,3.8,0.1,7.6,0.2,11.4c0,2,0,4,0.2,6c0.2,2.6,0.7,5.3,1,7.9c0.2,2.3,0.4,4.7,0.5,7
			c0.1,2.1,0.3,4.3,0.3,6.4c0.1,3,0,5.9,0.1,8.9c0.1,4.3,0.5,8.6,0.6,12.9c0.1,2.8-0.1,5.7-0.4,8.5c-0.1,1,0.6,2.1-1,3
			c0.3,0.4,0.8,0.8,0.8,1.1c-0.1,1.6-0.2,3.2-0.4,4.8c-0.4,3.9-1,7.9-1.4,11.8c-0.3,3.3-0.5,6.5-0.8,9.8c-0.2,2.5-0.6,5-0.7,7.5
			c-0.1,1.6,0.2,3.1,0,4.7c-0.2,1.9,0.5,3.8-1.2,5.7c-0.2,0.2-0.1,0.4,0.1,0.6c0.9,0.7,0.5,1.4,0.4,2.1c-0.2,2.1-0.7,4.3-0.8,6.4
			c-0.1,2.1,0,4.2,0,6.3c0,0.8,0,1.6-0.1,2.3c-0.2,1.9-0.6,3.9-0.8,5.8c-0.1,1.2-0.1,2.5-0.2,3.8c-0.1,0.7,0.2,1.5-0.5,2
			c-0.9,0.8,0.3,1.3,0.2,2c-0.3,1.7,0,3.3-0.1,5c0,0.6-0.5,1.2-0.6,1.8c-0.1,0.4-0.2,0.9,0.3,1.2c0.8,0.7,0.6,1.3,0.1,1.9
			c-0.2,0.3-0.5,0.5-0.5,0.8c0,1.5,0.1,3.1,0,4.7c-0.1,0.9,1,1.7,1,2.5c0.1,1.9,0,3.8-0.1,5.7c0,0.4-0.5,0.9-0.8,1.4
			c1.4,0.7,1.2,1.6,0.2,2.4c-0.6,0.4-0.7,0.8-0.6,1.2c0.3,0.8,0.8,1.6,0.9,2.4c0.1,1.2,0,2.3-0.1,3.5c0,0.3-0.2,0.6-0.5,0.9
			c-0.7,0.5-0.5,0.9-0.2,1.3c0.4,0.8,0.6,1.6,0.7,2.4c0.1,0.9,0.1,1.9-0.1,2.8c-0.3,1.2,0.4,2.4-1,3.6c-0.1,0.1-0.1,0.3,0,0.5
			c1,0.9,1,0.9,0.7,1.5c-0.2,0.5-0.2,1-0.3,1.4c0.1,0,0.2,0,0.3,0c0.2-0.2,0.3-0.4,0.5-0.7c0.3,1.2,0.9,2.2-0.4,3.2
			c-0.3,0.2-0.1,0.7,0.3,1c0.6,0.4,0.7,0.6,0.4,1.1c-0.3,0.5-0.2,1-0.1,1.4c0,0.4,0.3,0.7,0.3,1.1c0,0.2-0.6,0.5-0.4,0.7
			c1.6,1.1,0.8,2.3,1,3.5c0.6,2.6,0.4,5.2,0.6,7.8c0,0.8-0.2,1.6-0.2,2.4c0,1.9,0.2,3.7,0.1,5.6c-0.1,0.9-0.4,1.8-0.1,2.8
			c0.3,1,1,2.2-0.6,3.3c-0.1,0.1-0.1,0.2,0,0.2c1.5,0.2,0.7,0.8,0.7,1.2c0,0.5-0.6,0.9-0.7,1.3c-0.1,0.8-0.6,1.7,0,2.3
			c0.8,0.8,0.7,1.5,0.2,2.3c-0.2,0.3-0.3,0.5-0.2,0.8c0.3,0.9,0.5,1.8,0.3,2.8c-0.3,1.8-0.2,3.6-0.3,5.4c-0.1,0.9-0.2,1.8-0.3,2.7
			c-0.1,1.1,0.5,1.3,3,1.4c4,0.1,8,0.2,12,0.3c2.4,0.1,4.7,0.2,7,0.4c-1.8,0.6-3.6,1-5.6,0.6c-1.2-0.2-1.8-0.1-2.8,0.4
			c4.4,0.3,8.3,0.4,11.9-0.9c0.6,0.5,0.5,1.4,2.7,1c-0.1-0.3-0.3-0.5-0.5-0.9c0.7-0.1,1.2-0.3,1.7-0.2c3.6,0,7.3,0,10.9,0.1
			c3.5,0.1,7.1,0.2,10.6,0.4c3.4,0.2,6.8,0.4,10.2,0.6c2.4,0.2,4.7,0.3,7.1,0.5c2.7,0.3,5.7,0.1,8.6,0.2c7.1,0.1,14.2,0.3,21.3,0.5
			c7.4,0.2,14.7,0.4,22.1,0.5c5.8,0.1,11.6,0.1,17.4,0.1c4.4,0,8.8-0.1,13.1-0.2c2,0,3.9-0.1,5.9-0.1c4.8,0,9.5,0.2,14.2-0.1
			c2.5-0.1,4.9,0,7.3-0.1c4.7-0.1,9.5-0.1,14.2-0.2c2.6,0,5.2-0.1,7.8-0.2c3.4,0,6.9-0.1,10.3-0.1c1.1,0,2.2-0.1,3.3-0.2
			c1,0,2-0.1,3.1-0.1c0.7,0,1.7-0.2,2,0.3c0,0,1,0.1,1.3,0c1.4-0.4,2.6-0.1,3.9,0.1c0.3,0,0.7,0.1,1,0.1c3.1,0,6.2,0,9.2,0
			c2.4,0,4.9-0.3,7.1,0.3c0.3,0.1,0.7,0,1.1,0c5.7,0.2,11.5,0.2,17.2,0.5c3.3,0.2,6.3,0.1,9.4-0.4c2.6-0.4,4.8-0.5,7.4,0.2
			C203,180.2,205,180.6,205.4,182.1z M-9,179.3c0,0.5,0.6,0.6,1.6,0.7c2.5,0.1,4.9,0.3,7.4,0.3c0.9,0,1.8-0.2,2.9-0.2
			c-1.9-1.5-2.3-1.5-5.4-0.8c-0.7,0.2-1.7,0.1-2.5,0.2c-0.4-0.3-0.7-0.5-1-0.7C-7.2,178.9-8.1,179.1-9,179.3z M27.3,179.7
			c-0.6,0.5-0.4,0.8,0.6,0.9c1.4,0.1,2.9,0.1,4.4,0.1c1.3,0,2.2-0.3,2.4-0.9c-1.3-0.2-2.5-0.2-3.5,0.1c-1,0.3-1.8,0.3-2.7-0.1
			C28.3,179.8,27.9,179.8,27.3,179.7z M-37.5,177.9c-0.9-0.1-1.6-0.3-2.2-0.3c-1.8,0.1-3.6,0.2-5.3,0.3c-0.1,0-0.2,0.1-0.5,0.4
			c2.6,0,4.9,0,7.2,0C-38.1,178.2-37.9,178-37.5,177.9z M93.5,180.7c0.2,0,0.4,0,0.6,0c-0.1-0.2,0-0.6-0.2-0.6
			c-1.1-0.2-2.3-0.6-3.9-0.1C92.9,180.3,92.9,180.3,93.5,180.7z M-90.1,101.9c1.9-0.5,1.9-0.5,0.4-1.1c-0.2,0.1-0.5,0.2-0.5,0.4
			C-90.3,101.4-90.2,101.6-90.1,101.9z M9.5,179.2c0.1,0.8,0.1,0.8,2.1,0.9C10.7,179.7,10.1,179.5,9.5,179.2z M-32.8,178.3
			c-1.1-0.3-2.2-0.5-3.7-0.1C-35.2,178.6-34,178.3-32.8,178.3z M227.3,32.7c0.1,0,0.2,0,0.4,0c0.1-0.6,0.2-1.2,0.3-1.8
			c-0.2,0-0.5,0-0.7,0C227.3,31.5,227.3,32.1,227.3,32.7z M3.7,179.2c0.4,0.4,0.7,0.6,1.1,1.1C5.4,179.7,5.3,179.4,3.7,179.2z
			 M229.5,129.5c0.1,0,0.1,0,0.2,0c0-0.5,0-1,0-1.6c-0.1,0-0.1,0-0.2,0C229.5,128.4,229.5,128.9,229.5,129.5z M-27.1,178.1
			c-0.4-0.1-0.7-0.3-0.8-0.3c-0.3,0-0.6,0.2-0.6,0.3c0,0.1,0.4,0.2,0.6,0.3C-27.8,178.4-27.5,178.3-27.1,178.1z M228.6,46.3
			c-0.1,0-0.3,0-0.5,0c-0.1,0.3-0.2,0.6-0.3,0.9c0.1,0,0.3,0,0.4,0C228.4,46.9,228.5,46.6,228.6,46.3z M225.2,15.1
			c-0.1,0-0.2,0-0.4,0c0.1,0.3,0.1,0.6,0.2,0.9c0.1,0,0.3,0,0.4,0C225.3,15.6,225.2,15.4,225.2,15.1z M219.8-163.9
			C219.8-163.9,219.8-163.9,219.8-163.9c0,0.3,0,0.5,0,0.8c0,0,0,0,0,0C219.8-163.4,219.8-163.6,219.8-163.9z M227.3,86.5
			c0.1,0,0.1,0,0.2,0c0-0.2,0-0.5,0-0.7c-0.1,0-0.1,0-0.2,0C227.3,86.1,227.3,86.3,227.3,86.5z M-95,152.2c0.1,0,0.2,0,0.3,0
			c0.1-0.1,0.2-0.3,0.2-0.4c0-0.1-0.1-0.3-0.1-0.4c-0.1,0-0.3,0-0.4,0C-95,151.7-95,151.9-95,152.2z M220.4-72.1
			c-0.2-0.1-0.3-0.2-0.5-0.2c-0.2,0.1-0.5,0.1-0.5,0.2c0.1,0.1,0.3,0.2,0.5,0.3C220.1-71.9,220.2-72,220.4-72.1z M-88.6,68.2
			c-0.2,0.2-0.3,0.2-0.3,0.3c0,0.1,0.1,0.1,0.2,0.2c0.2-0.1,0.4-0.1,0.4-0.2C-88.3,68.5-88.4,68.4-88.6,68.2z M-76.7,94.3
			c-0.1,0-0.1,0-0.2,0c0,0.2,0,0.4,0,0.7c0.1,0,0.1,0,0.2,0C-76.7,94.7-76.7,94.5-76.7,94.3z M228,76.5c0-0.1-0.1-0.2-0.1-0.2
			c-0.1,0-0.4,0.1-0.4,0.1c0,0.1,0.1,0.2,0.2,0.3C227.8,76.6,227.9,76.6,228,76.5z M229.6,125.1c-0.2,0-0.4,0-0.5,0.1
			c0.2,0.1,0.4,0.3,0.5,0.4C229.6,125.4,229.6,125.3,229.6,125.1z M-75.7,134.4c-0.1,0-0.2,0-0.3,0c0,0.2,0,0.3,0.1,0.5
			c0.1,0,0.2,0,0.2,0C-75.7,134.7-75.7,134.5-75.7,134.4z M-13,178.9c0,0.1,0,0.1,0,0.2c0.4,0,0.9,0,1.3,0c0-0.1,0-0.1,0-0.2
			C-12.1,179-12.6,179-13,178.9z M14,180.2c-0.1-0.1-0.2-0.2-0.3-0.2c-0.2,0-0.4,0.1-0.6,0.2c0.1,0.1,0.2,0.2,0.2,0.2
			C13.6,180.3,13.8,180.2,14,180.2z M134.6,180.3c0.1,0,0.3-0.1,0.4-0.1c-0.1,0-0.3-0.1-0.4-0.1c-0.1,0-0.2,0.1-0.4,0.1
			C134.3,180.2,134.4,180.3,134.6,180.3z"/>
		<path class="st2" d="M205.4,182.1c-0.4-1.5-2.4-1.9-4.6-2.5c-2.6-0.7-4.8-0.6-7.4-0.2c-3,0.5-6.1,0.5-9.4,0.4
			c-5.7-0.3-11.4-0.3-17.2-0.5c-0.4,0-0.8,0.1-1.1,0c-2.3-0.5-4.7-0.3-7.1-0.3c-3.1,0-6.2,0-9.2,0c-0.4,0-0.7-0.1-1-0.1
			c-1.3-0.2-2.5-0.4-3.9-0.1c-0.3,0.1-1.3,0-1.3,0c-0.3-0.5-1.3-0.3-2-0.3c-1,0-2,0-3.1,0.1c-1.1,0-2.2,0.1-3.3,0.2
			c-3.4,0.1-6.9,0.1-10.3,0.1c-2.6,0-5.2,0.1-7.8,0.2c-4.8,0.1-9.5,0.1-14.2,0.2c-2.4,0.1-4.8-0.1-7.3,0.1
			c-4.7,0.2-9.5,0.1-14.2,0.1c-2,0-3.9,0.1-5.9,0.1c-4.4,0.1-8.8,0.2-13.1,0.2c-5.8,0-11.6,0-17.4-0.1c-7.4-0.1-14.7-0.3-22.1-0.5
			c-7.1-0.2-14.2-0.3-21.3-0.5c-2.9-0.1-5.9,0.1-8.6-0.2c-2.4-0.2-4.7-0.3-7.1-0.5c-3.4-0.2-6.8-0.5-10.2-0.6
			c-3.5-0.2-7-0.3-10.6-0.4c-3.6-0.1-7.3-0.1-10.9-0.1c-0.5,0-1,0.2-1.7,0.2c0.2,0.3,0.3,0.6,0.5,0.9c-2.3,0.4-2.1-0.4-2.7-1
			c-3.6,1.2-7.5,1.2-11.9,0.9c1-0.5,1.6-0.6,2.8-0.4c2,0.4,3.8,0.1,5.6-0.6c-2.3-0.1-4.7-0.3-7-0.4c-4-0.1-8-0.2-12-0.3
			c-2.5-0.1-3-0.3-3-1.4c0-0.9,0.2-1.8,0.3-2.7c0.1-1.8,0-3.6,0.3-5.4c0.2-1,0-1.8-0.3-2.8c-0.1-0.3,0.1-0.5,0.2-0.8
			c0.5-0.8,0.6-1.5-0.2-2.3c-0.7-0.7-0.2-1.6,0-2.3c0.1-0.5,0.7-0.9,0.7-1.3c0-0.4,0.8-0.9-0.7-1.2c-0.1,0-0.1-0.2,0-0.2
			c1.5-1.1,0.9-2.3,0.6-3.3c-0.3-1,0-1.8,0.1-2.8c0.2-1.9-0.1-3.7-0.1-5.6c0-0.8,0.3-1.6,0.2-2.4c-0.1-2.6,0-5.2-0.6-7.8
			c-0.2-1.2,0.6-2.4-1-3.5c-0.2-0.1,0.4-0.4,0.4-0.7c0-0.4-0.2-0.7-0.3-1.1c0-0.5-0.2-1,0.1-1.4c0.3-0.4,0.2-0.7-0.4-1.1
			c-0.4-0.2-0.7-0.7-0.3-1c1.3-1,0.7-2,0.4-3.2c-0.2,0.3-0.4,0.5-0.5,0.7c-0.1,0-0.2,0-0.3,0c0.1-0.5,0.1-1,0.3-1.4
			c0.3-0.6,0.4-0.6-0.7-1.5c-0.1-0.1-0.2-0.3,0-0.5c1.3-1.2,0.7-2.4,1-3.6c0.2-0.9,0.2-1.9,0.1-2.8c-0.1-0.8-0.3-1.6-0.7-2.4
			c-0.2-0.5-0.4-0.9,0.2-1.3c0.4-0.2,0.5-0.6,0.5-0.9c0.1-1.2,0.3-2.3,0.1-3.5c-0.1-0.8-0.6-1.6-0.9-2.4c-0.2-0.4,0-0.8,0.6-1.2
			c1.1-0.8,1.2-1.7-0.2-2.4c0.3-0.5,0.8-0.9,0.8-1.4c0.1-1.9,0.2-3.8,0.1-5.7c-0.1-0.8-1.1-1.6-1-2.5c0.2-1.5,0-3.1,0-4.7
			c0-0.3,0.3-0.5,0.5-0.8c0.5-0.7,0.6-1.3-0.1-1.9c-0.4-0.3-0.3-0.8-0.3-1.2c0.1-0.6,0.6-1.2,0.6-1.8c0.1-1.7-0.2-3.4,0.1-5
			c0.1-0.7-1.1-1.2-0.2-2c0.7-0.6,0.4-1.4,0.5-2c0.1-1.2,0-2.5,0.2-3.8c0.2-1.9,0.6-3.9,0.8-5.8c0.1-0.8,0.1-1.6,0.1-2.3
			c0-2.1-0.1-4.2,0-6.3c0.1-2.1,0.6-4.3,0.8-6.4c0.1-0.7,0.6-1.4-0.4-2.1c-0.2-0.1-0.2-0.4-0.1-0.6c1.7-1.9,0.9-3.8,1.2-5.7
			c0.2-1.6-0.1-3.1,0-4.7c0.2-2.5,0.5-5,0.7-7.5c0.3-3.3,0.5-6.5,0.8-9.8c0.4-3.9,0.9-7.9,1.4-11.8c0.2-1.6,0.3-3.2,0.4-4.8
			c0-0.4-0.5-0.7-0.8-1.1c1.5-0.9,0.9-2,1-3c0.3-2.8,0.5-5.7,0.4-8.5c-0.1-4.3-0.4-8.6-0.6-12.9c-0.1-3,0-5.9-0.1-8.9
			c0-2.1-0.2-4.3-0.3-6.4c-0.1-2.3-0.3-4.7-0.5-7c-0.3-2.6-0.8-5.3-1-7.9c-0.2-2-0.2-4-0.2-6c-0.1-3.8-0.1-7.6-0.2-11.4
			c-0.1-3.4-0.4-6.8-0.6-10.2c-0.2-4.1-0.4-8.1-0.5-12.2c-0.1-1.6,0.2-3.3,0.2-4.9c0.1-1.5,0.1-3,0.2-4.6c0.2-3.1,0.3-6.2,0.5-9.2
			c0.2-2.4,0.4-4.8,0.5-7.2c0.1-2,0.2-4,0.2-6.1c0.1-2.6,0.4-5.2,0.4-7.8c0-1.7-0.3-3.3-0.4-5c-0.1-1.6,0-3.2-0.1-4.8
			c-0.1-2.9-0.2-5.8-0.4-8.7c-0.1-1.6-0.5-3.2-0.7-4.9c-0.2-1.5-0.2-3-0.2-4.6c-0.1-2.3-0.2-4.5-0.2-6.8c-0.1-2.6-0.1-5.1-0.2-7.7
			c-0.3-3.4-0.8-6.8-1-10.2c-0.2-2.8-0.1-5.5-0.1-8.4c3.1,0.1,5.9,0.2,8.6,0.3c3.2,0.1,6.3,0.1,9.5,0.2c0.3,0,0.6,0,0.8,0
			c6.2,0.6,12.5,0.1,18.7-0.1c3.9-0.1,7.8-0.1,11.7-0.2c5.2-0.1,10.4-0.4,15.5-0.5c3.8-0.1,7.6-0.5,11.4,0c0.5,0.1,1.1,0,1.7,0
			c5.9,0,11.7,0,17.6,0c0.3,0,0.7,0,1,0.2c-2.3,0-4.6,0-6.9,0.1c0,0.1,0,0.2,0,0.3c1.8,0,3.6,0,5.4,0c3.8,0,7.7,0,11.5,0
			c1.3,0,2.6,0,3.9,0.1c3.9,0.2,7.9,0.4,11.9,0.6c1.2,0.1,2.4,0.2,3.6,0.2c8.5,0,17,0,25.5,0.1c4.3,0,8.6,0.2,12.9,0.2
			c3.7,0,7.5,0,11.2,0c4.7,0.1,9.3,0.2,14,0.4c1,0,2.1,0,3.1,0c8.3,0.1,16.6,0.2,24.9,0.3c6.1,0.1,12.3,0,18.4,0.2
			c3.8,0.1,7.6,0.3,11.4,0.2c3.5,0,6.9,0,10.4,0.1c3.3,0,6.7,0.1,10,0.1c2.2,0.1,3.8,0.8,4.1,1.9c0.4,1.2,0.6,2.5,0.8,3.7
			c0.2,0.9,0.1,1.8,0.4,2.7c0.2,0.6-0.4,1.1-0.1,1.7c0.8,1.8,1.1,3.6,1.5,5.4c0.1,0.5-0.1,0.9-0.2,1.4c-0.1,0.8-0.1,1.5-0.1,2.3
			c0,0.5,0.3,1.1,0.1,1.6c-0.8,1.6-1.2,3.1-0.5,4.7c0,0.1,0,0.2,0,0.4c-1,1.6-0.8,3.3-0.4,5c0.2,0.8-0.4,1.6-0.5,2.4
			c-0.1,1.6-0.2,3.1-0.2,4.7c0,0.6,0.3,1.2,0.3,1.7c0,1.7-0.2,3.3-0.3,5c0,0.2,0,0.4,0.1,0.6c0.5,1.2,0.6,2.4,0.1,3.7
			c-0.4,0.9,0.3,1.9,0.5,2.9c0.2,0.8,0.4,1.5,0.6,2.3c0,0.1,0.1,0.2,0,0.2c-1.5,0.8-0.4,1.7-0.4,2.6c-0.1,0.9,0.5,1.8-0.1,2.7
			c-0.8,1.3,0.4,2.5-0.5,3.8c-0.8,1.1-0.7,2.4,0.4,3.6c0.8,0.9,0.5,1.8,0,2.8c-0.6,1.1-0.5,2.3,0,3.4c0.4,0.8,0,1.7,0,2.6
			c0,0.7-0.5,1.4-0.1,2c0.7,1.1,0.7,2.1,0.4,3.2c-0.1,0.2-0.2,0.5-0.2,0.7c0,1.8,0.1,3.5,0,5.2c0,0.7-0.2,1.4-0.2,2.1
			c0,0.8,0.1,1.5,0.2,2.3c0,0.2,0.1,0.5,0,0.7c-1.5,2.2-0.5,4.4-0.2,6.6c0.1,0.9,0.7,1.8-0.1,2.8c-0.3,0.4-0.2,0.9,0.1,1.3
			c1.3,1.6,0.8,3.4,1.2,5.1c0.1,0.3-0.2,0.5-0.3,0.8c-0.5,1.5-0.7,3.1,0.7,4.6c0.2,0.2,0.1,0.5,0,0.8c-0.5,1.9-0.5,3.9-0.3,5.8
			c0.1,1.4,0.7,2.8,0.2,4.2c-0.4,1.3,0.4,2.7,0.6,4.1c0.1,0.3,0,0.7,0,1c-0.1,0.9-0.4,1.8,0.8,2.6c0.1,0.1,0.1,0.2,0,0.3
			c-1.3,1-1,2.1-0.7,3.2c0.2,0.7,0.1,1.5,0.1,2.2c0,1.6,0.1,3.2,0.1,4.8c0,0.9,0,1.7,0,2.6c0,1.6,0.1,3.2,0.2,4.8
			c0,0.5,0.4,1.1,0.4,1.6c0,0.8-0.1,1.7-0.1,2.5c0.1,1.7,0.3,3.4,0.4,5.1c0.1,1.8,0,3.6,0,5.5c0.1,1.3,0.4,2.6,0.5,3.9
			c0.1,0.7,0.1,1.4,0.1,2.1c0.1,2.1,0,4.3,0.4,6.4c0.5,2.5,0.2,4.9,0,7.3c0,0.6,0.4,1.2,0.5,1.8c0.1,0.4,0,0.8,0,1.2
			c-0.1,1.4-0.5,2.9,0.3,4.3c0.3,0.5,0.2,1.1,0.1,1.6c-0.7,2.3,0,4.5,0.9,6.7c0.1,0.1,0.1,0.3,0.1,0.5c-0.8,2,0.1,4.1-0.1,6.1
			c-0.2,2.2,0.6,4.5,1,6.7c0.3,2.5,0.5,5,0.8,7.5c0.2,1.8,0.8,3.5,1.1,5.3c0.2,1.4,0.3,2.8,0.4,4.2c0,0.6-0.3,1.2,0.6,1.7
			c0.1,0.1,0.1,0.1,0.1,0.2c-1.1,2.5,0.9,4.9,0,7.4c-0.2,0.5,0.1,1.1,0.1,1.6c-0.1,0.9-0.3,1.9-0.3,2.8c0,1.4,0,2.8,0.5,4.2
			c0.4,1,0.6,2.1,0.7,3.1c0,0.5,0.3,0.9-0.5,1.3c-0.3,0.2-0.1,0.5-0.1,0.8c0,1,0,2.1,0,3.2c0,0.9-0.1,1.9,0.1,2.8
			c0.4,1.2,0.3,2.5-0.2,3.7c-0.3,0.9-0.1,1.9,0,2.8c0.1,1-0.4,2,0.7,3c0.2,0.1-0.2,0.4-0.2,0.6c0,0.8-1,1.5-0.1,2.3
			c0.4,0.4-0.4,1-0.5,1.5c-0.3,1.9-0.8,3.7-0.8,5.6c0,2.8-0.4,5.7-0.5,8.5c-0.1,3.2,0.1,6.5,0.1,9.7c0.1,3,0.1,6.1,0.2,9.1
			c0.1,2.7,0.1,5.5,0.4,8.2c0.2,2.1,0.1,4.2,0.9,6.3c0.1,0.2,0.2,0.5,0,0.7c-1.2,1.5-0.1,2.8,0.6,4.2c0.1,0.3,0.1,0.6,0.1,0.9
			c0,1.3,0,2.6,0,4c0,1.8,0.1,3.7,0.1,5.5c0,1.2,0.5,2.5-0.1,3.7c-0.8,1.6-0.1,3.2-0.6,4.8c-0.6,1.7,0.3,3.5,0.5,5.2
			c0.1,1.1,0,2.2,0,3.4c0.1,1.3,0.2,2.6,0.3,3.9c0.1,1.2,0.1,2.5,0.2,3.7c0,0.3-0.3,0.5-0.4,0.8c-0.1,0.3-0.1,0.6-0.2,0.9
			c0,0.1,0.1,0.2,0.1,0.2c0,1.3-0.1,2.5-0.2,3.8c0,0.4-0.1,0.8-0.1,1.3c0,1.6,0,3.2-0.3,4.7c-0.2,1.2-0.7,2.3-0.6,3.5
			c0.1,0.7,0,1.3-1.8,1.7C206.2,181.5,206,181.7,205.4,182.1z"/>
	</g>
</g>
<g id="Ebene_5" class="st0">
	<g class="st1">
		<g>
			<path d="M16.3-16.2c0,5.4,0,10.7,0.1,16.2c-1.7,0-3.3,0-5.1,0c0-1.6,0-3.2,0-5c-8.6,0-17,0-25.7,0.1c0,1.6,0,3.3,0,5
				c-3.4,0-6.6,0-9.9,0c0-1.6,0-3.2,0-5c1.6,0,3.2,0,5.2,0c0-2,0-3.7,0-5.5l-0.1,0.1c8.5,0,16.9,0,25.7-0.1c0-2,0-3.8,0-5.8
				C9.9-16.1,13.1-16.1,16.3-16.2L16.3-16.2z"/>
		</g>
	</g>
</g>
<g id="Ebene_4" class="st0">
	<rect x="-10.1" y="10.9" class="st4" width="164.6" height="47.4"/>
	<text transform="matrix(1 0 0 1 -10.0825 40.8815)" class="st1 st5 st6">SHOP </text>
</g>
<g id="Ebene_12">
	<g>
		<path d="M35.9,27.7c0-1.3,0-2.7,0-4.3c13.5,0,26.8-0.1,40.4-0.1c0-1.6,0-3,0-4.7c1.5,0,2.8,0,4.2,0c0-1.7,0-3.1,0-4.7
			c1.6,0,3.1,0,4.7,0c0.1-1.6,0.2-2.9,0.2-4.3c1.4-0.1,2.6-0.1,4.1-0.2c0-3.1,0-6.1,0-9.3c1.6,0,3,0,4.7,0c0,1.5,0,2.9,0,4.5
			c1.6,0,2.9,0,4.4,0c0-1.5,0-2.9,0-4.5c1.6,0,3,0,4.6,0c0,1.4,0,2.8,0,4.4c3.1,0,6,0,9.1,0c0.1-1.5,0.1-2.9,0.2-4.5
			c3,0,5.8,0,8.7,0c0,1.5,0,2.8,0,4.5c-1.4,0-2.9,0-4.5,0c0,1.7,0,3,0,4.7c-3,0-5.9,0-9,0c0,1.6,0,2.9,0,4.4c2.8,0,5.7,0,8.7,0
			c0,4.6,0,9.1,0,13.7c-5.8,0-11.6,0-17.7,0c0,3.2,0,6.2,0,9.5c-1.6,0-2.9,0-4.3,0c0,1.5,0,2.9,0,4.3c5.9,0,11.7,0,17.8,0
			c0,1.6,0,3.1,0,4.7c1.6,0.1,2.9,0.2,4.3,0.2c0,3,0,5.8,0,8.7c-1.3,0-2.5,0-4,0c0-1.3,0-2.6,0-4c-6.2,0-12.1,0-18.1,0
			c0,1.4,0,2.7,0,4.2c4.3,0,8.6,0,13.1,0c0,1.6,0,3.1,0,4.7c1.7,0,3.1,0,4.6,0c0,1.6,0,3.1,0,4.7c-2.8,0-5.6,0-8.7,0
			c0-1.5,0-2.9,0-4.5c-4.7,0-9.1,0-13.8,0c0-1.6,0-3.1,0-4.7c-1.6-0.1-2.9-0.2-4.3-0.2c-0.1-1.4-0.1-2.6-0.2-4
			c-16.4,0-32.8,0.1-49.4,0.2c0,2.9,0,5.8,0,8.8c-7.7,0-15.1,0-22.8,0.1c0,1.6,0,3.1,0,4.7c-1.5,0-2.7,0-4.2,0c0,1.5,0,2.8,0,4.2
			c-1.6,0-3,0-4.6,0c0-2.8,0-5.7,0-8.7c1.4,0,2.8,0,4.5,0c0-1.6,0-3.1,0-4.8c6.1,0,12,0,18.1,0c0-1.5,0-2.8,0-4.2
			c-7.4,0-14.9,0-22.6,0.1c0,1.2,0,2.5,0,4c-1.5,0-2.7,0-4.1,0c0-2.8,0-5.7,0-8.7c2.8,0,5.6,0,8.7,0c0-1.6,0-3.1,0-4.8
			c4.6,0,8.9,0,13.4,0c0-1.5,0-2.7,0-4.3c1.7,0,3.3,0,4.8,0l-0.1-0.1c0,3,0,6,0,9C47.9,46.1,68.7,46,89.8,46c0-4.6,0-9.1,0-13.7
			c1.7,0,3.1,0,4.7,0c0-3,0-5.9,0-9.1c6.1,0,12,0,17.9,0c0-1.7,0-3.2,0-4.8c-3,0-5.8,0-8.9,0c0-3.1,0-5.9,0-8.8c-3.2,0-6,0-9.1,0
			c0,1.5,0,2.8,0,4.2l0.1-0.1c-1.5,0-3.1,0-4.9,0c0,1.8,0,3.3,0,4.9c-1.5,0-2.7,0-4.2,0c0,1.6,0,3.1,0,4.8c-1.7,0-3.2,0-4.8,0
			c0,1.5,0,2.8,0,4.2c-15,0-29.8,0.1-44.7,0.1L35.9,27.7z"/>
		<path d="M26.9,37.3c0-1.5,0-3,0-4.8c-7.6,0-15.1,0-22.7,0.1c0-1.6,0-3,0-4.7c1.4,0,2.9,0,4.5,0c0-1.6,0-2.9,0-4.4
			c-1.4,0-2.8,0-4.4,0c0-1.6,0-3.1,0-4.6c4.4,0,8.8,0,13.5,0c0,1.5,0,2.9,0,4.6c3.1,0,5.9,0,9,0c0.1,1.5,0.1,2.8,0.2,4.4
			c3.1,0,6,0,9,0l-0.1-0.1c0,1.5,0,3.1,0,4.8c-1.7,0-3.1,0-4.8,0c0,1.6,0,3.1,0,4.7c-1.6,0-2.9,0-4.2,0L26.9,37.3z"/>
		<path class="st2" d="M26.8,37.2c1.3,0,2.7,0,4.2,0c0-1.6,0-3.1,0-4.7c1.6,0,3.1,0,4.8,0c0-1.7,0-3.3,0-4.8
			c14.8,0,29.7-0.1,44.7-0.1c0-1.4,0-2.7,0-4.2c1.6,0,3,0,4.8,0c0-1.7,0-3.2,0-4.8c1.5,0,2.7,0,4.2,0c0-1.6,0-3,0-4.9
			c1.8,0,3.3,0,4.9,0c0,1.5,0,3.1,0,4.7c1.6,0,2.8,0,4.3,0c0-0.8,0-1.5,0-2.2c0-0.8-0.1-1.5-0.1-2.4c-1.5,0-2.9,0-4.2,0
			c0-1.3,0-2.7,0-4.2c3,0,5.9,0,9.1,0c0,2.9,0,5.8,0,8.8c3.1,0,5.9,0,8.9,0c0,1.6,0,3.1,0,4.8c-5.8,0-11.7,0-17.9,0c0,3.1,0,6,0,9.1
			c-1.7,0-3,0-4.7,0c0,4.6,0,9.1,0,13.7c-21,0.1-41.8,0.1-62.9,0.2C26.9,43.2,26.8,40.2,26.8,37.2z"/>
		<path d="M94.3,13.8c1.3,0,2.7,0,4.2,0c0,0.9,0.1,1.6,0.1,2.4c0,0.7,0,1.4,0,2.2c-1.5,0-2.7,0-4.3,0C94.4,16.8,94.4,15.2,94.3,13.8
			C94.3,13.7,94.3,13.8,94.3,13.8z"/>
	</g>
</g>
</svg>
