<?xml version="1.0" encoding="utf-8"?>
<!-- Generator: Adobe Illustrator 23.0.6, SVG Export Plug-In . SVG Version: 6.00 Build 0)  -->
<svg version="1.1" id="Ebene_1" xmlns="http://www.w3.org/2000/svg" xmlns:xlink="http://www.w3.org/1999/xlink" x="0px" y="0px"
	 viewBox="0 0 119 62.5" style="enable-background:new 0 0 119 62.5;" xml:space="preserve">
<style type="text/css">
	.st0{display:none;}
	.st1{display:inline;}
	.st2{fill:#FFFFFF;}
	.st3{fill:#1D1D1B;}
	.st4{display:inline;fill:none;}
	.st5{font-family:'LomoWebPixelLTStd-4';}
	.st6{font-size:60px;}
	.st7{display:inline;fill:#FF4DFF;}
</style>
<g class="st0">
	<g class="st1">
		<path d="M-92,91.7c-0.8-0.1-1.6-0.2-2.4-0.3c-2.8-0.3-4.6-1.3-4.7-2.6c0-1.2,0.1-2.4,0.1-3.6c0-0.3-0.2-0.5-0.2-0.8
			c0-0.4-0.3-0.8,0.1-1.2c1.5-1.2,0.7-2.3-0.1-3.5c-0.3-0.5-0.1-1-0.1-1.5c0.4-0.1,0.8-0.1,1.1-0.2c1.6-0.2,1.7-0.3,1.1-0.9
			c-0.4-0.4-0.9-0.9-0.9-1.3c-0.1-0.6-0.5-1.3,2.3-1.4c-3.3-1.1-2.7-2.3-1.9-3.6c0.5,0,0.9,0,1.2,0c-0.5-1.2-1-2.4-1.5-3.5
			c-0.7,0-1.2,0-1.7,0c0.6-0.7,1.2-1.4,1.8-2.1c0.4,0.1,0.8,0.1,1.3,0.2c0.1-0.1,0.3-0.2,0.3-0.3c-0.3-0.5-0.5-1.1-0.9-1.6
			c-0.6-0.7-0.4-1.3,0.4-1.9c1.2-0.8,0.8-1.6-0.1-2.4c-0.2-0.2-0.5-0.4-0.5-0.6c-0.1-2.9-0.1-5.8-0.1-8.8c0.7,0,1-0.1,1.4-0.1
			c0-0.1,0.1-0.2,0-0.2c-0.8-0.4-1.3-0.7-0.5-1.2c0.3-0.2,0.3-0.6,0.2-0.9c-0.6-1.2-1.2-2.5-2-3.7c-0.6-0.8-0.1-1.6,0.8-2.2
			c1.3-0.9,0.9-1.8,0.2-2.7c-0.4-0.5-0.4-0.8,0.3-1.2c1.2-0.7-0.3-1.4-0.1-2.1c-2.2-0.9-1.2-2.1-1.1-3.1c0.1-0.9-0.1-1.8-0.4-2.7
			c-0.1-0.3-0.4-0.6-0.2-0.8c1.3-1.4,0.3-2.8,0.7-4.3c0.3-1.2,0.1-2.4,0.1-3.6c0-0.2-0.1-0.3,0-0.5c0.8-0.9,0.6-1.8,0.4-2.7
			c-0.3-1.5,0.1-3,0-4.5c0-1.2-0.4-2.5-0.4-3.7c0-0.8,0.4-1.5,0.8-2.3c0.3-0.7,0.8-1.3-0.5-2C-98.5,5-98.3,4.3-98,3.7
			c0.5-0.8,0.9-1.7,0.4-2.5c-0.3-0.5,0.4-1.2,0.3-1.7c-0.1-0.5,0.8-1.1-0.6-1.6c-0.5-0.2,0.1-0.9,0.4-1.3c0.8-1.2,0.7-2.5-0.5-3.6
			c-0.1-0.1-0.3-0.2-0.2-0.3c1.4-1.5-1.3-2.7-0.6-4.2c0.2,0,0.6,0,1.2,0c0.4-1.1,0.6-2.2-0.4-3.3c-0.3-0.3-0.4-0.8-0.1-1.1
			c1.3-1.3,0.2-2.7,0.8-4c0.1-0.2-0.6-0.5-0.9-0.8c1.7-0.8,2.5-2.5,0.5-3.1c1.6-0.8,1-1.5,0-2.3c1.3-0.4,1.6-0.8,0.6-1.4
			c-0.1,0-0.2-0.2-0.1-0.2c0.6-0.9,0.1-1.8,0.1-2.8c0,0,0-0.1,0-0.1c0.7,0,1-0.1,0.8-0.4c-0.1-0.2-0.2-0.3-0.3-0.5
			c-0.7-0.9-1.2-1.8,0.4-2.6c0.3-0.1,0.1-0.5,0.1-0.7c0-1.2,0.3-2.5-0.2-3.7c-0.7-1.6,0.3-3.1,0.6-4.6c0.1-0.5,0.1-1-0.2-1.5
			c-0.4-0.7-0.3-1.4,0.5-1.9c0.8-0.5,0.6-0.9,0.3-1.3c-0.8-1.2-1.1-2.3,0.1-3.5c0.4-0.4,0.1-1-0.3-1.4c-0.6-0.5-0.5-1-0.2-1.6
			c0.3-0.5,0.4-1.1,0.4-1.6c0.2-1.1,0.3-2.2,0.5-3.4c0.1-0.4,0.3-0.8,0.3-1.2c0-2-0.5-4,0.1-6c0.5-2-0.1-4.1,1-6.1
			c0.4-0.9-0.2-1.8-0.2-2.8c0-0.8,0.3-1.7,0.3-2.5c0.1-1.4,0.2-2.7,0.2-4c0-0.4,0.2-0.8,0.2-1.2c0-0.9,0-1.8,0-2.7
			c0-0.4-0.3-0.9,0-1.3c1.2-1.4,0.5-2.8,0.7-4.2c0.3-1.6,0.1-3.2,0.1-4.8c0.1-2.4,0.2-4.8,0.3-7.1c0,0-0.1-0.1,0-0.1
			c1.3-1.7,0.3-3.3,0.1-5c-0.1-1.1-0.3-2.2-0.3-3.3c0.1-3.2-0.3-6.4-0.1-9.5c0-0.4-0.2-0.9-0.2-1.3c0-0.5,0.1-1,0.2-1.5
			c0-0.1,0.2-0.2,0.1-0.3c-1.1-2,0.4-4.1-0.5-6.1c-0.3-0.7,0.2-1.5,0.3-2.3c0-0.6-0.1-1.2-0.2-1.8c-0.4-2.2-0.8-4.3-1.1-6.5
			c-0.2-1.5-0.2-3-0.3-4.4c0-0.6-0.1-1.2-0.3-1.8c-0.2-0.7-0.5-1.3,0.3-1.9c0.3-0.2,0.3-0.5,0.1-0.8c-0.9-1.2-0.8-2.5-0.6-3.7
			c0-0.2,0.1-0.3,0.1-0.5c-0.1-1.9-0.1-3.9-0.2-5.8c0,0,0-0.1,0-0.1c1.2-1.5-0.1-3,0.1-4.5c0.2-1.5-0.5-2.9-0.3-4.4
			c0.2-2.1-1-4.2,0.2-6.3c0.1-0.2-0.2-0.5-0.2-0.7c-0.7-1.8-1.2-3.5-0.4-5.3c0.5-1.2-0.3-2.4,0.1-3.7c0.7-2.1-0.8-4.2,0.6-6.4
			c0.2-0.3,0.1-0.6,0-0.9c-0.9-1.6-0.3-3.3-0.4-5c0-1.8,0.6-3.5,0.7-5.3c0.1-0.9-0.3-1.8-0.3-2.7c0.1-1.5,0.4-3.1,0.5-4.6
			c0.1-0.7,0.2-1.4,0.2-2.1c0-1.8-0.2-3.6-0.2-5.4c0.1-1.8,0.5-3.6,0.5-5.4c0.1-2.2-0.1-4.3-0.1-6.5c0-1.5,0.2-3.1,0.2-4.7
			c0-0.5-0.1-1.1-0.2-1.6c-0.1-2.4-0.2-4.7-0.4-7.1c-0.2-2.5-0.6-5-1-7.6c-0.2-1.2-0.7-2.5-0.3-3.7c0.3-1.3-0.1-2.6-0.1-3.9
			c0.1-2.7,0-5.4-0.1-8.1c0-0.7-0.3-1.4-0.2-2.1c0.4-3.1,0.3-6.2-0.3-9.3c-0.3-1.7-0.1-3.4,0-5c0-0.3-0.2-0.6,0.8-0.8
			c0.2,0,0.4-0.3,0.4-0.4c0.3-1.3,1.4-2.5,1.3-3.9c-0.2-1.6,1.3-3,2-4.5c0.2-0.3,1-0.6,1.6-0.9c2.1-1,2.5-2.2,2.7-3.4
			c0.1-0.6,0.1-1.2,1.3-1.7c0.8-0.4,1.6-0.9,1.3-1.5c-0.1-0.3,0.4-0.7,0.7-1.1c3.2,0.5,2.3,1.9,3.8,2.7c3.6-0.2,7.1-0.4,10.7-0.6
			c3.2-0.2,6.3-0.4,9.5-0.5c9.7-0.2,19.4-0.7,29.1-1.3c9.6-0.5,19.1-1.1,28.8-1.4c7.9-0.2,15.8-0.4,23.7,0c2.9,0.1,5.8-0.1,8.7-0.1
			c7.5,0.1,14.9,0.2,22.4,0.2c3.1,0,6.2,0,9.2,0c5.7,0,11.4,0,17.1,0c6.1,0,12.1,0,18.2,0.1c3.1,0.1,6.1,0.1,9.2,0.1
			c1.7,0,3.5,0.2,5.2,0.2c1.6,0,2.9,0.5,4.8,0.1c1.5-0.3,3.6-0.1,5.5,0c1.8,0,3.5,0.2,5.3,0.2c1.8,0,3.5,0.1,5.3,0.1
			c3,0,5.9,0,8.9,0c0.3,0,0.8,0,1,0.1c0.9,0.4,1.9,0.3,2.9,0.1c1.3-0.2,2.4-0.2,3.9-0.1c1.7,0.1,3.6,0.5,5.5,0
			c0.8-0.2,1.8-0.1,2.8-0.1c3,0,5.9,0.1,8.9,0.1c4.4,0,8.8,0.3,13.3,0c1.6-0.1,3.3,0.2,4.9,0.2c1.5,0,3.1,0,4.7,0
			c5.2-0.1,10.4-0.3,15.7-0.4c3.4-0.1,6.9-0.1,10.3,0c2,0,3.3,0.6,4.4,1.4c1.5,1.1,1.5,2.1,1.2,3.2c-0.1,0.4-0.5,0.7-1,1
			c-1.1,0.7-1.8,1.5-1.7,2.3c0.4,3.1,0.8,6.1,1.2,9.2c0.5,3.3,0.9,6.5,0.3,9.8c-0.4,2.2-0.1,4.4-0.2,6.6c-0.1,1.3-0.3,2.6-0.4,4
			c-0.1,0.7,0,1.4-0.1,2.1c-0.1,0.3-0.2,0.7-0.7,1c-1,0.5-0.7,1-0.1,1.5c0.4,0.4,0.7,0.8,0.7,1.2c0,1.1,0,2.3-0.3,3.4
			c-0.3,0.9-0.1,1.8-1,2.6c-0.4,0.4-0.1,0.9,0,1.5c0.4-0.1,0.6-0.2,1-0.4c0.1,0.3,0.4,0.6,0.2,0.7c-2,0.8-1.3,1.7-1.3,2.6
			c0,3.7,0.2,7.4,0.2,11.1c0,2.5-0.2,4.9-0.2,7.4c0,1.9-0.1,3.8-0.1,5.7c0,2.4,0,4.8,0,7.2c0,1.5-0.3,3-0.3,4.4
			c-0.1,2.6-0.1,5.1-0.1,7.7c0,2,0,3.9,0.1,5.8c0,0.9,0.5,1.7,0.7,2.5c0.1,0.4,0.2,0.8,0.2,1.1c0,0.8-0.2,1.5-0.1,2.3
			c0.5,4.8,1.1,9.6,1.5,14.4c0.2,2.1,0,4.2,0,6.3c0,0.7,0.2,1.4,0.3,2.1c0.1,1.4,0.2,2.7,0.3,4.1c0,0.7-0.3,1.5-0.3,2.2
			c0.1,2.7,0.3,5.5,0.4,8.2c0.1,2.1,0,4.1,0.1,6.2c0,1,0.5,1.9,0.5,2.9c0,2.6,0,5.2,0,7.8c0,0.1,0,0.2,0,0.2
			c1.3,3.6,0.1,7.2,1.1,10.9c0.1,0.6-0.1,1.2-0.1,1.8c0,0.4-0.1,0.7-0.1,1c0.8,3.6,0.6,7.3,0.6,11c0,2.5,0.4,4.9,0.5,7.4
			c0,1-0.2,2-0.1,3c0.1,2.1,0.3,4.2,0.6,6.3c0.3,2.2,0.7,4.3,1,6.5c0.1,0.5-0.2,1.1-0.2,1.6c0.3,3.2,0.2,6.5,1.3,9.7
			c0.4,1.2,0.7,2.4,0.8,3.6c0.1,0.9-0.2,1.9-0.1,2.8c0.2,1.8,0.6,3.6,0.9,5.4c0.2,1.1,0.4,2.2,0.5,3.4c0.1,2.4,0.1,4.8,0.2,7.2
			c0.2,4.7,0.6,9.4,0.7,14.2c0,4.4-0.3,8.8-0.5,13.2c0,1.4,0,2.9,0,4.3c0,1.2,0,2.5,0,3.8c0.3-0.1,0.5-0.1,1.2-0.3
			c-0.2,0.4-0.2,0.8-0.6,0.9c-1.4,0.5-1.2,1-1.2,1.6c-0.1,2,0,4.1-0.1,6.1c-0.1,3-0.4,5.9-0.4,8.9c0,3.5,0.2,7,0.3,10.5
			c0.1,3.1,0.3,6.2,0.5,9.3c0.1,1.9,0.4,3.8,0.6,5.7c0.1,0.7,0,1.3,0.1,2c0.3,2.2,0.7,4.3,1,6.5c0.1,1,0,1.9-0.1,2.9
			c-0.1,1.9,0,3.8-0.2,5.6c-0.1,0.7,1.2,1.3,0.4,2.2c-0.6,0.7-0.1,1.5-0.1,2.3c-0.1,1.8-0.3,3.5-0.2,5.2c0.1,4.6,0.4,9.1,0.4,13.7
			c0,2.7-0.4,5.4-0.6,8.1c-0.2,2.6-0.6,5.2-0.5,7.8c0.1,1.2,0.1,2.5-0.3,3.7c0,0.1-0.1,0.2,0,0.2c2.3,0.7,0.6,1.8,1.6,2.7
			c1,0.9,1.2,1.9,2,2.8c1,1.2-0.9,2-2.1,3c-2-0.1-2.9,0.7-4.5,1c-1.3,0.2-2.5,0.7-3.5,1.1c-1.7,0.7-3.1,1.5-4.9,2.1
			c-1.7,0.6-3.8,1-5.7,1.4c-0.2,0.1-0.5,0.1-0.8,0.1c-3.4-0.1-6.9-0.2-10.3-0.2c-0.6,0-1.3-0.1-1.9,0c-4.6,0.6-9.1,0.3-13.6,0.1
			c-2.5-0.1-5,0-7.6,0c-1.4,0-2.8,0.1-4.2,0.1c-0.5,0-1.3,0-1.6-0.1c-2.5-0.9-5.7-0.6-8.6-0.7c-4.1-0.2-8.2-0.2-12.3-0.3
			c-1.5,0-3.1-0.3-4.6-0.4c-0.3,0-0.5-0.1-0.8-0.1c-3.7,0.1-7.5,0.1-11.2,0.2c-1.7,0.1-3.3-0.3-5.1,0c-1.6,0.2-3.5,0.1-5.3,0.2
			c-1.8,0-3.5,0-5.3,0.1c-4.9,0.1-9.7,0.2-14.5,0.3c-0.9,0-1.9-0.1-2.8-0.1c-2,0-4.1-0.1-6.1-0.1c-3.3,0-6.5,0-9.8,0
			c-1.5,0-2.9,0.2-4.4,0.2c-6.9,0-13.8,0.1-20.7,0.1c-3.7,0-7.5-0.1-11.2-0.2c-1.6,0-3.1,0-4.7,0c-4.4-0.1-8.9-0.3-13.3-0.5
			c-1.1,0-2.2,0-3.3,0c-5.4-0.1-10.8-0.2-16.2-0.3c-5.5-0.1-11-0.2-16.4-0.5c-3.1-0.1-6.2-0.5-9.3-0.6c-4.4-0.2-8.9-0.4-13.3-0.5
			c-7.7-0.2-15.4-0.3-23.2-0.4c-4.4-0.1-8.9-0.1-13.3-0.1c-1.2,0-1.9,0.2-2.8,0.6c-0.9,0.4-2.5,0.7-3.8,0.9c-3.7,0.4-7.4,0.1-11-0.2
			c-1.9-0.2-3.8-0.3-5.8-0.5c-3.3-0.3-3.7-0.5-4-1.9C-91.9,92-92,91.9-92,91.7z M203.9,88.3c0.7-0.4,0.8-0.6,1.1-0.6
			c1.8-0.4,1.8-1,1.8-1.7c-0.1-1.2,0.3-2.3,0.6-3.5c0.3-1.6,0.3-3.2,0.3-4.7c0-0.4,0.1-0.8,0.1-1.3c0.1-1.3,0.1-2.5,0.2-3.8
			c0-0.1-0.1-0.2-0.1-0.2c0-0.3,0.1-0.6,0.2-0.9c0.1-0.3,0.4-0.5,0.4-0.8c0-1.2-0.1-2.5-0.2-3.7c-0.1-1.3-0.3-2.6-0.3-3.9
			c-0.1-1.1,0.1-2.2,0-3.4c-0.2-1.7-1.1-3.5-0.5-5.2c0.6-1.6-0.2-3.2,0.6-4.8c0.6-1.2,0.1-2.5,0.1-3.7c0-1.8-0.1-3.7-0.1-5.5
			c0-1.3,0-2.6,0-4c0-0.3,0.1-0.6-0.1-0.9c-0.7-1.4-1.8-2.8-0.6-4.2c0.2-0.2,0.1-0.5,0-0.7c-0.8-2.1-0.7-4.2-0.9-6.3
			c-0.2-2.7-0.3-5.5-0.4-8.2c-0.1-3-0.1-6.1-0.2-9.1c-0.1-3.2-0.2-6.5-0.1-9.7c0.1-2.8,0.5-5.7,0.5-8.5c0-1.9,0.5-3.7,0.8-5.6
			c0.1-0.5,0.9-1.1,0.5-1.5c-0.8-0.8,0.1-1.5,0.1-2.3c0-0.2,0.4-0.4,0.2-0.6c-1.2-1-0.6-2-0.7-3c-0.1-0.9-0.3-1.9,0-2.8
			c0.5-1.2,0.6-2.5,0.2-3.7c-0.3-0.9-0.1-1.9-0.1-2.8c0-1,0-2.1,0-3.2c0-0.3-0.2-0.6,0.1-0.8c0.7-0.4,0.5-0.9,0.5-1.3
			c0-1-0.3-2.1-0.7-3.1c-0.5-1.4-0.4-2.8-0.5-4.2c0-0.9,0.2-1.9,0.3-2.8c0-0.5-0.2-1.1-0.1-1.6c0.9-2.5-1.1-4.9,0-7.4
			c0-0.1,0-0.2-0.1-0.2c-0.9-0.5-0.5-1.1-0.6-1.7c-0.1-1.4-0.2-2.8-0.4-4.2c-0.3-1.8-0.8-3.5-1.1-5.3c-0.4-2.5-0.5-5-0.8-7.5
			c-0.3-2.2-1.1-4.5-1-6.7c0.2-2.1-0.7-4.1,0.1-6.1c0.1-0.1,0-0.3-0.1-0.5c-1-2.2-1.6-4.5-0.9-6.7c0.2-0.5,0.2-1.1-0.1-1.6
			c-0.8-1.4-0.4-2.9-0.3-4.3c0-0.4,0.1-0.8,0-1.2c-0.1-0.6-0.5-1.2-0.5-1.8c0.1-2.4,0.4-4.9,0-7.3c-0.4-2.1-0.3-4.3-0.4-6.4
			c0-0.7,0-1.4-0.1-2.1c-0.1-1.3-0.5-2.6-0.5-3.9c-0.1-1.8,0-3.6,0-5.5c-0.1-1.7-0.3-3.4-0.4-5.1c0-0.8,0.1-1.7,0.1-2.5
			c0-0.5-0.4-1.1-0.4-1.6c-0.1-1.6-0.1-3.2-0.2-4.8c0-0.9,0-1.7,0-2.6c0-1.6-0.1-3.2-0.1-4.8c0-0.7,0.1-1.5-0.1-2.2
			c-0.3-1.1-0.6-2.1,0.7-3.2c0.1-0.1,0.1-0.2,0-0.3c-1.2-0.8-0.9-1.7-0.8-2.6c0.1-0.3,0.1-0.7,0-1c-0.2-1.4-1.1-2.7-0.6-4.1
			c0.5-1.4-0.1-2.8-0.2-4.2c-0.2-1.9-0.2-3.9,0.3-5.8c0.1-0.3,0.2-0.6,0-0.8c-1.4-1.5-1.2-3-0.7-4.6c0.1-0.3,0.3-0.5,0.3-0.8
			c-0.4-1.7,0.1-3.4-1.2-5.1c-0.3-0.4-0.4-0.9-0.1-1.3c0.8-1,0.2-1.9,0.1-2.8c-0.3-2.2-1.3-4.4,0.2-6.6c0.1-0.2,0.1-0.5,0-0.7
			c0-0.8-0.2-1.5-0.2-2.3c0-0.7,0.2-1.4,0.2-2.1c0-1.8,0-3.5,0-5.2c0-0.2,0.1-0.5,0.2-0.7c0.3-1.1,0.3-2.1-0.4-3.2
			c-0.4-0.6,0.1-1.4,0.1-2c0.1-0.9,0.4-1.8,0-2.6c-0.6-1.2-0.6-2.3,0-3.4c0.5-0.9,0.8-1.8,0-2.8c-1-1.2-1.2-2.4-0.4-3.6
			c0.9-1.3-0.3-2.5,0.5-3.8c0.5-0.8,0-1.8,0.1-2.7c0.1-0.9-1-1.7,0.4-2.6c0.1,0,0-0.1,0-0.2c-0.2-0.8-0.4-1.5-0.6-2.3
			c-0.2-1-0.9-2-0.5-2.9c0.5-1.3,0.4-2.4-0.1-3.7c-0.1-0.2-0.1-0.4-0.1-0.6c0.1-1.7,0.2-3.3,0.3-5c0-0.6-0.3-1.2-0.3-1.7
			c0-1.6,0.1-3.1,0.2-4.7c0.1-0.8,0.7-1.6,0.5-2.4c-0.4-1.7-0.6-3.3,0.4-5c0.1-0.1,0.1-0.2,0-0.4c-0.7-1.6-0.3-3.1,0.5-4.7
			c0.3-0.5-0.1-1.1-0.1-1.6c0-0.8,0.1-1.5,0.1-2.3c0-0.5,0.3-0.9,0.2-1.4c-0.4-1.8-0.6-3.6-1.5-5.4c-0.3-0.6,0.3-1.1,0.1-1.7
			c-0.3-0.9-0.3-1.8-0.4-2.7c-0.2-1.2-0.4-2.5-0.8-3.7c-0.3-1.1-2-1.8-4.1-1.9c-3.3-0.1-6.7-0.1-10-0.1c-3.5,0-6.9-0.1-10.4-0.1
			c-3.8,0.1-7.6-0.1-11.4-0.2c-6.1-0.2-12.3-0.1-18.4-0.2c-8.3-0.1-16.6-0.2-24.9-0.3c-1,0-2.1,0-3.1,0c-4.7-0.1-9.3-0.3-14-0.4
			c-3.7-0.1-7.5,0-11.2,0c-4.3,0-8.6-0.2-12.9-0.2c-8.5,0-17,0-25.5-0.1c-1.2,0-2.4-0.1-3.6-0.2c-3.9-0.2-7.9-0.4-11.9-0.6
			c-1.3-0.1-2.6-0.1-3.9-0.1c-3.8,0-7.7,0-11.5,0c-1.8,0-3.6,0-5.4,0c0-0.1,0-0.2,0-0.3c2.3,0,4.6,0,6.9-0.1c-0.3-0.2-0.6-0.2-1-0.2
			c-5.9,0-11.7,0-17.6,0c-0.6,0-1.2,0.1-1.7,0c-3.8-0.4-7.6,0-11.4,0c-5.2,0.1-10.4,0.4-15.5,0.5c-3.9,0.1-7.8,0.1-11.7,0.2
			c-6.2,0.2-12.5,0.7-18.7,0.1c-0.3,0-0.6,0-0.8,0c-3.2-0.1-6.3-0.1-9.5-0.2c-2.8-0.1-5.5-0.2-8.6-0.3c0,2.9-0.1,5.7,0.1,8.4
			c0.2,3.4,0.8,6.8,1,10.2c0.2,2.6,0.2,5.1,0.2,7.7c0.1,2.3,0.1,4.5,0.2,6.8c0.1,1.5,0.1,3,0.2,4.6c0.2,1.6,0.6,3.2,0.7,4.9
			c0.2,2.9,0.3,5.8,0.4,8.7c0.1,1.6,0,3.2,0.1,4.8c0.1,1.7,0.4,3.3,0.4,5c0,2.6-0.3,5.2-0.4,7.8c-0.1,2-0.1,4-0.2,6.1
			c-0.2,2.4-0.4,4.8-0.5,7.2c-0.2,3.1-0.3,6.2-0.5,9.2c-0.1,1.5-0.1,3-0.2,4.6c-0.1,1.6-0.3,3.3-0.2,4.9c0.1,4.1,0.3,8.1,0.5,12.2
			c0.2,3.4,0.5,6.8,0.6,10.2c0.1,3.8,0.1,7.6,0.2,11.4c0,2,0,4,0.2,6c0.2,2.6,0.7,5.3,1,7.9c0.2,2.3,0.4,4.7,0.5,7
			c0.1,2.1,0.3,4.3,0.3,6.4c0.1,3,0,5.9,0.1,8.9c0.1,4.3,0.5,8.6,0.6,12.9c0.1,2.8-0.1,5.7-0.4,8.5c-0.1,1,0.6,2.1-1,3
			c0.3,0.4,0.8,0.8,0.8,1.1c-0.1,1.6-0.2,3.2-0.4,4.8c-0.4,3.9-1,7.9-1.4,11.8c-0.3,3.3-0.5,6.5-0.8,9.8c-0.2,2.5-0.6,5-0.7,7.5
			c-0.1,1.6,0.2,3.1,0,4.7c-0.2,1.9,0.5,3.8-1.2,5.7c-0.2,0.2-0.1,0.4,0.1,0.6c0.9,0.7,0.5,1.4,0.4,2.1c-0.2,2.1-0.7,4.3-0.8,6.4
			c-0.1,2.1,0,4.2,0,6.3c0,0.8,0,1.6-0.1,2.3c-0.2,1.9-0.6,3.9-0.8,5.8c-0.1,1.2-0.1,2.5-0.2,3.8c-0.1,0.7,0.2,1.5-0.5,2
			c-0.9,0.8,0.3,1.3,0.2,2c-0.3,1.7,0,3.3-0.1,5c0,0.6-0.5,1.2-0.6,1.8c-0.1,0.4-0.2,0.9,0.3,1.2c0.8,0.7,0.6,1.3,0.1,1.9
			c-0.2,0.3-0.5,0.5-0.5,0.8c0,1.5,0.1,3.1,0,4.7c-0.1,0.9,1,1.7,1,2.5c0.1,1.9,0,3.8-0.1,5.7c0,0.4-0.5,0.9-0.8,1.4
			c1.4,0.7,1.2,1.6,0.2,2.4c-0.6,0.4-0.7,0.8-0.6,1.2c0.3,0.8,0.8,1.6,0.9,2.4c0.1,1.2,0,2.3-0.1,3.5c0,0.3-0.2,0.6-0.5,0.9
			c-0.7,0.5-0.5,0.9-0.2,1.3c0.4,0.8,0.6,1.6,0.7,2.4c0.1,0.9,0.1,1.9-0.1,2.8c-0.3,1.2,0.4,2.4-1,3.6c-0.1,0.1-0.1,0.3,0,0.5
			c1,0.9,1,0.9,0.7,1.5c-0.2,0.5-0.2,1-0.3,1.4c0.1,0,0.2,0,0.3,0c0.2-0.2,0.3-0.4,0.5-0.7c0.3,1.2,0.9,2.2-0.4,3.2
			c-0.3,0.2-0.1,0.7,0.3,1c0.6,0.4,0.7,0.6,0.4,1.1c-0.3,0.5-0.2,1-0.1,1.4c0,0.4,0.3,0.7,0.3,1.1c0,0.2-0.6,0.5-0.4,0.7
			c1.6,1.1,0.8,2.3,1,3.5c0.6,2.6,0.4,5.2,0.6,7.8c0,0.8-0.2,1.6-0.2,2.4c0,1.9,0.2,3.7,0.1,5.6c-0.1,0.9-0.4,1.8-0.1,2.8
			c0.3,1,1,2.2-0.6,3.3c-0.1,0.1-0.1,0.2,0,0.2c1.5,0.2,0.7,0.8,0.7,1.2c0,0.5-0.6,0.9-0.7,1.3c-0.1,0.8-0.6,1.7,0,2.3
			c0.8,0.8,0.7,1.5,0.2,2.3c-0.2,0.3-0.3,0.5-0.2,0.8c0.3,0.9,0.5,1.8,0.3,2.8c-0.3,1.8-0.2,3.6-0.3,5.4c-0.1,0.9-0.2,1.8-0.3,2.7
			c-0.1,1.1,0.5,1.3,3,1.4c4,0.1,8,0.2,12,0.3c2.4,0.1,4.7,0.2,7,0.4c-1.8,0.6-3.6,1-5.6,0.6c-1.2-0.2-1.8-0.1-2.8,0.4
			c4.4,0.3,8.3,0.4,11.9-0.9c0.6,0.5,0.5,1.4,2.7,1c-0.1-0.3-0.3-0.5-0.5-0.9c0.7-0.1,1.2-0.3,1.7-0.2c3.6,0,7.3,0,10.9,0.1
			c3.5,0.1,7.1,0.2,10.6,0.4c3.4,0.2,6.8,0.4,10.2,0.6c2.4,0.2,4.7,0.3,7.1,0.5c2.7,0.3,5.7,0.1,8.6,0.2c7.1,0.1,14.2,0.3,21.3,0.5
			c7.4,0.2,14.7,0.4,22.1,0.5C48.6,86,54.4,86,60.2,86c4.4,0,8.8-0.1,13.1-0.2c2,0,3.9-0.1,5.9-0.1c4.8,0,9.5,0.2,14.2-0.1
			c2.5-0.1,4.9,0,7.3-0.1c4.7-0.1,9.5-0.1,14.2-0.2c2.6,0,5.2-0.1,7.8-0.2c3.4,0,6.9-0.1,10.3-0.1c1.1,0,2.2-0.1,3.3-0.2
			c1,0,2-0.1,3.1-0.1c0.7,0,1.7-0.2,2,0.3c0,0,1,0.1,1.3,0c1.4-0.4,2.6-0.1,3.9,0.1c0.3,0,0.7,0.1,1,0.1c3.1,0,6.2,0,9.2,0
			c2.4,0,4.9-0.3,7.1,0.3c0.3,0.1,0.7,0,1.1,0c5.7,0.2,11.5,0.2,17.2,0.5c3.3,0.2,6.3,0.1,9.4-0.4c2.6-0.4,4.8-0.5,7.4,0.2
			C201.5,86.4,203.5,86.9,203.9,88.3z M-10.5,85.5c0,0.5,0.6,0.6,1.6,0.7c2.5,0.1,4.9,0.3,7.4,0.3c0.9,0,1.8-0.2,2.9-0.2
			c-1.9-1.5-2.3-1.5-5.4-0.8c-0.7,0.2-1.7,0.1-2.5,0.2c-0.4-0.3-0.7-0.5-1-0.7C-8.6,85.2-9.6,85.4-10.5,85.5z M25.9,86
			c-0.6,0.5-0.4,0.8,0.6,0.9c1.4,0.1,2.9,0.1,4.4,0.1c1.3,0,2.2-0.3,2.4-0.9c-1.3-0.2-2.5-0.2-3.5,0.1c-1,0.3-1.8,0.3-2.7-0.1
			C26.8,86,26.4,86,25.9,86z M-39,84.1c-0.9-0.1-1.6-0.3-2.2-0.3c-1.8,0.1-3.6,0.2-5.3,0.3c-0.1,0-0.2,0.1-0.5,0.4
			c2.6,0,4.9,0,7.2,0C-39.6,84.5-39.4,84.3-39,84.1z M92,87c0.2,0,0.4,0,0.6,0c-0.1-0.2,0-0.6-0.2-0.6c-1.1-0.2-2.3-0.6-3.9-0.1
			C91.4,86.5,91.4,86.5,92,87z M-91.6,8.2c1.9-0.5,1.9-0.5,0.4-1.1c-0.2,0.1-0.5,0.2-0.5,0.4C-91.8,7.7-91.7,7.9-91.6,8.2z M8,85.5
			c0.1,0.8,0.1,0.8,2.1,0.9C9.2,86,8.6,85.7,8,85.5z M-34.3,84.6c-1.1-0.3-2.2-0.5-3.7-0.1C-36.7,84.9-35.5,84.6-34.3,84.6z
			 M225.8-61c0.1,0,0.2,0,0.4,0c0.1-0.6,0.2-1.2,0.3-1.8c-0.2,0-0.5,0-0.7,0C225.8-62.2,225.8-61.6,225.8-61z M2.2,85.5
			c0.4,0.4,0.7,0.6,1.1,1.1C3.9,85.9,3.8,85.6,2.2,85.5z M228,35.7c0.1,0,0.1,0,0.2,0c0-0.5,0-1,0-1.6c-0.1,0-0.1,0-0.2,0
			C228,34.7,228,35.2,228,35.7z M-28.6,84.4c-0.4-0.1-0.7-0.3-0.8-0.3c-0.3,0-0.6,0.2-0.6,0.3c0,0.1,0.4,0.2,0.6,0.3
			C-29.3,84.6-29,84.5-28.6,84.4z M227.1-47.4c-0.1,0-0.3,0-0.5,0c-0.1,0.3-0.2,0.6-0.3,0.9c0.1,0,0.3,0,0.4,0
			C226.9-46.8,227-47.1,227.1-47.4z M223.7-78.7c-0.1,0-0.2,0-0.4,0c0.1,0.3,0.1,0.6,0.2,0.9c0.1,0,0.3,0,0.4,0
			C223.8-78.1,223.8-78.4,223.7-78.7z M218.3-257.6C218.3-257.6,218.3-257.6,218.3-257.6c0,0.3,0,0.5,0,0.8c0,0,0,0,0,0
			C218.3-257.1,218.3-257.4,218.3-257.6z M225.8-7.2c0.1,0,0.1,0,0.2,0c0-0.2,0-0.5,0-0.7c-0.1,0-0.1,0-0.2,0
			C225.8-7.6,225.8-7.4,225.8-7.2z M-96.5,58.4c0.1,0,0.2,0,0.3,0c0.1-0.1,0.2-0.3,0.2-0.4c0-0.1-0.1-0.3-0.1-0.4
			c-0.1,0-0.3,0-0.4,0C-96.5,57.9-96.5,58.2-96.5,58.4z M218.9-165.8c-0.2-0.1-0.3-0.2-0.5-0.2c-0.2,0.1-0.5,0.1-0.5,0.2
			c0.1,0.1,0.3,0.2,0.5,0.3C218.6-165.6,218.7-165.7,218.9-165.8z M-90.1-25.5c-0.2,0.2-0.3,0.2-0.3,0.3c0,0.1,0.1,0.1,0.2,0.2
			c0.2-0.1,0.4-0.1,0.4-0.2C-89.7-25.3-89.9-25.3-90.1-25.5z M-78.2,0.5c-0.1,0-0.1,0-0.2,0c0,0.2,0,0.4,0,0.7c0.1,0,0.1,0,0.2,0
			C-78.1,1-78.1,0.7-78.2,0.5z M226.6-17.2c0-0.1-0.1-0.2-0.1-0.2c-0.1,0-0.4,0.1-0.4,0.1c0,0.1,0.1,0.2,0.2,0.3
			C226.3-17.1,226.4-17.2,226.6-17.2z M228.1,31.4c-0.2,0-0.4,0-0.5,0.1c0.2,0.1,0.4,0.3,0.5,0.4C228.1,31.7,228.1,31.5,228.1,31.4z
			 M-77.2,40.6c-0.1,0-0.2,0-0.3,0c0,0.2,0,0.3,0.1,0.5c0.1,0,0.2,0,0.2,0C-77.2,40.9-77.2,40.8-77.2,40.6z M-14.5,85.2
			c0,0.1,0,0.1,0,0.2c0.4,0,0.9,0,1.3,0c0-0.1,0-0.1,0-0.2C-13.6,85.2-14,85.2-14.5,85.2z M12.5,86.5c-0.1-0.1-0.2-0.2-0.3-0.2
			c-0.2,0-0.4,0.1-0.6,0.2c0.1,0.1,0.2,0.2,0.2,0.2C12.1,86.5,12.3,86.5,12.5,86.5z M133.1,86.6c0.1,0,0.3-0.1,0.4-0.1
			c-0.1,0-0.3-0.1-0.4-0.1c-0.1,0-0.2,0.1-0.4,0.1C132.8,86.5,133,86.5,133.1,86.6z"/>
		<path class="st2" d="M203.9,88.3c-0.4-1.5-2.4-1.9-4.6-2.5c-2.6-0.7-4.8-0.6-7.4-0.2c-3,0.5-6.1,0.5-9.4,0.4
			c-5.7-0.3-11.4-0.3-17.2-0.5c-0.4,0-0.8,0.1-1.1,0c-2.3-0.5-4.7-0.3-7.1-0.3c-3.1,0-6.2,0-9.2,0c-0.4,0-0.7-0.1-1-0.1
			c-1.3-0.2-2.5-0.4-3.9-0.1c-0.3,0.1-1.3,0-1.3,0c-0.3-0.5-1.3-0.3-2-0.3c-1,0-2,0-3.1,0.1c-1.1,0-2.2,0.1-3.3,0.2
			c-3.4,0.1-6.9,0.1-10.3,0.1c-2.6,0-5.2,0.1-7.8,0.2c-4.8,0.1-9.5,0.1-14.2,0.2c-2.4,0.1-4.8-0.1-7.3,0.1
			c-4.7,0.2-9.5,0.1-14.2,0.1c-2,0-3.9,0.1-5.9,0.1c-4.4,0.1-8.8,0.2-13.1,0.2c-5.8,0-11.6,0-17.4-0.1c-7.4-0.1-14.7-0.3-22.1-0.5
			C13.7,85.2,6.6,85-0.5,84.9c-2.9-0.1-5.9,0.1-8.6-0.2c-2.4-0.2-4.7-0.3-7.1-0.5c-3.4-0.2-6.8-0.5-10.2-0.6
			c-3.5-0.2-7-0.3-10.6-0.4c-3.6-0.1-7.3-0.1-10.9-0.1c-0.5,0-1,0.2-1.7,0.2c0.2,0.3,0.3,0.6,0.5,0.9c-2.3,0.4-2.1-0.4-2.7-1
			c-3.6,1.2-7.5,1.2-11.9,0.9c1-0.5,1.6-0.6,2.8-0.4c2,0.4,3.8,0.1,5.6-0.6c-2.3-0.1-4.7-0.3-7-0.4c-4-0.1-8-0.2-12-0.3
			c-2.5-0.1-3-0.3-3-1.4c0-0.9,0.2-1.8,0.3-2.7c0.1-1.8,0-3.6,0.3-5.4c0.2-1,0-1.8-0.3-2.8c-0.1-0.3,0.1-0.5,0.2-0.8
			c0.5-0.8,0.6-1.5-0.2-2.3c-0.7-0.7-0.2-1.6,0-2.3c0.1-0.5,0.7-0.9,0.7-1.3c0-0.4,0.8-0.9-0.7-1.2c-0.1,0-0.1-0.2,0-0.2
			c1.5-1.1,0.9-2.3,0.6-3.3c-0.3-1,0-1.8,0.1-2.8c0.2-1.9-0.1-3.7-0.1-5.6c0-0.8,0.3-1.6,0.2-2.4c-0.1-2.6,0-5.2-0.6-7.8
			c-0.2-1.2,0.6-2.4-1-3.5c-0.2-0.1,0.4-0.4,0.4-0.7c0-0.4-0.2-0.7-0.3-1.1c0-0.5-0.2-1,0.1-1.4c0.3-0.4,0.2-0.7-0.4-1.1
			c-0.4-0.2-0.7-0.7-0.3-1c1.3-1,0.7-2,0.4-3.2c-0.2,0.3-0.4,0.5-0.5,0.7c-0.1,0-0.2,0-0.3,0c0.1-0.5,0.1-1,0.3-1.4
			c0.3-0.6,0.4-0.6-0.7-1.5c-0.1-0.1-0.2-0.3,0-0.5c1.3-1.2,0.7-2.4,1-3.6c0.2-0.9,0.2-1.9,0.1-2.8c-0.1-0.8-0.3-1.6-0.7-2.4
			c-0.2-0.5-0.4-0.9,0.2-1.3c0.4-0.2,0.5-0.6,0.5-0.9c0.1-1.2,0.3-2.3,0.1-3.5c-0.1-0.8-0.6-1.6-0.9-2.4c-0.2-0.4,0-0.8,0.6-1.2
			c1.1-0.8,1.2-1.7-0.2-2.4c0.3-0.5,0.8-0.9,0.8-1.4c0.1-1.9,0.2-3.8,0.1-5.7c-0.1-0.8-1.1-1.6-1-2.5c0.2-1.5,0-3.1,0-4.7
			c0-0.3,0.3-0.5,0.5-0.8c0.5-0.7,0.6-1.3-0.1-1.9c-0.4-0.3-0.3-0.8-0.3-1.2c0.1-0.6,0.6-1.2,0.6-1.8c0.1-1.7-0.2-3.4,0.1-5
			c0.1-0.7-1.1-1.2-0.2-2c0.7-0.6,0.4-1.4,0.5-2c0.1-1.2,0-2.5,0.2-3.8c0.2-1.9,0.6-3.9,0.8-5.8c0.1-0.8,0.1-1.6,0.1-2.3
			c0-2.1-0.1-4.2,0-6.3c0.1-2.1,0.6-4.3,0.8-6.4c0.1-0.7,0.6-1.4-0.4-2.1c-0.2-0.1-0.2-0.4-0.1-0.6c1.7-1.9,0.9-3.8,1.2-5.7
			c0.2-1.6-0.1-3.1,0-4.7c0.2-2.5,0.5-5,0.7-7.5c0.3-3.3,0.5-6.5,0.8-9.8c0.4-3.9,0.9-7.9,1.4-11.8c0.2-1.6,0.3-3.2,0.4-4.8
			c0-0.4-0.5-0.7-0.8-1.1c1.5-0.9,0.9-2,1-3c0.3-2.8,0.5-5.7,0.4-8.5c-0.1-4.3-0.4-8.6-0.6-12.9c-0.1-3,0-5.9-0.1-8.9
			c0-2.1-0.2-4.3-0.3-6.4c-0.1-2.3-0.3-4.7-0.5-7c-0.3-2.6-0.8-5.3-1-7.9c-0.2-2-0.2-4-0.2-6c-0.1-3.8-0.1-7.6-0.2-11.4
			c-0.1-3.4-0.4-6.8-0.6-10.2c-0.2-4.1-0.4-8.1-0.5-12.2c-0.1-1.6,0.2-3.3,0.2-4.9c0.1-1.5,0.1-3,0.2-4.6c0.2-3.1,0.3-6.2,0.5-9.2
			c0.2-2.4,0.4-4.8,0.5-7.2c0.1-2,0.2-4,0.2-6.1c0.1-2.6,0.4-5.2,0.4-7.8c0-1.7-0.3-3.3-0.4-5c-0.1-1.6,0-3.2-0.1-4.8
			c-0.1-2.9-0.2-5.8-0.4-8.7c-0.1-1.6-0.5-3.2-0.7-4.9c-0.2-1.5-0.2-3-0.2-4.6c-0.1-2.3-0.2-4.5-0.2-6.8c-0.1-2.6-0.1-5.1-0.2-7.7
			c-0.3-3.4-0.8-6.8-1-10.2c-0.2-2.8-0.1-5.5-0.1-8.4c3.1,0.1,5.9,0.2,8.6,0.3c3.2,0.1,6.3,0.1,9.5,0.2c0.3,0,0.6,0,0.8,0
			c6.2,0.6,12.5,0.1,18.7-0.1c3.9-0.1,7.8-0.1,11.7-0.2c5.2-0.1,10.4-0.4,15.5-0.5c3.8-0.1,7.6-0.5,11.4,0c0.5,0.1,1.1,0,1.7,0
			c5.9,0,11.7,0,17.6,0c0.3,0,0.7,0,1,0.2c-2.3,0-4.6,0-6.9,0.1c0,0.1,0,0.2,0,0.3c1.8,0,3.6,0,5.4,0c3.8,0,7.7,0,11.5,0
			c1.3,0,2.6,0,3.9,0.1c3.9,0.2,7.9,0.4,11.9,0.6c1.2,0.1,2.4,0.2,3.6,0.2c8.5,0,17,0,25.5,0.1c4.3,0,8.6,0.2,12.9,0.2
			c3.7,0,7.5,0,11.2,0c4.7,0.1,9.3,0.2,14,0.4c1,0,2.1,0,3.1,0c8.3,0.1,16.6,0.2,24.9,0.3c6.1,0.1,12.3,0,18.4,0.2
			c3.8,0.1,7.6,0.3,11.4,0.2c3.5,0,6.9,0,10.4,0.1c3.3,0,6.7,0.1,10,0.1c2.2,0.1,3.8,0.8,4.1,1.9c0.4,1.2,0.6,2.5,0.8,3.7
			c0.2,0.9,0.1,1.8,0.4,2.7c0.2,0.6-0.4,1.1-0.1,1.7c0.8,1.8,1.1,3.6,1.5,5.4c0.1,0.5-0.1,0.9-0.2,1.4c-0.1,0.8-0.1,1.5-0.1,2.3
			c0,0.5,0.3,1.1,0.1,1.6c-0.8,1.6-1.2,3.1-0.5,4.7c0,0.1,0,0.2,0,0.4c-1,1.6-0.8,3.3-0.4,5c0.2,0.8-0.4,1.6-0.5,2.4
			c-0.1,1.6-0.2,3.1-0.2,4.7c0,0.6,0.3,1.2,0.3,1.7c0,1.7-0.2,3.3-0.3,5c0,0.2,0,0.4,0.1,0.6c0.5,1.2,0.6,2.4,0.1,3.7
			c-0.4,0.9,0.3,1.9,0.5,2.9c0.2,0.8,0.4,1.5,0.6,2.3c0,0.1,0.1,0.2,0,0.2c-1.5,0.8-0.4,1.7-0.4,2.6c-0.1,0.9,0.5,1.8-0.1,2.7
			c-0.8,1.3,0.4,2.5-0.5,3.8c-0.8,1.1-0.7,2.4,0.4,3.6c0.8,0.9,0.5,1.8,0,2.8c-0.6,1.1-0.5,2.3,0,3.4c0.4,0.8,0,1.7,0,2.6
			c0,0.7-0.5,1.4-0.1,2c0.7,1.1,0.7,2.1,0.4,3.2c-0.1,0.2-0.2,0.5-0.2,0.7c0,1.8,0.1,3.5,0,5.2c0,0.7-0.2,1.4-0.2,2.1
			c0,0.8,0.1,1.5,0.2,2.3c0,0.2,0.1,0.5,0,0.7c-1.5,2.2-0.5,4.4-0.2,6.6c0.1,0.9,0.7,1.8-0.1,2.8c-0.3,0.4-0.2,0.9,0.1,1.3
			c1.3,1.6,0.8,3.4,1.2,5.1c0.1,0.3-0.2,0.5-0.3,0.8c-0.5,1.5-0.7,3.1,0.7,4.6c0.2,0.2,0.1,0.5,0,0.8c-0.5,1.9-0.5,3.9-0.3,5.8
			c0.1,1.4,0.7,2.8,0.2,4.2c-0.4,1.3,0.4,2.7,0.6,4.1c0.1,0.3,0,0.7,0,1c-0.1,0.9-0.4,1.8,0.8,2.6c0.1,0.1,0.1,0.2,0,0.3
			c-1.3,1-1,2.1-0.7,3.2c0.2,0.7,0.1,1.5,0.1,2.2c0,1.6,0.1,3.2,0.1,4.8c0,0.9,0,1.7,0,2.6c0,1.6,0.1,3.2,0.2,4.8
			c0,0.5,0.4,1.1,0.4,1.6c0,0.8-0.1,1.7-0.1,2.5c0.1,1.7,0.3,3.4,0.4,5.1c0.1,1.8,0,3.6,0,5.5c0.1,1.3,0.4,2.6,0.5,3.9
			c0.1,0.7,0.1,1.4,0.1,2.1c0.1,2.1,0,4.3,0.4,6.4c0.5,2.5,0.2,4.9,0,7.3c0,0.6,0.4,1.2,0.5,1.8c0.1,0.4,0,0.8,0,1.2
			c-0.1,1.4-0.5,2.9,0.3,4.3c0.3,0.5,0.2,1.1,0.1,1.6c-0.7,2.3,0,4.5,0.9,6.7c0.1,0.1,0.1,0.3,0.1,0.5c-0.8,2,0.1,4.1-0.1,6.1
			c-0.2,2.2,0.6,4.5,1,6.7c0.3,2.5,0.5,5,0.8,7.5c0.2,1.8,0.8,3.5,1.1,5.3c0.2,1.4,0.3,2.8,0.4,4.2c0,0.6-0.3,1.2,0.6,1.7
			c0.1,0.1,0.1,0.1,0.1,0.2c-1.1,2.5,0.9,4.9,0,7.4c-0.2,0.5,0.1,1.1,0.1,1.6c-0.1,0.9-0.3,1.9-0.3,2.8c0,1.4,0,2.8,0.5,4.2
			c0.4,1,0.6,2.1,0.7,3.1c0,0.5,0.3,0.9-0.5,1.3c-0.3,0.2-0.1,0.5-0.1,0.8c0,1,0,2.1,0,3.2c0,0.9-0.1,1.9,0.1,2.8
			c0.4,1.2,0.3,2.5-0.2,3.7c-0.3,0.9-0.1,1.9,0,2.8c0.1,1-0.4,2,0.7,3c0.2,0.1-0.2,0.4-0.2,0.6c0,0.8-1,1.5-0.1,2.3
			c0.4,0.4-0.4,1-0.5,1.5c-0.3,1.9-0.8,3.7-0.8,5.6c0,2.8-0.4,5.7-0.5,8.5c-0.1,3.2,0.1,6.5,0.1,9.7c0.1,3,0.1,6.1,0.2,9.1
			c0.1,2.7,0.1,5.5,0.4,8.2c0.2,2.1,0.1,4.2,0.9,6.3c0.1,0.2,0.2,0.5,0,0.7c-1.2,1.5-0.1,2.8,0.6,4.2c0.1,0.3,0.1,0.6,0.1,0.9
			c0,1.3,0,2.6,0,4c0,1.8,0.1,3.7,0.1,5.5c0,1.2,0.5,2.5-0.1,3.7c-0.8,1.6-0.1,3.2-0.6,4.8c-0.6,1.7,0.3,3.5,0.5,5.2
			c0.1,1.1,0,2.2,0,3.4c0.1,1.3,0.2,2.6,0.3,3.9c0.1,1.2,0.1,2.5,0.2,3.7c0,0.3-0.3,0.5-0.4,0.8c-0.1,0.3-0.1,0.6-0.2,0.9
			c0,0.1,0.1,0.2,0.1,0.2c0,1.3-0.1,2.5-0.2,3.8c0,0.4-0.1,0.8-0.1,1.3c0,1.6,0,3.2-0.3,4.7c-0.2,1.2-0.7,2.3-0.6,3.5
			c0.1,0.7,0,1.3-1.8,1.7C204.7,87.8,204.6,88,203.9,88.3z"/>
	</g>
</g>
<g id="Ebene_13">
	<g>
		<path d="M39.5,8.1c-1.3,0.1-2.4,0.1-3.7,0.2c0,5.6,0,11.1,0.1,16.7c1.2,0,2.4,0,3.8,0c0,1.4,0,2.6,0,4c4.1,0,8,0,12,0
			c0,8.5,0.1,16.7,0.1,25.1c-1.3,0.1-2.5,0.1-3.8,0.2c0,1.4,0,2.7,0,4.2c-1.4,0-2.6,0-3.9,0c0-1.3,0-2.7,0-4.2c-1.4,0-2.6,0-4,0
			c0-2.9,0-5.6,0-8.4c-1.4,0-2.6,0-4,0c0,2.7,0,5.3,0,8.3c-1.4,0-2.7,0-4,0c0,1.5,0,2.8,0,4.3c-1.4,0-2.6,0-3.9,0c0-1.3,0-2.7,0-4.2
			c-1.4,0-2.6,0-4,0c0-2.9,0-5.6,0-8.5c-1.4,0-2.6,0-3.9,0c0-1.4,0-2.6,0-3.9c-1.5,0-2.7,0-4.1,0c0,2.7,0,5.3,0,8.2
			c-1.4,0-2.6,0-3.9,0c-0.1,1.4-0.1,2.5-0.2,3.9c-1.2,0-2.4,0-3.8,0c-0.1-1.2-0.1-2.3-0.2-3.7c-1.2,0-2.4,0-3.9,0c0-2.9,0-5.6,0-8.5
			c-1.4,0-2.6,0-3.9,0c0-2.8,0-5.5,0-8.3c1.2-0.1,2.4-0.1,3.8-0.2c0-1.4,0-2.7,0-4.2c1.4-0.1,2.6-0.2,4-0.2c0-5.5,0-11-0.1-16.7
			c1.4,0,2.6,0,3.9,0c0-4.2,0-8.2,0-12.3c8,0,15.9,0,23.9-0.1c0.1,1.2,0.1,2.3,0.2,3.7c1.2,0,2.4,0,3.8,0
			C39.5,5.3,39.5,6.6,39.5,8.1z M11.6,16.8c0,5.7,0,11.2,0.1,16.8c-1.4,0-2.6,0-3.8,0c0,1.4,0,2.6,0,4c5.3,0,10.5,0,15.9,0
			c0,1.5,0,2.8,0,4.3c8,0,15.9,0,23.8-0.1c0-2.8,0-5.5,0-8.4c-4,0-7.9,0-11.9,0c0-1.6,0-3,0-4.5c-2.7,0-5.2,0-7.9,0
			c0-7,0-13.8-0.1-20.6c-4.1,0-8,0-12,0c0,2.8,0,5.4,0,8.2C14.3,16.7,13.2,16.7,11.6,16.8z M27.9,50.2c1.4,0,2.6,0,3.8,0
			c0-1.5,0-2.9,0-4.2c-1.4,0-2.6,0-3.8,0C27.9,47.6,27.9,48.9,27.9,50.2z M43.8,50.2c1.2,0,2.4,0,3.8,0c0-1.4,0-2.7,0-4.2
			c-1.3,0-2.5,0-3.8,0C43.8,47.4,43.8,48.7,43.8,50.2z M8,42.1c0,1.5,0,2.7,0,3.8c1.4,0,2.6,0,3.7,0c0-1.4,0-2.6,0-3.8
			C10.3,42.1,9.2,42.1,8,42.1z"/>
		<path d="M67.4,33.5c3.9,0,7.7,0,11.7,0c0-1.4,0-2.8,0-4.3c1.5-0.1,2.7-0.2,4-0.2c0-5.6,0-11,0-16.7c-1.2,0-2.4,0-3.8,0
			c0-1.4,0-2.5,0-3.9c1.2,0,2.4,0,3.7,0c0.1-1.6,0.1-3,0.2-4.4c7.9,0,15.7,0,23.8-0.1c0,4.2,0,8.4,0,12.7c1.4,0,2.5,0,4,0
			c0,5.7,0,11.2,0,16.8c1.4,0,2.5,0,4,0c0,1.4,0,2.6,0,4c1.4,0.1,2.7,0.1,4,0.2c0,2.7,0,5.4,0,8.2c-1.2,0-2.4,0-3.8,0
			c0,2.9,0,5.5,0,8.4c-1.4,0-2.6,0-4,0c0,1.5,0,2.8,0,4.3c-1.4,0-2.6,0-3.9,0c0-1.3,0-2.6,0-4.1c-1.4,0-2.6,0-4,0c0-2.9,0-5.6,0-8.4
			c-1.5,0-2.7,0-4,0c0,1.4,0,2.7,0,4.2c-1.4,0-2.6,0-4,0c0,2.9,0,5.5,0,8.4c-1.4,0-2.6,0-4,0c-0.1,1.5-0.1,2.7-0.2,4
			c-1.3,0-2.4,0-3.8,0c0-1.2,0-2.4,0-3.8c-1.4,0-2.5,0-4,0c0-2.8,0-5.5,0-8.3c-1.5,0-2.7,0-4,0c0,2.7,0,5.3,0,8.2
			c-1.4,0-2.6,0-3.9,0c-0.1,1.4-0.1,2.7-0.2,4c-1.3,0-2.4,0-3.8,0c0-1.2,0-2.4,0-3.8c-1.4-0.1-2.5-0.1-3.9-0.2
			C67.4,50.3,67.4,42,67.4,33.5z M91.1,33.4c-2.8,0-5.3,0-8,0c0,1.4,0,2.6,0,4c-4,0-7.9,0-11.8,0c0,2.9,0,5.6,0,8.3
			c8,0,15.9,0,24-0.1c0-1.4,0-2.6,0-3.9c5.4,0,10.5,0,15.7,0c0-1.5,0-2.9,0-4.5c-1.3,0-2.5,0-3.9,0c0-5.7,0-11.1,0-16.7
			c-1.4-0.1-2.6-0.1-4-0.2c0-2.9,0-5.5,0-8.2c-4.1,0-8,0-11.9,0C91.1,19.3,91.1,26.1,91.1,33.4z M111.1,45.8c-1.4,0-2.6,0-3.8,0
			c0,1.5,0,2.9,0,4.2c1.4,0,2.6,0,3.8,0C111.1,48.5,111.1,47.2,111.1,45.8z M91.1,50.3c-1.4,0-2.6,0-3.8,0c0,1.3,0,2.5,0,3.8
			c1.3,0,2.5,0,3.8,0C91.1,52.8,91.1,51.7,91.1,50.3z M71.4,50.3c0,1.3,0,2.6,0,3.7c1.4,0,2.6,0,3.7,0c0-1.3,0-2.5,0-3.7
			C73.8,50.3,72.6,50.3,71.4,50.3z"/>
		<path class="st2" d="M11.6,16.8c1.5-0.1,2.7-0.1,4-0.2c0-2.8,0-5.4,0-8.2c4,0,7.9,0,12,0c0,6.8,0,13.6,0.1,20.6c2.7,0,5.2,0,7.9,0
			c0,1.5,0,2.9,0,4.5c4.1,0,8,0,11.9,0c0,2.9,0,5.6,0,8.4c-7.9,0-15.8,0-23.8,0.1c0-1.4,0-2.7,0-4.3c-5.4,0-10.6,0-15.9,0
			c0-1.5,0-2.7,0-4c1.2,0,2.4,0,3.8,0C11.7,28,11.6,22.5,11.6,16.8z"/>
		<path class="st2" d="M27.9,50.2c0-1.4,0-2.7,0-4.2c1.2,0,2.4,0,3.8,0c0,1.3,0,2.6,0,4.2C30.5,50.2,29.3,50.2,27.9,50.2z"/>
		<path class="st2" d="M43.8,50.2c0-1.5,0-2.8,0-4.2c1.3,0,2.5,0,3.8,0c0,1.5,0,2.8,0,4.2C46.3,50.2,45,50.2,43.8,50.2z"/>
		<path class="st2" d="M8,42.1c1.2,0,2.3,0,3.7,0c0,1.2,0,2.4,0,3.8c-1.1,0-2.3,0-3.7,0C8,44.8,8,43.6,8,42.1z"/>
		<path class="st2" d="M91.1,33.4c0-7.3,0-14.1-0.1-21.2c4,0,7.8,0,11.9,0c0,2.6,0,5.3,0,8.2c1.5,0.1,2.7,0.1,4,0.2
			c0,5.5,0,11,0,16.7c1.4,0,2.6,0,3.9,0c0,1.6,0,3,0,4.5c-5.2,0-10.3,0-15.7,0c0,1.4,0,2.6,0,3.9c-8.1,0-16,0-24,0.1
			c0-2.7,0-5.4,0-8.3c3.9,0,7.8,0,11.8,0c0-1.4,0-2.5,0-4C85.8,33.4,88.3,33.4,91.1,33.4z"/>
		<path class="st2" d="M111.1,45.8c0,1.4,0,2.7,0,4.2c-1.2,0-2.4,0-3.8,0c0-1.3,0-2.7,0-4.2C108.4,45.8,109.6,45.8,111.1,45.8z"/>
		<path class="st2" d="M91.1,50.3c0,1.3,0,2.5,0,3.8c-1.3,0-2.5,0-3.8,0c0-1.2,0-2.4,0-3.8C88.5,50.3,89.8,50.3,91.1,50.3z"/>
		<path class="st2" d="M71.4,50.3c1.2,0,2.4,0,3.7,0c0,1.2,0,2.4,0,3.7c-1.1,0-2.4,0-3.7,0C71.4,53,71.4,51.7,71.4,50.3z"/>
	</g>
</g>
<g id="Ebene_7" class="st0">
	<rect x="-11.5" y="-0.3" class="st4" width="290.3" height="72.1"/>
	<text transform="matrix(1 0 0 1 -11.4874 29.6818)" class="st1 st5 st6">INFO </text>
</g>
</svg>
