<?xml version="1.0" encoding="utf-8"?>
<!-- Generator: Adobe Illustrator 23.0.6, SVG Export Plug-In . SVG Version: 6.00 Build 0)  -->
<svg version="1.1" id="Ebene_1" xmlns="http://www.w3.org/2000/svg" xmlns:xlink="http://www.w3.org/1999/xlink" x="0px" y="0px"
	 viewBox="0 0 127.4 57.6" style="enable-background:new 0 0 127.4 57.6;" xml:space="preserve">
<style type="text/css">
	.st0{display:none;}
	.st1{display:inline;}
	.st2{fill:#FFFFFF;}
	.st3{fill:#1D1D1B;}
	.st4{display:inline;fill:none;}
	.st5{font-family:'LomoWebPixelLTStd-4';}
	.st6{font-size:60px;}
	.st7{display:inline;fill:#FF4DFF;}
</style>
<g class="st0">
	<g class="st1">
		<path d="M-86.5,267.9c-0.8-0.1-1.6-0.2-2.4-0.3c-2.8-0.3-4.6-1.3-4.7-2.6c0-1.2,0.1-2.4,0.1-3.6c0-0.3-0.2-0.5-0.2-0.8
			c0-0.4-0.3-0.8,0.1-1.2c1.5-1.2,0.7-2.3-0.1-3.5c-0.3-0.5-0.1-1-0.1-1.5c0.4-0.1,0.8-0.1,1.1-0.2c1.6-0.2,1.7-0.3,1.1-0.9
			c-0.4-0.4-0.9-0.9-0.9-1.3c-0.1-0.6-0.5-1.3,2.3-1.4c-3.3-1.1-2.7-2.3-1.9-3.6c0.5,0,0.9,0,1.2,0c-0.5-1.2-1-2.4-1.5-3.5
			c-0.7,0-1.2,0-1.7,0c0.6-0.7,1.2-1.4,1.8-2.1c0.4,0.1,0.8,0.1,1.3,0.2c0.1-0.1,0.3-0.2,0.3-0.3c-0.3-0.5-0.5-1.1-0.9-1.6
			c-0.6-0.7-0.4-1.3,0.4-1.9c1.2-0.8,0.8-1.6-0.1-2.4c-0.2-0.2-0.5-0.4-0.5-0.6c-0.1-2.9-0.1-5.8-0.1-8.8c0.7,0,1-0.1,1.4-0.1
			c0-0.1,0.1-0.2,0-0.2c-0.8-0.4-1.3-0.7-0.5-1.2c0.3-0.2,0.3-0.6,0.2-0.9c-0.6-1.2-1.2-2.5-2-3.7c-0.6-0.8-0.1-1.6,0.8-2.2
			c1.3-0.9,0.9-1.8,0.2-2.7c-0.4-0.5-0.4-0.8,0.3-1.2c1.2-0.7-0.3-1.4-0.1-2.1c-2.2-0.9-1.2-2.1-1.1-3.1c0.1-0.9-0.1-1.8-0.4-2.7
			c-0.1-0.3-0.4-0.6-0.2-0.8c1.3-1.4,0.3-2.8,0.7-4.3c0.3-1.2,0.1-2.4,0.1-3.6c0-0.2-0.1-0.3,0-0.5c0.8-0.9,0.6-1.8,0.4-2.7
			c-0.3-1.5,0.1-3,0-4.5c0-1.2-0.4-2.5-0.4-3.7c0-0.8,0.4-1.5,0.8-2.3c0.3-0.7,0.8-1.3-0.5-2c-0.7-0.3-0.5-1.1-0.2-1.7
			c0.5-0.8,0.9-1.7,0.4-2.5c-0.3-0.5,0.4-1.2,0.3-1.7c-0.1-0.5,0.8-1.1-0.6-1.6c-0.5-0.2,0.1-0.9,0.4-1.3c0.8-1.2,0.7-2.5-0.5-3.6
			c-0.1-0.1-0.3-0.2-0.2-0.3c1.4-1.5-1.3-2.7-0.6-4.2c0.2,0,0.6,0,1.2,0c0.4-1.1,0.6-2.2-0.4-3.3c-0.3-0.3-0.4-0.8-0.1-1.1
			c1.3-1.3,0.2-2.7,0.8-4c0.1-0.2-0.6-0.5-0.9-0.8c1.7-0.8,2.5-2.5,0.5-3.1c1.6-0.8,1-1.5,0-2.3c1.3-0.4,1.6-0.8,0.6-1.4
			c-0.1,0-0.2-0.2-0.1-0.2c0.6-0.9,0.1-1.8,0.1-2.8c0,0,0-0.1,0-0.1c0.7,0,1-0.1,0.8-0.4c-0.1-0.2-0.2-0.3-0.3-0.5
			c-0.7-0.9-1.2-1.8,0.4-2.6c0.3-0.1,0.1-0.5,0.1-0.7c0-1.2,0.3-2.5-0.2-3.7c-0.7-1.6,0.3-3.1,0.6-4.6c0.1-0.5,0.1-1-0.2-1.5
			c-0.4-0.7-0.3-1.4,0.5-1.9c0.8-0.5,0.6-0.9,0.3-1.3c-0.8-1.2-1.1-2.3,0.1-3.5c0.4-0.4,0.1-1-0.3-1.4c-0.6-0.5-0.5-1-0.2-1.6
			c0.3-0.5,0.4-1.1,0.4-1.6c0.2-1.1,0.3-2.2,0.5-3.4c0.1-0.4,0.3-0.8,0.3-1.2c0-2-0.5-4,0.1-6c0.5-2-0.1-4.1,1-6.1
			c0.4-0.9-0.2-1.8-0.2-2.8c0-0.8,0.3-1.7,0.3-2.5c0.1-1.4,0.2-2.7,0.2-4c0-0.4,0.2-0.8,0.2-1.2c0-0.9,0-1.8,0-2.7
			c0-0.4-0.3-0.9,0-1.3c1.2-1.4,0.5-2.8,0.7-4.2c0.3-1.6,0.1-3.2,0.1-4.8c0.1-2.4,0.2-4.8,0.3-7.1c0,0-0.1-0.1,0-0.1
			c1.3-1.7,0.3-3.3,0.1-5c-0.1-1.1-0.3-2.2-0.3-3.3c0.1-3.2-0.3-6.4-0.1-9.5c0-0.4-0.2-0.9-0.2-1.3c0-0.5,0.1-1,0.2-1.5
			c0-0.1,0.2-0.2,0.1-0.3c-1.1-2,0.4-4.1-0.5-6.1c-0.3-0.7,0.2-1.5,0.3-2.3c0-0.6-0.1-1.2-0.2-1.8c-0.4-2.2-0.8-4.3-1.1-6.5
			c-0.2-1.5-0.2-3-0.3-4.4c0-0.6-0.1-1.2-0.3-1.8c-0.2-0.7-0.5-1.3,0.3-1.9c0.3-0.2,0.3-0.5,0.1-0.8c-0.9-1.2-0.8-2.5-0.6-3.7
			c0-0.2,0.1-0.3,0.1-0.5c-0.1-1.9-0.1-3.9-0.2-5.8c0,0,0-0.1,0-0.1c1.2-1.5-0.1-3,0.1-4.5c0.2-1.5-0.5-2.9-0.3-4.4
			c0.2-2.1-1-4.2,0.2-6.3c0.1-0.2-0.2-0.5-0.2-0.7c-0.7-1.8-1.2-3.5-0.4-5.3c0.5-1.2-0.3-2.4,0.1-3.7c0.7-2.1-0.8-4.2,0.6-6.4
			c0.2-0.3,0.1-0.6,0-0.9c-0.9-1.6-0.3-3.3-0.4-5c0-1.8,0.6-3.5,0.7-5.3c0.1-0.9-0.3-1.8-0.3-2.7c0.1-1.5,0.4-3.1,0.5-4.6
			c0.1-0.7,0.2-1.4,0.2-2.1c0-1.8-0.2-3.6-0.2-5.4c0.1-1.8,0.5-3.6,0.5-5.4c0.1-2.2-0.1-4.3-0.1-6.5c0-1.5,0.2-3.1,0.2-4.7
			c0-0.5-0.1-1.1-0.2-1.6c-0.1-2.4-0.2-4.7-0.4-7.1c-0.2-2.5-0.6-5-1-7.6c-0.2-1.2-0.7-2.5-0.3-3.7c0.3-1.3-0.1-2.6-0.1-3.9
			c0.1-2.7,0-5.4-0.1-8.1c0-0.7-0.3-1.4-0.2-2.1c0.4-3.1,0.3-6.2-0.3-9.3c-0.3-1.7-0.1-3.4,0-5c0-0.3-0.2-0.6,0.8-0.8
			c0.2,0,0.4-0.3,0.4-0.4c0.3-1.3,1.4-2.5,1.3-3.9c-0.2-1.6,1.3-3,2-4.5c0.2-0.3,1-0.6,1.6-0.9c2.1-1,2.5-2.2,2.7-3.4
			c0.1-0.6,0.1-1.2,1.3-1.7c0.8-0.4,1.6-0.9,1.3-1.5c-0.1-0.3,0.4-0.7,0.7-1.1c3.2,0.5,2.3,1.9,3.8,2.7c3.6-0.2,7.1-0.4,10.7-0.6
			c3.2-0.2,6.3-0.4,9.5-0.5c9.7-0.2,19.4-0.7,29.1-1.3c9.6-0.5,19.1-1.1,28.8-1.4c7.9-0.2,15.8-0.4,23.7,0c2.9,0.1,5.8-0.1,8.7-0.1
			c7.5,0.1,14.9,0.2,22.4,0.2c3.1,0,6.2,0,9.2,0c5.7,0,11.4,0,17.1,0c6.1,0,12.1,0,18.2,0.1c3.1,0.1,6.1,0.1,9.2,0.1
			c1.7,0,3.5,0.2,5.2,0.2c1.6,0,2.9,0.5,4.8,0.1c1.5-0.3,3.6-0.1,5.5,0c1.8,0,3.5,0.2,5.3,0.2c1.8,0,3.5,0.1,5.3,0.1
			c3,0,5.9,0,8.9,0c0.3,0,0.8,0,1,0.1c0.9,0.4,1.9,0.3,2.9,0.1c1.3-0.2,2.4-0.2,3.9-0.1c1.7,0.1,3.6,0.5,5.5,0
			c0.8-0.2,1.8-0.1,2.8-0.1c3,0,5.9,0.1,8.9,0.1c4.4,0,8.8,0.3,13.3,0c1.6-0.1,3.3,0.2,4.9,0.2c1.5,0,3.1,0,4.7,0
			c5.2-0.1,10.4-0.3,15.7-0.4c3.4-0.1,6.9-0.1,10.3,0c2,0,3.3,0.6,4.4,1.4c1.5,1.1,1.5,2.1,1.2,3.2c-0.1,0.4-0.5,0.7-1,1
			c-1.1,0.7-1.8,1.5-1.7,2.3c0.4,3.1,0.8,6.1,1.2,9.2c0.5,3.3,0.9,6.5,0.3,9.8c-0.4,2.2-0.1,4.4-0.2,6.6c-0.1,1.3-0.3,2.6-0.4,4
			c-0.1,0.7,0,1.4-0.1,2.1c-0.1,0.3-0.2,0.7-0.7,1c-1,0.5-0.7,1-0.1,1.5c0.4,0.4,0.7,0.8,0.7,1.2c0,1.1,0,2.3-0.3,3.4
			c-0.3,0.9-0.1,1.8-1,2.6c-0.4,0.4-0.1,0.9,0,1.5c0.4-0.1,0.6-0.2,1-0.4c0.1,0.3,0.4,0.6,0.2,0.7c-2,0.8-1.3,1.7-1.3,2.6
			c0,3.7,0.2,7.4,0.2,11.1c0,2.5-0.2,4.9-0.2,7.4c0,1.9-0.1,3.8-0.1,5.7c0,2.4,0,4.8,0,7.2c0,1.5-0.3,3-0.3,4.4
			c-0.1,2.6-0.1,5.1-0.1,7.7c0,2,0,3.9,0.1,5.8c0,0.9,0.5,1.7,0.7,2.5c0.1,0.4,0.2,0.8,0.2,1.1c0,0.8-0.2,1.5-0.1,2.3
			c0.5,4.8,1.1,9.6,1.5,14.4c0.2,2.1,0,4.2,0,6.3c0,0.7,0.2,1.4,0.3,2.1c0.1,1.4,0.2,2.7,0.3,4.1c0,0.7-0.3,1.5-0.3,2.2
			c0.1,2.7,0.3,5.5,0.4,8.2c0.1,2.1,0,4.1,0.1,6.2c0,1,0.5,1.9,0.5,2.9c0,2.6,0,5.2,0,7.8c0,0.1,0,0.2,0,0.2
			c1.3,3.6,0.1,7.2,1.1,10.9c0.1,0.6-0.1,1.2-0.1,1.8c0,0.4-0.1,0.7-0.1,1c0.8,3.6,0.6,7.3,0.6,11c0,2.5,0.4,4.9,0.5,7.4
			c0,1-0.2,2-0.1,3c0.1,2.1,0.3,4.2,0.6,6.3c0.3,2.2,0.7,4.3,1,6.5c0.1,0.5-0.2,1.1-0.2,1.6c0.3,3.2,0.2,6.5,1.3,9.7
			c0.4,1.2,0.7,2.4,0.8,3.6c0.1,0.9-0.2,1.9-0.1,2.8c0.2,1.8,0.6,3.6,0.9,5.4c0.2,1.1,0.4,2.2,0.5,3.4c0.1,2.4,0.1,4.8,0.2,7.2
			c0.2,4.7,0.6,9.4,0.7,14.2c0,4.4-0.3,8.8-0.5,13.2c0,1.4,0,2.9,0,4.3c0,1.2,0,2.5,0,3.8c0.3-0.1,0.5-0.1,1.2-0.3
			c-0.2,0.4-0.2,0.8-0.6,0.9c-1.4,0.5-1.2,1-1.2,1.6c-0.1,2,0,4.1-0.1,6.1c-0.1,3-0.4,5.9-0.4,8.9c0,3.5,0.2,7,0.3,10.5
			c0.1,3.1,0.3,6.2,0.5,9.3c0.1,1.9,0.4,3.8,0.6,5.7c0.1,0.7,0,1.3,0.1,2c0.3,2.2,0.7,4.3,1,6.5c0.1,1,0,1.9-0.1,2.9
			c-0.1,1.9,0,3.8-0.2,5.6c-0.1,0.7,1.2,1.3,0.4,2.2c-0.6,0.7-0.1,1.5-0.1,2.3c-0.1,1.8-0.3,3.5-0.2,5.2c0.1,4.6,0.4,9.1,0.4,13.7
			c0,2.7-0.4,5.4-0.6,8.1c-0.2,2.6-0.6,5.2-0.5,7.8c0.1,1.2,0.1,2.5-0.3,3.7c0,0.1-0.1,0.2,0,0.2c2.3,0.7,0.6,1.8,1.6,2.7
			c1,0.9,1.2,1.9,2,2.8c1,1.2-0.9,2-2.1,3c-2-0.1-2.9,0.7-4.5,1c-1.3,0.2-2.5,0.7-3.5,1.1c-1.7,0.7-3.1,1.5-4.9,2.1
			c-1.7,0.6-3.8,1-5.7,1.4c-0.2,0.1-0.5,0.1-0.8,0.1c-3.4-0.1-6.9-0.2-10.3-0.2c-0.6,0-1.3-0.1-1.9,0c-4.6,0.6-9.1,0.3-13.6,0.1
			c-2.5-0.1-5,0-7.6,0c-1.4,0-2.8,0.1-4.2,0.1c-0.5,0-1.3,0-1.6-0.1c-2.5-0.9-5.7-0.6-8.6-0.7c-4.1-0.2-8.2-0.2-12.3-0.3
			c-1.5,0-3.1-0.3-4.6-0.4c-0.3,0-0.5-0.1-0.8-0.1c-3.7,0.1-7.5,0.1-11.2,0.2c-1.7,0.1-3.3-0.3-5.1,0c-1.6,0.2-3.5,0.1-5.3,0.2
			c-1.8,0-3.5,0-5.3,0.1c-4.9,0.1-9.7,0.2-14.5,0.3c-0.9,0-1.9-0.1-2.8-0.1c-2,0-4.1-0.1-6.1-0.1c-3.3,0-6.5,0-9.8,0
			c-1.5,0-2.9,0.2-4.4,0.2c-6.9,0-13.8,0.1-20.7,0.1c-3.7,0-7.5-0.1-11.2-0.2c-1.6,0-3.1,0-4.7,0c-4.4-0.1-8.9-0.3-13.3-0.5
			c-1.1,0-2.2,0-3.3,0c-5.4-0.1-10.8-0.2-16.2-0.3c-5.5-0.1-11-0.2-16.4-0.5c-3.1-0.1-6.2-0.5-9.3-0.6c-4.4-0.2-8.9-0.4-13.3-0.5
			c-7.7-0.2-15.4-0.3-23.2-0.4c-4.4-0.1-8.9-0.1-13.3-0.1c-1.2,0-1.9,0.2-2.8,0.6c-0.9,0.4-2.5,0.7-3.8,0.9c-3.7,0.4-7.4,0.1-11-0.2
			c-1.9-0.2-3.8-0.3-5.8-0.5c-3.3-0.3-3.7-0.5-4-1.9C-86.4,268.3-86.4,268.1-86.5,267.9z M209.4,264.6c0.7-0.4,0.8-0.6,1.1-0.6
			c1.8-0.4,1.8-1,1.8-1.7c-0.1-1.2,0.3-2.3,0.6-3.5c0.3-1.6,0.3-3.2,0.3-4.7c0-0.4,0.1-0.8,0.1-1.3c0.1-1.3,0.1-2.5,0.2-3.8
			c0-0.1-0.1-0.2-0.1-0.2c0-0.3,0.1-0.6,0.2-0.9c0.1-0.3,0.4-0.5,0.4-0.8c0-1.2-0.1-2.5-0.2-3.7c-0.1-1.3-0.3-2.6-0.3-3.9
			c-0.1-1.1,0.1-2.2,0-3.4c-0.2-1.7-1.1-3.5-0.5-5.2c0.6-1.6-0.2-3.2,0.6-4.8c0.6-1.2,0.1-2.5,0.1-3.7c0-1.8-0.1-3.7-0.1-5.5
			c0-1.3,0-2.6,0-4c0-0.3,0.1-0.6-0.1-0.9c-0.7-1.4-1.8-2.8-0.6-4.2c0.2-0.2,0.1-0.5,0-0.7c-0.8-2.1-0.7-4.2-0.9-6.3
			c-0.2-2.7-0.3-5.5-0.4-8.2c-0.1-3-0.1-6.1-0.2-9.1c-0.1-3.2-0.2-6.5-0.1-9.7c0.1-2.8,0.5-5.7,0.5-8.5c0-1.9,0.5-3.7,0.8-5.6
			c0.1-0.5,0.9-1.1,0.5-1.5c-0.8-0.8,0.1-1.5,0.1-2.3c0-0.2,0.4-0.4,0.2-0.6c-1.2-1-0.6-2-0.7-3c-0.1-0.9-0.3-1.9,0-2.8
			c0.5-1.2,0.6-2.5,0.2-3.7c-0.3-0.9-0.1-1.9-0.1-2.8c0-1,0-2.1,0-3.2c0-0.3-0.2-0.6,0.1-0.8c0.7-0.4,0.5-0.9,0.5-1.3
			c0-1-0.3-2.1-0.7-3.1c-0.5-1.4-0.4-2.8-0.5-4.2c0-0.9,0.2-1.9,0.3-2.8c0-0.5-0.2-1.1-0.1-1.6c0.9-2.5-1.1-4.9,0-7.4
			c0-0.1,0-0.2-0.1-0.2c-0.9-0.5-0.5-1.1-0.6-1.7c-0.1-1.4-0.2-2.8-0.4-4.2c-0.3-1.8-0.8-3.5-1.1-5.3c-0.4-2.5-0.5-5-0.8-7.5
			c-0.3-2.2-1.1-4.5-1-6.7c0.2-2.1-0.7-4.1,0.1-6.1c0.1-0.1,0-0.3-0.1-0.5c-1-2.2-1.6-4.5-0.9-6.7c0.2-0.5,0.2-1.1-0.1-1.6
			c-0.8-1.4-0.4-2.9-0.3-4.3c0-0.4,0.1-0.8,0-1.2c-0.1-0.6-0.5-1.2-0.5-1.8c0.1-2.4,0.4-4.9,0-7.3c-0.4-2.1-0.3-4.3-0.4-6.4
			c0-0.7,0-1.4-0.1-2.1c-0.1-1.3-0.5-2.6-0.5-3.9c-0.1-1.8,0-3.6,0-5.5c-0.1-1.7-0.3-3.4-0.4-5.1c0-0.8,0.1-1.7,0.1-2.5
			c0-0.5-0.4-1.1-0.4-1.6c-0.1-1.6-0.1-3.2-0.2-4.8c0-0.9,0-1.7,0-2.6c0-1.6-0.1-3.2-0.1-4.8c0-0.7,0.1-1.5-0.1-2.2
			c-0.3-1.1-0.6-2.1,0.7-3.2c0.1-0.1,0.1-0.2,0-0.3c-1.2-0.8-0.9-1.7-0.8-2.6c0.1-0.3,0.1-0.7,0-1c-0.2-1.4-1.1-2.7-0.6-4.1
			c0.5-1.4-0.1-2.8-0.2-4.2c-0.2-1.9-0.2-3.9,0.3-5.8c0.1-0.3,0.2-0.6,0-0.8c-1.4-1.5-1.2-3-0.7-4.6c0.1-0.3,0.3-0.5,0.3-0.8
			c-0.4-1.7,0.1-3.4-1.2-5.1c-0.3-0.4-0.4-0.9-0.1-1.3c0.8-1,0.2-1.9,0.1-2.8c-0.3-2.2-1.3-4.4,0.2-6.6c0.1-0.2,0.1-0.5,0-0.7
			c0-0.8-0.2-1.5-0.2-2.3c0-0.7,0.2-1.4,0.2-2.1c0-1.8,0-3.5,0-5.2c0-0.2,0.1-0.5,0.2-0.7c0.3-1.1,0.3-2.1-0.4-3.2
			c-0.4-0.6,0.1-1.4,0.1-2c0.1-0.9,0.4-1.8,0-2.6c-0.6-1.2-0.6-2.3,0-3.4c0.5-0.9,0.8-1.8,0-2.8c-1-1.2-1.2-2.4-0.4-3.6
			c0.9-1.3-0.3-2.5,0.5-3.8c0.5-0.8,0-1.8,0.1-2.7c0.1-0.9-1-1.7,0.4-2.6c0.1,0,0-0.1,0-0.2c-0.2-0.8-0.4-1.5-0.6-2.3
			c-0.2-1-0.9-2-0.5-2.9c0.5-1.3,0.4-2.4-0.1-3.7c-0.1-0.2-0.1-0.4-0.1-0.6c0.1-1.7,0.2-3.3,0.3-5c0-0.6-0.3-1.2-0.3-1.7
			c0-1.6,0.1-3.1,0.2-4.7c0.1-0.8,0.7-1.6,0.5-2.4c-0.4-1.7-0.6-3.3,0.4-5c0.1-0.1,0.1-0.2,0-0.4c-0.7-1.6-0.3-3.1,0.5-4.7
			c0.3-0.5-0.1-1.1-0.1-1.6c0-0.8,0.1-1.5,0.1-2.3c0-0.5,0.3-0.9,0.2-1.4c-0.4-1.8-0.6-3.6-1.5-5.4c-0.3-0.6,0.3-1.1,0.1-1.7
			c-0.3-0.9-0.3-1.8-0.4-2.7c-0.2-1.2-0.4-2.5-0.8-3.7c-0.3-1.1-2-1.8-4.1-1.9c-3.3-0.1-6.7-0.1-10-0.1c-3.5,0-6.9-0.1-10.4-0.1
			c-3.8,0.1-7.6-0.1-11.4-0.2c-6.1-0.2-12.3-0.1-18.4-0.2c-8.3-0.1-16.6-0.2-24.9-0.3c-1,0-2.1,0-3.1,0c-4.7-0.1-9.3-0.3-14-0.4
			c-3.7-0.1-7.5,0-11.2,0c-4.3,0-8.6-0.2-12.9-0.2c-8.5,0-17,0-25.5-0.1c-1.2,0-2.4-0.1-3.6-0.2c-3.9-0.2-7.9-0.4-11.9-0.6
			c-1.3-0.1-2.6-0.1-3.9-0.1c-3.8,0-7.7,0-11.5,0c-1.8,0-3.6,0-5.4,0c0-0.1,0-0.2,0-0.3c2.3,0,4.6,0,6.9-0.1c-0.3-0.2-0.6-0.2-1-0.2
			c-5.9,0-11.7,0-17.6,0c-0.6,0-1.2,0.1-1.7,0c-3.8-0.4-7.6,0-11.4,0c-5.2,0.1-10.4,0.4-15.5,0.5c-3.9,0.1-7.8,0.1-11.7,0.2
			c-6.2,0.2-12.5,0.7-18.7,0.1c-0.3,0-0.6,0-0.8,0c-3.2-0.1-6.3-0.1-9.5-0.2c-2.8-0.1-5.5-0.2-8.6-0.3c0,2.9-0.1,5.7,0.1,8.4
			c0.2,3.4,0.8,6.8,1,10.2c0.2,2.6,0.2,5.1,0.2,7.7c0.1,2.3,0.1,4.5,0.2,6.8c0.1,1.5,0.1,3,0.2,4.6c0.2,1.6,0.6,3.2,0.7,4.9
			c0.2,2.9,0.3,5.8,0.4,8.7c0.1,1.6,0,3.2,0.1,4.8c0.1,1.7,0.4,3.3,0.4,5c0,2.6-0.3,5.2-0.4,7.8c-0.1,2-0.1,4-0.2,6.1
			c-0.2,2.4-0.4,4.8-0.5,7.2c-0.2,3.1-0.3,6.2-0.5,9.2c-0.1,1.5-0.1,3-0.2,4.6c-0.1,1.6-0.3,3.3-0.2,4.9c0.1,4.1,0.3,8.1,0.5,12.2
			c0.2,3.4,0.5,6.8,0.6,10.2c0.1,3.8,0.1,7.6,0.2,11.4c0,2,0,4,0.2,6c0.2,2.6,0.7,5.3,1,7.9c0.2,2.3,0.4,4.7,0.5,7
			c0.1,2.1,0.3,4.3,0.3,6.4c0.1,3,0,5.9,0.1,8.9c0.1,4.3,0.5,8.6,0.6,12.9c0.1,2.8-0.1,5.7-0.4,8.5c-0.1,1,0.6,2.1-1,3
			c0.3,0.4,0.8,0.8,0.8,1.1c-0.1,1.6-0.2,3.2-0.4,4.8c-0.4,3.9-1,7.9-1.4,11.8c-0.3,3.3-0.5,6.5-0.8,9.8c-0.2,2.5-0.6,5-0.7,7.5
			c-0.1,1.6,0.2,3.1,0,4.7c-0.2,1.9,0.5,3.8-1.2,5.7c-0.2,0.2-0.1,0.4,0.1,0.6c0.9,0.7,0.5,1.4,0.4,2.1c-0.2,2.1-0.7,4.3-0.8,6.4
			c-0.1,2.1,0,4.2,0,6.3c0,0.8,0,1.6-0.1,2.3c-0.2,1.9-0.6,3.9-0.8,5.8c-0.1,1.2-0.1,2.5-0.2,3.8c-0.1,0.7,0.2,1.5-0.5,2
			c-0.9,0.8,0.3,1.3,0.2,2c-0.3,1.7,0,3.3-0.1,5c0,0.6-0.5,1.2-0.6,1.8c-0.1,0.4-0.2,0.9,0.3,1.2c0.8,0.7,0.6,1.3,0.1,1.9
			c-0.2,0.3-0.5,0.5-0.5,0.8c0,1.5,0.1,3.1,0,4.7c-0.1,0.9,1,1.7,1,2.5c0.1,1.9,0,3.8-0.1,5.7c0,0.4-0.5,0.9-0.8,1.4
			c1.4,0.7,1.2,1.6,0.2,2.4c-0.6,0.4-0.7,0.8-0.6,1.2c0.3,0.8,0.8,1.6,0.9,2.4c0.1,1.2,0,2.3-0.1,3.5c0,0.3-0.2,0.6-0.5,0.9
			c-0.7,0.5-0.5,0.9-0.2,1.3c0.4,0.8,0.6,1.6,0.7,2.4c0.1,0.9,0.1,1.9-0.1,2.8c-0.3,1.2,0.4,2.4-1,3.6c-0.1,0.1-0.1,0.3,0,0.5
			c1,0.9,1,0.9,0.7,1.5c-0.2,0.5-0.2,1-0.3,1.4c0.1,0,0.2,0,0.3,0c0.2-0.2,0.3-0.4,0.5-0.7c0.3,1.2,0.9,2.2-0.4,3.2
			c-0.3,0.2-0.1,0.7,0.3,1c0.6,0.4,0.7,0.6,0.4,1.1c-0.3,0.5-0.2,1-0.1,1.4c0,0.4,0.3,0.7,0.3,1.1c0,0.2-0.6,0.5-0.4,0.7
			c1.6,1.1,0.8,2.3,1,3.5c0.6,2.6,0.4,5.2,0.6,7.8c0,0.8-0.2,1.6-0.2,2.4c0,1.9,0.2,3.7,0.1,5.6c-0.1,0.9-0.4,1.8-0.1,2.8
			c0.3,1,1,2.2-0.6,3.3c-0.1,0.1-0.1,0.2,0,0.2c1.5,0.2,0.7,0.8,0.7,1.2c0,0.5-0.6,0.9-0.7,1.3c-0.1,0.8-0.6,1.7,0,2.3
			c0.8,0.8,0.7,1.5,0.2,2.3c-0.2,0.3-0.3,0.5-0.2,0.8c0.3,0.9,0.5,1.8,0.3,2.8c-0.3,1.8-0.2,3.6-0.3,5.4c-0.1,0.9-0.2,1.8-0.3,2.7
			c-0.1,1.1,0.5,1.3,3,1.4c4,0.1,8,0.2,12,0.3c2.4,0.1,4.7,0.2,7,0.4c-1.8,0.6-3.6,1-5.6,0.6c-1.2-0.2-1.8-0.1-2.8,0.4
			c4.4,0.3,8.3,0.4,11.9-0.9c0.6,0.5,0.5,1.4,2.7,1c-0.1-0.3-0.3-0.5-0.5-0.9c0.7-0.1,1.2-0.3,1.7-0.2c3.6,0,7.3,0,10.9,0.1
			c3.5,0.1,7.1,0.2,10.6,0.4c3.4,0.2,6.8,0.4,10.2,0.6c2.4,0.2,4.7,0.3,7.1,0.5c2.7,0.3,5.7,0.1,8.6,0.2c7.1,0.1,14.2,0.3,21.3,0.5
			c7.4,0.2,14.7,0.4,22.1,0.5c5.8,0.1,11.6,0.1,17.4,0.1c4.4,0,8.8-0.1,13.1-0.2c2,0,3.9-0.1,5.9-0.1c4.8,0,9.5,0.2,14.2-0.1
			c2.5-0.1,4.9,0,7.3-0.1c4.7-0.1,9.5-0.1,14.2-0.2c2.6,0,5.2-0.1,7.8-0.2c3.4,0,6.9-0.1,10.3-0.1c1.1,0,2.2-0.1,3.3-0.2
			c1,0,2-0.1,3.1-0.1c0.7,0,1.7-0.2,2,0.3c0,0,1,0.1,1.3,0c1.4-0.4,2.6-0.1,3.9,0.1c0.3,0,0.7,0.1,1,0.1c3.1,0,6.2,0,9.2,0
			c2.4,0,4.9-0.3,7.1,0.3c0.3,0.1,0.7,0,1.1,0c5.7,0.2,11.5,0.2,17.2,0.5c3.3,0.2,6.3,0.1,9.4-0.4c2.6-0.4,4.8-0.5,7.4,0.2
			C207,262.7,209.1,263.1,209.4,264.6z M-4.9,261.8c0,0.5,0.6,0.6,1.6,0.7c2.5,0.1,4.9,0.3,7.4,0.3c0.9,0,1.8-0.2,2.9-0.2
			c-1.9-1.5-2.3-1.5-5.4-0.8c-0.7,0.2-1.7,0.1-2.5,0.2c-0.4-0.3-0.7-0.5-1-0.7C-3.1,261.4-4,261.6-4.9,261.8z M31.4,262.2
			c-0.6,0.5-0.4,0.8,0.6,0.9c1.4,0.1,2.9,0.1,4.4,0.1c1.3,0,2.2-0.3,2.4-0.9c-1.3-0.2-2.5-0.2-3.5,0.1c-1,0.3-1.8,0.3-2.7-0.1
			C32.3,262.3,31.9,262.3,31.4,262.2z M-33.5,260.4c-0.9-0.1-1.6-0.3-2.2-0.3c-1.8,0.1-3.6,0.2-5.3,0.3c-0.1,0-0.2,0.1-0.5,0.4
			c2.6,0,4.9,0,7.2,0C-34.1,260.7-33.8,260.5-33.5,260.4z M97.5,263.2c0.2,0,0.4,0,0.6,0c-0.1-0.2,0-0.6-0.2-0.6
			c-1.1-0.2-2.3-0.6-3.9-0.1C96.9,262.8,96.9,262.8,97.5,263.2z M-86,184.4c1.9-0.5,1.9-0.5,0.4-1.1c-0.2,0.1-0.5,0.2-0.5,0.4
			C-86.3,183.9-86.1,184.1-86,184.4z M13.5,261.7c0.1,0.8,0.1,0.8,2.1,0.9C14.8,262.2,14.2,262,13.5,261.7z M-28.8,260.8
			c-1.1-0.3-2.2-0.5-3.7-0.1C-31.1,261.1-29.9,260.8-28.8,260.8z M231.4,115.2c0.1,0,0.2,0,0.4,0c0.1-0.6,0.2-1.2,0.3-1.8
			c-0.2,0-0.5,0-0.7,0C231.3,114,231.4,114.6,231.4,115.2z M7.8,261.7c0.4,0.4,0.7,0.6,1.1,1.1C9.4,262.2,9.4,261.9,7.8,261.7z
			 M233.5,212c0.1,0,0.1,0,0.2,0c0-0.5,0-1,0-1.6c-0.1,0-0.1,0-0.2,0C233.5,210.9,233.5,211.4,233.5,212z M-23.1,260.6
			c-0.4-0.1-0.7-0.3-0.8-0.3c-0.3,0-0.6,0.2-0.6,0.3c0,0.1,0.4,0.2,0.6,0.3C-23.7,260.9-23.5,260.8-23.1,260.6z M232.6,128.8
			c-0.1,0-0.3,0-0.5,0c-0.1,0.3-0.2,0.6-0.3,0.9c0.1,0,0.3,0,0.4,0C232.4,129.4,232.5,129.1,232.6,128.8z M229.2,97.6
			c-0.1,0-0.2,0-0.4,0c0.1,0.3,0.1,0.6,0.2,0.9c0.1,0,0.3,0,0.4,0C229.4,98.1,229.3,97.9,229.2,97.6z M223.9-81.4
			C223.8-81.4,223.8-81.4,223.9-81.4c0,0.3,0,0.5,0,0.8c0,0,0,0,0,0C223.9-80.9,223.9-81.1,223.9-81.4z M231.3,169
			c0.1,0,0.1,0,0.2,0c0-0.2,0-0.5,0-0.7c-0.1,0-0.1,0-0.2,0C231.3,168.6,231.3,168.8,231.3,169z M-90.9,234.7c0.1,0,0.2,0,0.3,0
			c0.1-0.1,0.2-0.3,0.2-0.4c0-0.1-0.1-0.3-0.1-0.4c-0.1,0-0.3,0-0.4,0C-90.9,234.2-90.9,234.4-90.9,234.7z M224.5,10.4
			c-0.2-0.1-0.3-0.2-0.5-0.2c-0.2,0.1-0.5,0.1-0.5,0.2c0.1,0.1,0.3,0.2,0.5,0.3C224.1,10.6,224.3,10.5,224.5,10.4z M-84.6,150.7
			c-0.2,0.2-0.3,0.2-0.3,0.3c0,0.1,0.1,0.1,0.2,0.2c0.2-0.1,0.4-0.1,0.4-0.2C-84.2,151-84.4,150.9-84.6,150.7z M-72.6,176.8
			c-0.1,0-0.1,0-0.2,0c0,0.2,0,0.4,0,0.7c0.1,0,0.1,0,0.2,0C-72.6,177.2-72.6,177-72.6,176.8z M232.1,159c0-0.1-0.1-0.2-0.1-0.2
			c-0.1,0-0.4,0.1-0.4,0.1c0,0.1,0.1,0.2,0.2,0.3C231.9,159.1,232,159.1,232.1,159z M233.6,207.6c-0.2,0-0.4,0-0.5,0.1
			c0.2,0.1,0.4,0.3,0.5,0.4C233.6,207.9,233.6,207.8,233.6,207.6z M-71.6,216.9c-0.1,0-0.2,0-0.3,0c0,0.2,0,0.3,0.1,0.5
			c0.1,0,0.2,0,0.2,0C-71.6,217.2-71.6,217-71.6,216.9z M-8.9,261.5c0,0.1,0,0.1,0,0.2c0.4,0,0.9,0,1.3,0c0-0.1,0-0.1,0-0.2
			C-8.1,261.5-8.5,261.5-8.9,261.5z M18.1,262.7c-0.1-0.1-0.2-0.2-0.3-0.2c-0.2,0-0.4,0.1-0.6,0.2c0.1,0.1,0.2,0.2,0.2,0.2
			C17.6,262.8,17.8,262.7,18.1,262.7z M138.6,262.8c0.1,0,0.3-0.1,0.4-0.1c-0.1,0-0.3-0.1-0.4-0.1c-0.1,0-0.2,0.1-0.4,0.1
			C138.4,262.8,138.5,262.8,138.6,262.8z"/>
		<path class="st2" d="M209.4,264.6c-0.4-1.5-2.4-1.9-4.6-2.5c-2.6-0.7-4.8-0.6-7.4-0.2c-3,0.5-6.1,0.5-9.4,0.4
			c-5.7-0.3-11.4-0.3-17.2-0.5c-0.4,0-0.8,0.1-1.1,0c-2.3-0.5-4.7-0.3-7.1-0.3c-3.1,0-6.2,0-9.2,0c-0.4,0-0.7-0.1-1-0.1
			c-1.3-0.2-2.5-0.4-3.9-0.1c-0.3,0.1-1.3,0-1.3,0c-0.3-0.5-1.3-0.3-2-0.3c-1,0-2,0-3.1,0.1c-1.1,0-2.2,0.1-3.3,0.2
			c-3.4,0.1-6.9,0.1-10.3,0.1c-2.6,0-5.2,0.1-7.8,0.2c-4.8,0.1-9.5,0.1-14.2,0.2c-2.4,0.1-4.8-0.1-7.3,0.1
			c-4.7,0.2-9.5,0.1-14.2,0.1c-2,0-3.9,0.1-5.9,0.1c-4.4,0.1-8.8,0.2-13.1,0.2c-5.8,0-11.6,0-17.4-0.1c-7.4-0.1-14.7-0.3-22.1-0.5
			c-7.1-0.2-14.2-0.3-21.3-0.5c-2.9-0.1-5.9,0.1-8.6-0.2c-2.4-0.2-4.7-0.3-7.1-0.5c-3.4-0.2-6.8-0.5-10.2-0.6
			c-3.5-0.2-7-0.3-10.6-0.4c-3.6-0.1-7.3-0.1-10.9-0.1c-0.5,0-1,0.2-1.7,0.2c0.2,0.3,0.3,0.6,0.5,0.9c-2.3,0.4-2.1-0.4-2.7-1
			c-3.6,1.2-7.5,1.2-11.9,0.9c1-0.5,1.6-0.6,2.8-0.4c2,0.4,3.8,0.1,5.6-0.6c-2.3-0.1-4.7-0.3-7-0.4c-4-0.1-8-0.2-12-0.3
			c-2.5-0.1-3-0.3-3-1.4c0-0.9,0.2-1.8,0.3-2.7c0.1-1.8,0-3.6,0.3-5.4c0.2-1,0-1.8-0.3-2.8c-0.1-0.3,0.1-0.5,0.2-0.8
			c0.5-0.8,0.6-1.5-0.2-2.3c-0.7-0.7-0.2-1.6,0-2.3c0.1-0.5,0.7-0.9,0.7-1.3c0-0.4,0.8-0.9-0.7-1.2c-0.1,0-0.1-0.2,0-0.2
			c1.5-1.1,0.9-2.3,0.6-3.3c-0.3-1,0-1.8,0.1-2.8c0.2-1.9-0.1-3.7-0.1-5.6c0-0.8,0.3-1.6,0.2-2.4c-0.1-2.6,0-5.2-0.6-7.8
			c-0.2-1.2,0.6-2.4-1-3.5c-0.2-0.1,0.4-0.4,0.4-0.7c0-0.4-0.2-0.7-0.3-1.1c0-0.5-0.2-1,0.1-1.4c0.3-0.4,0.2-0.7-0.4-1.1
			c-0.4-0.2-0.7-0.7-0.3-1c1.3-1,0.7-2,0.4-3.2c-0.2,0.3-0.4,0.5-0.5,0.7c-0.1,0-0.2,0-0.3,0c0.1-0.5,0.1-1,0.3-1.4
			c0.3-0.6,0.4-0.6-0.7-1.5c-0.1-0.1-0.2-0.3,0-0.5c1.3-1.2,0.7-2.4,1-3.6c0.2-0.9,0.2-1.9,0.1-2.8c-0.1-0.8-0.3-1.6-0.7-2.4
			c-0.2-0.5-0.4-0.9,0.2-1.3c0.4-0.2,0.5-0.6,0.5-0.9c0.1-1.2,0.3-2.3,0.1-3.5c-0.1-0.8-0.6-1.6-0.9-2.4c-0.2-0.4,0-0.8,0.6-1.2
			c1.1-0.8,1.2-1.7-0.2-2.4c0.3-0.5,0.8-0.9,0.8-1.4c0.1-1.9,0.2-3.8,0.1-5.7c-0.1-0.8-1.1-1.6-1-2.5c0.2-1.5,0-3.1,0-4.7
			c0-0.3,0.3-0.5,0.5-0.8c0.5-0.7,0.6-1.3-0.1-1.9c-0.4-0.3-0.3-0.8-0.3-1.2c0.1-0.6,0.6-1.2,0.6-1.8c0.1-1.7-0.2-3.4,0.1-5
			c0.1-0.7-1.1-1.2-0.2-2c0.7-0.6,0.4-1.4,0.5-2c0.1-1.2,0-2.5,0.2-3.8c0.2-1.9,0.6-3.9,0.8-5.8c0.1-0.8,0.1-1.6,0.1-2.3
			c0-2.1-0.1-4.2,0-6.3c0.1-2.1,0.6-4.3,0.8-6.4c0.1-0.7,0.6-1.4-0.4-2.1c-0.2-0.1-0.2-0.4-0.1-0.6c1.7-1.9,0.9-3.8,1.2-5.7
			c0.2-1.6-0.1-3.1,0-4.7c0.2-2.5,0.5-5,0.7-7.5c0.3-3.3,0.5-6.5,0.8-9.8c0.4-3.9,0.9-7.9,1.4-11.8c0.2-1.6,0.3-3.2,0.4-4.8
			c0-0.4-0.5-0.7-0.8-1.1c1.5-0.9,0.9-2,1-3c0.3-2.8,0.5-5.7,0.4-8.5c-0.1-4.3-0.4-8.6-0.6-12.9c-0.1-3,0-5.9-0.1-8.9
			c0-2.1-0.2-4.3-0.3-6.4c-0.1-2.3-0.3-4.7-0.5-7c-0.3-2.6-0.8-5.3-1-7.9c-0.2-2-0.2-4-0.2-6c-0.1-3.8-0.1-7.6-0.2-11.4
			c-0.1-3.4-0.4-6.8-0.6-10.2c-0.2-4.1-0.4-8.1-0.5-12.2c-0.1-1.6,0.2-3.3,0.2-4.9c0.1-1.5,0.1-3,0.2-4.6c0.2-3.1,0.3-6.2,0.5-9.2
			c0.2-2.4,0.4-4.8,0.5-7.2c0.1-2,0.2-4,0.2-6.1c0.1-2.6,0.4-5.2,0.4-7.8c0-1.7-0.3-3.3-0.4-5c-0.1-1.6,0-3.2-0.1-4.8
			c-0.1-2.9-0.2-5.8-0.4-8.7c-0.1-1.6-0.5-3.2-0.7-4.9c-0.2-1.5-0.2-3-0.2-4.6c-0.1-2.3-0.2-4.5-0.2-6.8c-0.1-2.6-0.1-5.1-0.2-7.7
			c-0.3-3.4-0.8-6.8-1-10.2c-0.2-2.8-0.1-5.5-0.1-8.4c3.1,0.1,5.9,0.2,8.6,0.3c3.2,0.1,6.3,0.1,9.5,0.2c0.3,0,0.6,0,0.8,0
			c6.2,0.6,12.5,0.1,18.7-0.1c3.9-0.1,7.8-0.1,11.7-0.2c5.2-0.1,10.4-0.4,15.5-0.5c3.8-0.1,7.6-0.5,11.4,0c0.5,0.1,1.1,0,1.7,0
			c5.9,0,11.7,0,17.6,0c0.3,0,0.7,0,1,0.2c-2.3,0-4.6,0-6.9,0.1c0,0.1,0,0.2,0,0.3c1.8,0,3.6,0,5.4,0c3.8,0,7.7,0,11.5,0
			c1.3,0,2.6,0,3.9,0.1c3.9,0.2,7.9,0.4,11.9,0.6c1.2,0.1,2.4,0.2,3.6,0.2c8.5,0,17,0,25.5,0.1c4.3,0,8.6,0.2,12.9,0.2
			c3.7,0,7.5,0,11.2,0c4.7,0.1,9.3,0.2,14,0.4c1,0,2.1,0,3.1,0c8.3,0.1,16.6,0.2,24.9,0.3c6.1,0.1,12.3,0,18.4,0.2
			c3.8,0.1,7.6,0.3,11.4,0.2c3.5,0,6.9,0,10.4,0.1c3.3,0,6.7,0.1,10,0.1c2.2,0.1,3.8,0.8,4.1,1.9c0.4,1.2,0.6,2.5,0.8,3.7
			c0.2,0.9,0.1,1.8,0.4,2.7c0.2,0.6-0.4,1.1-0.1,1.7c0.8,1.8,1.1,3.6,1.5,5.4c0.1,0.5-0.1,0.9-0.2,1.4c-0.1,0.8-0.1,1.5-0.1,2.3
			c0,0.5,0.3,1.1,0.1,1.6c-0.8,1.6-1.2,3.1-0.5,4.7c0,0.1,0,0.2,0,0.4c-1,1.6-0.8,3.3-0.4,5c0.2,0.8-0.4,1.6-0.5,2.4
			c-0.1,1.6-0.2,3.1-0.2,4.7c0,0.6,0.3,1.2,0.3,1.7c0,1.7-0.2,3.3-0.3,5c0,0.2,0,0.4,0.1,0.6c0.5,1.2,0.6,2.4,0.1,3.7
			c-0.4,0.9,0.3,1.9,0.5,2.9c0.2,0.8,0.4,1.5,0.6,2.3c0,0.1,0.1,0.2,0,0.2c-1.5,0.8-0.4,1.7-0.4,2.6c-0.1,0.9,0.5,1.8-0.1,2.7
			c-0.8,1.3,0.4,2.5-0.5,3.8c-0.8,1.1-0.7,2.4,0.4,3.6c0.8,0.9,0.5,1.8,0,2.8c-0.6,1.1-0.5,2.3,0,3.4c0.4,0.8,0,1.7,0,2.6
			c0,0.7-0.5,1.4-0.1,2c0.7,1.1,0.7,2.1,0.4,3.2c-0.1,0.2-0.2,0.5-0.2,0.7c0,1.8,0.1,3.5,0,5.2c0,0.7-0.2,1.4-0.2,2.1
			c0,0.8,0.1,1.5,0.2,2.3c0,0.2,0.1,0.5,0,0.7c-1.5,2.2-0.5,4.4-0.2,6.6c0.1,0.9,0.7,1.8-0.1,2.8c-0.3,0.4-0.2,0.9,0.1,1.3
			c1.3,1.6,0.8,3.4,1.2,5.1c0.1,0.3-0.2,0.5-0.3,0.8c-0.5,1.5-0.7,3.1,0.7,4.6c0.2,0.2,0.1,0.5,0,0.8c-0.5,1.9-0.5,3.9-0.3,5.8
			c0.1,1.4,0.7,2.8,0.2,4.2c-0.4,1.3,0.4,2.7,0.6,4.1c0.1,0.3,0,0.7,0,1c-0.1,0.9-0.4,1.8,0.8,2.6c0.1,0.1,0.1,0.2,0,0.3
			c-1.3,1-1,2.1-0.7,3.2c0.2,0.7,0.1,1.5,0.1,2.2c0,1.6,0.1,3.2,0.1,4.8c0,0.9,0,1.7,0,2.6c0,1.6,0.1,3.2,0.2,4.8
			c0,0.5,0.4,1.1,0.4,1.6c0,0.8-0.1,1.7-0.1,2.5c0.1,1.7,0.3,3.4,0.4,5.1c0.1,1.8,0,3.6,0,5.5c0.1,1.3,0.4,2.6,0.5,3.9
			c0.1,0.7,0.1,1.4,0.1,2.1c0.1,2.1,0,4.3,0.4,6.4c0.5,2.5,0.2,4.9,0,7.3c0,0.6,0.4,1.2,0.5,1.8c0.1,0.4,0,0.8,0,1.2
			c-0.1,1.4-0.5,2.9,0.3,4.3c0.3,0.5,0.2,1.1,0.1,1.6c-0.7,2.3,0,4.5,0.9,6.7c0.1,0.1,0.1,0.3,0.1,0.5c-0.8,2,0.1,4.1-0.1,6.1
			c-0.2,2.2,0.6,4.5,1,6.7c0.3,2.5,0.5,5,0.8,7.5c0.2,1.8,0.8,3.5,1.1,5.3c0.2,1.4,0.3,2.8,0.4,4.2c0,0.6-0.3,1.2,0.6,1.7
			c0.1,0.1,0.1,0.1,0.1,0.2c-1.1,2.5,0.9,4.9,0,7.4c-0.2,0.5,0.1,1.1,0.1,1.6c-0.1,0.9-0.3,1.9-0.3,2.8c0,1.4,0,2.8,0.5,4.2
			c0.4,1,0.6,2.1,0.7,3.1c0,0.5,0.3,0.9-0.5,1.3c-0.3,0.2-0.1,0.5-0.1,0.8c0,1,0,2.1,0,3.2c0,0.9-0.1,1.9,0.1,2.8
			c0.4,1.2,0.3,2.5-0.2,3.7c-0.3,0.9-0.1,1.9,0,2.8c0.1,1-0.4,2,0.7,3c0.2,0.1-0.2,0.4-0.2,0.6c0,0.8-1,1.5-0.1,2.3
			c0.4,0.4-0.4,1-0.5,1.5c-0.3,1.9-0.8,3.7-0.8,5.6c0,2.8-0.4,5.7-0.5,8.5c-0.1,3.2,0.1,6.5,0.1,9.7c0.1,3,0.1,6.1,0.2,9.1
			c0.1,2.7,0.1,5.5,0.4,8.2c0.2,2.1,0.1,4.2,0.9,6.3c0.1,0.2,0.2,0.5,0,0.7c-1.2,1.5-0.1,2.8,0.6,4.2c0.1,0.3,0.1,0.6,0.1,0.9
			c0,1.3,0,2.6,0,4c0,1.8,0.1,3.7,0.1,5.5c0,1.2,0.5,2.5-0.1,3.7c-0.8,1.6-0.1,3.2-0.6,4.8c-0.6,1.7,0.3,3.5,0.5,5.2
			c0.1,1.1,0,2.2,0,3.4c0.1,1.3,0.2,2.6,0.3,3.9c0.1,1.2,0.1,2.5,0.2,3.7c0,0.3-0.3,0.5-0.4,0.8c-0.1,0.3-0.1,0.6-0.2,0.9
			c0,0.1,0.1,0.2,0.1,0.2c0,1.3-0.1,2.5-0.2,3.8c0,0.4-0.1,0.8-0.1,1.3c0,1.6,0,3.2-0.3,4.7c-0.2,1.2-0.7,2.3-0.6,3.5
			c0.1,0.7,0,1.3-1.8,1.7C210.2,264,210.1,264.2,209.4,264.6z"/>
	</g>
</g>
<g id="Ebene_5" class="st0">
	<g class="st1">
		<g>
			<path d="M112.1,77.1c-1.8,0-3.2,0-4.8,0c0,1.8,0,3.3,0,5.1c-13.7,0-27.2,0.1-40.9,0.1c0-1.6,0-3.2,0-5c-1.8,0-3.4,0-5.4,0
				c0-3.8,0-7.4,0-11.1c-1.7,0-3.1,0-4.7,0c0-10.6-0.1-21.1-0.1-31.8c1.5,0,2.9,0,4.6,0c0-3.7,0-7.3,0-11c1.8,0,3.4,0,5.3,0
				c0-1.8,0-3.5,0-5.2c13.7,0,27.2-0.1,40.9-0.1c0,1.6,0,3.2,0,5c1.7,0,3.1,0,4.8,0c0,3.7,0,7.3,0,11.1c1.9,0,3.5,0,5.3,0
				c0,10.7,0.1,21.1,0.1,31.8c-1.7,0-3.3,0-5.1,0C112,69.8,112,73.3,112.1,77.1z M107.2,60.8c1.8,0,3.2,0,4.7,0c0-7.1,0-14-0.1-21.3
				c-1.6,0-3.1,0-4.8,0c0-3.7,0-7.1,0-10.6c-1.9,0-3.4,0-5.3,0c0-2,0-3.8,0-5.5c-10.3,0-20.2,0.1-30.4,0.1c0,1.9,0,3.6,0,5.6
				c-1.8,0-3.5,0-5.3,0c0,3.7,0,7.1,0,10.6c-1.8,0-3.4,0-5.1,0c0,7.1,0,14,0.1,21.3c1.8,0,3.4,0,5.3,0c0,3.8,0,7.4,0,11.1
				c1.9,0,3.4,0,5.3,0c0,1.8,0,3.5,0,5c10.3,0,20.2-0.1,30.4-0.1c0-1.8,0-3.3,0-5.2c1.8,0,3.5,0,5.2,0
				C107.2,68.1,107.2,64.6,107.2,60.8z"/>
			<path d="M-15.2,45.3c0-5.2,0-10.4-0.1-15.9c-1.8,0-3.4,0-5.2,0c0-2,0-3.7,0-5.7c1.6,0,3.3,0,5.1,0c0-1.8,0-3.4,0-5.2
				c3.4,0,6.6,0,10.1,0c0,3.5,0,7,0,10.8c1.6,0,3.1,0,4.9,0c0,1.9,0,3.5,0,5.3c1.9,0,3.4,0,5.3,0c0-1.6,0-3.2,0-5.1
				c1.9,0,3.5,0,5.4,0c0-3.8,0-7.3,0-11c3.4,0,6.6,0,10.1,0c0,1.6,0,3.2,0,5c1.6,0,3.1,0,4.8,0c0,2,0,3.7,0,5.7c-1.4,0-2.9,0-4.7,0
				c0,3.8,0,7.3,0,10.8l0.1-0.1c-10.3,0-20.5,0.1-30.9,0.1c0,2,0,3.7,0,5.4l0.1-0.1C-12.1,45.2-13.7,45.2-15.2,45.3L-15.2,45.3z"/>
			<path d="M20.3,39.9c1.5,0,3,0,4.8,0c0,1.8,0,3.4,0,5.2c1.8,0,3.4,0,5.2,0c0,3.6,0,7,0,10.5c-1.6,0-3.2,0-5,0c0,3.6,0,7,0,10.7
				c-1.8,0-3.4,0-4.9,0l0.1,0.1C20.4,57.5,20.4,48.7,20.3,39.9L20.3,39.9z"/>
			<path class="st2" d="M107.2,60.8c0,3.9,0,7.4,0,11.1c-1.8,0-3.5,0-5.2,0c0,1.8,0,3.4,0,5.2c-10.2,0-20.1,0.1-30.4,0.1
				c0-1.6,0-3.2,0-5c-1.8,0-3.4,0-5.3,0c0-3.7,0-7.3,0-11.1c-1.9,0-3.5,0-5.3,0c0-7.2,0-14.1-0.1-21.3c1.6,0,3.2,0,5.1,0
				c0-3.6,0-7,0-10.6c1.9,0,3.5,0,5.3,0c0-2,0-3.7,0-5.6c10.2,0,20.1-0.1,30.4-0.1c0,1.7,0,3.5,0,5.5c1.8,0,3.4,0,5.3,0
				c0,3.6,0,7,0,10.6c1.7,0,3.2,0,4.8,0c0,7.2,0,14.1,0.1,21.3C110.4,60.7,109,60.8,107.2,60.8z M101.6,66c0-10.5-0.1-21-0.1-31.5
				c-10,0-20,0.1-29.9,0.1c0,10.6,0.1,21,0.1,31.5C81.7,66.1,91.6,66,101.6,66z"/>
			<path class="st2" d="M20.4,39.8c0,8.9,0.1,17.7,0.1,26.6c-3.3,0-6.5,0-10.1,0c0,1.9,0,3.7,0,5.8c-8.7,0-17.2,0-25.7,0.1
				c0-1.8,0-3.7,0-5.8c1.6,0,3.1,0,4.7,0c0-3.6,0-6.9,0-10.5c-1.4,0-2.9,0-4.7,0c0-3.8,0-7.3,0-10.8c1.6,0,3.2,0,4.9,0
				c0,1.7,0,3.5,0,5.2c1.9,0,3.5,0,5.1,0c0-1.8,0-3.4,0-5.1c-1.8,0-3.5,0-5.2,0c0-1.7,0-3.3,0-5.4C-0.2,39.9,10.1,39.8,20.4,39.8z
				 M10.3,50.5c-3.5,0-7,0-10.5,0c0,1.8,0,3.4,0,5.1c3.5,0,6.9,0,10.4,0C10.2,53.8,10.2,52.1,10.3,50.5c1.5-0.1,3.1-0.1,4.7-0.1
				c0-1.9,0-3.5,0-5.1c-1.6,0-3,0-4.6,0C10.3,47.2,10.3,48.9,10.3,50.5z"/>
			<path d="M101.6,66c-10.1,0-19.9,0.1-29.9,0.1c0-10.5-0.1-21-0.1-31.5c10,0,19.9-0.1,29.9-0.1C101.6,45,101.6,55.5,101.6,66z
				 M96.4,60.8c0-7.2,0-14.1-0.1-21c-6.8,0-13.4,0-20,0.1c0,7.1,0,14,0.1,21C83.1,60.8,89.7,60.8,96.4,60.8z"/>
			<path d="M10.2,50.5c0,1.7,0,3.3,0,5.1c-3.5,0-6.9,0-10.4,0c0-1.7,0-3.2,0-5.1C3.3,50.6,6.8,50.6,10.2,50.5L10.2,50.5z"/>
			<path d="M10.3,50.5c0-1.7,0-3.3,0-5.2c1.6,0,3.1,0,4.6,0c0,1.6,0,3.2,0,5.1C13.3,50.5,11.8,50.5,10.3,50.5
				C10.2,50.5,10.3,50.5,10.3,50.5z"/>
			<path class="st2" d="M96.4,60.8c-6.7,0-13.3,0-20,0.1c0-7,0-13.9-0.1-21c6.6,0,13.2,0,20-0.1C96.4,46.7,96.4,53.6,96.4,60.8z
				 M81.7,45.1c0,3.6,0,6.9,0,10.3c3.4,0,6.6,0,9.8,0c0-3.5,0-6.8,0-10.3C88.2,45.1,85,45.1,81.7,45.1z"/>
			<path d="M81.7,45.1c3.3,0,6.5,0,9.8,0c0,3.4,0,6.7,0,10.3c-3.2,0-6.4,0-9.8,0C81.7,52,81.7,48.7,81.7,45.1z"/>
		</g>
	</g>
</g>
<g id="Ebene_6" class="st0">
	<rect x="-54.7" y="5.9" class="st4" width="290.3" height="72.1"/>
	<text transform="matrix(1 0 0 1 -54.7404 35.921)" class="st1 st5 st6">ARCHIVE </text>
</g>
<g id="Ebene_10">
	<g>
		<path d="M9.4,48.3c-1.5,0-3,0-4.7,0c0-1.7,0-3.3,0-5.1c-1.6,0-3,0-4.6,0C0,40,0,37,0,33.8c1.4,0,2.8,0,4.5,0c0-3.2,0-6.2,0-9.5
			c1.8,0,3.3,0,4.9,0l-0.1-0.1c0,3.1,0,6.2,0,9.6c1.6,0,2.9,0,4.2,0c0,3.2,0,6.2,0,9.4c-1.4,0-2.8,0-4.2,0
			C9.3,45.1,9.3,46.7,9.4,48.3L9.4,48.3z"/>
		<g>
			<path d="M122.8,52.7c-1.6,0-2.8,0-4.3,0c0,1.6,0,3,0,4.6c-12.2,0-24.3,0.1-36.5,0.1c0-1.4,0-2.8,0-4.5c-1.6,0-3.1,0-4.8,0
				c0-3.4,0-6.6,0-9.9c-1.5,0-2.8,0-4.2,0c0-9.5-0.1-18.8-0.1-28.3c1.3,0,2.6,0,4.1,0c0-3.3,0-6.5,0-9.9c1.6,0,3,0,4.7,0
				c0-1.6,0-3.1,0-4.7C94,0.1,106,0,118.2,0c0,1.4,0,2.9,0,4.5c1.5,0,2.8,0,4.3,0c0,3.3,0,6.5,0,9.9c1.7,0,3.1,0,4.7,0
				c0,9.5,0.1,18.8,0.1,28.3c-1.5,0-2.9,0-4.6,0C122.8,46.1,122.8,49.2,122.8,52.7z M118.5,38.1c1.6,0,2.8,0,4.2,0
				c0-6.4,0-12.5-0.1-19c-1.4,0-2.8,0-4.3,0c0-3.3,0-6.3,0-9.5c-1.6,0-3,0-4.7,0c0-1.8,0-3.4,0-4.9c-9.1,0-18,0-27.1,0.1
				c0,1.7,0,3.3,0,5c-1.6,0-3.1,0-4.8,0c0,3.3,0,6.3,0,9.5c-1.6,0-3,0-4.5,0c0,6.4,0,12.5,0.1,19c1.6,0,3,0,4.7,0c0,3.4,0,6.6,0,9.9
				c1.6,0,3,0,4.7,0c0,1.6,0,3.1,0,4.5c9.1,0,18,0,27.1-0.1c0-1.6,0-3,0-4.6c1.6,0,3.1,0,4.7,0C118.5,44.6,118.5,41.5,118.5,38.1z"
				/>
			<path d="M9.3,24.3c0-4.6,0-9.3,0-14.2c-1.6,0-3,0-4.6,0c0-1.8,0-3.3,0-5.1c1.4,0,2.9,0,4.5,0c0-1.6,0-3,0-4.6c3,0,5.9,0,9,0
				c0,3.1,0,6.3,0,9.6c1.5,0,2.8,0,4.3,0c0,1.7,0,3.1,0,4.7c1.6,0,3.1,0,4.7,0c0-1.4,0-2.9,0-4.5c1.7,0,3.1,0,4.8,0
				c0-3.4,0-6.5,0-9.8c3,0,5.9,0,9,0c0,1.4,0,2.8,0,4.5c1.5,0,2.8,0,4.2,0c0,1.8,0,3.3,0,5.1c-1.3,0-2.6,0-4.2,0c0,3.4,0,6.5,0,9.6
				l0.1-0.1c-9.2,0-18.3,0.1-27.6,0.1c0,1.8,0,3.3,0,4.8l0.1-0.1C12.1,24.2,10.7,24.2,9.3,24.3L9.3,24.3z"/>
			<path d="M41.1,43c0,4.8,0,9.6,0,14.5c-1.5,0-2.9,0-4.6,0c0-1.4,0-2.9,0-4.5c-7.7,0-15.2,0-22.9,0.1c0,1.5,0,2.9,0,4.5
				c-3.1,0-5.9,0-8.9,0c0-1.4,0-2.8,0-4.5c1.4,0,2.9,0,4.6,0c0-1.8,0-3.3,0-4.9l-0.1,0.1c7.6,0,15.1,0,22.9-0.1c0-1.8,0-3.4,0-5.2
				C35.3,43.1,38.2,43.1,41.1,43L41.1,43z"/>
			<path d="M41,19.4c1.4,0,2.7,0,4.3,0c0,1.6,0,3,0,4.7c1.6,0,3,0,4.6,0c0,3.2,0,6.2,0,9.4c-1.4,0-2.8,0-4.5,0c0,3.2,0,6.2,0,9.5
				c-1.6,0-3,0-4.4,0l0.1,0.1C41.1,35.2,41.1,27.3,41,19.4L41,19.4z"/>
			<path class="st2" d="M118.5,38.1c0,3.4,0,6.6,0,9.9c-1.6,0-3.1,0-4.7,0c0,1.6,0,3,0,4.6c-9.1,0-18,0-27.1,0.1c0-1.4,0-2.9,0-4.5
				c-1.6,0-3,0-4.7,0c0-3.3,0-6.5,0-9.9c-1.7,0-3.1,0-4.7,0c0-6.4,0-12.6-0.1-19c1.5,0,2.9,0,4.5,0c0-3.2,0-6.2,0-9.5
				c1.7,0,3.1,0,4.8,0c0-1.8,0-3.3,0-5c9.1,0,18,0,27.1-0.1c0,1.5,0,3.1,0,4.9c1.6,0,3,0,4.7,0c0,3.2,0,6.2,0,9.5c1.5,0,2.9,0,4.3,0
				c0,6.4,0,12.6,0.1,19C121.3,38,120.1,38,118.5,38.1z M113.5,42.8c0-9.4-0.1-18.7-0.1-28.1c-9,0-17.8,0-26.7,0.1
				c0,9.4,0.1,18.8,0.1,28.1C95.8,42.8,104.6,42.8,113.5,42.8z"/>
			<path class="st2" d="M41.1,19.4c0,7.9,0.1,15.8,0.1,23.7c-2.9,0-5.8,0-9,0c0,1.7,0,3.3,0,5.2c-7.8,0-15.3,0-22.9,0.1
				c0-1.6,0-3.3,0-5.1c1.4,0,2.7,0,4.2,0c0-3.2,0-6.2,0-9.4c-1.3,0-2.6,0-4.2,0c0-3.4,0-6.5,0-9.6c1.4,0,2.9,0,4.4,0
				c0,1.5,0,3.1,0,4.6c1.7,0,3.1,0,4.5,0c0-1.6,0-3,0-4.6c-1.6,0-3.1,0-4.6,0c0-1.5,0-3,0-4.8C22.8,19.4,31.9,19.4,41.1,19.4z
				 M32.1,29c-3.1,0-6.2,0-9.4,0c0,1.6,0,3,0,4.5c3.1,0,6.1,0,9.3,0C32,31.9,32,30.4,32.1,29c1.3-0.1,2.7-0.1,4.1-0.1
				c0-1.7,0-3.1,0-4.5c-1.4,0-2.7,0-4.1,0C32,26,32,27.5,32.1,29z"/>
			<path d="M113.5,42.8c-9,0-17.8,0-26.7,0.1c0-9.4-0.1-18.7-0.1-28.1c8.9,0,17.7,0,26.7-0.1C113.5,24,113.5,33.4,113.5,42.8z
				 M108.9,38.1c0-6.4,0-12.6-0.1-18.8c-6,0-11.9,0-17.8,0c0,6.3,0,12.5,0.1,18.8C97.1,38.1,102.9,38.1,108.9,38.1z"/>
			<path d="M32,28.9c0,1.5,0,3,0,4.6c-3.1,0-6.1,0-9.3,0c0-1.5,0-2.9,0-4.5C25.8,29,28.9,29,32,28.9L32,28.9z"/>
			<path d="M13.5,24.2c1.5,0,3,0,4.6,0c0,1.6,0,3,0,4.6c-1.5,0-2.9,0-4.5,0C13.6,27.2,13.6,25.7,13.5,24.2
				C13.5,24.2,13.5,24.2,13.5,24.2z"/>
			<path d="M32.1,29c0-1.5,0-3,0-4.6c1.4,0,2.7,0,4.1,0c0,1.5,0,2.9,0,4.5C34.8,28.9,33.4,28.9,32.1,29C32,28.9,32.1,29,32.1,29z"/>
			<path class="st2" d="M108.9,38.1c-6,0-11.8,0-17.8,0c0-6.2,0-12.4-0.1-18.8c5.9,0,11.8,0,17.8,0
				C108.8,25.5,108.9,31.7,108.9,38.1z M95.8,24.1c0,3.2,0,6.2,0,9.1c3,0,5.9,0,8.7,0c0-3.1,0-6.1,0-9.1
				C101.6,24.1,98.7,24.1,95.8,24.1z"/>
			<path d="M95.8,24.1c3,0,5.8,0,8.7,0c0,3,0,6,0,9.1c-2.8,0-5.7,0-8.7,0C95.8,30.3,95.8,27.3,95.8,24.1z"/>
		</g>
	</g>
</g>
</svg>
