<?xml version="1.0" encoding="utf-8"?>
<!-- Generator: Adobe Illustrator 23.0.6, SVG Export Plug-In . SVG Version: 6.00 Build 0)  -->
<svg version="1.1" id="Ebene_1" xmlns="http://www.w3.org/2000/svg" xmlns:xlink="http://www.w3.org/1999/xlink" x="0px" y="0px"
	 viewBox="0 0 332 399" style="enable-background:new 0 0 332 399;" xml:space="preserve">
<style type="text/css">
	.st0{fill:#FFFFFF;}
	.st1{fill:#1D1D1B;}
	.st2{display:none;}
	.st3{display:inline;}
</style>
<g>
	<g>
		<path d="M7.5,393.3c-0.8-0.1-1.6-0.2-2.4-0.3c-2.8-0.3-4.6-1.3-4.7-2.6c0-1.2,0.1-2.4,0.1-3.6c0-0.3-0.2-0.5-0.2-0.8
			c0-0.4-0.3-0.8,0.1-1.2c1.5-1.2,0.7-2.3-0.1-3.5c-0.3-0.5-0.1-1-0.1-1.5c0.4-0.1,0.8-0.1,1.1-0.2c1.6-0.2,1.7-0.3,1.1-0.9
			c-0.4-0.4-0.9-0.9-0.9-1.3c-0.1-0.6-0.5-1.3,2.3-1.4c-3.3-1.1-2.7-2.3-1.9-3.6c0.5,0,0.9,0,1.2,0c-0.5-1.2-1-2.4-1.5-3.5
			c-0.7,0-1.2,0-1.7,0c0.6-0.7,1.2-1.4,1.8-2.1c0.4,0.1,0.8,0.1,1.3,0.2c0.1-0.1,0.3-0.2,0.3-0.3c-0.3-0.5-0.5-1.1-0.9-1.6
			c-0.6-0.7-0.4-1.3,0.4-1.9c1.2-0.8,0.8-1.6-0.1-2.4c-0.2-0.2-0.5-0.4-0.5-0.6c-0.1-2.9-0.1-5.8-0.1-8.8c0.7,0,1-0.1,1.4-0.1
			c0-0.1,0.1-0.2,0-0.2c-0.8-0.4-1.3-0.7-0.5-1.2c0.3-0.2,0.3-0.6,0.2-0.9c-0.6-1.2-1.2-2.5-2-3.7c-0.6-0.8-0.1-1.6,0.8-2.2
			c1.3-0.9,0.9-1.8,0.2-2.7c-0.4-0.5-0.4-0.8,0.3-1.2c1.2-0.7-0.3-1.4-0.1-2.1c-2.2-0.9-1.2-2.1-1.1-3.1c0.1-0.9-0.1-1.8-0.4-2.7
			c-0.1-0.3-0.4-0.6-0.2-0.8c1.3-1.4,0.3-2.8,0.7-4.3c0.3-1.2,0.1-2.4,0.1-3.6c0-0.2-0.1-0.3,0-0.5c0.8-0.9,0.6-1.8,0.4-2.7
			c-0.3-1.5,0.1-3,0-4.5c0-1.2-0.4-2.5-0.4-3.7c0-0.8,0.4-1.5,0.8-2.3c0.3-0.7,0.8-1.3-0.5-2c-0.7-0.3-0.5-1.1-0.2-1.7
			c0.5-0.8,0.9-1.7,0.4-2.5c-0.3-0.5,0.4-1.2,0.3-1.7c-0.1-0.5,0.8-1.1-0.6-1.6c-0.5-0.2,0.1-0.9,0.4-1.3c0.8-1.2,0.7-2.5-0.5-3.6
			c-0.1-0.1-0.3-0.2-0.2-0.3c1.4-1.5-1.3-2.7-0.6-4.2c0.2,0,0.6,0,1.2,0c0.4-1.1,0.6-2.2-0.4-3.3c-0.3-0.3-0.4-0.8-0.1-1.1
			c1.3-1.3,0.2-2.7,0.8-4c0.1-0.2-0.6-0.5-0.9-0.8c1.7-0.8,2.5-2.5,0.5-3.1c1.6-0.8,1-1.5,0-2.3c1.3-0.4,1.6-0.8,0.6-1.4
			c-0.1,0-0.2-0.2-0.1-0.2c0.6-0.9,0.1-1.8,0.1-2.8v-0.1c0.7,0,1-0.1,0.8-0.4c-0.1-0.2-0.2-0.3-0.3-0.5c-0.7-0.9-1.2-1.8,0.4-2.6
			c0.3-0.1,0.1-0.5,0.1-0.7c0-1.2,0.3-2.5-0.2-3.7c-0.7-1.6,0.3-3.1,0.6-4.6c0.1-0.5,0.1-1-0.2-1.5c-0.4-0.7-0.3-1.4,0.5-1.9
			s0.6-0.9,0.3-1.3c-0.8-1.2-1.1-2.3,0.1-3.5c0.4-0.4,0.1-1-0.3-1.4c-0.6-0.5-0.5-1-0.2-1.6c0.3-0.5,0.4-1.1,0.4-1.6
			c0.2-1.1,0.3-2.2,0.5-3.4c0.1-0.4,0.3-0.8,0.3-1.2c0-2-0.5-4,0.1-6c0.5-2-0.1-4.1,1-6.1c0.4-0.9-0.2-1.8-0.2-2.8
			c0-0.8,0.3-1.7,0.3-2.5c0.1-1.4,0.2-2.7,0.2-4c0-0.4,0.2-0.8,0.2-1.2c0-0.9,0-1.8,0-2.7c0-0.4-0.3-0.9,0-1.3
			c1.2-1.4,0.5-2.8,0.7-4.2c0.3-1.6,0.1-3.2,0.1-4.8c0.1-2.4,0.2-4.8,0.3-7.1c0,0-0.1-0.1,0-0.1c1.3-1.7,0.3-3.3,0.1-5
			c-0.1-1.1-0.3-2.2-0.3-3.3c0.1-3.2-0.3-6.4-0.1-9.5c0-0.4-0.2-0.9-0.2-1.3c0-0.5,0.1-1,0.2-1.5c0-0.1,0.2-0.2,0.1-0.3
			c-1.1-2,0.4-4.1-0.5-6.1c-0.3-0.7,0.2-1.5,0.3-2.3c0-0.6-0.1-1.2-0.2-1.8c-0.4-2.2-0.8-4.3-1.1-6.5c-0.2-1.5-0.2-3-0.3-4.4
			c0-0.6-0.1-1.2-0.3-1.8c-0.2-0.7-0.5-1.3,0.3-1.9c0.3-0.2,0.3-0.5,0.1-0.8c-0.9-1.2-0.8-2.5-0.6-3.7c0-0.2,0.1-0.3,0.1-0.5
			c-0.1-1.9-0.1-3.9-0.2-5.8v-0.1c1.2-1.5-0.1-3,0.1-4.5s-0.5-2.9-0.3-4.4c0.2-2.1-1-4.2,0.2-6.3c0.1-0.2-0.2-0.5-0.2-0.7
			c-0.7-1.8-1.2-3.5-0.4-5.3c0.5-1.2-0.3-2.4,0.1-3.7c0.7-2.1-0.8-4.2,0.6-6.4c0.2-0.3,0.1-0.6,0-0.9c-0.9-1.6-0.3-3.3-0.4-5
			c0-1.8,0.6-3.5,0.7-5.3c0.1-0.9-0.3-1.8-0.3-2.7c0.1-1.5,0.4-3.1,0.5-4.6c0.1-0.7,0.2-1.4,0.2-2.1c0-1.8-0.2-3.6-0.2-5.4
			c0.1-1.8,0.5-3.6,0.5-5.4c0.1-2.2-0.1-4.3-0.1-6.5c0-1.5,0.2-3.1,0.2-4.7c0-0.5-0.1-1.1-0.2-1.6C6.3,63.7,6.2,61.4,6,59
			c-0.2-2.5-0.6-5-1-7.6c-0.2-1.2-0.7-2.5-0.3-3.7c0.3-1.3-0.1-2.6-0.1-3.9c0.1-2.7,0-5.4-0.1-8.1c0-0.7-0.3-1.4-0.2-2.1
			c0.4-3.1,0.3-6.2-0.3-9.3c-0.3-1.7-0.1-3.4,0-5c0-0.3-0.2-0.6,0.8-0.8c0.2,0,0.4-0.3,0.4-0.4c0.3-1.3,1.4-2.5,1.3-3.9
			c-0.2-1.6,1.3-3,2-4.5c0.2-0.3,1-0.6,1.6-0.9c2.1-1,2.5-2.2,2.7-3.4c0.1-0.6,0.1-1.2,1.3-1.7c0.8-0.4,1.6-0.9,1.3-1.5
			c-0.1-0.3,0.4-0.7,0.7-1.1c3.2,0.5,2.3,1.9,3.8,2.7c3.6-0.2,7.1-0.4,10.7-0.6c3.2-0.2,6.3-0.4,9.5-0.5C49.8,2.5,59.5,2,69.2,1.4
			C78.8,0.9,88.3,0.3,98,0c7.9-0.2,15.8-0.4,23.7,0c2.9,0.1,5.8-0.1,8.7-0.1c7.5,0.1,14.9,0.2,22.4,0.2c3.1,0,6.2,0,9.2,0
			c5.7,0,11.4,0,17.1,0c6.1,0,12.1,0,18.2,0.1c3.1,0.1,6.1,0.1,9.2,0.1c1.7,0,3.5,0.2,5.2,0.2c1.6,0,2.9,0.5,4.8,0.1
			c1.5-0.3,3.6-0.1,5.5,0c1.8,0,3.5,0.2,5.3,0.2s3.5,0.1,5.3,0.1c3,0,5.9,0,8.9,0c0.3,0,0.8,0,1,0.1c0.9,0.4,1.9,0.3,2.9,0.1
			c1.3-0.2,2.4-0.2,3.9-0.1c1.7,0.1,3.6,0.5,5.5,0c0.8-0.2,1.8-0.1,2.8-0.1c3,0,5.9,0.1,8.9,0.1c4.4,0,8.8,0.3,13.3,0
			c1.6-0.1,3.3,0.2,4.9,0.2c1.5,0,3.1,0,4.7,0c5.2-0.1,10.4-0.3,15.7-0.4c3.4-0.1,6.9-0.1,10.3,0c2,0,3.3,0.6,4.4,1.4
			c1.5,1.1,1.5,2.1,1.2,3.2c-0.1,0.4-0.5,0.7-1,1c-1.1,0.7-1.8,1.5-1.7,2.3c0.4,3.1,0.8,6.1,1.2,9.2c0.5,3.3,0.9,6.5,0.3,9.8
			c-0.4,2.2-0.1,4.4-0.2,6.6c-0.1,1.3-0.3,2.6-0.4,4c-0.1,0.7,0,1.4-0.1,2.1c-0.1,0.3-0.2,0.7-0.7,1c-1,0.5-0.7,1-0.1,1.5
			c0.4,0.4,0.7,0.8,0.7,1.2c0,1.1,0,2.3-0.3,3.4c-0.3,0.9-0.1,1.8-1,2.6c-0.4,0.4-0.1,0.9,0,1.5c0.4-0.1,0.6-0.2,1-0.4
			c0.1,0.3,0.4,0.6,0.2,0.7c-2,0.8-1.3,1.7-1.3,2.6c0,3.7,0.2,7.4,0.2,11.1c0,2.5-0.2,4.9-0.2,7.4c0,1.9-0.1,3.8-0.1,5.7
			c0,2.4,0,4.8,0,7.2c0,1.5-0.3,3-0.3,4.4c-0.1,2.6-0.1,5.1-0.1,7.7c0,2,0,3.9,0.1,5.8c0,0.9,0.5,1.7,0.7,2.5
			c0.1,0.4,0.2,0.8,0.2,1.1c0,0.8-0.2,1.5-0.1,2.3c0.5,4.8,1.1,9.6,1.5,14.4c0.2,2.1,0,4.2,0,6.3c0,0.7,0.2,1.4,0.3,2.1
			c0.1,1.4,0.2,2.7,0.3,4.1c0,0.7-0.3,1.5-0.3,2.2c0.1,2.7,0.3,5.5,0.4,8.2c0.1,2.1,0,4.1,0.1,6.2c0,1,0.5,1.9,0.5,2.9
			c0,2.6,0,5.2,0,7.8c0,0.1,0,0.2,0,0.2c1.3,3.6,0.1,7.2,1.1,10.9c0.1,0.6-0.1,1.2-0.1,1.8c0,0.4-0.1,0.7-0.1,1
			c0.8,3.6,0.6,7.3,0.6,11c0,2.5,0.4,4.9,0.5,7.4c0,1-0.2,2-0.1,3c0.1,2.1,0.3,4.2,0.6,6.3c0.3,2.2,0.7,4.3,1,6.5
			c0.1,0.5-0.2,1.1-0.2,1.6c0.3,3.2,0.2,6.5,1.3,9.7c0.4,1.2,0.7,2.4,0.8,3.6c0.1,0.9-0.2,1.9-0.1,2.8c0.2,1.8,0.6,3.6,0.9,5.4
			c0.2,1.1,0.4,2.2,0.5,3.4c0.1,2.4,0.1,4.8,0.2,7.2c0.2,4.7,0.6,9.4,0.7,14.2c0,4.4-0.3,8.8-0.5,13.2c0,1.4,0,2.9,0,4.3
			c0,1.2,0,2.5,0,3.8c0.3-0.1,0.5-0.1,1.2-0.3c-0.2,0.4-0.2,0.8-0.6,0.9c-1.4,0.5-1.2,1-1.2,1.6c-0.1,2,0,4.1-0.1,6.1
			c-0.1,3-0.4,5.9-0.4,8.9c0,3.5,0.2,7,0.3,10.5c0.1,3.1,0.3,6.2,0.5,9.3c0.1,1.9,0.4,3.8,0.6,5.7c0.1,0.7,0,1.3,0.1,2
			c0.3,2.2,0.7,4.3,1,6.5c0.1,1,0,1.9-0.1,2.9c-0.1,1.9,0,3.8-0.2,5.6c-0.1,0.7,1.2,1.3,0.4,2.2c-0.6,0.7-0.1,1.5-0.1,2.3
			c-0.1,1.8-0.3,3.5-0.2,5.2c0.1,4.6,0.4,9.1,0.4,13.7c0,2.7-0.4,5.4-0.6,8.1c-0.2,2.6-0.6,5.2-0.5,7.8c0.1,1.2,0.1,2.5-0.3,3.7
			c0,0.1-0.1,0.2,0,0.2c2.3,0.7,0.6,1.8,1.6,2.7c1,0.9,1.2,1.9,2,2.8c1,1.2-0.9,2-2.1,3c-2-0.1-2.9,0.7-4.5,1
			c-1.3,0.2-2.5,0.7-3.5,1.1c-1.7,0.7-3.1,1.5-4.9,2.1c-1.7,0.6-3.8,1-5.7,1.4c-0.2,0.1-0.5,0.1-0.8,0.1c-3.4-0.1-6.9-0.2-10.3-0.2
			c-0.6,0-1.3-0.1-1.9,0c-4.6,0.6-9.1,0.3-13.6,0.1c-2.5-0.1-5,0-7.6,0c-1.4,0-2.8,0.1-4.2,0.1c-0.5,0-1.3,0-1.6-0.1
			c-2.5-0.9-5.7-0.6-8.6-0.7c-4.1-0.2-8.2-0.2-12.3-0.3c-1.5,0-3.1-0.3-4.6-0.4c-0.3,0-0.5-0.1-0.8-0.1c-3.7,0.1-7.5,0.1-11.2,0.2
			c-1.7,0.1-3.3-0.3-5.1,0c-1.6,0.2-3.5,0.1-5.3,0.2c-1.8,0-3.5,0-5.3,0.1c-4.9,0.1-9.7,0.2-14.5,0.3c-0.9,0-1.9-0.1-2.8-0.1
			c-2,0-4.1-0.1-6.1-0.1c-3.3,0-6.5,0-9.8,0c-1.5,0-2.9,0.2-4.4,0.2c-6.9,0-13.8,0.1-20.7,0.1c-3.7,0-7.5-0.1-11.2-0.2
			c-1.6,0-3.1,0-4.7,0c-4.5-0.1-8.9-0.3-13.3-0.5c-1.1,0-2.2,0-3.3,0c-5.4-0.1-10.8-0.2-16.2-0.3c-5.5-0.1-11-0.2-16.4-0.5
			c-3.1-0.1-6.2-0.5-9.3-0.6c-4.4-0.2-8.9-0.4-13.3-0.5c-7.7-0.2-15.4-0.3-23.2-0.4c-4.4-0.1-8.9-0.1-13.3-0.1
			c-1.2,0-1.9,0.2-2.8,0.6c-0.9,0.4-2.5,0.7-3.8,0.9c-3.7,0.4-7.4,0.1-11-0.2c-1.9-0.2-3.8-0.3-5.8-0.5c-3.3-0.3-3.7-0.5-4-1.9
			C7.6,393.7,7.6,393.5,7.5,393.3z M303.4,390c0.7-0.4,0.8-0.6,1.1-0.6c1.8-0.4,1.8-1,1.8-1.7c-0.1-1.2,0.3-2.3,0.6-3.5
			c0.3-1.6,0.3-3.2,0.3-4.7c0-0.4,0.1-0.8,0.1-1.3c0.1-1.3,0.1-2.5,0.2-3.8c0-0.1-0.1-0.2-0.1-0.2c0-0.3,0.1-0.6,0.2-0.9
			s0.4-0.5,0.4-0.8c0-1.2-0.1-2.5-0.2-3.7c-0.1-1.3-0.3-2.6-0.3-3.9c-0.1-1.1,0.1-2.2,0-3.4c-0.2-1.7-1.1-3.5-0.5-5.2
			c0.6-1.6-0.2-3.2,0.6-4.8c0.6-1.2,0.1-2.5,0.1-3.7c0-1.8-0.1-3.7-0.1-5.5c0-1.3,0-2.6,0-4c0-0.3,0.1-0.6-0.1-0.9
			c-0.7-1.4-1.8-2.8-0.6-4.2c0.2-0.2,0.1-0.5,0-0.7c-0.8-2.1-0.7-4.2-0.9-6.3c-0.2-2.7-0.3-5.5-0.4-8.2c-0.1-3-0.1-6.1-0.2-9.1
			c-0.1-3.2-0.2-6.5-0.1-9.7c0.1-2.8,0.5-5.7,0.5-8.5c0-1.9,0.5-3.7,0.8-5.6c0.1-0.5,0.9-1.1,0.5-1.5c-0.8-0.8,0.1-1.5,0.1-2.3
			c0-0.2,0.4-0.4,0.2-0.6c-1.2-1-0.6-2-0.7-3c-0.1-0.9-0.3-1.9,0-2.8c0.5-1.2,0.6-2.5,0.2-3.7c-0.3-0.9-0.1-1.9-0.1-2.8
			c0-1,0-2.1,0-3.2c0-0.3-0.2-0.6,0.1-0.8c0.7-0.4,0.5-0.9,0.5-1.3c0-1-0.3-2.1-0.7-3.1c-0.5-1.4-0.4-2.8-0.5-4.2
			c0-0.9,0.2-1.9,0.3-2.8c0-0.5-0.2-1.1-0.1-1.6c0.9-2.5-1.1-4.9,0-7.4c0-0.1,0-0.2-0.1-0.2c-0.9-0.5-0.5-1.1-0.6-1.7
			c-0.1-1.4-0.2-2.8-0.4-4.2c-0.3-1.8-0.8-3.5-1.1-5.3c-0.4-2.5-0.5-5-0.8-7.5c-0.3-2.2-1.1-4.5-1-6.7c0.2-2.1-0.7-4.1,0.1-6.1
			c0.1-0.1,0-0.3-0.1-0.5c-1-2.2-1.6-4.5-0.9-6.7c0.2-0.5,0.2-1.1-0.1-1.6c-0.8-1.4-0.4-2.9-0.3-4.3c0-0.4,0.1-0.8,0-1.2
			c-0.1-0.6-0.5-1.2-0.5-1.8c0.1-2.4,0.4-4.9,0-7.3c-0.4-2.1-0.3-4.3-0.4-6.4c0-0.7,0-1.4-0.1-2.1c-0.1-1.3-0.5-2.6-0.5-3.9
			c-0.1-1.8,0-3.6,0-5.5c-0.1-1.7-0.3-3.4-0.4-5.1c0-0.8,0.1-1.7,0.1-2.5c0-0.5-0.4-1.1-0.4-1.6c-0.1-1.6-0.1-3.2-0.2-4.8
			c0-0.9,0-1.7,0-2.6c0-1.6-0.1-3.2-0.1-4.8c0-0.7,0.1-1.5-0.1-2.2c-0.3-1.1-0.6-2.1,0.7-3.2c0.1-0.1,0.1-0.2,0-0.3
			c-1.2-0.8-0.9-1.7-0.8-2.6c0.1-0.3,0.1-0.7,0-1c-0.2-1.4-1.1-2.7-0.6-4.1c0.5-1.4-0.1-2.8-0.2-4.2c-0.2-1.9-0.2-3.9,0.3-5.8
			c0.1-0.3,0.2-0.6,0-0.8c-1.4-1.5-1.2-3-0.7-4.6c0.1-0.3,0.3-0.5,0.3-0.8c-0.4-1.7,0.1-3.4-1.2-5.1c-0.3-0.4-0.4-0.9-0.1-1.3
			c0.8-1,0.2-1.9,0.1-2.8c-0.3-2.2-1.3-4.4,0.2-6.6c0.1-0.2,0.1-0.5,0-0.7c0-0.8-0.2-1.5-0.2-2.3c0-0.7,0.2-1.4,0.2-2.1
			c0-1.8,0-3.5,0-5.2c0-0.2,0.1-0.5,0.2-0.7c0.3-1.1,0.3-2.1-0.4-3.2c-0.4-0.6,0.1-1.4,0.1-2c0.1-0.9,0.4-1.8,0-2.6
			c-0.6-1.2-0.6-2.3,0-3.4c0.5-0.9,0.8-1.8,0-2.8c-1-1.2-1.2-2.4-0.4-3.6c0.9-1.3-0.3-2.5,0.5-3.8c0.5-0.8,0-1.8,0.1-2.7
			c0.1-0.9-1-1.7,0.4-2.6c0.1,0,0-0.1,0-0.2c-0.2-0.8-0.4-1.5-0.6-2.3c-0.2-1-0.9-2-0.5-2.9c0.5-1.3,0.4-2.4-0.1-3.7
			c-0.1-0.2-0.1-0.4-0.1-0.6c0.1-1.7,0.2-3.3,0.3-5c0-0.6-0.3-1.2-0.3-1.7c0-1.6,0.1-3.1,0.2-4.7c0.1-0.8,0.7-1.6,0.5-2.4
			c-0.4-1.7-0.6-3.3,0.4-5c0.1-0.1,0.1-0.2,0-0.4c-0.7-1.6-0.3-3.1,0.5-4.7c0.3-0.5-0.1-1.1-0.1-1.6c0-0.8,0.1-1.5,0.1-2.3
			c0-0.5,0.3-0.9,0.2-1.4c-0.4-1.8-0.6-3.6-1.5-5.4c-0.3-0.6,0.3-1.1,0.1-1.7c-0.3-0.9-0.3-1.8-0.4-2.7c-0.2-1.2-0.4-2.5-0.8-3.7
			c-0.3-1.1-2-1.8-4.1-1.9c-3.3-0.1-6.7-0.1-10-0.1c-3.5,0-6.9-0.1-10.4-0.1c-3.8,0.1-7.6-0.1-11.4-0.2c-6.1-0.2-12.3-0.1-18.4-0.2
			c-8.3-0.1-16.6-0.2-24.9-0.3c-1,0-2.1,0-3.1,0c-4.7-0.1-9.3-0.3-14-0.4c-3.7-0.1-7.5,0-11.2,0c-4.3,0-8.6-0.2-12.9-0.2
			c-8.5,0-17,0-25.5-0.1c-1.2,0-2.4-0.1-3.6-0.2c-3.9-0.2-7.9-0.4-11.9-0.6c-1.3-0.1-2.6-0.1-3.9-0.1c-3.8,0-7.7,0-11.5,0
			c-1.8,0-3.6,0-5.4,0c0-0.1,0-0.2,0-0.3c2.3,0,4.6,0,6.9-0.1c-0.3-0.2-0.6-0.2-1-0.2c-5.9,0-11.7,0-17.6,0c-0.6,0-1.2,0.1-1.7,0
			c-3.8-0.4-7.6,0-11.4,0C83,9.5,77.8,9.8,72.7,10c-3.9,0.1-7.8,0.1-11.7,0.2c-6.2,0.2-12.5,0.7-18.7,0.1c-0.3,0-0.6,0-0.8,0
			c-3.2-0.1-6.3-0.1-9.5-0.2c-2.8-0.1-5.5-0.2-8.6-0.3c0,2.9-0.1,5.7,0.1,8.4c0.2,3.4,0.8,6.8,1,10.2c0.2,2.6,0.2,5.1,0.2,7.7
			c0.1,2.3,0.1,4.5,0.2,6.8c0.1,1.5,0.1,3,0.2,4.6c0.2,1.6,0.6,3.2,0.7,4.9c0.2,2.9,0.3,5.8,0.4,8.7c0.1,1.6,0,3.2,0.1,4.8
			c0.1,1.7,0.4,3.3,0.4,5c0,2.6-0.3,5.2-0.4,7.8c-0.1,2-0.1,4-0.2,6.1c-0.2,2.4-0.4,4.8-0.5,7.2c-0.2,3.1-0.3,6.2-0.5,9.2
			c-0.1,1.5-0.1,3-0.2,4.6s-0.3,3.3-0.2,4.9c0.1,4.1,0.3,8.1,0.5,12.2c0.2,3.4,0.5,6.8,0.6,10.2c0.1,3.8,0.1,7.6,0.2,11.4
			c0,2,0,4,0.2,6c0.2,2.6,0.7,5.3,1,7.9c0.2,2.3,0.4,4.7,0.5,7c0.1,2.1,0.3,4.3,0.3,6.4c0.1,3,0,5.9,0.1,8.9
			c0.1,4.3,0.5,8.6,0.6,12.9c0.1,2.8-0.1,5.7-0.4,8.5c-0.1,1,0.6,2.1-1,3c0.3,0.4,0.8,0.8,0.8,1.1c-0.1,1.6-0.2,3.2-0.4,4.8
			c-0.4,3.9-1,7.9-1.4,11.8c-0.3,3.3-0.5,6.5-0.8,9.8c-0.2,2.5-0.6,5-0.7,7.5c-0.1,1.6,0.2,3.1,0,4.7c-0.2,1.9,0.5,3.8-1.2,5.7
			c-0.2,0.2-0.1,0.4,0.1,0.6c0.9,0.7,0.5,1.4,0.4,2.1c-0.2,2.1-0.7,4.3-0.8,6.4c-0.1,2.1,0,4.2,0,6.3c0,0.8,0,1.6-0.1,2.3
			c-0.2,1.9-0.6,3.9-0.8,5.8c-0.1,1.2-0.1,2.5-0.2,3.8c-0.1,0.7,0.2,1.5-0.5,2c-0.9,0.8,0.3,1.3,0.2,2c-0.3,1.7,0,3.3-0.1,5
			c0,0.6-0.5,1.2-0.6,1.8c-0.1,0.4-0.2,0.9,0.3,1.2c0.8,0.7,0.6,1.3,0.1,1.9c-0.2,0.3-0.5,0.5-0.5,0.8c0,1.5,0.1,3.1,0,4.7
			c-0.1,0.9,1,1.7,1,2.5c0.1,1.9,0,3.8-0.1,5.7c0,0.4-0.5,0.9-0.8,1.4c1.4,0.7,1.2,1.6,0.2,2.4c-0.6,0.4-0.7,0.8-0.6,1.2
			c0.3,0.8,0.8,1.6,0.9,2.4c0.1,1.2,0,2.3-0.1,3.5c0,0.3-0.2,0.6-0.5,0.9c-0.7,0.5-0.5,0.9-0.2,1.3c0.4,0.8,0.6,1.6,0.7,2.4
			c0.1,0.9,0.1,1.9-0.1,2.8c-0.3,1.2,0.4,2.4-1,3.6c-0.1,0.1-0.1,0.3,0,0.5c1,0.9,1,0.9,0.7,1.5c-0.2,0.5-0.2,1-0.3,1.4
			c0.1,0,0.2,0,0.3,0c0.2-0.2,0.3-0.4,0.5-0.7c0.3,1.2,0.9,2.2-0.4,3.2c-0.3,0.2-0.1,0.7,0.3,1c0.6,0.4,0.7,0.6,0.4,1.1
			c-0.3,0.5-0.2,1-0.1,1.4c0,0.4,0.3,0.7,0.3,1.1c0,0.2-0.6,0.5-0.4,0.7c1.6,1.1,0.8,2.3,1,3.5c0.6,2.6,0.4,5.2,0.6,7.8
			c0,0.8-0.2,1.6-0.2,2.4c0,1.9,0.2,3.7,0.1,5.6c-0.1,0.9-0.4,1.8-0.1,2.8s1,2.2-0.6,3.3c-0.1,0.1-0.1,0.2,0,0.2
			c1.5,0.2,0.7,0.8,0.7,1.2c0,0.5-0.6,0.9-0.7,1.3c-0.1,0.8-0.6,1.7,0,2.3c0.8,0.8,0.7,1.5,0.2,2.3c-0.2,0.3-0.3,0.5-0.2,0.8
			c0.3,0.9,0.5,1.8,0.3,2.8c-0.3,1.8-0.2,3.6-0.3,5.4c-0.1,0.9-0.2,1.8-0.3,2.7c-0.1,1.1,0.5,1.3,3,1.4c4,0.1,8,0.2,12,0.3
			c2.4,0.1,4.7,0.2,7,0.4c-1.8,0.6-3.6,1-5.6,0.6c-1.2-0.2-1.8-0.1-2.8,0.4c4.4,0.3,8.3,0.4,11.9-0.9c0.6,0.5,0.5,1.4,2.7,1
			c-0.1-0.3-0.3-0.5-0.5-0.9c0.7-0.1,1.2-0.3,1.7-0.2c3.6,0,7.3,0,10.9,0.1c3.5,0.1,7.1,0.2,10.6,0.4c3.4,0.2,6.8,0.4,10.2,0.6
			c2.4,0.2,4.7,0.3,7.1,0.5c2.7,0.3,5.7,0.1,8.6,0.2c7.1,0.1,14.2,0.3,21.3,0.5c7.4,0.2,14.7,0.4,22.1,0.5
			c5.8,0.1,11.6,0.1,17.4,0.1c4.4,0,8.8-0.1,13.1-0.2c2,0,3.9-0.1,5.9-0.1c4.8,0,9.5,0.2,14.2-0.1c2.5-0.1,4.9,0,7.3-0.1
			c4.7-0.1,9.5-0.1,14.2-0.2c2.6,0,5.2-0.1,7.8-0.2c3.4,0,6.9-0.1,10.3-0.1c1.1,0,2.2-0.1,3.3-0.2c1,0,2-0.1,3.1-0.1
			c0.7,0,1.7-0.2,2,0.3c0,0,1,0.1,1.3,0c1.4-0.4,2.6-0.1,3.9,0.1c0.3,0,0.7,0.1,1,0.1c3.1,0,6.2,0,9.2,0c2.4,0,4.9-0.3,7.1,0.3
			c0.3,0.1,0.7,0,1.1,0c5.7,0.2,11.5,0.2,17.2,0.5c3.3,0.2,6.3,0.1,9.4-0.4c2.6-0.4,4.8-0.5,7.4,0.2C301,388.1,303,388.6,303.4,390z
			 M89,387.2c0,0.5,0.6,0.6,1.6,0.7c2.5,0.1,4.9,0.3,7.4,0.3c0.9,0,1.8-0.2,2.9-0.2c-1.9-1.5-2.3-1.5-5.4-0.8
			c-0.7,0.2-1.7,0.1-2.5,0.2c-0.4-0.3-0.7-0.5-1-0.7C90.9,386.9,90,387,89,387.2z M125.4,387.7c-0.6,0.5-0.4,0.8,0.6,0.9
			c1.4,0.1,2.9,0.1,4.4,0.1c1.3,0,2.2-0.3,2.4-0.9c-1.3-0.2-2.5-0.2-3.5,0.1c-1,0.3-1.8,0.3-2.7-0.1
			C126.3,387.7,125.9,387.7,125.4,387.7z M60.5,385.8c-0.9-0.1-1.6-0.3-2.2-0.3c-1.8,0.1-3.6,0.2-5.3,0.3c-0.1,0-0.2,0.1-0.5,0.4
			c2.6,0,4.9,0,7.2,0C59.9,386.2,60.2,386,60.5,385.8z M191.5,388.7c0.2,0,0.4,0,0.6,0c-0.1-0.2,0-0.6-0.2-0.6
			c-1.1-0.2-2.3-0.6-3.9-0.1C190.9,388.2,190.9,388.2,191.5,388.7z M7.9,309.9c1.9-0.5,1.9-0.5,0.4-1.1c-0.2,0.1-0.5,0.2-0.5,0.4
			C7.7,309.4,7.9,309.6,7.9,309.9z M107.5,387.1c0.1,0.8,0.1,0.8,2.1,0.9C108.8,387.7,108.1,387.4,107.5,387.1z M65.2,386.2
			c-1.1-0.3-2.2-0.5-3.7-0.1C62.8,386.6,64.1,386.2,65.2,386.2z M325.4,240.6c0.1,0,0.2,0,0.4,0c0.1-0.6,0.2-1.2,0.3-1.8
			c-0.2,0-0.5,0-0.7,0C325.3,239.4,325.4,240,325.4,240.6z M101.7,387.2c0.4,0.4,0.7,0.6,1.1,1.1
			C103.4,387.6,103.4,387.3,101.7,387.2z M327.5,337.4c0.1,0,0.1,0,0.2,0c0-0.5,0-1,0-1.6c-0.1,0-0.1,0-0.2,0
			C327.5,336.4,327.5,336.9,327.5,337.4z M70.9,386.1c-0.4-0.1-0.7-0.3-0.8-0.3c-0.3,0-0.6,0.2-0.6,0.3c0,0.1,0.4,0.2,0.6,0.3
			C70.3,386.3,70.5,386.2,70.9,386.1z M326.6,254.3c-0.1,0-0.3,0-0.5,0c-0.1,0.3-0.2,0.6-0.3,0.9c0.1,0,0.3,0,0.4,0
			C326.4,254.9,326.5,254.6,326.6,254.3z M323.2,223c-0.1,0-0.2,0-0.4,0c0.1,0.3,0.1,0.6,0.2,0.9c0.1,0,0.3,0,0.4,0
			C323.4,223.6,323.3,223.3,323.2,223z M317.9,44.1C317.8,44.1,317.8,44.1,317.9,44.1c0,0.3,0,0.5,0,0.8l0,0
			C317.9,44.6,317.9,44.3,317.9,44.1z M325.3,294.5c0.1,0,0.1,0,0.2,0c0-0.2,0-0.5,0-0.7c-0.1,0-0.1,0-0.2,0
			C325.3,294.1,325.3,294.3,325.3,294.5z M3.1,360.1c0.1,0,0.2,0,0.3,0c0.1-0.1,0.2-0.3,0.2-0.4s-0.1-0.3-0.1-0.4
			c-0.1,0-0.3,0-0.4,0C3,359.6,3.1,359.9,3.1,360.1z M318.5,135.9c-0.2-0.1-0.3-0.2-0.5-0.2c-0.2,0.1-0.5,0.1-0.5,0.2
			c0.1,0.1,0.3,0.2,0.5,0.3C318.1,136.1,318.3,136,318.5,135.9z M9.4,276.2c-0.2,0.2-0.3,0.2-0.3,0.3c0,0.1,0.1,0.1,0.2,0.2
			c0.2-0.1,0.4-0.1,0.4-0.2C9.8,276.4,9.6,276.3,9.4,276.2z M21.4,302.2c-0.1,0-0.1,0-0.2,0c0,0.2,0,0.4,0,0.7c0.1,0,0.1,0,0.2,0
			C21.4,302.6,21.4,302.4,21.4,302.2z M326.1,284.5c0-0.1-0.1-0.2-0.1-0.2c-0.1,0-0.4,0.1-0.4,0.1c0,0.1,0.1,0.2,0.2,0.3
			C325.9,284.6,326,284.5,326.1,284.5z M327.6,333.1c-0.2,0-0.4,0-0.5,0.1c0.2,0.1,0.4,0.3,0.5,0.4
			C327.6,333.4,327.6,333.2,327.6,333.1z M22.4,342.3c-0.1,0-0.2,0-0.3,0c0,0.2,0,0.3,0.1,0.5c0.1,0,0.2,0,0.2,0
			C22.4,342.6,22.4,342.5,22.4,342.3z M85,386.9c0,0.1,0,0.1,0,0.2c0.4,0,0.9,0,1.3,0c0-0.1,0-0.1,0-0.2
			C85.9,386.9,85.5,386.9,85,386.9z M112.1,388.1c-0.1-0.1-0.2-0.2-0.3-0.2c-0.2,0-0.4,0.1-0.6,0.2c0.1,0.1,0.2,0.2,0.2,0.2
			C111.6,388.2,111.8,388.2,112.1,388.1z M232.6,388.3c0.1,0,0.3-0.1,0.4-0.1c-0.1,0-0.3-0.1-0.4-0.1c-0.1,0-0.2,0.1-0.4,0.1
			C232.4,388.2,232.5,388.2,232.6,388.3z"/>
		<path class="st0" d="M303.4,390c-0.4-1.5-2.4-1.9-4.6-2.5c-2.6-0.7-4.8-0.6-7.4-0.2c-3,0.5-6.1,0.5-9.4,0.4
			c-5.7-0.3-11.4-0.3-17.2-0.5c-0.4,0-0.8,0.1-1.1,0c-2.3-0.5-4.7-0.3-7.1-0.3c-3.1,0-6.2,0-9.2,0c-0.4,0-0.7-0.1-1-0.1
			c-1.3-0.2-2.5-0.4-3.9-0.1c-0.3,0.1-1.3,0-1.3,0c-0.3-0.5-1.3-0.3-2-0.3c-1,0-2,0-3.1,0.1c-1.1,0-2.2,0.1-3.3,0.2
			c-3.4,0.1-6.9,0.1-10.3,0.1c-2.6,0-5.2,0.1-7.8,0.2c-4.8,0.1-9.5,0.1-14.2,0.2c-2.4,0.1-4.8-0.1-7.3,0.1
			c-4.7,0.2-9.5,0.1-14.2,0.1c-2,0-3.9,0.1-5.9,0.1c-4.4,0.1-8.8,0.2-13.1,0.2c-5.8,0-11.6,0-17.4-0.1c-7.4-0.1-14.7-0.3-22.1-0.5
			c-7.1-0.2-14.2-0.3-21.3-0.5c-2.9-0.1-5.9,0.1-8.6-0.2c-2.4-0.2-4.7-0.3-7.1-0.5c-3.4-0.2-6.8-0.5-10.2-0.6
			c-3.5-0.2-7-0.3-10.6-0.4s-7.3-0.1-10.9-0.1c-0.5,0-1,0.2-1.7,0.2c0.2,0.3,0.3,0.6,0.5,0.9c-2.3,0.4-2.1-0.4-2.7-1
			c-3.6,1.2-7.5,1.2-11.9,0.9c1-0.5,1.6-0.6,2.8-0.4c2,0.4,3.8,0.1,5.6-0.6c-2.3-0.1-4.7-0.3-7-0.4c-4-0.1-8-0.2-12-0.3
			c-2.5-0.1-3-0.3-3-1.4c0-0.9,0.2-1.8,0.3-2.7c0.1-1.8,0-3.6,0.3-5.4c0.2-1,0-1.8-0.3-2.8c-0.1-0.3,0.1-0.5,0.2-0.8
			c0.5-0.8,0.6-1.5-0.2-2.3c-0.7-0.7-0.2-1.6,0-2.3c0.1-0.5,0.7-0.9,0.7-1.3s0.8-0.9-0.7-1.2c-0.1,0-0.1-0.2,0-0.2
			c1.5-1.1,0.9-2.3,0.6-3.3s0-1.8,0.1-2.8c0.2-1.9-0.1-3.7-0.1-5.6c0-0.8,0.3-1.6,0.2-2.4c-0.1-2.6,0-5.2-0.6-7.8
			c-0.2-1.2,0.6-2.4-1-3.5c-0.2-0.1,0.4-0.4,0.4-0.7c0-0.4-0.2-0.7-0.3-1.1c0-0.5-0.2-1,0.1-1.4c0.3-0.4,0.2-0.7-0.4-1.1
			c-0.4-0.2-0.7-0.7-0.3-1c1.3-1,0.7-2,0.4-3.2c-0.2,0.3-0.4,0.5-0.5,0.7c-0.1,0-0.2,0-0.3,0c0.1-0.5,0.1-1,0.3-1.4
			c0.3-0.6,0.4-0.6-0.7-1.5c-0.1-0.1-0.2-0.3,0-0.5c1.3-1.2,0.7-2.4,1-3.6c0.2-0.9,0.2-1.9,0.1-2.8c-0.1-0.8-0.3-1.6-0.7-2.4
			c-0.2-0.5-0.4-0.9,0.2-1.3c0.4-0.2,0.5-0.6,0.5-0.9c0.1-1.2,0.3-2.3,0.1-3.5c-0.1-0.8-0.6-1.6-0.9-2.4c-0.2-0.4,0-0.8,0.6-1.2
			c1.1-0.8,1.2-1.7-0.2-2.4c0.3-0.5,0.8-0.9,0.8-1.4c0.1-1.9,0.2-3.8,0.1-5.7c-0.1-0.8-1.1-1.6-1-2.5c0.2-1.5,0-3.1,0-4.7
			c0-0.3,0.3-0.5,0.5-0.8c0.5-0.7,0.6-1.3-0.1-1.9c-0.4-0.3-0.3-0.8-0.3-1.2c0.1-0.6,0.6-1.2,0.6-1.8c0.1-1.7-0.2-3.4,0.1-5
			c0.1-0.7-1.1-1.2-0.2-2c0.7-0.6,0.4-1.4,0.5-2c0.1-1.2,0-2.5,0.2-3.8c0.2-1.9,0.6-3.9,0.8-5.8c0.1-0.8,0.1-1.6,0.1-2.3
			c0-2.1-0.1-4.2,0-6.3c0.1-2.1,0.6-4.3,0.8-6.4c0.1-0.7,0.6-1.4-0.4-2.1c-0.2-0.1-0.2-0.4-0.1-0.6c1.7-1.9,0.9-3.8,1.2-5.7
			c0.2-1.6-0.1-3.1,0-4.7c0.2-2.5,0.5-5,0.7-7.5c0.3-3.3,0.5-6.5,0.8-9.8c0.4-3.9,0.9-7.9,1.4-11.8c0.2-1.6,0.3-3.2,0.4-4.8
			c0-0.4-0.5-0.7-0.8-1.1c1.5-0.9,0.9-2,1-3c0.3-2.8,0.5-5.7,0.4-8.5c-0.1-4.3-0.4-8.6-0.6-12.9c-0.1-3,0-5.9-0.1-8.9
			c0-2.1-0.2-4.3-0.3-6.4c-0.1-2.3-0.3-4.7-0.5-7c-0.3-2.6-0.8-5.3-1-7.9c-0.2-2-0.2-4-0.2-6c-0.1-3.8-0.1-7.6-0.2-11.4
			c-0.1-3.4-0.4-6.8-0.6-10.2c-0.2-4.1-0.4-8.1-0.5-12.2c-0.1-1.6,0.2-3.3,0.2-4.9c0.1-1.5,0.1-3,0.2-4.6c0.2-3.1,0.3-6.2,0.5-9.2
			c0.2-2.4,0.4-4.8,0.5-7.2c0.1-2,0.2-4,0.2-6.1c0.1-2.6,0.4-5.2,0.4-7.8c0-1.7-0.3-3.3-0.4-5c-0.1-1.6,0-3.2-0.1-4.8
			c-0.1-2.9-0.2-5.8-0.4-8.7c-0.1-1.6-0.5-3.2-0.7-4.9c-0.2-1.5-0.2-3-0.2-4.6c-0.1-2.3-0.2-4.5-0.2-6.8c-0.1-2.6-0.1-5.1-0.2-7.7
			c-0.3-3.4-0.8-6.8-1-10.2c-0.2-2.8-0.1-5.5-0.1-8.4c3.1,0.1,5.9,0.2,8.6,0.3c3.2,0.1,6.3,0.1,9.5,0.2c0.3,0,0.6,0,0.8,0
			c6.2,0.6,12.5,0.1,18.7-0.1c3.9-0.1,7.8-0.1,11.7-0.2c5.1,0,10.2-0.3,15.4-0.4c3.8-0.1,7.6-0.5,11.4,0c0.5,0.1,1.1,0,1.7,0
			c5.9,0,11.7,0,17.6,0c0.3,0,0.7,0,1,0.2c-2.3,0-4.6,0-6.9,0.1c0,0.1,0,0.2,0,0.3c1.8,0,3.6,0,5.4,0c3.8,0,7.7,0,11.5,0
			c1.3,0,2.6,0,3.9,0.1c4,0.2,7.9,0.4,11.9,0.6c1.2,0.1,2.4,0.2,3.6,0.2c8.5,0,17,0,25.5,0.1c4.3,0,8.6,0.2,12.9,0.2
			c3.7,0,7.5,0,11.2,0c4.7,0.1,9.3,0.2,14,0.4c1,0,2.1,0,3.1,0c8.3,0.1,16.6,0.2,24.9,0.3c6.1,0.1,12.3,0,18.4,0.2
			c3.8,0.1,7.6,0.3,11.4,0.2c3.5,0,6.9,0,10.4,0.1c3.3,0,6.7,0.1,10,0.1c2.2,0.1,3.8,0.8,4.1,1.9c0.4,1.2,0.6,2.5,0.8,3.7
			c0.2,0.9,0.1,1.8,0.4,2.7c0.2,0.6-0.4,1.1-0.1,1.7c0.8,1.8,1.1,3.6,1.5,5.4c0.1,0.5-0.1,0.9-0.2,1.4c-0.1,0.8-0.1,1.5-0.1,2.3
			c0,0.5,0.3,1.1,0.1,1.6c-0.8,1.6-1.2,3.1-0.5,4.7c0,0.1,0,0.2,0,0.4c-1,1.6-0.8,3.3-0.4,5c0.2,0.8-0.4,1.6-0.5,2.4
			c-0.1,1.6-0.2,3.1-0.2,4.7c0,0.6,0.3,1.2,0.3,1.7c0,1.7-0.2,3.3-0.3,5c0,0.2,0,0.4,0.1,0.6c0.5,1.2,0.6,2.4,0.1,3.7
			c-0.4,0.9,0.3,1.9,0.5,2.9c0.2,0.8,0.4,1.5,0.6,2.3c0,0.1,0.1,0.2,0,0.2c-1.5,0.8-0.4,1.7-0.4,2.6c-0.1,0.9,0.5,1.8-0.1,2.7
			c-0.8,1.3,0.4,2.5-0.5,3.8c-0.8,1.1-0.7,2.4,0.4,3.6c0.8,0.9,0.5,1.8,0,2.8c-0.6,1.1-0.5,2.3,0,3.4c0.4,0.8,0,1.7,0,2.6
			c0,0.7-0.5,1.4-0.1,2c0.7,1.1,0.7,2.1,0.4,3.2c-0.1,0.2-0.2,0.5-0.2,0.7c0,1.8,0.1,3.5,0,5.2c0,0.7-0.2,1.4-0.2,2.1
			c0,0.8,0.1,1.5,0.2,2.3c0,0.2,0.1,0.5,0,0.7c-1.5,2.2-0.5,4.4-0.2,6.6c0.1,0.9,0.7,1.8-0.1,2.8c-0.3,0.4-0.2,0.9,0.1,1.3
			c1.3,1.6,0.8,3.4,1.2,5.1c0.1,0.3-0.2,0.5-0.3,0.8c-0.5,1.5-0.7,3.1,0.7,4.6c0.2,0.2,0.1,0.5,0,0.8c-0.5,1.9-0.5,3.9-0.3,5.8
			c0.1,1.4,0.7,2.8,0.2,4.2c-0.4,1.3,0.4,2.7,0.6,4.1c0.1,0.3,0,0.7,0,1c-0.1,0.9-0.4,1.8,0.8,2.6c0.1,0.1,0.1,0.2,0,0.3
			c-1.3,1-1,2.1-0.7,3.2c0.2,0.7,0.1,1.5,0.1,2.2c0,1.6,0.1,3.2,0.1,4.8c0,0.9,0,1.7,0,2.6c0,1.6,0.1,3.2,0.2,4.8
			c0,0.5,0.4,1.1,0.4,1.6c0,0.8-0.1,1.7-0.1,2.5c0.1,1.7,0.3,3.4,0.4,5.1c0.1,1.8,0,3.6,0,5.5c0.1,1.3,0.4,2.6,0.5,3.9
			c0.1,0.7,0.1,1.4,0.1,2.1c0.1,2.1,0,4.3,0.4,6.4c0.5,2.5,0.2,4.9,0,7.3c0,0.6,0.4,1.2,0.5,1.8c0.1,0.4,0,0.8,0,1.2
			c-0.1,1.4-0.5,2.9,0.3,4.3c0.3,0.5,0.2,1.1,0.1,1.6c-0.7,2.3,0,4.5,0.9,6.7c0.1,0.1,0.1,0.3,0.1,0.5c-0.8,2,0.1,4.1-0.1,6.1
			c-0.2,2.2,0.6,4.5,1,6.7c0.3,2.5,0.5,5,0.8,7.5c0.2,1.8,0.8,3.5,1.1,5.3c0.2,1.4,0.3,2.8,0.4,4.2c0,0.6-0.3,1.2,0.6,1.7
			c0.1,0.1,0.1,0.1,0.1,0.2c-1.1,2.5,0.9,4.9,0,7.4c-0.2,0.5,0.1,1.1,0.1,1.6c-0.1,0.9-0.3,1.9-0.3,2.8c0,1.4,0,2.8,0.5,4.2
			c0.4,1,0.6,2.1,0.7,3.1c0,0.5,0.3,0.9-0.5,1.3c-0.3,0.2-0.1,0.5-0.1,0.8c0,1,0,2.1,0,3.2c0,0.9-0.1,1.9,0.1,2.8
			c0.4,1.2,0.3,2.5-0.2,3.7c-0.3,0.9-0.1,1.9,0,2.8c0.1,1-0.4,2,0.7,3c0.2,0.1-0.2,0.4-0.2,0.6c0,0.8-1,1.5-0.1,2.3
			c0.4,0.4-0.4,1-0.5,1.5c-0.3,1.9-0.8,3.7-0.8,5.6c0,2.8-0.4,5.7-0.5,8.5c-0.1,3.2,0.1,6.5,0.1,9.7c0.1,3,0.1,6.1,0.2,9.1
			c0.1,2.7,0.1,5.5,0.4,8.2c0.2,2.1,0.1,4.2,0.9,6.3c0.1,0.2,0.2,0.5,0,0.7c-1.2,1.5-0.1,2.8,0.6,4.2c0.1,0.3,0.1,0.6,0.1,0.9
			c0,1.3,0,2.6,0,4c0,1.8,0.1,3.7,0.1,5.5c0,1.2,0.5,2.5-0.1,3.7c-0.8,1.6-0.1,3.2-0.6,4.8c-0.6,1.7,0.3,3.5,0.5,5.2
			c0.1,1.1,0,2.2,0,3.4c0.1,1.3,0.2,2.6,0.3,3.9c0.1,1.2,0.1,2.5,0.2,3.7c0,0.3-0.3,0.5-0.4,0.8s-0.1,0.6-0.2,0.9
			c0,0.1,0.1,0.2,0.1,0.2c0,1.3-0.1,2.5-0.2,3.8c0,0.4-0.1,0.8-0.1,1.3c0,1.6,0,3.2-0.3,4.7c-0.2,1.2-0.7,2.3-0.6,3.5
			c0.1,0.7,0,1.3-1.8,1.7C304.2,389.5,304.1,389.6,303.4,390z"/>
		<path class="st1" d="M89,387.2c0.9-0.2,1.8-0.4,2.9-0.6c0.3,0.2,0.6,0.4,1,0.7c0.8,0,1.8,0,2.5-0.2c3.1-0.7,3.6-0.7,5.4,0.8
			c-1,0.1-2,0.3-2.9,0.2c-2.5-0.1-4.9-0.2-7.4-0.3C89.7,387.8,89,387.7,89,387.2z"/>
		<path class="st1" d="M125.4,387.7c0.5,0.1,0.9,0.1,1.1,0.2c0.9,0.4,1.7,0.4,2.7,0.1c1.1-0.3,2.2-0.4,3.5-0.1
			c-0.2,0.6-1.1,0.9-2.4,0.9c-1.5,0-2.9,0-4.4-0.1C125,388.5,124.8,388.2,125.4,387.7z"/>
		<path class="st1" d="M60.5,385.8c-0.4,0.2-0.6,0.4-0.8,0.4c-2.3,0-4.7,0-7.2,0c0.3-0.2,0.4-0.3,0.5-0.4c1.8-0.1,3.6-0.3,5.3-0.3
			C58.9,385.5,59.6,385.7,60.5,385.8z"/>
		<path class="st1" d="M191.5,388.7c-0.6-0.5-0.6-0.5-3.5-0.8c1.6-0.5,2.8-0.1,3.9,0.1c0.2,0,0.1,0.4,0.2,0.6
			C191.9,388.7,191.7,388.7,191.5,388.7z"/>
		<path class="st1" d="M7.9,309.9c-0.1-0.3-0.2-0.5-0.2-0.7c0-0.1,0.3-0.2,0.5-0.4C9.8,309.3,9.8,309.3,7.9,309.9z"/>
		<path class="st1" d="M107.5,387.1c0.6,0.3,1.2,0.5,2.1,0.9C107.6,388,107.6,388,107.5,387.1z"/>
		<path class="st1" d="M65.2,386.2c-1.1,0-2.4,0.3-3.7-0.1C63,385.7,64.1,386,65.2,386.2z"/>
		<path class="st1" d="M325.4,240.6c0-0.6,0-1.2,0-1.8c0.2,0,0.5,0,0.7,0c-0.1,0.6-0.2,1.2-0.3,1.8
			C325.6,240.6,325.5,240.6,325.4,240.6z"/>
		<path class="st1" d="M101.7,387.2c1.6,0.2,1.6,0.5,1.1,1.1C102.4,387.8,102.1,387.6,101.7,387.2z"/>
		<path class="st1" d="M327.5,337.4c0-0.5,0-1,0-1.6c0.1,0,0.1,0,0.2,0c0,0.5,0,1,0,1.6C327.6,337.4,327.6,337.4,327.5,337.4z"/>
		<path class="st1" d="M70.9,386.1c-0.4,0.2-0.6,0.2-0.9,0.3c-0.2-0.1-0.6-0.2-0.6-0.3c0-0.1,0.4-0.3,0.6-0.3
			C70.2,385.8,70.5,385.9,70.9,386.1z"/>
		<path class="st1" d="M326.6,254.3c-0.1,0.3-0.2,0.6-0.3,0.9c-0.1,0-0.3,0-0.4,0c0.1-0.3,0.2-0.6,0.3-0.9
			C326.3,254.3,326.5,254.3,326.6,254.3z"/>
		<path class="st1" d="M323.2,223c0.1,0.3,0.2,0.6,0.2,0.9c-0.1,0-0.3,0-0.4,0c-0.1-0.3-0.1-0.6-0.2-0.9
			C323,223,323.1,223,323.2,223z"/>
		<path class="st1" d="M317.9,44.1c0,0.3,0,0.5,0,0.8l0,0C317.8,44.6,317.8,44.3,317.9,44.1C317.8,44.1,317.8,44.1,317.9,44.1z"/>
		<path class="st1" d="M325.3,294.5c0-0.2,0-0.4,0-0.7c0.1,0,0.1,0,0.2,0c0,0.2,0,0.5,0,0.7C325.4,294.5,325.4,294.5,325.3,294.5z"
			/>
		<path class="st0" d="M3.1,360.1c0-0.2,0-0.5,0-0.7c0.1,0,0.3,0,0.4,0c0,0.1,0.1,0.3,0.1,0.4s-0.1,0.3-0.2,0.4
			C3.3,360.1,3.2,360.1,3.1,360.1z"/>
		<path class="st1" d="M318.5,135.9c-0.2,0.1-0.3,0.2-0.5,0.2c-0.2-0.1-0.4-0.2-0.5-0.3c0,0,0.3-0.1,0.5-0.2
			C318.1,135.7,318.3,135.8,318.5,135.9z"/>
		<path class="st1" d="M9.4,276.2c0.2,0.2,0.4,0.2,0.3,0.3c0,0.1-0.3,0.1-0.4,0.2c-0.1-0.1-0.2-0.1-0.2-0.2S9.2,276.3,9.4,276.2z"/>
		<path class="st1" d="M21.4,302.2c0,0.2,0,0.4,0,0.7c-0.1,0-0.1,0-0.2,0c0-0.2,0-0.4,0-0.7C21.3,302.2,21.3,302.2,21.4,302.2z"/>
		<path class="st1" d="M326.1,284.5c-0.1,0-0.2,0.1-0.4,0.2c-0.1-0.1-0.2-0.2-0.2-0.3c0,0,0.3-0.1,0.4-0.1
			C326,284.3,326,284.4,326.1,284.5z"/>
		<path class="st1" d="M327.6,333.1c0,0.2,0,0.3,0,0.5c-0.2-0.1-0.4-0.3-0.5-0.4C327.2,333.1,327.4,333.1,327.6,333.1z"/>
		<path class="st0" d="M22.4,342.3c0,0.2,0,0.3,0,0.5c-0.1,0-0.2,0-0.2,0c0-0.2,0-0.3-0.1-0.5C22.2,342.3,22.3,342.3,22.4,342.3z"/>
		<path class="st1" d="M85,386.9c0.4,0,0.9,0,1.3,0c0,0.1,0,0.1,0,0.2c-0.4,0-0.9,0-1.3,0C85,387,85,387,85,386.9z"/>
		<path class="st1" d="M112.1,388.1c-0.2,0-0.4,0.1-0.6,0.1c-0.1,0-0.1-0.1-0.2-0.2c0.2,0,0.4-0.1,0.6-0.2
			C111.9,388,111.9,388,112.1,388.1z"/>
		<path class="st1" d="M232.6,388.3c-0.1,0-0.3-0.1-0.4-0.1c0.1,0,0.3-0.1,0.4-0.1c0.1,0,0.3,0.1,0.4,0.1
			C232.9,388.2,232.8,388.2,232.6,388.3z"/>
	</g>
</g>
<g id="Ebene_5" class="st2">
	<g class="st3">
		<path d="M78.8,197.7c-1.7,0-3.3,0-5.3,0c0-1.9,0-3.7,0-5.7c-1.8,0-3.4,0-5.2,0c0-3.6,0-7,0-10.5c1.6,0,3.2,0,5,0c0-3.6,0-7,0-10.7
			c2,0,3.7,0,5.4,0l-0.1-0.1c0,3.5,0,7,0,10.8c1.8,0,3.2,0,4.7,0c0,3.6,0,6.9,0,10.5c-1.6,0-3.1,0-4.7,0
			C78.7,194,78.7,195.9,78.8,197.7L78.8,197.7z"/>
		<g>
			<path d="M206,202.6c-1.8,0-3.2,0-4.8,0c0,1.8,0,3.3,0,5.1c-13.7,0-27.2,0.1-40.9,0.1c0-1.6,0-3.2,0-5c-1.8,0-3.5,0-5.4,0
				c0-3.8,0-7.4,0-11.1c-1.7,0-3.1,0-4.7,0c0-10.6-0.1-21.1-0.1-31.8c1.5,0,2.9,0,4.6,0c0-3.7,0-7.3,0-11c1.8,0,3.4,0,5.3,0
				c0-1.8,0-3.5,0-5.2c13.7,0,27.2-0.1,40.9-0.1c0,1.6,0,3.2,0,5c1.7,0,3.1,0,4.8,0c0,3.7,0,7.3,0,11.1c1.9,0,3.5,0,5.3,0
				c0,10.7,0.1,21.1,0.1,31.8c-1.7,0-3.3,0-5.1,0C206,195.2,206,198.7,206,202.6z M201.2,186.2c1.8,0,3.2,0,4.7,0
				c0-7.1,0-14-0.1-21.3c-1.6,0-3.1,0-4.8,0c0-3.7,0-7.1,0-10.6c-1.9,0-3.4,0-5.3,0c0-2,0-3.8,0-5.5c-10.3,0-20.2,0.1-30.4,0.1
				c0,1.9,0,3.6,0,5.6c-1.8,0-3.5,0-5.3,0c0,3.7,0,7.1,0,10.6c-1.8,0-3.4,0-5.1,0c0,7.1,0,14,0.1,21.3c1.8,0,3.4,0,5.3,0
				c0,3.8,0,7.4,0,11.1c1.9,0,3.4,0,5.3,0c0,1.8,0,3.5,0,5c10.3,0,20.2-0.1,30.4-0.1c0-1.8,0-3.3,0-5.2c1.8,0,3.5,0,5.2,0
				C201.2,193.6,201.2,190.1,201.2,186.2z"/>
			<path d="M78.7,170.7c0-5.2,0-10.4-0.1-15.9c-1.8,0-3.4,0-5.2,0c0-2,0-3.7,0-5.7c1.6,0,3.3,0,5.1,0c0-1.8,0-3.4,0-5.2
				c3.4,0,6.6,0,10.1,0c0,3.5,0,7,0,10.8c1.6,0,3.1,0,4.9,0c0,1.9,0,3.5,0,5.3c1.9,0,3.4,0,5.3,0c0-1.6,0-3.2,0-5.1
				c1.9,0,3.5,0,5.4,0c0-3.8,0-7.3,0-11c3.4,0,6.6,0,10.1,0c0,1.6,0,3.2,0,5c1.6,0,3.1,0,4.8,0c0,2,0,3.7,0,5.7c-1.4,0-2.9,0-4.7,0
				c0,3.8,0,7.3,0,10.8l0.1-0.1c-10.3,0-20.5,0.1-30.9,0.1c0,2,0,3.7,0,5.4l0.1-0.1C81.9,170.6,80.3,170.6,78.7,170.7L78.7,170.7z"
				/>
			<path d="M114.4,191.8c0,5.4,0,10.7,0.1,16.2c-1.7,0-3.3,0-5.1,0c0-1.6,0-3.2,0-5c-8.6,0-17,0-25.7,0.1c0,1.6,0,3.3,0,5
				c-3.4,0-6.6,0-9.9,0c0-1.6,0-3.2,0-5c1.6,0,3.2,0,5.2,0c0-2,0-3.7,0-5.5l-0.1,0.1c8.5,0,16.9,0,25.7-0.1c0-2,0-3.8,0-5.8
				C107.9,191.9,111.2,191.9,114.4,191.8L114.4,191.8z"/>
			<path d="M114.3,165.3c1.5,0,3,0,4.8,0c0,1.8,0,3.4,0,5.2c1.8,0,3.4,0,5.2,0c0,3.6,0,7,0,10.5c-1.6,0-3.2,0-5,0c0,3.6,0,7,0,10.7
				c-1.8,0-3.4,0-4.9,0l0.1,0.1C114.4,183,114.4,174.1,114.3,165.3L114.3,165.3z"/>
			<path class="st0" d="M201.2,186.2c0,3.9,0,7.4,0,11.1c-1.8,0-3.5,0-5.2,0c0,1.8,0,3.4,0,5.2c-10.2,0-20.1,0.1-30.4,0.1
				c0-1.6,0-3.2,0-5c-1.8,0-3.4,0-5.3,0c0-3.7,0-7.3,0-11.1c-1.9,0-3.5,0-5.3,0c0-7.2,0-14.1-0.1-21.3c1.6,0,3.2,0,5.1,0
				c0-3.6,0-7,0-10.6c1.9,0,3.5,0,5.3,0c0-2,0-3.7,0-5.6c10.2,0,20.1-0.1,30.4-0.1c0,1.7,0,3.5,0,5.5c1.8,0,3.4,0,5.3,0
				c0,3.6,0,7,0,10.6c1.7,0,3.2,0,4.8,0c0,7.2,0,14.1,0.1,21.3C204.4,186.2,203,186.2,201.2,186.2z M195.6,191.5
				c0-10.5-0.1-21-0.1-31.5c-10,0-20,0.1-29.9,0.1c0,10.6,0.1,21,0.1,31.5C175.7,191.5,185.6,191.5,195.6,191.5z"/>
			<path class="st0" d="M114.4,165.3c0,8.9,0.1,17.7,0.1,26.6c-3.3,0-6.5,0-10.1,0c0,1.9,0,3.7,0,5.8c-8.7,0-17.2,0-25.7,0.1
				c0-1.8,0-3.7,0-5.8c1.6,0,3.1,0,4.7,0c0-3.6,0-6.9,0-10.5c-1.4,0-2.9,0-4.7,0c0-3.8,0-7.3,0-10.8c1.6,0,3.2,0,4.9,0
				c0,1.7,0,3.5,0,5.2c1.9,0,3.5,0,5.1,0c0-1.8,0-3.4,0-5.1c-1.8,0-3.5,0-5.2,0c0-1.7,0-3.3,0-5.4
				C93.8,165.3,104.1,165.3,114.4,165.3z M104.3,176c-3.5,0-7,0-10.5,0c0,1.8,0,3.4,0,5.1c3.5,0,6.9,0,10.4,0
				C104.2,179.2,104.2,177.6,104.3,176c1.5-0.1,3.1-0.1,4.7-0.1c0-1.9,0-3.5,0-5.1c-1.6,0-3,0-4.6,0
				C104.3,172.7,104.3,174.3,104.3,176z"/>
			<path d="M195.6,191.5c-10.1,0-19.9,0.1-29.9,0.1c0-10.5-0.1-21-0.1-31.5c10,0,19.9-0.1,29.9-0.1
				C195.6,170.4,195.6,180.9,195.6,191.5z M190.4,186.2c0-7.2,0-14.1-0.1-21c-6.8,0-13.4,0-20,0.1c0,7.1,0,14,0.1,21
				C177.1,186.3,183.7,186.3,190.4,186.2z"/>
			<path d="M104.2,175.9c0,1.7,0,3.3,0,5.1c-3.5,0-6.9,0-10.4,0c0-1.7,0-3.2,0-5.1C97.3,176,100.8,176,104.2,175.9L104.2,175.9z"/>
			<path d="M83.4,170.7c1.7,0,3.3,0,5.2,0c0,1.8,0,3.4,0,5.1c-1.6,0-3.2,0-5.1,0C83.5,174.1,83.5,172.4,83.4,170.7
				C83.5,170.6,83.4,170.7,83.4,170.7z"/>
			<path d="M104.3,176c0-1.7,0-3.3,0-5.2c1.6,0,3.1,0,4.6,0c0,1.6,0,3.2,0,5.1C107.3,175.9,105.8,175.9,104.3,176
				C104.2,175.9,104.3,176,104.3,176z"/>
			<path class="st0" d="M190.4,186.2c-6.7,0-13.3,0-20,0.1c0-7,0-13.9-0.1-21c6.6,0,13.2,0,20-0.1
				C190.4,172.1,190.4,179.1,190.4,186.2z M175.7,170.5c0,3.6,0,6.9,0,10.3c3.4,0,6.6,0,9.8,0c0-3.5,0-6.8,0-10.3
				C182.2,170.5,179,170.5,175.7,170.5z"/>
			<path d="M175.7,170.5c3.3,0,6.5,0,9.8,0c0,3.4,0,6.7,0,10.3c-3.2,0-6.4,0-9.8,0C175.7,177.5,175.7,174.1,175.7,170.5z"/>
		</g>
	</g>
</g>
<g id="Ebene_11" class="st2">
	<g class="st3">
		<path d="M174.4,90.2c1.6,0,3.3,0,5.2,0c0-6.5,0-13-0.1-19.8c1.7,0,3.1,0,4.7,0c0-3.6,0-6.8,0-10.4c1.8,0,3.4,0,5.2,0
			c0.1-1.7,0.1-3.1,0.2-4.7c1.8-0.1,3.5-0.2,5.2-0.3c0,3.3,0,6.6,0,10.1c-2.1,0-3.7,0-5.5,0c0,3.4,0,6.5,0,9.8
			c-1.8,0.1-3.4,0.2-5,0.3c0,1.8,0,3.4,0,5c3.5,0,6.9,0,10.4,0c0-3.3,0-6.4,0-9.8c8.4,0,16.6,0,24.9-0.1c0-1.9,0-3.5,0-5.4
			c-1.8,0-3.4,0-5.1,0c0-1.8,0-3.4,0-5.2c-1.8,0-3.4,0-5.3,0c0-1.7,0-3.1,0-4.6c-1.6-0.1-3-0.1-4.6-0.2c0-1.8,0-3.4,0-4.9
			c-1.9,0-3.5,0-5.3,0c0,1.7,0,3.2,0,5c-1.6,0-3.1,0-4.6,0c0-5,0-9.9,0-15c3.3,0,6.4,0,9.8,0c0,1.6,0,3.3,0,5c1.7,0,3,0,4.7,0
			c0,1.6,0,3,0,4.7c1.9,0.1,3.5,0.1,5.3,0.2c0,1.7,0,3.2,0,5c1.8,0,3.4,0,5.2,0c0.1,1.6,0.1,3,0.2,4.7c1.4,0,2.8,0,4.5,0
			c0,1.9,0,3.5,0,5.3c1.8,0,3.4,0,5.1,0c0,1.8,0,3.4,0,5.2c-1.6,0-3.1,0-5,0c0,1.6,0,3,0,4.7c-8.5,0-16.6,0-25.1,0.1
			c0,3.5,0,6.9,0,10.5c-3.5,0-6.6,0-10,0c0,3.4,0,6.5,0,9.9c-1.8,0-3.4,0-5.2,0c-0.1,1.7-0.1,3.1-0.2,4.7
			c-21.8,0.1-43.4,0.1-65.2,0.2c0-1.5,0-2.9,0-4.5c-3.4,0-6.5,0-9.9,0c0-1.8,0-3.4,0-5.3c-3.5,0-6.6,0-9.9,0c0-5.1,0-10-0.1-15
			c1.5-0.1,2.9-0.1,4.5-0.2c0-5,0-9.9-0.1-15c-1.4,0-2.8,0-4.4,0c0-8.4-0.1-16.6-0.1-25c3.1,0,6.2,0,9.6,0c0,1.5,0,3.1,0,4.9
			c1.8,0,3.4,0,5.3,0c0,1.9,0,3.5,0,5.2c13.5,0,26.8-0.1,40.3-0.1c0-1.6,0-3.2,0-5c3.5,0,6.6,0,10,0c0-1.8,0-3.4,0-5.1
			c5.1,0,10,0,15.1,0c0,6.6,0,13.2,0.1,20.1c-1.6,0-3.2,0-5,0c0,1.6,0,3,0,4.7c-1.8,0-3.4,0-5.1,0c0,5.2,0,10.1,0,15.3
			c1.6,0,3.1,0,5.1,0C174.4,80.3,174.4,85.3,174.4,90.2c-3.2,0.1-6.5,0.1-9.8,0.1c0,1.9,0,3.5,0,5.1c3.4,0,6.5,0,9.8,0
			C174.4,93.5,174.4,91.9,174.4,90.2z M169.1,50.2c1.8-0.1,3.4-0.2,5.1-0.4c0-1.6,0-3,0-4.4c-5.1,0-10,0-15,0
			c-0.1,1.6-0.1,2.9-0.2,4.6c-3.3,0-6.5,0-10,0c0,1.9,0,3.5,0,5c-1.8,0-3.4,0-5.1,0c0-1.7,0-3.3,0-4.9c-6.7,0-13.2,0-20,0.1
			c0,1.7,0,3.3,0,5c-1.8,0-3.4,0-5,0c-0.1-1.7-0.2-3.3-0.3-5.2c-3.4,0-6.5,0-9.9,0c0-1.7,0-3,0-4.4c-1.8,0-3.4,0-5.1,0
			c0,3.3,0,6.5,0,10c1.8,0,3.4,0,5,0c0.1,1.6,0.1,3,0.2,4.7c1.8,0,3.4,0,4.9,0c0,3.6,0,6.9,0,10.4c-1.8,0-3.4,0-4.9,0
			c0,1.7,0,3.2,0,4.8c1.7,0,3.3,0,5.1,0c0,5.1,0,10,0.1,15.2c3.5,0,6.6,0,10,0c0,1.8,0,3.4,0,4.9c3.4,0,6.6,0,10,0
			c0-1.8,0-3.4,0-4.9c1.8,0,3.4,0,5.2,0c0,1.8,0,3.4,0,5c5.1,0,10,0,15.1,0c0-1.7,0-3.3,0-5.2c1.7,0,3.1,0,4.8,0c0-5.1,0-10,0-15
			c1.8-0.1,3.4-0.2,5-0.3c0-1.6,0-3,0-4.8c-1.8,0-3.4,0-4.9,0c0-3.6,0-6.8,0-10.4c1.8,0,3.4,0,5,0c0.1-1.7,0.1-3,0.2-4.7
			c1.6,0,3,0,4.6,0C169.1,53.4,169.1,51.9,169.1,50.2z M108.8,85.7c0-1.8,0-3.4,0-5c-1.8,0-3.4,0-4.9,0c0,1.8,0,3.4,0,5
			C105.5,85.7,107.1,85.7,108.8,85.7z M169,85.5c0-1.9,0-3.5,0-5c-1.6,0-3,0-4.4,0c0,1.8,0,3.4,0,5C166.2,85.5,167.5,85.5,169,85.5z
			"/>
		<path class="st0" d="M169.1,50.2c0,1.7,0,3.2,0,5c-1.5,0-3,0-4.6,0c-0.1,1.6-0.1,3-0.2,4.7c-1.6,0-3.2,0-5,0c0,3.6,0,6.8,0,10.4
			c1.5,0,3.1,0,4.9,0c0,1.7,0,3.1,0,4.8c-1.6,0.1-3.2,0.2-5,0.3c0,5,0,9.9,0,15c-1.6,0-3.1,0-4.8,0c0,1.9,0,3.5,0,5.2
			c-5.1,0-10,0-15.1,0c0-1.6,0-3.2,0-5c-1.8,0-3.4,0-5.2,0c0,1.5,0,3.1,0,4.9c-3.5,0-6.6,0-10,0c0-1.6,0-3.1,0-4.9
			c-3.4,0-6.5,0-10,0c0-5.2,0-10.1-0.1-15.2c-1.8,0-3.4,0-5.1,0c0-1.6,0-3,0-4.8c1.5,0,3.1,0,4.9,0c0-3.6,0-6.8,0-10.4
			c-1.6,0-3.2,0-4.9,0c-0.1-1.6-0.1-3-0.2-4.7c-1.6,0-3.2,0-5,0c0-3.5,0-6.6,0-10c1.6,0,3.2,0,5.1,0c0,1.4,0,2.8,0,4.4
			c3.4,0,6.5,0,9.9,0c0.1,1.9,0.2,3.5,0.3,5.2c1.7,0,3.2,0,5,0c0-1.7,0-3.3,0-5c6.8,0,13.3,0,20-0.1c0,1.7,0,3.2,0,4.9
			c1.7,0,3.2,0,5.1,0c0-1.5,0-3.1,0-5c3.5,0,6.6,0,10,0c0.1-1.6,0.1-3,0.2-4.6c4.9,0,9.9,0,15,0c0,1.4,0,2.8,0,4.4
			C172.5,49.9,170.8,50,169.1,50.2z M149,75c0-3.3,0-6.4,0-9.6c-3.3,0-6.4,0-9.5,0c0,3.3,0,6.4,0,9.6C142.8,75,145.8,75,149,75z
			 M128.6,65.5c-3.3,0-6.4,0-9.6,0c0,3.3,0,6.4,0,9.5c3.3,0,6.5,0,9.6,0C128.7,71.7,128.6,68.6,128.6,65.5z M139.1,85.5
			c0-1.8,0-3.3,0-4.9c-1.7,0-3.3,0-4.9,0c0,1.7,0,3.2,0,4.9C135.9,85.5,137.4,85.5,139.1,85.5z"/>
		<path class="st0" d="M194.8,55.1c1.5,0,2.9,0,4.6,0c0-1.8,0-3.3,0-5c1.8,0,3.4,0,5.3,0c0,1.6,0,3.2,0,4.9c1.6,0.1,3,0.1,4.6,0.2
			c0,1.4,0,2.9,0,4.6c1.9,0,3.5,0,5.3,0c0,1.8,0,3.4,0,5.2c1.8,0,3.4,0,5.1,0c0,1.9,0,3.5,0,5.4c-8.3,0-16.5,0-24.9,0.1
			c0,3.4,0,6.5,0,9.8c-3.5,0-6.9,0-10.4,0c0-1.6,0-3.2,0-5c1.6-0.1,3.2-0.2,5-0.3c0-3.2,0-6.4,0-9.8c1.8,0,3.4,0,5.5,0
			C194.9,61.5,194.9,58.2,194.8,55.1C194.9,55,194.8,55.1,194.8,55.1z"/>
		<path class="st0" d="M174.4,90.2c0,1.6,0,3.3,0,5.1c-3.2,0-6.4,0-9.8,0c0-1.6,0-3.2,0-5.1C167.9,90.3,171.2,90.3,174.4,90.2
			C174.4,90.3,174.4,90.2,174.4,90.2z"/>
		<path class="st0" d="M108.8,85.7c-1.7,0-3.3,0-4.9,0c0-1.7,0-3.3,0-5c1.6,0,3.2,0,4.9,0C108.8,82.2,108.8,83.8,108.8,85.7z"/>
		<path class="st0" d="M169,85.5c-1.4,0-2.8,0-4.4,0c0-1.6,0-3.1,0-5c1.3,0,2.7,0,4.4,0C169,82,169,83.6,169,85.5z"/>
		<path d="M149,75c-3.2,0-6.3,0-9.5,0c0-3.2,0-6.3,0-9.6c3.2,0,6.3,0,9.5,0C149,68.6,149,71.7,149,75z"/>
		<path d="M128.6,65.5c0,3.2,0,6.3,0,9.5c-3.2,0-6.3,0-9.6,0c0-3.2,0-6.3,0-9.5C122.2,65.5,125.3,65.5,128.6,65.5z"/>
		<path d="M139.1,85.5c-1.7,0-3.2,0-4.9,0c0-1.6,0-3.1,0-4.9c1.6,0,3.1,0,4.9,0C139.1,82.2,139.1,83.7,139.1,85.5z"/>
	</g>
</g>
<g id="Ebene_10" class="st2">
	<g class="st3">
		<path d="M103.3,173.7c-1.5,0-3,0-4.7,0c0-1.7,0-3.3,0-5.1c-1.6,0-3,0-4.6,0c0-3.2,0-6.2,0-9.4c1.4,0,2.8,0,4.5,0
			c0-3.2,0-6.2,0-9.5c1.8,0,3.3,0,4.9,0l-0.1-0.1c0,3.1,0,6.2,0,9.6c1.6,0,2.9,0,4.2,0c0,3.2,0,6.2,0,9.4c-1.4,0-2.8,0-4.2,0
			C103.3,170.5,103.3,172.2,103.3,173.7L103.3,173.7z"/>
		<g>
			<path d="M216.8,178.1c-1.6,0-2.8,0-4.3,0c0,1.6,0,3,0,4.6c-12.2,0-24.3,0.1-36.5,0.1c0-1.4,0-2.8,0-4.5c-1.6,0-3.1,0-4.8,0
				c0-3.4,0-6.6,0-9.9c-1.5,0-2.8,0-4.2,0c0-9.5-0.1-18.8-0.1-28.3c1.3,0,2.6,0,4.1,0c0-3.3,0-6.5,0-9.9c1.6,0,3,0,4.7,0
				c0-1.6,0-3.1,0-4.7c12.2,0,24.2-0.1,36.5-0.1c0,1.4,0,2.9,0,4.5c1.5,0,2.8,0,4.3,0c0,3.3,0,6.5,0,9.9c1.7,0,3.1,0,4.7,0
				c0,9.5,0.1,18.8,0.1,28.3c-1.5,0-2.9,0-4.6,0C216.8,171.6,216.8,174.7,216.8,178.1z M212.5,163.5c1.6,0,2.8,0,4.2,0
				c0-6.4,0-12.5-0.1-19c-1.4,0-2.8,0-4.3,0c0-3.3,0-6.3,0-9.5c-1.6,0-3,0-4.7,0c0-1.8,0-3.4,0-4.9c-9.1,0-18,0-27.1,0.1
				c0,1.7,0,3.3,0,5c-1.6,0-3.1,0-4.8,0c0,3.3,0,6.3,0,9.5c-1.6,0-3,0-4.5,0c0,6.4,0,12.5,0.1,19c1.6,0,3,0,4.7,0c0,3.4,0,6.6,0,9.9
				c1.6,0,3,0,4.7,0c0,1.6,0,3.1,0,4.5c9.1,0,18,0,27.1-0.1c0-1.6,0-3,0-4.6c1.6,0,3.1,0,4.7,0C212.5,170.1,212.5,166.9,212.5,163.5
				z"/>
			<path d="M103.3,149.7c0-4.6,0-9.3,0-14.2c-1.6,0-3,0-4.6,0c0-1.8,0-3.3,0-5.1c1.4,0,2.9,0,4.5,0c0-1.6,0-3,0-4.6c3,0,5.9,0,9,0
				c0,3.1,0,6.3,0,9.6c1.5,0,2.8,0,4.3,0c0,1.7,0,3.1,0,4.7c1.6,0,3.1,0,4.7,0c0-1.4,0-2.9,0-4.5c1.7,0,3.1,0,4.8,0
				c0-3.4,0-6.5,0-9.8c3,0,5.9,0,9,0c0,1.4,0,2.8,0,4.5c1.5,0,2.8,0,4.2,0c0,1.8,0,3.3,0,5.1c-1.3,0-2.6,0-4.2,0c0,3.4,0,6.5,0,9.6
				l0.1-0.1c-9.2,0-18.3,0.1-27.6,0.1c0,1.8,0,3.3,0,4.8l0.1-0.1C106.1,149.6,104.7,149.6,103.3,149.7L103.3,149.7z"/>
			<path d="M135,168.5c0,4.8,0,9.6,0,14.5c-1.5,0-2.9,0-4.6,0c0-1.4,0-2.9,0-4.5c-7.7,0-15.2,0-22.9,0.1c0,1.5,0,2.9,0,4.5
				c-3.1,0-5.9,0-8.9,0c0-1.4,0-2.8,0-4.5c1.4,0,2.9,0,4.6,0c0-1.8,0-3.3,0-4.9l-0.1,0.1c7.6,0,15.1,0,22.9-0.1c0-1.8,0-3.4,0-5.2
				C129.3,168.5,132.2,168.5,135,168.5L135,168.5z"/>
			<path d="M135,144.9c1.4,0,2.7,0,4.3,0c0,1.6,0,3,0,4.7c1.6,0,3,0,4.6,0c0,3.2,0,6.2,0,9.4c-1.4,0-2.8,0-4.5,0c0,3.2,0,6.2,0,9.5
				c-1.6,0-3,0-4.4,0l0.1,0.1C135.1,160.6,135.1,152.7,135,144.9L135,144.9z"/>
			<path class="st0" d="M212.5,163.5c0,3.4,0,6.6,0,9.9c-1.6,0-3.1,0-4.7,0c0,1.6,0,3,0,4.6c-9.1,0-18,0-27.1,0.1c0-1.4,0-2.9,0-4.5
				c-1.6,0-3,0-4.7,0c0-3.3,0-6.5,0-9.9c-1.7,0-3.1,0-4.7,0c0-6.4,0-12.6-0.1-19c1.5,0,2.9,0,4.5,0c0-3.2,0-6.2,0-9.5
				c1.7,0,3.1,0,4.8,0c0-1.8,0-3.3,0-5c9.1,0,18,0,27.1-0.1c0,1.5,0,3.1,0,4.9c1.6,0,3,0,4.7,0c0,3.2,0,6.2,0,9.5c1.5,0,2.9,0,4.3,0
				c0,6.4,0,12.6,0.1,19C215.3,163.5,214.1,163.5,212.5,163.5z M207.5,168.2c0-9.4-0.1-18.7-0.1-28.1c-9,0-17.8,0-26.7,0.1
				c0,9.4,0.1,18.8,0.1,28.1C189.8,168.2,198.5,168.2,207.5,168.2z"/>
			<path class="st0" d="M135.1,144.8c0,7.9,0,15.8,0.1,23.7c-2.9,0-5.8,0-9,0c0,1.7,0,3.3,0,5.2c-7.8,0-15.3,0-22.9,0.1
				c0-1.6,0-3.3,0-5.1c1.4,0,2.7,0,4.2,0c0-3.2,0-6.2,0-9.4c-1.3,0-2.6,0-4.2,0c0-3.4,0-6.5,0-9.6c1.4,0,2.9,0,4.4,0
				c0,1.5,0,3.1,0,4.6c1.7,0,3.1,0,4.5,0c0-1.6,0-3,0-4.6c-1.6,0-3.1,0-4.6,0c0-1.5,0-3,0-4.8C116.7,144.9,125.9,144.9,135.1,144.8z
				 M126,154.4c-3.1,0-6.2,0-9.4,0c0,1.6,0,3,0,4.5c3.1,0,6.1,0,9.3,0C126,157.3,126,155.8,126,154.4c1.3-0.1,2.7-0.1,4.1-0.1
				c0-1.7,0-3.1,0-4.5c-1.4,0-2.7,0-4.1,0C126,151.4,126,152.9,126,154.4z"/>
			<path d="M207.5,168.2c-9,0-17.8,0-26.7,0.1c0-9.4-0.1-18.7-0.1-28.1c8.9,0,17.7,0,26.7-0.1C207.5,149.5,207.5,158.8,207.5,168.2z
				 M202.9,163.5c0-6.4,0-12.6-0.1-18.8c-6,0-11.9,0-17.8,0c0,6.3,0,12.5,0.1,18.8C191,163.6,196.9,163.6,202.9,163.5z"/>
			<path d="M126,154.3c0,1.5,0,3,0,4.6c-3.1,0-6.1,0-9.3,0c0-1.5,0-2.9,0-4.5C119.8,154.4,122.9,154.4,126,154.3L126,154.3z"/>
			<path d="M107.5,149.7c1.5,0,3,0,4.6,0c0,1.6,0,3,0,4.6c-1.5,0-2.9,0-4.5,0C107.5,152.7,107.5,151.2,107.5,149.7
				C107.5,149.6,107.5,149.7,107.5,149.7z"/>
			<path d="M126,154.4c0-1.5,0-3,0-4.6c1.4,0,2.7,0,4.2,0c0,1.5,0,2.9,0,4.5C128.8,154.3,127.4,154.3,126,154.4
				C126,154.3,126,154.4,126,154.4z"/>
			<path class="st0" d="M202.9,163.5c-6,0-11.8,0-17.8,0c0-6.2,0-12.4-0.1-18.8c5.9,0,11.8,0,17.8,0
				C202.8,150.9,202.9,157.1,202.9,163.5z M189.8,149.5c0,3.2,0,6.2,0,9.1c3,0,5.9,0,8.7,0c0-3.1,0-6.1,0-9.1
				C195.5,149.5,192.7,149.5,189.8,149.5z"/>
			<path d="M189.8,149.5c3,0,5.8,0,8.7,0c0,3,0,6,0,9.1c-2.8,0-5.7,0-8.7,0C189.8,155.7,189.8,152.8,189.8,149.5z"/>
		</g>
	</g>
</g>
<g id="Ebene_12" class="st2">
	<g class="st3">
		<path d="M134,235.7c0-1.3,0-2.7,0-4.3c13.5,0,26.8-0.1,40.4-0.1c0-1.6,0-3,0-4.7c1.5,0,2.8,0,4.2,0c0-1.7,0-3.1,0-4.7
			c1.6,0,3.1,0,4.7,0c0.1-1.6,0.2-2.9,0.2-4.3c1.4-0.1,2.6-0.1,4.1-0.2c0-3.1,0-6.1,0-9.3c1.6,0,3,0,4.7,0c0,1.5,0,2.9,0,4.5
			c1.6,0,2.9,0,4.4,0c0-1.5,0-2.9,0-4.5c1.6,0,3,0,4.6,0c0,1.4,0,2.8,0,4.4c3.1,0,6,0,9.1,0c0.1-1.5,0.1-2.9,0.2-4.5
			c3,0,5.8,0,8.7,0c0,1.5,0,2.8,0,4.5c-1.4,0-2.9,0-4.5,0c0,1.7,0,3,0,4.7c-3,0-5.9,0-9,0c0,1.6,0,2.9,0,4.4c2.8,0,5.7,0,8.7,0
			c0,4.6,0,9.1,0,13.7c-5.8,0-11.6,0-17.7,0c0,3.2,0,6.2,0,9.5c-1.6,0-2.9,0-4.3,0c0,1.5,0,2.9,0,4.3c5.9,0,11.7,0,17.8,0
			c0,1.6,0,3.1,0,4.7c1.6,0.1,2.9,0.2,4.3,0.2c0,3,0,5.8,0,8.7c-1.3,0-2.5,0-4,0c0-1.3,0-2.6,0-4c-6.2,0-12.1,0-18.1,0
			c0,1.4,0,2.7,0,4.2c4.3,0,8.6,0,13.1,0c0,1.6,0,3.1,0,4.7c1.7,0,3.1,0,4.6,0c0,1.6,0,3.1,0,4.7c-2.8,0-5.6,0-8.7,0
			c0-1.5,0-2.9,0-4.5c-4.7,0-9.1,0-13.8,0c0-1.6,0-3.1,0-4.7c-1.6-0.1-2.9-0.2-4.3-0.2c-0.1-1.4-0.1-2.6-0.2-4
			c-16.4,0-32.8,0.1-49.4,0.2c0,2.9,0,5.8,0,8.8c-7.7,0-15.1,0-22.8,0.1c0,1.6,0,3.1,0,4.7c-1.5,0-2.7,0-4.2,0c0,1.5,0,2.8,0,4.2
			c-1.6,0-3,0-4.6,0c0-2.8,0-5.7,0-8.7c1.4,0,2.8,0,4.5,0c0-1.6,0-3.1,0-4.8c6.1,0,12,0,18.1,0c0-1.5,0-2.8,0-4.2
			c-7.4,0-14.9,0-22.6,0.1c0,1.2,0,2.5,0,4c-1.5,0-2.7,0-4.1,0c0-2.8,0-5.7,0-8.7c2.8,0,5.6,0,8.7,0c0-1.6,0-3.1,0-4.8
			c4.6,0,8.9,0,13.4,0c0-1.5,0-2.7,0-4.3c1.7,0,3.3,0,4.8,0l-0.1-0.1c0,3,0,6,0,9c21.1-0.1,41.9-0.1,62.9-0.2c0-4.6,0-9.1,0-13.7
			c1.7,0,3.1,0,4.7,0c0-3,0-5.9,0-9.1c6.1,0,12,0,17.9,0c0-1.7,0-3.2,0-4.8c-3,0-5.8,0-8.9,0c0-3.1,0-5.9,0-8.8c-3.2,0-6,0-9.1,0
			c0,1.5,0,2.8,0,4.2l0.1-0.1c-1.5,0-3.1,0-4.9,0c0,1.8,0,3.3,0,4.9c-1.5,0-2.7,0-4.2,0c0,1.6,0,3.1,0,4.8c-1.7,0-3.2,0-4.8,0
			c0,1.5,0,2.8,0,4.2c-15,0-29.8,0.1-44.7,0.1L134,235.7z"/>
		<path d="M125,245.2c0-1.5,0-3,0-4.8c-7.6,0-15.1,0-22.7,0.1c0-1.6,0-3,0-4.7c1.4,0,2.9,0,4.5,0c0-1.6,0-2.9,0-4.4
			c-1.4,0-2.8,0-4.4,0c0-1.6,0-3.1,0-4.6c4.4,0,8.8,0,13.5,0c0,1.5,0,2.9,0,4.6c3.1,0,5.9,0,9,0c0.1,1.5,0.1,2.8,0.2,4.4
			c3.1,0,6,0,9,0l-0.1-0.1c0,1.5,0,3.1,0,4.8c-1.7,0-3.1,0-4.8,0c0,1.6,0,3.1,0,4.7C127.6,245.2,126.3,245.2,125,245.2L125,245.2z"
			/>
		<path class="st0" d="M124.9,245.2c1.3,0,2.7,0,4.3,0c0-1.6,0-3.1,0-4.7c1.6,0,3.1,0,4.8,0c0-1.7,0-3.3,0-4.8
			c14.8,0,29.7-0.1,44.7-0.1c0-1.4,0-2.7,0-4.2c1.6,0,3,0,4.8,0c0-1.7,0-3.2,0-4.8c1.5,0,2.7,0,4.2,0c0-1.6,0-3,0-4.9
			c1.8,0,3.3,0,4.9,0c0,1.5,0,3.1,0,4.7c1.6,0,2.8,0,4.3,0c0-0.8,0-1.5,0-2.2c0-0.8-0.1-1.5-0.1-2.4c-1.5,0-2.9,0-4.2,0
			c0-1.3,0-2.7,0-4.2c3,0,5.9,0,9.1,0c0,2.9,0,5.8,0,8.8c3.1,0,5.9,0,8.9,0c0,1.6,0,3.1,0,4.8c-5.8,0-11.7,0-17.9,0c0,3.1,0,6,0,9.1
			c-1.7,0-3,0-4.7,0c0,4.6,0,9.1,0,13.7c-21,0.1-41.8,0.1-62.9,0.2C124.9,251.1,124.9,248.1,124.9,245.2z"/>
		<path d="M192.3,221.7c1.3,0,2.7,0,4.2,0c0,0.9,0.1,1.6,0.1,2.4c0,0.7,0,1.4,0,2.2c-1.5,0-2.7,0-4.3,0
			C192.4,224.7,192.4,223.2,192.3,221.7C192.4,221.6,192.3,221.7,192.3,221.7z"/>
	</g>
</g>
<g id="Ebene_13" class="st2">
	<g class="st3">
		<path d="M139,309.8c-1.3,0.1-2.4,0.1-3.7,0.2c0,5.6,0,11.1,0,16.7c1.2,0,2.4,0,3.8,0c0,1.4,0,2.6,0,4c4.1,0,8,0,12,0
			c0,8.5,0,16.7,0.1,25.1c-1.3,0.1-2.5,0.1-3.8,0.2c0,1.4,0,2.7,0,4.2c-1.4,0-2.6,0-3.9,0c0-1.3,0-2.7,0-4.2c-1.4,0-2.6,0-4,0
			c0-2.9,0-5.6,0-8.4c-1.4,0-2.6,0-4,0c0,2.7,0,5.3,0,8.3c-1.5,0-2.7,0-4,0c0,1.5,0,2.8,0,4.3c-1.4,0-2.6,0-3.9,0c0-1.3,0-2.7,0-4.2
			c-1.4,0-2.6,0-4,0c0-2.9,0-5.6,0-8.5c-1.4,0-2.6,0-3.9,0c0-1.4,0-2.6,0-3.9c-1.5,0-2.7,0-4.1,0c0,2.7,0,5.3,0,8.2
			c-1.4,0-2.6,0-3.9,0c-0.1,1.4-0.1,2.5-0.2,3.9c-1.2,0-2.4,0-3.8,0c-0.1-1.2-0.1-2.3-0.2-3.7c-1.2,0-2.4,0-3.9,0c0-2.9,0-5.6,0-8.5
			c-1.4,0-2.6,0-3.9,0c0-2.8,0-5.5,0-8.3c1.2-0.1,2.4-0.1,3.8-0.2c0-1.4,0-2.7,0-4.2c1.4-0.1,2.6-0.2,4-0.2c0-5.5,0-11-0.1-16.7
			c1.4,0,2.6,0,3.9,0c0-4.2,0-8.2,0-12.3c8,0,15.9,0,23.9-0.1c0.1,1.2,0.1,2.3,0.2,3.7c1.2,0,2.4,0,3.8,0
			C139,307,139,308.3,139,309.8z M111.1,318.5c0,5.7,0,11.2,0.1,16.8c-1.4,0-2.6,0-3.8,0c0,1.4,0,2.6,0,4c5.3,0,10.5,0,15.9,0
			c0,1.5,0,2.8,0,4.3c8,0,15.9,0,23.8-0.1c0-2.8,0-5.5,0-8.4c-4,0-7.9,0-12,0c0-1.6,0-3,0-4.5c-2.7,0-5.2,0-7.9,0
			c0-7,0-13.8-0.1-20.6c-4.1,0-8,0-12,0c0,2.8,0,5.4,0,8.2C113.8,318.4,112.7,318.4,111.1,318.5z M127.4,351.9c1.5,0,2.6,0,3.8,0
			c0-1.5,0-2.9,0-4.2c-1.4,0-2.6,0-3.8,0C127.4,349.2,127.4,350.5,127.4,351.9z M143.4,351.9c1.2,0,2.5,0,3.8,0c0-1.4,0-2.7,0-4.2
			c-1.3,0-2.5,0-3.8,0C143.4,349.1,143.4,350.4,143.4,351.9z M107.5,343.8c0,1.5,0,2.7,0,3.8c1.4,0,2.6,0,3.7,0c0-1.4,0-2.6,0-3.8
			C109.8,343.8,108.7,343.8,107.5,343.8z"/>
		<path d="M166.9,335.1c3.9,0,7.7,0,11.7,0c0-1.4,0-2.8,0-4.3c1.5-0.1,2.7-0.2,4-0.2c0-5.6,0-11,0-16.7c-1.2,0-2.4,0-3.8,0
			c0-1.4,0-2.5,0-3.9c1.2,0,2.4,0,3.7,0c0.1-1.6,0.1-3,0.2-4.4c7.9,0,15.7,0,23.8-0.1c0,4.2,0,8.4,0,12.7c1.4,0,2.5,0,4,0
			c0,5.7,0,11.2,0,16.8c1.4,0,2.5,0,4,0c0,1.4,0,2.6,0,4c1.4,0.1,2.7,0.1,4,0.2c0,2.7,0,5.4,0,8.2c-1.2,0-2.4,0-3.8,0
			c0,2.9,0,5.5,0,8.4c-1.4,0-2.6,0-4,0c0,1.5,0,2.8,0,4.3c-1.4,0-2.6,0-3.9,0c0-1.3,0-2.6,0-4.1c-1.4,0-2.6,0-4,0c0-2.9,0-5.6,0-8.4
			c-1.5,0-2.7,0-4,0c0,1.4,0,2.7,0,4.2c-1.4,0-2.6,0-4,0c0,2.9,0,5.5,0,8.4c-1.4,0-2.6,0-4,0c-0.1,1.5-0.1,2.7-0.2,4
			c-1.3,0-2.4,0-3.8,0c0-1.2,0-2.4,0-3.8c-1.4,0-2.5,0-4,0c0-2.8,0-5.5,0-8.3c-1.5,0-2.7,0-4,0c0,2.7,0,5.3,0,8.2
			c-1.4,0-2.6,0-3.9,0c-0.1,1.4-0.1,2.7-0.2,4c-1.3,0-2.4,0-3.8,0c0-1.2,0-2.4,0-3.8c-1.4-0.1-2.5-0.1-3.9-0.2
			C167,352,166.9,343.7,166.9,335.1z M190.6,335.1c-2.8,0-5.3,0-8,0c0,1.4,0,2.6,0,4c-4,0-7.9,0-11.8,0c0,2.9,0,5.6,0,8.3
			c8,0,15.9,0,24-0.1c0-1.4,0-2.6,0-3.9c5.4,0,10.5,0,15.7,0c0-1.5,0-2.9,0-4.5c-1.3,0-2.5,0-3.9,0c0-5.7,0-11.1,0-16.7
			c-1.4-0.1-2.6-0.1-4-0.2c0-2.9,0-5.5,0-8.2c-4.1,0-8,0-11.9,0C190.6,320.9,190.6,327.8,190.6,335.1z M210.6,347.5
			c-1.4,0-2.6,0-3.8,0c0,1.5,0,2.9,0,4.2c1.4,0,2.6,0,3.8,0C210.6,350.2,210.6,348.9,210.6,347.5z M190.6,352c-1.4,0-2.6,0-3.8,0
			c0,1.3,0,2.5,0,3.8c1.3,0,2.5,0,3.8,0C190.6,354.5,190.6,353.3,190.6,352z M170.9,352c0,1.3,0,2.6,0,3.7c1.4,0,2.6,0,3.7,0
			c0-1.3,0-2.5,0-3.7C173.4,352,172.2,352,170.9,352z"/>
		<path class="st0" d="M111.1,318.5c1.5-0.1,2.7-0.1,4-0.2c0-2.8,0-5.4,0-8.2c4,0,7.9,0,12,0c0,6.8,0,13.6,0.1,20.6
			c2.7,0,5.2,0,7.9,0c0,1.5,0,2.9,0,4.5c4.1,0,8,0,11.9,0c0,2.9,0,5.6,0,8.4c-7.9,0-15.8,0-23.8,0.1c0-1.4,0-2.7,0-4.3
			c-5.4,0-10.6,0-15.9,0c0-1.5,0-2.7,0-4c1.2,0,2.4,0,3.8,0C111.2,329.7,111.2,324.2,111.1,318.5z"/>
		<path class="st0" d="M127.4,351.9c0-1.4,0-2.7,0-4.2c1.2,0,2.4,0,3.8,0c0,1.3,0,2.6,0,4.2C130,351.9,128.8,351.9,127.4,351.9z"/>
		<path class="st0" d="M143.4,351.9c0-1.5,0-2.8,0-4.2c1.3,0,2.5,0,3.8,0c0,1.5,0,2.8,0,4.2C145.8,351.9,144.6,351.9,143.4,351.9z"
			/>
		<path class="st0" d="M107.5,343.8c1.2,0,2.3,0,3.7,0c0,1.2,0,2.4,0,3.8c-1.1,0-2.3,0-3.7,0C107.5,346.5,107.5,345.3,107.5,343.8z"
			/>
		<path class="st0" d="M190.6,335.1c0-7.3,0-14.1-0.1-21.2c4,0,7.8,0,11.9,0c0,2.6,0,5.3,0,8.2c1.5,0.1,2.7,0.1,4,0.2
			c0,5.5,0,11,0,16.7c1.4,0,2.6,0,3.9,0c0,1.6,0,3,0,4.5c-5.2,0-10.3,0-15.7,0c0,1.4,0,2.6,0,3.9c-8.1,0-16,0-24,0.1
			c0-2.7,0-5.4,0-8.3c3.9,0,7.8,0,11.8,0c0-1.4,0-2.5,0-4C185.3,335.1,187.9,335.1,190.6,335.1z"/>
		<path class="st0" d="M210.6,347.5c0,1.4,0,2.7,0,4.2c-1.2,0-2.4,0-3.8,0c0-1.3,0-2.7,0-4.2C207.9,347.5,209.1,347.5,210.6,347.5z"
			/>
		<path class="st0" d="M190.6,352c0,1.3,0,2.5,0,3.8c-1.3,0-2.5,0-3.8,0c0-1.2,0-2.4,0-3.8C188.1,352,189.3,352,190.6,352z"/>
		<path class="st0" d="M170.9,352c1.2,0,2.4,0,3.7,0c0,1.2,0,2.4,0,3.7c-1.1,0-2.4,0-3.7,0C170.9,354.6,170.9,353.4,170.9,352z"/>
	</g>
</g>
</svg>
